  0
SECTION
  2
HEADER
  9
$ACADVER
  1
AC1018
  9
$ACADMAINTVER
 70
0
  9
$DWGCODEPAGE
  3
ANSI_1252
  9
$LASTSAVEDBY
  1
ezdxf
  9
$INSBASE
 10
0.0
 20
0.0
 30
0.0
  9
$EXTMIN
 10
-100
 20
-100
 30
-100
  9
$EXTMAX
 10
100
 20
100
 30
100
  9
$LIMMIN
 10
0.0
 20
0.0
  9
$LIMMAX
 10
420.0
 20
297.0
  9
$ORTHOMODE
 70
0
  9
$REGENMODE
 70
1
  9
$FILLMODE
 70
1
  9
$QTEXTMODE
 70
0
  9
$MIRRTEXT
 70
1
  9
$LTSCALE
 40
1.0
  9
$ATTMODE
 70
1
  9
$TEXTSIZE
 40
2.5
  9
$TRACEWID
 40
1.0
  9
$TEXTSTYLE
  7
Standard
  9
$CLAYER
  8
0
  9
$CELTYPE
  6
ByLayer
  9
$CECOLOR
 62
256
  9
$CELTSCALE
 40
1.0
  9
$DISPSILH
 70
0
  9
$DIMSCALE
 40
1.0
  9
$DIMASZ
 40
2.5
  9
$DIMEXO
 40
0.625
  9
$DIMDLI
 40
3.75
  9
$DIMRND
 40
0.0
  9
$DIMDLE
 40
0.0
  9
$DIMEXE
 40
1.25
  9
$DIMTP
 40
0.0
  9
$DIMTM
 40
0.0
  9
$DIMTXT
 40
2.5
  9
$DIMCEN
 40
2.5
  9
$DIMTSZ
 40
0.0
  9
$DIMTOL
 70
0
  9
$DIMLIM
 70
0
  9
$DIMTIH
 70
0
  9
$DIMTOH
 70
0
  9
$DIMSE1
 70
0
  9
$DIMSE2
 70
0
  9
$DIMTAD
 70
1
  9
$DIMZIN
 70
8
  9
$DIMBLK
  1

  9
$DIMASO
 70
1
  9
$DIMSHO
 70
1
  9
$DIMPOST
  1

  9
$DIMAPOST
  1

  9
$DIMALT
 70
0
  9
$DIMALTD
 70
3
  9
$DIMALTF
 40
0.03937007874
  9
$DIMLFAC
 40
1.0
  9
$DIMTOFL
 70
1
  9
$DIMTVP
 40
0.0
  9
$DIMTIX
 70
0
  9
$DIMSOXD
 70
0
  9
$DIMSAH
 70
0
  9
$DIMBLK1
  1

  9
$DIMBLK2
  1

  9
$DIMSTYLE
  2
ISO-25
  9
$DIMCLRD
 70
0
  9
$DIMCLRE
 70
0
  9
$DIMCLRT
 70
0
  9
$DIMTFAC
 40
1.0
  9
$DIMGAP
 40
0.625
  9
$DIMJUST
 70
0
  9
$DIMSD1
 70
0
  9
$DIMSD2
 70
0
  9
$DIMTOLJ
 70
0
  9
$DIMTZIN
 70
8
  9
$DIMALTZ
 70
0
  9
$DIMALTTZ
 70
0
  9
$DIMUPT
 70
0
  9
$DIMDEC
 70
2
  9
$DIMTDEC
 70
2
  9
$DIMALTU
 70
2
  9
$DIMALTTD
 70
3
  9
$DIMTXSTY
  7
Standard
  9
$DIMAUNIT
 70
0
  9
$DIMADEC
 70
0
  9
$DIMALTRND
 40
0.0
  9
$DIMAZIN
 70
0
  9
$DIMDSEP
 70
44
  9
$DIMATFIT
 70
3
  9
$DIMFRAC
 70
0
  9
$DIMLDRBLK
  1

  9
$DIMLUNIT
 70
2
  9
$DIMLWD
 70
-2
  9
$DIMLWE
 70
-2
  9
$DIMTMOVE
 70
0
  9
$LUNITS
 70
2
  9
$LUPREC
 70
4
  9
$SKETCHINC
 40
1.0
  9
$FILLETRAD
 40
10.0
  9
$AUNITS
 70
0
  9
$AUPREC
 70
2
  9
$MENU
  1
.
  9
$ELEVATION
 40
0.0
  9
$PELEVATION
 40
0.0
  9
$THICKNESS
 40
0.0
  9
$LIMCHECK
 70
0
  9
$CHAMFERA
 40
0.0
  9
$CHAMFERB
 40
0.0
  9
$CHAMFERC
 40
0.0
  9
$CHAMFERD
 40
0.0
  9
$SKPOLY
 70
0
  9
$TDCREATE
 40
2458957.6116087963
  9
$TDUCREATE
 40
2458532.153996898
  9
$TDUPDATE
 40
2458957.6116087963
  9
$TDUUPDATE
 40
2458532.1544311
  9
$TDINDWG
 40
0.0
  9
$TDUSRTIMER
 40
0.0
  9
$USRTIMER
 70
1
  9
$ANGBASE
 50
0.0
  9
$ANGDIR
 70
0
  9
$PDMODE
 70
0
  9
$PDSIZE
 40
0.0
  9
$PLINEWID
 40
0.0
  9
$SPLFRAME
 70
0
  9
$SPLINETYPE
 70
6
  9
$SPLINESEGS
 70
8
  9
$HANDSEED
  5
222
  9
$SURFTAB1
 70
6
  9
$SURFTAB2
 70
6
  9
$SURFTYPE
 70
6
  9
$SURFU
 70
6
  9
$SURFV
 70
6
  9
$UCSBASE
  2

  9
$UCSNAME
  2

  9
$UCSORG
 10
0.0
 20
0.0
 30
0.0
  9
$UCSXDIR
 10
1.0
 20
0.0
 30
0.0
  9
$UCSYDIR
 10
0.0
 20
1.0
 30
0.0
  9
$UCSORTHOREF
  2

  9
$UCSORTHOVIEW
 70
0
  9
$UCSORGTOP
 10
0.0
 20
0.0
 30
0.0
  9
$UCSORGBOTTOM
 10
0.0
 20
0.0
 30
0.0
  9
$UCSORGLEFT
 10
0.0
 20
0.0
 30
0.0
  9
$UCSORGRIGHT
 10
0.0
 20
0.0
 30
0.0
  9
$UCSORGFRONT
 10
0.0
 20
0.0
 30
0.0
  9
$UCSORGBACK
 10
0.0
 20
0.0
 30
0.0
  9
$PUCSBASE
  2

  9
$PUCSNAME
  2

  9
$PUCSORG
 10
0.0
 20
0.0
 30
0.0
  9
$PUCSXDIR
 10
1.0
 20
0.0
 30
0.0
  9
$PUCSYDIR
 10
0.0
 20
1.0
 30
0.0
  9
$PUCSORTHOREF
  2

  9
$PUCSORTHOVIEW
 70
0
  9
$PUCSORGTOP
 10
0.0
 20
0.0
 30
0.0
  9
$PUCSORGBOTTOM
 10
0.0
 20
0.0
 30
0.0
  9
$PUCSORGLEFT
 10
0.0
 20
0.0
 30
0.0
  9
$PUCSORGRIGHT
 10
0.0
 20
0.0
 30
0.0
  9
$PUCSORGFRONT
 10
0.0
 20
0.0
 30
0.0
  9
$PUCSORGBACK
 10
0.0
 20
0.0
 30
0.0
  9
$USERI1
 70
0
  9
$USERI2
 70
0
  9
$USERI3
 70
0
  9
$USERI4
 70
0
  9
$USERI5
 70
0
  9
$USERR1
 40
0.0
  9
$USERR2
 40
0.0
  9
$USERR3
 40
0.0
  9
$USERR4
 40
0.0
  9
$USERR5
 40
0.0
  9
$WORLDVIEW
 70
1
  9
$SHADEDGE
 70
3
  9
$SHADEDIF
 70
70
  9
$TILEMODE
 70
1
  9
$MAXACTVP
 70
64
  9
$PINSBASE
 10
0.0
 20
0.0
 30
0.0
  9
$PLIMCHECK
 70
0
  9
$PEXTMIN
 10
1e+20
 20
1e+20
 30
1e+20
  9
$PEXTMAX
 10
-1e+20
 20
-1e+20
 30
-1e+20
  9
$PLIMMIN
 10
0.0
 20
0.0
  9
$PLIMMAX
 10
420.0
 20
297.0
  9
$UNITMODE
 70
0
  9
$VISRETAIN
 70
1
  9
$PLINEGEN
 70
0
  9
$PSLTSCALE
 70
1
  9
$TREEDEPTH
 70
3020
  9
$CMLSTYLE
  2
Standard
  9
$CMLJUST
 70
0
  9
$CMLSCALE
 40
20.0
  9
$PROXYGRAPHICS
 70
1
  9
$MEASUREMENT
 70
1
  9
$CELWEIGHT
370
-1
  9
$ENDCAPS
280
0
  9
$JOINSTYLE
280
0
  9
$LWDISPLAY
290
0
  9
$INSUNITS
 70
6
  9
$HYPERLINKBASE
  1

  9
$STYLESHEET
  1

  9
$XEDIT
290
1
  9
$CEPSNTYPE
380
0
  9
$PSTYLEMODE
290
1
  9
$FINGERPRINTGUID
  2
A71824AE-80A8-11EA-94D7-8C89A57128BD
  9
$VERSIONGUID
  2
A73FC1DA-80A8-11EA-9DFC-8C89A57128BD
  9
$EXTNAMES
290
1
  9
$PSVPSCALE
 40
0.0
  9
$OLESTARTUP
290
0
  9
$SORTENTS
280
127
  9
$INDEXCTL
280
0
  9
$HIDETEXT
280
1
  9
$XCLIPFRAME
280
2
  9
$HALOGAP
280
0
  9
$OBSCOLOR
 70
257
  9
$OBSLTYPE
280
0
  9
$INTERSECTIONDISPLAY
280
0
  9
$INTERSECTIONCOLOR
 70
257
  9
$DIMASSOC
280
2
  9
$PROJECTNAME
  1

  0
ENDSEC
  0
SECTION
  2
CLASSES
  0
CLASS
  1
ACDBDICTIONARYWDFLT
  2
AcDbDictionaryWithDefault
  3
ObjectDBX Classes
 90
0
 91
0
280
0
281
0
  0
CLASS
  1
SUN
  2
AcDbSun
  3
SCENEOE
 90
1153
 91
0
280
0
281
0
  0
CLASS
  1
VISUALSTYLE
  2
AcDbVisualStyle
  3
ObjectDBX Classes
 90
4095
 91
0
280
0
281
0
  0
CLASS
  1
MATERIAL
  2
AcDbMaterial
  3
ObjectDBX Classes
 90
1153
 91
0
280
0
281
0
  0
CLASS
  1
SCALE
  2
AcDbScale
  3
ObjectDBX Classes
 90
1153
 91
0
280
0
281
0
  0
CLASS
  1
TABLESTYLE
  2
AcDbTableStyle
  3
ObjectDBX Classes
 90
4095
 91
0
280
0
281
0
  0
CLASS
  1
MLEADERSTYLE
  2
AcDbMLeaderStyle
  3
ACDB_MLEADERSTYLE_CLASS
 90
4095
 91
0
280
0
281
0
  0
CLASS
  1
DICTIONARYVAR
  2
AcDbDictionaryVar
  3
ObjectDBX Classes
 90
0
 91
0
280
0
281
0
  0
CLASS
  1
CELLSTYLEMAP
  2
AcDbCellStyleMap
  3
ObjectDBX Classes
 90
1152
 91
0
280
0
281
0
  0
CLASS
  1
MENTALRAYRENDERSETTINGS
  2
AcDbMentalRayRenderSettings
  3
SCENEOE
 90
1024
 91
0
280
0
281
0
  0
CLASS
  1
ACDBDETAILVIEWSTYLE
  2
AcDbDetailViewStyle
  3
ObjectDBX Classes
 90
1025
 91
0
280
0
281
0
  0
CLASS
  1
ACDBSECTIONVIEWSTYLE
  2
AcDbSectionViewStyle
  3
ObjectDBX Classes
 90
1025
 91
0
280
0
281
0
  0
CLASS
  1
RASTERVARIABLES
  2
AcDbRasterVariables
  3
ISM
 90
0
 91
0
280
0
281
0
  0
CLASS
  1
LAYOUT
  2
AcDbLayout
  3
ObjectDBX Classes
 90
0
 91
0
280
0
281
0
  0
CLASS
  1
ACDBPLACEHOLDER
  2
AcDbPlaceHolder
  3
ObjectDBX Classes
 90
0
 91
0
280
0
281
0
  0
ENDSEC
  0
SECTION
  2
TABLES
  0
TABLE
  2
VPORT
  5
8
330
0
100
AcDbSymbolTable
 70
1
  0
VPORT
  5
23
330
8
100
AcDbSymbolTableRecord
100
AcDbViewportTableRecord
  2
*Active
 70
0
 10
0.0
 20
0.0
 11
1.0
 21
1.0
 12
70.0
 22
50.0
 13
0.0
 23
0.0
 14
0.5
 24
0.5
 15
0.5
 25
0.5
 16
0.0
 26
0.0
 36
1.0
 17
0.0
 27
0.0
 37
0.0
 40
1.0
 41
1.34
 42
50.0
 43
0.0
 44
0.0
 50
0.0
 51
0.0
 71
0
 72
1000
 73
1
 74
3
 75
0
 76
0
 77
0
 78
0
281
0
 65
0
146
0.0
  0
ENDTAB
  0
TABLE
  2
LTYPE
  5
2
330
0
100
AcDbSymbolTable
 70
3
  0
LTYPE
  5
24
330
2
100
AcDbSymbolTableRecord
100
AcDbLinetypeTableRecord
  2
ByBlock
 70
0
  3

 72
65
 73
0
 40
0.0
  0
LTYPE
  5
25
330
2
100
AcDbSymbolTableRecord
100
AcDbLinetypeTableRecord
  2
ByLayer
 70
0
  3

 72
65
 73
0
 40
0.0
  0
LTYPE
  5
26
330
2
100
AcDbSymbolTableRecord
100
AcDbLinetypeTableRecord
  2
Continuous
 70
0
  3

 72
65
 73
0
 40
0.0
  0
ENDTAB
  0
TABLE
  2
LAYER
  5
1
330
0
100
AcDbSymbolTable
 70
2
  0
LAYER
  5
27
330
1
100
AcDbSymbolTableRecord
100
AcDbLayerTableRecord
  2
0
 70
0
 62
7
  6
Continuous
370
-3
390
13
  0
LAYER
  5
28
330
1
100
AcDbSymbolTableRecord
100
AcDbLayerTableRecord
  2
Defpoints
 70
0
 62
7
  6
Continuous
290
0
370
-3
390
13
  0
ENDTAB
  0
TABLE
  2
STYLE
  5
5
330
0
100
AcDbSymbolTable
 70
1
  0
STYLE
  5
29
330
5
100
AcDbSymbolTableRecord
100
AcDbTextStyleTableRecord
  2
Standard
 70
0
 40
0.0
 41
1.0
 50
0.0
 71
0
 42
2.5
  3
txt
  4

  0
ENDTAB
  0
TABLE
  2
VIEW
  5
7
330
0
100
AcDbSymbolTable
 70
0
  0
ENDTAB
  0
TABLE
  2
UCS
  5
6
330
0
100
AcDbSymbolTable
 70
0
  0
ENDTAB
  0
TABLE
  2
APPID
  5
3
330
0
100
AcDbSymbolTable
 70
1
  0
APPID
  5
2A
330
3
100
AcDbSymbolTableRecord
100
AcDbRegAppTableRecord
  2
ACAD
 70
0
  0
ENDTAB
  0
TABLE
  2
DIMSTYLE
  5
4
330
0
100
AcDbSymbolTable
 70
1
100
AcDbDimStyleTable
  0
DIMSTYLE
105
2B
330
4
100
AcDbSymbolTableRecord
100
AcDbDimStyleTableRecord
  2
Standard
 70
0
  3

  4

 40
1.0
 41
2.5
 42
0.625
 43
3.75
 44
1.25
 45
0.0
 46
0.0
 47
0.0
 48
0.0
140
2.5
141
2.5
142
0.0
143
0.03937007874
144
1.0
145
0.0
146
1.0
147
0.625
148
0.0
 71
0
 72
0
 73
0
 74
0
 75
0
 76
0
 77
1
 78
8
 79
0
170
0
171
3
172
1
173
0
174
0
175
0
176
0
177
0
178
0
179
0
271
0
272
2
273
2
274
3
275
0
276
0
277
2
278
44
279
0
280
0
281
0
282
0
283
0
284
8
285
0
286
0
288
0
289
3
371
-2
372
-2
  0
ENDTAB
  0
TABLE
  2
BLOCK_RECORD
  5
9
330
0
100
AcDbSymbolTable
 70
2
  0
BLOCK_RECORD
  5
17
330
9
100
AcDbSymbolTableRecord
100
AcDbBlockTableRecord
  2
*Model_Space
340
1A
  0
BLOCK_RECORD
  5
1B
330
9
100
AcDbSymbolTableRecord
100
AcDbBlockTableRecord
  2
*Paper_Space
340
1E
  0
ENDTAB
  0
ENDSEC
  0
SECTION
  2
BLOCKS
  0
BLOCK
  5
18
330
17
100
AcDbEntity
  8
0
100
AcDbBlockBegin
  2
*Model_Space
 70
0
 10
0.0
 20
0.0
 30
0.0
  3
*Model_Space
  1

  0
ENDBLK
  5
19
330
17
100
AcDbEntity
  8
0
100
AcDbBlockEnd
  0
BLOCK
  5
1C
330
1B
100
AcDbEntity
  8
0
100
AcDbBlockBegin
  2
*Paper_Space
 70
0
 10
0.0
 20
0.0
 30
0.0
  3
*Paper_Space
  1

  0
ENDBLK
  5
1D
330
1B
100
AcDbEntity
  8
0
100
AcDbBlockEnd
  0
ENDSEC
  0
SECTION
  2
ENTITIES
  0
CIRCLE
  5
2D
330
17
100
AcDbEntity
  8
0
100
AcDbCircle
 10
0.0
 20
0.0
 30
0.0
 40
100.0
  0
LINE
  5
2E
330
17
100
AcDbEntity
  8
0
420
16773931
100
AcDbLine
 10
0.0
 20
100.0
 30
0.0
 11
0.0
 21
100.0
 31
0.0
  0
LINE
  5
2F
330
17
100
AcDbEntity
  8
0
420
16773675
100
AcDbLine
 10
1.2566039883352706
 20
99.99210442038161
 30
0.0
 11
2.51300954433377
 21
99.96841892833
 31
0.0
  0
LINE
  5
30
330
17
100
AcDbEntity
  8
0
420
16773164
100
AcDbLine
 10
2.5130095443337552
 20
99.96841892833
 30
0.0
 11
5.024431817976956
 21
99.87369566060174
 31
0.0
  0
LINE
  5
31
330
17
100
AcDbEntity
  8
0
420
16772909
100
AcDbLine
 10
3.7690182669934713
 20
99.92894726405892
 30
0.0
 11
7.532680552793303
 21
99.7158900260614
 31
0.0
  0
LINE
  5
32
330
17
100
AcDbEntity
  8
0
420
16772654
100
AcDbLine
 10
5.024431817976956
 20
99.87369566060174
 30
0.0
 11
10.036171485121494
 21
99.49510169813001
 31
0.0
  0
LINE
  5
33
330
17
100
AcDbEntity
  8
0
420
16772399
100
AcDbLine
 10
6.2790519529313515
 20
99.80267284282715
 30
0.0
 11
12.533323356430442
 21
99.21147013144778
 31
0.0
  0
LINE
  5
34
330
17
100
AcDbEntity
  8
0
420
16772144
100
AcDbLine
 10
7.532680552793273
 20
99.7158900260614
 30
0.0
 11
15.022558912075706
 21
98.86517447379141
 31
0.0
  0
LINE
  5
35
330
17
100
AcDbEntity
  8
0
420
16771889
100
AcDbLine
 10
8.785119655074338
 20
99.61336091431725
 30
0.0
 11
17.502305897527616
 21
98.45643345292055
 31
0.0
  0
LINE
  5
36
330
17
100
AcDbEntity
  8
0
420
16771378
100
AcDbLine
 10
10.036171485121494
 20
99.49510169813001
 30
0.0
 11
19.970998051440706
 21
97.98550523842468
 31
0.0
  0
LINE
  5
37
330
17
100
AcDbEntity
  8
0
420
16771123
100
AcDbLine
 10
11.28563848734818
 20
99.36113105200084
 30
0.0
 11
22.427076094938144
 21
97.4526872786577
 31
0.0
  0
LINE
  5
38
330
17
100
AcDbEntity
  8
0
420
16770868
100
AcDbLine
 10
12.53332335643043
 20
99.21147013144778
 30
0.0
 11
24.868988716485486
 21
96.85831611286312
 31
0.0
  0
LINE
  5
39
330
17
100
AcDbEntity
  8
0
420
16770613
100
AcDbLine
 10
13.77902906846382
 20
99.04614256966512
 30
0.0
 11
27.29519355173255
 21
96.20276715860858
 31
0.0
  0
LINE
  5
3A
330
17
100
AcDbEntity
  8
0
420
16770358
100
AcDbLine
 10
15.022558912075706
 20
98.86517447379141
 30
0.0
 11
29.704158157703493
 21
95.48645447466428
 31
0.0
  0
LINE
  5
3B
330
17
100
AcDbEntity
  8
0
420
16770102
100
AcDbLine
 10
16.263716519488376
 20
98.66859442078679
 30
0.0
 11
32.094360980720964
 21
94.7098304994744
 31
0.0
  0
LINE
  5
3C
330
17
100
AcDbEntity
  8
0
420
16769847
100
AcDbLine
 10
17.502305897527602
 20
98.45643345292055
 30
0.0
 11
34.46429231745171
 21
93.8733857653874
 31
0.0
  0
LINE
  5
3D
330
17
100
AcDbEntity
  8
0
420
16704056
100
AcDbLine
 10
18.738131458572475
 20
98.22872507286885
 30
0.0
 11
36.8124552684678
 21
92.97764858882515
 31
0.0
  0
LINE
  5
3E
330
17
100
AcDbEntity
  8
0
420
16769081
100
AcDbLine
 10
19.970998051440706
 20
97.98550523842468
 30
0.0
 11
39.137366683720224
 21
92.02318473658704
 31
0.0
  0
LINE
  5
3F
330
17
100
AcDbEntity
  8
0
420
16768826
100
AcDbLine
 10
21.200710992205472
 20
97.72681235681935
 30
0.0
 11
41.43755809932842
 21
91.01059706849956
 31
0.0
  0
LINE
  5
40
330
17
100
AcDbEntity
  8
0
420
16768571
100
AcDbLine
 10
22.427076094938116
 20
97.4526872786577
 30
0.0
 11
43.711576665093276
 21
89.94052515663711
 31
0.0
  0
LINE
  5
41
330
17
100
AcDbEntity
  8
0
420
16768316
100
AcDbLine
 10
23.649899702372483
 20
97.16317329146739
 30
0.0
 11
45.95798606214879
 21
88.81364488135445
 31
0.0
  0
LINE
  5
42
330
17
100
AcDbEntity
  8
0
420
16768061
100
AcDbLine
 10
24.868988716485486
 20
96.85831611286312
 30
0.0
 11
48.17536741017151
 21
87.63066800438637
 31
0.0
  0
LINE
  5
43
330
17
100
AcDbEntity
  8
0
420
16767806
100
AcDbLine
 10
26.084150628989683
 20
96.53816388332739
 30
0.0
 11
50.3623201635761
 21
86.39234171928354
 31
0.0
  0
LINE
  5
44
330
17
100
AcDbEntity
  8
0
420
16767295
100
AcDbLine
 10
27.29519355173255
 20
96.20276715860858
 30
0.0
 11
52.5174629961296
 21
85.09944817946918
 31
0.0
  0
LINE
  5
45
330
17
100
AcDbEntity
  8
0
420
16767296
100
AcDbLine
 10
28.501926246997616
 20
95.85217890173759
 30
0.0
 11
54.639434673426926
 21
83.75280400421417
 31
0.0
  0
LINE
  5
46
330
17
100
AcDbEntity
  8
0
420
16701249
100
AcDbLine
 10
29.704158157703493
 20
95.48645447466428
 30
0.0
 11
56.726894912675654
 21
82.35325976284275
 31
0.0
  0
LINE
  5
47
330
17
100
AcDbEntity
  8
0
420
16700994
100
AcDbLine
 10
30.901699437494734
 20
95.10565162951535
 30
0.0
 11
58.778525229247315
 21
80.90169943749474
 31
0.0
  0
LINE
  5
48
330
17
100
AcDbEntity
  8
0
420
16766274
100
AcDbLine
 10
32.094360980720964
 20
94.7098304994744
 30
0.0
 11
60.793029769460546
 21
79.39903986478352
 31
0.0
  0
LINE
  5
49
330
17
100
AcDbEntity
  8
0
420
16766019
100
AcDbLine
 10
33.281954452298656
 20
94.29905358928644
 30
0.0
 11
62.769136129070056
 21
77.84623015670235
 31
0.0
  0
LINE
  5
4A
330
17
100
AcDbEntity
  8
0
420
16765764
100
AcDbLine
 10
34.464292317451736
 20
93.8733857653874
 30
0.0
 11
64.70559615694442
 21
76.24425110114477
 31
0.0
  0
LINE
  5
4B
330
17
100
AcDbEntity
  8
0
420
16765509
100
AcDbLine
 10
35.64118787132507
 20
93.43289424566122
 30
0.0
 11
66.60118674342516
 21
74.59411454241821
 31
0.0
  0
LINE
  5
4C
330
17
100
AcDbEntity
  8
0
420
16765254
100
AcDbLine
 10
36.8124552684678
 20
92.97764858882515
 30
0.0
 11
68.45471059286888
 21
72.89686274214114
 31
0.0
  0
LINE
  5
4D
330
17
100
AcDbEntity
  8
0
420
16764743
100
AcDbLine
 10
37.977909552180115
 20
92.50772068344581
 30
0.0
 11
70.26499697988491
 21
71.15356772092854
 31
0.0
  0
LINE
  5
4E
330
17
100
AcDbEntity
  8
0
420
16764488
100
AcDbLine
 10
39.13736668372025
 20
92.02318473658703
 30
0.0
 11
72.03090248879073
 21
69.36533058128049
 31
0.0
  0
LINE
  5
4F
330
17
100
AcDbEntity
  8
0
420
16764233
100
AcDbLine
 10
40.29064357136628
 20
91.52411726209175
 30
0.0
 11
73.75131173581737
 21
67.53328081210243
 31
0.0
  0
LINE
  5
50
330
17
100
AcDbEntity
  8
0
420
16763978
100
AcDbLine
 10
41.43755809932842
 20
91.01059706849956
 30
0.0
 11
75.42513807361037
 21
65.65857557529563
 31
0.0
  0
LINE
  5
51
330
17
100
AcDbEntity
  8
0
420
16698187
100
AcDbLine
 10
42.577929156507274
 20
90.48270524660195
 30
0.0
 11
77.0513242775789
 21
63.742398974868976
 31
0.0
  0
LINE
  5
52
330
17
100
AcDbEntity
  8
0
420
16763468
100
AcDbLine
 10
43.711576665093304
 20
89.9405251566371
 30
0.0
 11
78.62884321366191
 21
61.785961309033425
 31
0.0
  0
LINE
  5
53
330
17
100
AcDbEntity
  8
0
420
16763212
100
AcDbLine
 10
44.83832160900322
 20
89.38414241512638
 30
0.0
 11
80.15669848708767
 21
59.790498305751896
 31
0.0
  0
LINE
  5
54
330
17
100
AcDbEntity
  8
0
420
16762957
100
AcDbLine
 10
45.95798606214879
 20
88.81364488135445
 30
0.0
 11
81.6339250717184
 21
57.757270342226754
 31
0.0
  0
LINE
  5
55
330
17
100
AcDbEntity
  8
0
420
16762446
100
AcDbLine
 10
47.07039321653328
 20
88.22912264349532
 30
0.0
 11
83.05958991958127
 21
55.68756164881877
 31
0.0
  0
LINE
  5
56
330
17
100
AcDbEntity
  8
0
420
16762191
100
AcDbLine
 10
48.175367410171546
 20
87.63066800438637
 30
0.0
 11
84.43279255020153
 21
53.582679497899655
 31
0.0
  0
LINE
  5
57
330
17
100
AcDbEntity
  8
0
420
16761936
100
AcDbLine
 10
49.27273415482916
 20
87.01837546695256
 30
0.0
 11
85.7526656193652
 21
51.44395337815065
 31
0.0
  0
LINE
  5
58
330
17
100
AcDbEntity
  8
0
420
16761681
100
AcDbLine
 10
50.3623201635761
 20
86.39234171928354
 30
0.0
 11
87.01837546695256
 21
49.27273415482915
 31
0.0
  0
LINE
  5
59
330
17
100
AcDbEntity
  8
0
420
16761426
100
AcDbLine
 10
51.44395337815065
 20
85.75266561936522
 30
0.0
 11
88.22912264349534
 21
47.070393216533226
 31
0.0
  0
LINE
  5
5A
330
17
100
AcDbEntity
  8
0
420
16761171
100
AcDbLine
 10
52.517462996129574
 20
85.09944817946919
 30
0.0
 11
89.38414241512638
 21
44.838321609003216
 31
0.0
  0
LINE
  5
5B
330
17
100
AcDbEntity
  8
0
420
16760916
100
AcDbLine
 10
53.58267949789963
 20
84.43279255020151
 30
0.0
 11
90.48270524660194
 21
42.577929156507274
 31
0.0
  0
LINE
  5
5C
330
17
100
AcDbEntity
  8
0
420
16760661
100
AcDbLine
 10
54.639434673426926
 20
83.75280400421417
 30
0.0
 11
91.52411726209176
 21
40.29064357136626
 31
0.0
  0
LINE
  5
5D
330
17
100
AcDbEntity
  8
0
420
16760406
100
AcDbLine
 10
55.687561648818814
 20
83.05958991958126
 30
0.0
 11
92.50772068344583
 21
37.97790955218011
 31
0.0
  0
LINE
  5
5E
330
17
100
AcDbEntity
  8
0
420
16760150
100
AcDbLine
 10
56.726894912675654
 20
82.35325976284275
 30
0.0
 11
93.43289424566123
 21
35.64118787132507
 31
0.0
  0
LINE
  5
5F
330
17
100
AcDbEntity
  8
0
420
16759639
100
AcDbLine
 10
57.757270342226754
 20
81.6339250717184
 30
0.0
 11
94.29905358928646
 21
33.281954452298656
 31
0.0
  0
LINE
  5
60
330
17
100
AcDbEntity
  8
0
420
16759384
100
AcDbLine
 10
58.778525229247315
 20
80.90169943749474
 30
0.0
 11
95.10565162951536
 21
30.901699437494734
 31
0.0
  0
LINE
  5
61
330
17
100
AcDbEntity
  8
0
420
16759129
100
AcDbLine
 10
59.790498305751896
 20
80.15669848708767
 30
0.0
 11
95.85217890173759
 21
28.501926246997616
 31
0.0
  0
LINE
  5
62
330
17
100
AcDbEntity
  8
0
420
16758874
100
AcDbLine
 10
60.793029769460546
 20
79.39903986478353
 30
0.0
 11
96.53816388332739
 21
26.0841506289897
 31
0.0
  0
LINE
  5
63
330
17
100
AcDbEntity
  8
0
420
16758619
100
AcDbLine
 10
61.785961309033446
 20
78.6288432136619
 30
0.0
 11
97.16317329146742
 21
23.64989970237247
 31
0.0
  0
LINE
  5
64
330
17
100
AcDbEntity
  8
0
420
16758364
100
AcDbLine
 10
62.769136129070056
 20
77.84623015670233
 30
0.0
 11
97.72681235681935
 21
21.200710992205444
 31
0.0
  0
LINE
  5
65
330
17
100
AcDbEntity
  8
0
420
16758109
100
AcDbLine
 10
63.742398974868976
 20
77.0513242775789
 30
0.0
 11
98.22872507286888
 21
18.738131458572447
 31
0.0
  0
LINE
  5
66
330
17
100
AcDbEntity
  8
0
420
16757853
100
AcDbLine
 10
64.70559615694442
 20
76.24425110114478
 30
0.0
 11
98.66859442078682
 21
16.263716519488348
 31
0.0
  0
LINE
  5
67
330
17
100
AcDbEntity
  8
0
420
16757598
100
AcDbLine
 10
65.65857557529566
 20
75.42513807361037
 30
0.0
 11
99.04614256966511
 21
13.77902906846379
 31
0.0
  0
LINE
  5
68
330
17
100
AcDbEntity
  8
0
420
16757343
100
AcDbLine
 10
66.60118674342516
 20
74.59411454241821
 30
0.0
 11
99.36113105200084
 21
11.285638487348152
 31
0.0
  0
LINE
  5
69
330
17
100
AcDbEntity
  8
0
420
16757088
100
AcDbLine
 10
67.53328081210243
 20
73.75131173581737
 30
0.0
 11
99.61336091431727
 21
8.785119655074308
 31
0.0
  0
LINE
  5
6A
330
17
100
AcDbEntity
  8
0
420
16756833
100
AcDbLine
 10
68.45471059286888
 20
72.89686274214114
 30
0.0
 11
99.80267284282715
 21
6.279051952931322
 31
0.0
  0
LINE
  5
6B
330
17
100
AcDbEntity
  8
0
420
16756322
100
AcDbLine
 10
69.36533058128049
 20
72.03090248879069
 30
0.0
 11
99.92894726405892
 21
3.769018266993443
 31
0.0
  0
LINE
  5
6C
330
17
100
AcDbEntity
  8
0
420
16756323
100
AcDbLine
 10
70.26499697988494
 20
71.15356772092852
 30
0.0
 11
99.9921044203816
 21
1.2566039883352562
 31
0.0
  0
LINE
  5
6D
330
17
100
AcDbEntity
  8
0
420
16755812
100
AcDbLine
 10
71.15356772092852
 20
70.26499697988491
 30
0.0
 11
99.9921044203816
 21
-1.2566039883352706
 31
0.0
  0
LINE
  5
6E
330
17
100
AcDbEntity
  8
0
420
16755556
100
AcDbLine
 10
72.03090248879069
 20
69.36533058128049
 30
0.0
 11
99.92894726405892
 21
-3.7690182669934567
 31
0.0
  0
LINE
  5
6F
330
17
100
AcDbEntity
  8
0
420
16755301
100
AcDbLine
 10
72.89686274214114
 20
68.45471059286888
 30
0.0
 11
99.80267284282715
 21
-6.2790519529313515
 31
0.0
  0
LINE
  5
70
330
17
100
AcDbEntity
  8
0
420
16755046
100
AcDbLine
 10
73.75131173581737
 20
67.53328081210243
 30
0.0
 11
99.61336091431727
 21
-8.785119655074324
 31
0.0
  0
LINE
  5
71
330
17
100
AcDbEntity
  8
0
420
16754791
100
AcDbLine
 10
74.59411454241823
 20
66.60118674342515
 30
0.0
 11
99.36113105200084
 21
-11.28563848734818
 31
0.0
  0
LINE
  5
72
330
17
100
AcDbEntity
  8
0
420
16754536
100
AcDbLine
 10
75.42513807361037
 20
65.65857557529564
 30
0.0
 11
99.04614256966511
 21
-13.77902906846382
 31
0.0
  0
LINE
  5
73
330
17
100
AcDbEntity
  8
0
420
16754281
100
AcDbLine
 10
76.24425110114478
 20
64.70559615694442
 30
0.0
 11
98.66859442078682
 21
-16.263716519488362
 31
0.0
  0
LINE
  5
74
330
17
100
AcDbEntity
  8
0
420
16754025
100
AcDbLine
 10
77.05132427757894
 20
63.74239897486896
 30
0.0
 11
98.22872507286888
 21
-18.73813145857246
 31
0.0
  0
LINE
  5
75
330
17
100
AcDbEntity
  8
0
420
16753770
100
AcDbLine
 10
77.84623015670233
 20
62.76913612907005
 30
0.0
 11
97.72681235681935
 21
-21.200710992205472
 31
0.0
  0
LINE
  5
76
330
17
100
AcDbEntity
  8
0
420
16753515
100
AcDbLine
 10
78.62884321366187
 20
61.78596130903343
 30
0.0
 11
97.16317329146742
 21
-23.64989970237247
 31
0.0
  0
LINE
  5
77
330
17
100
AcDbEntity
  8
0
420
16753260
100
AcDbLine
 10
79.39903986478353
 20
60.79302976946054
 30
0.0
 11
96.53816388332739
 21
-26.0841506289897
 31
0.0
  0
LINE
  5
78
330
17
100
AcDbEntity
  8
0
420
16753005
100
AcDbLine
 10
80.15669848708767
 20
59.79049830575188
 30
0.0
 11
95.85217890173759
 21
-28.501926246997616
 31
0.0
  0
LINE
  5
79
330
17
100
AcDbEntity
  8
0
420
16752750
100
AcDbLine
 10
80.90169943749473
 20
58.7785252292473
 30
0.0
 11
95.10565162951536
 21
-30.901699437494766
 31
0.0
  0
LINE
  5
7A
330
17
100
AcDbEntity
  8
0
420
16752494
100
AcDbLine
 10
81.6339250717184
 20
57.757270342226754
 30
0.0
 11
94.29905358928646
 21
-33.281954452298685
 31
0.0
  0
LINE
  5
7B
330
17
100
AcDbEntity
  8
0
420
16752239
100
AcDbLine
 10
82.35325976284275
 20
56.72689491267564
 30
0.0
 11
93.43289424566123
 21
-35.64118787132507
 31
0.0
  0
LINE
  5
7C
330
17
100
AcDbEntity
  8
0
420
16751984
100
AcDbLine
 10
83.05958991958127
 20
55.68756164881879
 30
0.0
 11
92.5077206834458
 21
-37.977909552180115
 31
0.0
  0
LINE
  5
7D
330
17
100
AcDbEntity
  8
0
420
16751729
100
AcDbLine
 10
83.75280400421417
 20
54.6394346734269
 30
0.0
 11
91.52411726209176
 21
-40.29064357136628
 31
0.0
  0
LINE
  5
7E
330
17
100
AcDbEntity
  8
0
420
16751474
100
AcDbLine
 10
84.43279255020153
 20
53.582679497899655
 30
0.0
 11
90.48270524660194
 21
-42.577929156507274
 31
0.0
  0
LINE
  5
7F
330
17
100
AcDbEntity
  8
0
420
16751219
100
AcDbLine
 10
85.09944817946918
 20
52.517462996129574
 30
0.0
 11
89.38414241512638
 21
-44.83832160900322
 31
0.0
  0
LINE
  5
80
330
17
100
AcDbEntity
  8
0
420
16750963
100
AcDbLine
 10
85.75266561936525
 20
51.44395337815064
 30
0.0
 11
88.22912264349534
 21
-47.07039321653328
 31
0.0
  0
LINE
  5
81
330
17
100
AcDbEntity
  8
0
420
16750708
100
AcDbLine
 10
86.39234171928354
 20
50.36232016357608
 30
0.0
 11
87.01837546695256
 21
-49.27273415482916
 31
0.0
  0
LINE
  5
82
330
17
100
AcDbEntity
  8
0
420
16750453
100
AcDbLine
 10
87.01837546695256
 20
49.27273415482915
 30
0.0
 11
85.7526656193652
 21
-51.44395337815065
 31
0.0
  0
LINE
  5
83
330
17
100
AcDbEntity
  8
0
420
16750198
100
AcDbLine
 10
87.63066800438637
 20
48.17536741017153
 30
0.0
 11
84.43279255020153
 21
-53.58267949789963
 31
0.0
  0
LINE
  5
84
330
17
100
AcDbEntity
  8
0
420
16684407
100
AcDbLine
 10
88.22912264349534
 20
47.07039321653325
 30
0.0
 11
83.05958991958127
 21
-55.687561648818814
 31
0.0
  0
LINE
  5
85
330
17
100
AcDbEntity
  8
0
420
16749687
100
AcDbLine
 10
88.81364488135446
 20
45.95798606214877
 30
0.0
 11
81.6339250717184
 21
-57.75727034222678
 31
0.0
  0
LINE
  5
86
330
17
100
AcDbEntity
  8
0
420
16683896
100
AcDbLine
 10
89.38414241512638
 20
44.838321609003216
 30
0.0
 11
80.15669848708767
 21
-59.790498305751896
 31
0.0
  0
LINE
  5
87
330
17
100
AcDbEntity
  8
0
420
16749177
100
AcDbLine
 10
89.94052515663712
 20
43.711576665093276
 30
0.0
 11
78.62884321366187
 21
-61.785961309033446
 31
0.0
  0
LINE
  5
88
330
17
100
AcDbEntity
  8
0
420
16748922
100
AcDbLine
 10
90.48270524660197
 20
42.57792915650726
 30
0.0
 11
77.0513242775789
 21
-63.742398974868976
 31
0.0
  0
LINE
  5
89
330
17
100
AcDbEntity
  8
0
420
16748667
100
AcDbLine
 10
91.01059706849958
 20
41.4375580993284
 30
0.0
 11
75.42513807361037
 21
-65.65857557529566
 31
0.0
  0
LINE
  5
8A
330
17
100
AcDbEntity
  8
0
420
16748411
100
AcDbLine
 10
91.52411726209176
 20
40.29064357136626
 30
0.0
 11
73.75131173581737
 21
-67.53328081210243
 31
0.0
  0
LINE
  5
8B
330
17
100
AcDbEntity
  8
0
420
16748156
100
AcDbLine
 10
92.02318473658704
 20
39.137366683720224
 30
0.0
 11
72.03090248879066
 21
-69.36533058128049
 31
0.0
  0
LINE
  5
8C
330
17
100
AcDbEntity
  8
0
420
16747901
100
AcDbLine
 10
92.50772068344583
 20
37.97790955218011
 30
0.0
 11
70.26499697988491
 21
-71.15356772092852
 31
0.0
  0
LINE
  5
8D
330
17
100
AcDbEntity
  8
0
420
16747646
100
AcDbLine
 10
92.97764858882516
 20
36.81245526846778
 30
0.0
 11
68.45471059286885
 21
-72.89686274214118
 31
0.0
  0
LINE
  5
8E
330
17
100
AcDbEntity
  8
0
420
16747646
100
AcDbLine
 10
93.43289424566123
 20
35.64118787132507
 30
0.0
 11
66.60118674342516
 21
-74.5941145424182
 31
0.0
  0
LINE
  5
8F
330
17
100
AcDbEntity
  8
0
420
16747391
100
AcDbLine
 10
93.87338576538741
 20
34.46429231745171
 30
0.0
 11
64.70559615694442
 21
-76.24425110114478
 31
0.0
  0
LINE
  5
90
330
17
100
AcDbEntity
  8
0
420
16681600
100
AcDbLine
 10
94.29905358928646
 20
33.281954452298656
 30
0.0
 11
62.769136129070056
 21
-77.84623015670233
 31
0.0
  0
LINE
  5
91
330
17
100
AcDbEntity
  8
0
420
16746881
100
AcDbLine
 10
94.70983049947445
 20
32.094360980720936
 30
0.0
 11
60.793029769460524
 21
-79.39903986478353
 31
0.0
  0
LINE
  5
92
330
17
100
AcDbEntity
  8
0
420
16681090
100
AcDbLine
 10
95.10565162951536
 20
30.901699437494734
 30
0.0
 11
58.778525229247315
 21
-80.90169943749473
 31
0.0
  0
LINE
  5
93
330
17
100
AcDbEntity
  8
0
420
16746370
100
AcDbLine
 10
95.4864544746643
 20
29.704158157703475
 30
0.0
 11
56.726894912675654
 21
-82.35325976284275
 31
0.0
  0
LINE
  5
94
330
17
100
AcDbEntity
  8
0
420
16746115
100
AcDbLine
 10
95.85217890173759
 20
28.501926246997616
 30
0.0
 11
54.639434673426926
 21
-83.75280400421417
 31
0.0
  0
LINE
  5
95
330
17
100
AcDbEntity
  8
0
420
16745860
100
AcDbLine
 10
96.2027671586086
 20
27.295193551732506
 30
0.0
 11
52.51746299612955
 21
-85.09944817946918
 31
0.0
  0
LINE
  5
96
330
17
100
AcDbEntity
  8
0
420
16745605
100
AcDbLine
 10
96.53816388332739
 20
26.0841506289897
 30
0.0
 11
50.3623201635761
 21
-86.39234171928354
 31
0.0
  0
LINE
  5
97
330
17
100
AcDbEntity
  8
0
420
16745349
100
AcDbLine
 10
96.85831611286312
 20
24.868988716485468
 30
0.0
 11
48.17536741017151
 21
-87.63066800438637
 31
0.0
  0
LINE
  5
98
330
17
100
AcDbEntity
  8
0
420
16745094
100
AcDbLine
 10
97.16317329146742
 20
23.64989970237247
 30
0.0
 11
45.95798606214879
 21
-88.81364488135445
 31
0.0
  0
LINE
  5
99
330
17
100
AcDbEntity
  8
0
420
16744839
100
AcDbLine
 10
97.4526872786577
 20
22.427076094938116
 30
0.0
 11
43.711576665093276
 21
-89.94052515663712
 31
0.0
  0
LINE
  5
9A
330
17
100
AcDbEntity
  8
0
420
16744840
100
AcDbLine
 10
97.72681235681935
 20
21.200710992205444
 30
0.0
 11
41.43755809932836
 21
-91.01059706849958
 31
0.0
  0
LINE
  5
9B
330
17
100
AcDbEntity
  8
0
420
16744584
100
AcDbLine
 10
97.98550523842466
 20
19.970998051440688
 30
0.0
 11
39.137366683720224
 21
-92.02318473658704
 31
0.0
  0
LINE
  5
9C
330
17
100
AcDbEntity
  8
0
420
16744329
100
AcDbLine
 10
98.22872507286888
 20
18.738131458572447
 30
0.0
 11
36.81245526846777
 21
-92.97764858882516
 31
0.0
  0
LINE
  5
9D
330
17
100
AcDbEntity
  8
0
420
16744074
100
AcDbLine
 10
98.45643345292055
 20
17.502305897527602
 30
0.0
 11
34.46429231745171
 21
-93.87338576538738
 31
0.0
  0
LINE
  5
9E
330
17
100
AcDbEntity
  8
0
420
16743819
100
AcDbLine
 10
98.66859442078682
 20
16.263716519488348
 30
0.0
 11
32.09436098072091
 21
-94.70983049947445
 31
0.0
  0
LINE
  5
9F
330
17
100
AcDbEntity
  8
0
420
16743563
100
AcDbLine
 10
98.86517447379141
 20
15.022558912075706
 30
0.0
 11
29.704158157703493
 21
-95.4864544746643
 31
0.0
  0
LINE
  5
A0
330
17
100
AcDbEntity
  8
0
420
16677772
100
AcDbLine
 10
99.04614256966511
 20
13.77902906846379
 30
0.0
 11
27.295193551732496
 21
-96.2027671586086
 31
0.0
  0
LINE
  5
A1
330
17
100
AcDbEntity
  8
0
420
16743309
100
AcDbLine
 10
99.21147013144778
 20
12.53332335643043
 30
0.0
 11
24.868988716485486
 21
-96.85831611286312
 31
0.0
  0
LINE
  5
A2
330
17
100
AcDbEntity
  8
0
420
16743053
100
AcDbLine
 10
99.36113105200084
 20
11.285638487348152
 30
0.0
 11
22.427076094938087
 21
-97.4526872786577
 31
0.0
  0
LINE
  5
A3
330
17
100
AcDbEntity
  8
0
420
16742798
100
AcDbLine
 10
99.49510169813004
 20
10.03617148512148
 30
0.0
 11
19.970998051440706
 21
-97.98550523842466
 31
0.0
  0
LINE
  5
A4
330
17
100
AcDbEntity
  8
0
420
16742543
100
AcDbLine
 10
99.61336091431727
 20
8.785119655074308
 30
0.0
 11
17.502305897527588
 21
-98.45643345292055
 31
0.0
  0
LINE
  5
A5
330
17
100
AcDbEntity
  8
0
420
16742287
100
AcDbLine
 10
99.7158900260614
 20
7.532680552793273
 30
0.0
 11
15.022558912075706
 21
-98.86517447379141
 31
0.0
  0
LINE
  5
A6
330
17
100
AcDbEntity
  8
0
420
16742032
100
AcDbLine
 10
99.80267284282715
 20
6.279051952931322
 30
0.0
 11
12.533323356430397
 21
-99.21147013144778
 31
0.0
  0
LINE
  5
A7
330
17
100
AcDbEntity
  8
0
420
16742033
100
AcDbLine
 10
99.87369566060174
 20
5.024431817976956
 30
0.0
 11
10.036171485121494
 21
-99.49510169813004
 31
0.0
  0
LINE
  5
A8
330
17
100
AcDbEntity
  8
0
420
16741777
100
AcDbLine
 10
99.92894726405892
 20
3.769018266993443
 30
0.0
 11
7.532680552793258
 21
-99.7158900260614
 31
0.0
  0
LINE
  5
A9
330
17
100
AcDbEntity
  8
0
420
16741522
100
AcDbLine
 10
99.96841892832998
 20
2.5130095443337406
 30
0.0
 11
5.024431817976956
 21
-99.87369566060174
 31
0.0
  0
LINE
  5
AA
330
17
100
AcDbEntity
  8
0
420
16741267
100
AcDbLine
 10
99.9921044203816
 20
1.2566039883352562
 30
0.0
 11
2.513009544333726
 21
-99.96841892832998
 31
0.0
  0
LINE
  5
AB
330
17
100
AcDbEntity
  8
0
420
16741011
100
AcDbLine
 10
100.0
 20
-0.0
 30
0.0
 11
0.0
 21
-100.0
 31
0.0
  0
LINE
  5
AC
330
17
100
AcDbEntity
  8
0
420
16741012
100
AcDbLine
 10
99.9921044203816
 20
-1.2566039883352706
 30
0.0
 11
-2.51300954433377
 21
-99.96841892832998
 31
0.0
  0
LINE
  5
AD
330
17
100
AcDbEntity
  8
0
420
16740757
100
AcDbLine
 10
99.96841892832998
 20
-2.5130095443337406
 30
0.0
 11
-5.024431817976942
 21
-99.87369566060174
 31
0.0
  0
LINE
  5
AE
330
17
100
AcDbEntity
  8
0
420
16740501
100
AcDbLine
 10
99.92894726405892
 20
-3.7690182669934567
 30
0.0
 11
-7.532680552793288
 21
-99.7158900260614
 31
0.0
  0
LINE
  5
AF
330
17
100
AcDbEntity
  8
0
420
16740246
100
AcDbLine
 10
99.87369566060174
 20
-5.024431817976971
 30
0.0
 11
-10.036171485121523
 21
-99.49510169813004
 31
0.0
  0
LINE
  5
B0
330
17
100
AcDbEntity
  8
0
420
16739991
100
AcDbLine
 10
99.80267284282715
 20
-6.2790519529313515
 30
0.0
 11
-12.533323356430442
 21
-99.21147013144778
 31
0.0
  0
LINE
  5
B1
330
17
100
AcDbEntity
  8
0
420
16739991
100
AcDbLine
 10
99.7158900260614
 20
-7.532680552793288
 30
0.0
 11
-15.022558912075738
 21
-98.86517447379138
 31
0.0
  0
LINE
  5
B2
330
17
100
AcDbEntity
  8
0
420
16739736
100
AcDbLine
 10
99.61336091431727
 20
-8.785119655074324
 30
0.0
 11
-17.502305897527616
 21
-98.45643345292055
 31
0.0
  0
LINE
  5
B3
330
17
100
AcDbEntity
  8
0
420
16739481
100
AcDbLine
 10
99.49510169813004
 20
-10.036171485121509
 30
0.0
 11
-19.970998051440734
 21
-97.98550523842466
 31
0.0
  0
LINE
  5
B4
330
17
100
AcDbEntity
  8
0
420
16739225
100
AcDbLine
 10
99.36113105200084
 20
-11.28563848734818
 30
0.0
 11
-22.427076094938116
 21
-97.4526872786577
 31
0.0
  0
LINE
  5
B5
330
17
100
AcDbEntity
  8
0
420
16739226
100
AcDbLine
 10
99.21147013144778
 20
-12.533323356430442
 30
0.0
 11
-24.868988716485514
 21
-96.85831611286312
 31
0.0
  0
LINE
  5
B6
330
17
100
AcDbEntity
  8
0
420
16738971
100
AcDbLine
 10
99.04614256966511
 20
-13.77902906846382
 30
0.0
 11
-27.29519355173252
 21
-96.2027671586086
 31
0.0
  0
LINE
  5
B7
330
17
100
AcDbEntity
  8
0
420
16738715
100
AcDbLine
 10
98.86517447379138
 20
-15.02255891207572
 30
0.0
 11
-29.70415815770352
 21
-95.4864544746643
 31
0.0
  0
LINE
  5
B8
330
17
100
AcDbEntity
  8
0
420
16738460
100
AcDbLine
 10
98.66859442078682
 20
-16.263716519488362
 30
0.0
 11
-32.09436098072095
 21
-94.7098304994744
 31
0.0
  0
LINE
  5
B9
330
17
100
AcDbEntity
  8
0
420
16738460
100
AcDbLine
 10
98.45643345292055
 20
-17.502305897527616
 30
0.0
 11
-34.464292317451736
 21
-93.87338576538738
 31
0.0
  0
LINE
  5
BA
330
17
100
AcDbEntity
  8
0
420
16738205
100
AcDbLine
 10
98.22872507286888
 20
-18.73813145857246
 30
0.0
 11
-36.8124552684678
 21
-92.97764858882516
 31
0.0
  0
LINE
  5
BB
330
17
100
AcDbEntity
  8
0
420
16737950
100
AcDbLine
 10
97.98550523842466
 20
-19.97099805144072
 30
0.0
 11
-39.13736668372025
 21
-92.02318473658704
 31
0.0
  0
LINE
  5
BC
330
17
100
AcDbEntity
  8
0
420
16737694
100
AcDbLine
 10
97.72681235681935
 20
-21.200710992205472
 30
0.0
 11
-41.43755809932842
 21
-91.01059706849955
 31
0.0
  0
LINE
  5
BD
330
17
100
AcDbEntity
  8
0
420
16737695
100
AcDbLine
 10
97.4526872786577
 20
-22.42707609493813
 30
0.0
 11
-43.711576665093304
 21
-89.9405251566371
 31
0.0
  0
LINE
  5
BE
330
17
100
AcDbEntity
  8
0
420
16737439
100
AcDbLine
 10
97.16317329146742
 20
-23.64989970237247
 30
0.0
 11
-45.957986062148784
 21
-88.81364488135446
 31
0.0
  0
LINE
  5
BF
330
17
100
AcDbEntity
  8
0
420
16737184
100
AcDbLine
 10
96.85831611286312
 20
-24.868988716485486
 30
0.0
 11
-48.175367410171546
 21
-87.63066800438637
 31
0.0
  0
LINE
  5
C0
330
17
100
AcDbEntity
  8
0
420
16737185
100
AcDbLine
 10
96.53816388332739
 20
-26.0841506289897
 30
0.0
 11
-50.36232016357608
 21
-86.39234171928354
 31
0.0
  0
LINE
  5
C1
330
17
100
AcDbEntity
  8
0
420
16736929
100
AcDbLine
 10
96.20276715860857
 20
-27.29519355173253
 30
0.0
 11
-52.51746299612958
 21
-85.09944817946918
 31
0.0
  0
LINE
  5
C2
330
17
100
AcDbEntity
  8
0
420
16736674
100
AcDbLine
 10
95.85217890173759
 20
-28.501926246997616
 30
0.0
 11
-54.6394346734269
 21
-83.75280400421417
 31
0.0
  0
LINE
  5
C3
330
17
100
AcDbEntity
  8
0
420
16736674
100
AcDbLine
 10
95.4864544746643
 20
-29.704158157703493
 30
0.0
 11
-56.72689491267566
 21
-82.35325976284275
 31
0.0
  0
LINE
  5
C4
330
17
100
AcDbEntity
  8
0
420
16736419
100
AcDbLine
 10
95.10565162951536
 20
-30.901699437494766
 30
0.0
 11
-58.77852522924735
 21
-80.90169943749473
 31
0.0
  0
LINE
  5
C5
330
17
100
AcDbEntity
  8
0
420
16736163
100
AcDbLine
 10
94.7098304994744
 20
-32.094360980720964
 30
0.0
 11
-60.793029769460546
 21
-79.39903986478353
 31
0.0
  0
LINE
  5
C6
330
17
100
AcDbEntity
  8
0
420
16736164
100
AcDbLine
 10
94.29905358928646
 20
-33.281954452298685
 30
0.0
 11
-62.76913612907007
 21
-77.84623015670233
 31
0.0
  0
LINE
  5
C7
330
17
100
AcDbEntity
  8
0
420
16735908
100
AcDbLine
 10
93.87338576538738
 20
-34.46429231745171
 30
0.0
 11
-64.70559615694444
 21
-76.24425110114477
 31
0.0
  0
LINE
  5
C8
330
17
100
AcDbEntity
  8
0
420
16735653
100
AcDbLine
 10
93.43289424566123
 20
-35.64118787132507
 30
0.0
 11
-66.60118674342519
 21
-74.5941145424182
 31
0.0
  0
LINE
  5
C9
330
17
100
AcDbEntity
  8
0
420
16735653
100
AcDbLine
 10
92.97764858882516
 20
-36.8124552684678
 30
0.0
 11
-68.45471059286888
 21
-72.89686274214114
 31
0.0
  0
LINE
  5
CA
330
17
100
AcDbEntity
  8
0
420
16735398
100
AcDbLine
 10
92.5077206834458
 20
-37.977909552180115
 30
0.0
 11
-70.26499697988494
 21
-71.15356772092852
 31
0.0
  0
LINE
  5
CB
330
17
100
AcDbEntity
  8
0
420
16735398
100
AcDbLine
 10
92.02318473658704
 20
-39.13736668372025
 30
0.0
 11
-72.03090248879069
 21
-69.36533058128049
 31
0.0
  0
LINE
  5
CC
330
17
100
AcDbEntity
  8
0
420
16735143
100
AcDbLine
 10
91.52411726209176
 20
-40.29064357136628
 30
0.0
 11
-73.75131173581741
 21
-67.53328081210242
 31
0.0
  0
LINE
  5
CD
330
17
100
AcDbEntity
  8
0
420
16734888
100
AcDbLine
 10
91.01059706849955
 20
-41.43755809932842
 30
0.0
 11
-75.42513807361038
 21
-65.65857557529563
 31
0.0
  0
LINE
  5
CE
330
17
100
AcDbEntity
  8
0
420
16734888
100
AcDbLine
 10
90.48270524660194
 20
-42.577929156507274
 30
0.0
 11
-77.05132427757894
 21
-63.74239897486894
 31
0.0
  0
LINE
  5
CF
330
17
100
AcDbEntity
  8
0
420
16734633
100
AcDbLine
 10
89.9405251566371
 20
-43.711576665093304
 30
0.0
 11
-78.62884321366191
 21
-61.78596130903339
 31
0.0
  0
LINE
  5
D0
330
17
100
AcDbEntity
  8
0
420
16734377
100
AcDbLine
 10
89.38414241512638
 20
-44.83832160900322
 30
0.0
 11
-80.15669848708764
 21
-59.790498305751896
 31
0.0
  0
LINE
  5
D1
330
17
100
AcDbEntity
  8
0
420
16734377
100
AcDbLine
 10
88.81364488135445
 20
-45.95798606214879
 30
0.0
 11
-81.6339250717184
 21
-57.757270342226754
 31
0.0
  0
LINE
  5
D2
330
17
100
AcDbEntity
  8
0
420
16734122
100
AcDbLine
 10
88.22912264349534
 20
-47.07039321653328
 30
0.0
 11
-83.05958991958128
 21
-55.68756164881879
 31
0.0
  0
LINE
  5
D3
330
17
100
AcDbEntity
  8
0
420
16734122
100
AcDbLine
 10
87.63066800438637
 20
-48.175367410171546
 30
0.0
 11
-84.43279255020153
 21
-53.58267949789963
 31
0.0
  0
LINE
  5
D4
330
17
100
AcDbEntity
  8
0
420
16733867
100
AcDbLine
 10
87.01837546695256
 20
-49.27273415482916
 30
0.0
 11
-85.7526656193652
 21
-51.44395337815065
 31
0.0
  0
LINE
  5
D5
330
17
100
AcDbEntity
  8
0
420
16733867
100
AcDbLine
 10
86.39234171928354
 20
-50.36232016357607
 30
0.0
 11
-87.01837546695256
 21
-49.27273415482916
 31
0.0
  0
LINE
  5
D6
330
17
100
AcDbEntity
  8
0
420
16733612
100
AcDbLine
 10
85.7526656193652
 20
-51.44395337815065
 30
0.0
 11
-88.22912264349534
 21
-47.070393216533226
 31
0.0
  0
LINE
  5
D7
330
17
100
AcDbEntity
  8
0
420
16733356
100
AcDbLine
 10
85.09944817946918
 20
-52.5174629961296
 30
0.0
 11
-89.3841424151264
 21
-44.838321609003195
 31
0.0
  0
LINE
  5
D8
330
17
100
AcDbEntity
  8
0
420
16733357
100
AcDbLine
 10
84.43279255020153
 20
-53.58267949789963
 30
0.0
 11
-90.48270524660194
 21
-42.5779291565073
 31
0.0
  0
LINE
  5
D9
330
17
100
AcDbEntity
  8
0
420
16733101
100
AcDbLine
 10
83.75280400421417
 20
-54.639434673426926
 30
0.0
 11
-91.52411726209175
 21
-40.29064357136628
 31
0.0
  0
LINE
  5
DA
330
17
100
AcDbEntity
  8
0
420
16733102
100
AcDbLine
 10
83.05958991958127
 20
-55.687561648818814
 30
0.0
 11
-92.50772068344581
 21
-37.977909552180115
 31
0.0
  0
LINE
  5
DB
330
17
100
AcDbEntity
  8
0
420
16732846
100
AcDbLine
 10
82.35325976284275
 20
-56.726894912675654
 30
0.0
 11
-93.43289424566122
 21
-35.641187871325045
 31
0.0
  0
LINE
  5
DC
330
17
100
AcDbEntity
  8
0
420
16732847
100
AcDbLine
 10
81.6339250717184
 20
-57.75727034222678
 30
0.0
 11
-94.29905358928646
 21
-33.28195445229859
 31
0.0
  0
LINE
  5
DD
330
17
100
AcDbEntity
  8
0
420
16732591
100
AcDbLine
 10
80.90169943749473
 20
-58.778525229247315
 30
0.0
 11
-95.10565162951535
 21
-30.901699437494734
 31
0.0
  0
LINE
  5
DE
330
17
100
AcDbEntity
  8
0
420
16732591
100
AcDbLine
 10
80.15669848708767
 20
-59.790498305751896
 30
0.0
 11
-95.85217890173759
 21
-28.501926246997606
 31
0.0
  0
LINE
  5
DF
330
17
100
AcDbEntity
  8
0
420
16732336
100
AcDbLine
 10
79.39903986478353
 20
-60.793029769460546
 30
0.0
 11
-96.53816388332741
 21
-26.084150628989654
 31
0.0
  0
LINE
  5
E0
330
17
100
AcDbEntity
  8
0
420
16732336
100
AcDbLine
 10
78.62884321366187
 20
-61.785961309033446
 30
0.0
 11
-97.1631732914674
 21
-23.649899702372426
 31
0.0
  0
LINE
  5
E1
330
17
100
AcDbEntity
  8
0
420
16732081
100
AcDbLine
 10
77.84623015670233
 20
-62.769136129070056
 30
0.0
 11
-97.72681235681935
 21
-21.200710992205472
 31
0.0
  0
LINE
  5
E2
330
17
100
AcDbEntity
  8
0
420
16732081
100
AcDbLine
 10
77.0513242775789
 20
-63.742398974868976
 30
0.0
 11
-98.22872507286887
 21
-18.73813145857246
 31
0.0
  0
LINE
  5
E3
330
17
100
AcDbEntity
  8
0
420
16731826
100
AcDbLine
 10
76.24425110114477
 20
-64.70559615694442
 30
0.0
 11
-98.66859442078682
 21
-16.263716519488334
 31
0.0
  0
LINE
  5
E4
330
17
100
AcDbEntity
  8
0
420
16731826
100
AcDbLine
 10
75.42513807361037
 20
-65.65857557529566
 30
0.0
 11
-99.04614256966514
 21
-13.779029068463764
 31
0.0
  0
LINE
  5
E5
330
17
100
AcDbEntity
  8
0
420
16731570
100
AcDbLine
 10
74.59411454241823
 20
-66.60118674342513
 30
0.0
 11
-99.36113105200084
 21
-11.285638487348196
 31
0.0
  0
LINE
  5
E6
330
17
100
AcDbEntity
  8
0
420
16731571
100
AcDbLine
 10
73.75131173581737
 20
-67.53328081210243
 30
0.0
 11
-99.61336091431725
 21
-8.785119655074308
 31
0.0
  0
LINE
  5
E7
330
17
100
AcDbEntity
  8
0
420
16731315
100
AcDbLine
 10
72.89686274214114
 20
-68.45471059286888
 30
0.0
 11
-99.80267284282715
 21
-6.279051952931307
 31
0.0
  0
LINE
  5
E8
330
17
100
AcDbEntity
  8
0
420
16731315
100
AcDbLine
 10
72.03090248879066
 20
-69.36533058128049
 30
0.0
 11
-99.92894726405893
 21
-3.769018266993414
 31
0.0
  0
LINE
  5
E9
330
17
100
AcDbEntity
  8
0
420
16731316
100
AcDbLine
 10
71.15356772092852
 20
-70.26499697988491
 30
0.0
 11
-99.99210442038161
 21
-1.2566039883352853
 31
0.0
  0
LINE
  5
EA
330
17
100
AcDbEntity
  8
0
420
16731060
100
AcDbLine
 10
70.26499697988491
 20
-71.15356772092852
 30
0.0
 11
-99.99210442038161
 21
1.2566039883352562
 31
0.0
  0
LINE
  5
EB
330
17
100
AcDbEntity
  8
0
420
16731061
100
AcDbLine
 10
69.36533058128049
 20
-72.03090248879069
 30
0.0
 11
-99.92894726405892
 21
3.7690182669934713
 31
0.0
  0
LINE
  5
EC
330
17
100
AcDbEntity
  8
0
420
16730805
100
AcDbLine
 10
68.45471059286885
 20
-72.89686274214118
 30
0.0
 11
-99.80267284282715
 21
6.279051952931381
 31
0.0
  0
LINE
  5
ED
330
17
100
AcDbEntity
  8
0
420
16730805
100
AcDbLine
 10
67.53328081210243
 20
-73.75131173581737
 30
0.0
 11
-99.61336091431725
 21
8.785119655074295
 31
0.0
  0
LINE
  5
EE
330
17
100
AcDbEntity
  8
0
420
16730550
100
AcDbLine
 10
66.60118674342516
 20
-74.5941145424182
 30
0.0
 11
-99.36113105200084
 21
11.285638487348166
 31
0.0
  0
LINE
  5
EF
330
17
100
AcDbEntity
  8
0
420
16730550
100
AcDbLine
 10
65.65857557529563
 20
-75.42513807361037
 30
0.0
 11
-99.04614256966512
 21
13.77902906846382
 31
0.0
  0
LINE
  5
F0
330
17
100
AcDbEntity
  8
0
420
16730550
100
AcDbLine
 10
64.70559615694442
 20
-76.24425110114478
 30
0.0
 11
-98.66859442078679
 21
16.26371651948839
 31
0.0
  0
LINE
  5
F1
330
17
100
AcDbEntity
  8
0
420
16730295
100
AcDbLine
 10
63.74239897486894
 20
-77.05132427757894
 30
0.0
 11
-98.22872507286885
 21
18.738131458572518
 31
0.0
  0
LINE
  5
F2
330
17
100
AcDbEntity
  8
0
420
16730295
100
AcDbLine
 10
62.769136129070056
 20
-77.84623015670233
 30
0.0
 11
-97.72681235681935
 21
21.200710992205458
 31
0.0
  0
LINE
  5
F3
330
17
100
AcDbEntity
  8
0
420
16730295
100
AcDbLine
 10
61.785961309033446
 20
-78.62884321366187
 30
0.0
 11
-97.16317329146739
 21
23.649899702372483
 31
0.0
  0
LINE
  5
F4
330
17
100
AcDbEntity
  8
0
420
16730039
100
AcDbLine
 10
60.793029769460524
 20
-79.39903986478353
 30
0.0
 11
-96.53816388332737
 21
26.08415062898973
 31
0.0
  0
LINE
  5
F5
330
17
100
AcDbEntity
  8
0
420
16730040
100
AcDbLine
 10
59.79049830575187
 20
-80.15669848708768
 30
0.0
 11
-95.85217890173757
 21
28.501926246997662
 31
0.0
  0
LINE
  5
F6
330
17
100
AcDbEntity
  8
0
420
16729784
100
AcDbLine
 10
58.778525229247315
 20
-80.90169943749473
 30
0.0
 11
-95.10565162951536
 21
30.901699437494734
 31
0.0
  0
LINE
  5
F7
330
17
100
AcDbEntity
  8
0
420
16729784
100
AcDbLine
 10
57.757270342226754
 20
-81.6339250717184
 30
0.0
 11
-94.29905358928644
 21
33.281954452298685
 31
0.0
  0
LINE
  5
F8
330
17
100
AcDbEntity
  8
0
420
16729785
100
AcDbLine
 10
56.726894912675654
 20
-82.35325976284275
 30
0.0
 11
-93.43289424566119
 21
35.641187871325094
 31
0.0
  0
LINE
  5
F9
330
17
100
AcDbEntity
  8
0
420
16729529
100
AcDbLine
 10
55.687561648818765
 20
-83.05958991958127
 30
0.0
 11
-92.50772068344578
 21
37.97790955218016
 31
0.0
  0
LINE
  5
FA
330
17
100
AcDbEntity
  8
0
420
16729529
100
AcDbLine
 10
54.639434673426926
 20
-83.75280400421417
 30
0.0
 11
-91.52411726209176
 21
40.29064357136625
 31
0.0
  0
LINE
  5
FB
330
17
100
AcDbEntity
  8
0
420
16729529
100
AcDbLine
 10
53.58267949789963
 20
-84.43279255020153
 30
0.0
 11
-90.48270524660194
 21
42.57792915650726
 31
0.0
  0
LINE
  5
FC
330
17
100
AcDbEntity
  8
0
420
16729274
100
AcDbLine
 10
52.51746299612955
 20
-85.09944817946918
 30
0.0
 11
-89.38414241512636
 21
44.838321609003245
 31
0.0
  0
LINE
  5
FD
330
17
100
AcDbEntity
  8
0
420
16729274
100
AcDbLine
 10
51.44395337815063
 20
-85.75266561936525
 30
0.0
 11
-88.2291226434953
 21
47.070393216533304
 31
0.0
  0
LINE
  5
FE
330
17
100
AcDbEntity
  8
0
420
16729274
100
AcDbLine
 10
50.3623201635761
 20
-86.39234171928354
 30
0.0
 11
-87.01837546695258
 21
49.272734154829145
 31
0.0
  0
LINE
  5
FF
330
17
100
AcDbEntity
  8
0
420
16729019
100
AcDbLine
 10
49.27273415482916
 20
-87.01837546695256
 30
0.0
 11
-85.75266561936522
 21
51.44395337815064
 31
0.0
  0
LINE
  5
100
330
17
100
AcDbEntity
  8
0
420
16729019
100
AcDbLine
 10
48.17536741017151
 20
-87.63066800438637
 30
0.0
 11
-84.4327925502015
 21
53.582679497899676
 31
0.0
  0
LINE
  5
101
330
17
100
AcDbEntity
  8
0
420
16729019
100
AcDbLine
 10
47.070393216533226
 20
-88.22912264349534
 30
0.0
 11
-83.05958991958124
 21
55.68756164881884
 31
0.0
  0
LINE
  5
102
330
17
100
AcDbEntity
  8
0
420
16729019
100
AcDbLine
 10
45.95798606214879
 20
-88.81364488135445
 30
0.0
 11
-81.63392507171841
 21
57.75727034222674
 31
0.0
  0
LINE
  5
103
330
17
100
AcDbEntity
  8
0
420
16729019
100
AcDbLine
 10
44.83832160900322
 20
-89.38414241512638
 30
0.0
 11
-80.15669848708767
 21
59.79049830575188
 31
0.0
  0
LINE
  5
104
330
17
100
AcDbEntity
  8
0
420
16728764
100
AcDbLine
 10
43.711576665093276
 20
-89.94052515663712
 30
0.0
 11
-78.62884321366187
 21
61.785961309033446
 31
0.0
  0
LINE
  5
105
330
17
100
AcDbEntity
  8
0
420
16728764
100
AcDbLine
 10
42.577929156507246
 20
-90.48270524660197
 30
0.0
 11
-77.0513242775789
 21
63.742398974869
 31
0.0
  0
LINE
  5
106
330
17
100
AcDbEntity
  8
0
420
16728764
100
AcDbLine
 10
41.43755809932836
 20
-91.01059706849958
 30
0.0
 11
-75.42513807361034
 21
65.65857557529569
 31
0.0
  0
LINE
  5
107
330
17
100
AcDbEntity
  8
0
420
16728508
100
AcDbLine
 10
40.29064357136628
 20
-91.52411726209176
 30
0.0
 11
-73.7513117358174
 21
67.53328081210243
 31
0.0
  0
LINE
  5
108
330
17
100
AcDbEntity
  8
0
420
16728508
100
AcDbLine
 10
39.137366683720224
 20
-92.02318473658704
 30
0.0
 11
-72.03090248879069
 21
69.3653305812805
 31
0.0
  0
LINE
  5
109
330
17
100
AcDbEntity
  8
0
420
16728509
100
AcDbLine
 10
37.97790955218009
 20
-92.50772068344583
 30
0.0
 11
-70.2649969798849
 21
71.15356772092855
 31
0.0
  0
LINE
  5
10A
330
17
100
AcDbEntity
  8
0
420
16728509
100
AcDbLine
 10
36.81245526846777
 20
-92.97764858882516
 30
0.0
 11
-68.45471059286882
 21
72.8968627421412
 31
0.0
  0
LINE
  5
10B
330
17
100
AcDbEntity
  8
0
420
16728253
100
AcDbLine
 10
35.64118787132507
 20
-93.43289424566123
 30
0.0
 11
-66.60118674342516
 21
74.59411454241821
 31
0.0
  0
LINE
  5
10C
330
17
100
AcDbEntity
  8
0
420
16728253
100
AcDbLine
 10
34.46429231745171
 20
-93.87338576538738
 30
0.0
 11
-64.70559615694442
 21
76.24425110114478
 31
0.0
  0
LINE
  5
10D
330
17
100
AcDbEntity
  8
0
420
16728253
100
AcDbLine
 10
33.281954452298656
 20
-94.29905358928646
 30
0.0
 11
-62.76913612907003
 21
77.84623015670236
 31
0.0
  0
LINE
  5
10E
330
17
100
AcDbEntity
  8
0
420
16728253
100
AcDbLine
 10
32.09436098072091
 20
-94.70983049947445
 30
0.0
 11
-60.793029769460496
 21
79.39903986478356
 31
0.0
  0
LINE
  5
10F
330
17
100
AcDbEntity
  8
0
420
16728254
100
AcDbLine
 10
30.901699437494734
 20
-95.10565162951536
 30
0.0
 11
-58.77852522924732
 21
80.90169943749473
 31
0.0
  0
LINE
  5
110
330
17
100
AcDbEntity
  8
0
420
16728254
100
AcDbLine
 10
29.704158157703493
 20
-95.4864544746643
 30
0.0
 11
-56.72689491267564
 21
82.35325976284275
 31
0.0
  0
LINE
  5
111
330
17
100
AcDbEntity
  8
0
420
16728254
100
AcDbLine
 10
28.501926246997588
 20
-95.85217890173759
 30
0.0
 11
-54.63943467342689
 21
83.75280400421418
 31
0.0
  0
LINE
  5
112
330
17
100
AcDbEntity
  8
0
420
16727998
100
AcDbLine
 10
27.295193551732496
 20
-96.2027671586086
 30
0.0
 11
-52.517462996129524
 21
85.0994481794692
 31
0.0
  0
LINE
  5
113
330
17
100
AcDbEntity
  8
0
420
16727998
100
AcDbLine
 10
26.084150628989683
 20
-96.53816388332739
 30
0.0
 11
-50.3623201635761
 21
86.39234171928352
 31
0.0
  0
LINE
  5
114
330
17
100
AcDbEntity
  8
0
420
16727998
100
AcDbLine
 10
24.868988716485486
 20
-96.85831611286312
 30
0.0
 11
-48.175367410171525
 21
87.63066800438637
 31
0.0
  0
LINE
  5
115
330
17
100
AcDbEntity
  8
0
420
16727998
100
AcDbLine
 10
23.649899702372455
 20
-97.16317329146742
 30
0.0
 11
-45.95798606214877
 21
88.81364488135446
 31
0.0
  0
LINE
  5
116
330
17
100
AcDbEntity
  8
0
420
16727998
100
AcDbLine
 10
22.427076094938087
 20
-97.4526872786577
 30
0.0
 11
-43.71157666509325
 21
89.94052515663712
 31
0.0
  0
LINE
  5
117
330
17
100
AcDbEntity
  8
0
420
16727999
100
AcDbLine
 10
21.200710992205472
 20
-97.72681235681935
 30
0.0
 11
-41.437558099328434
 21
91.01059706849955
 31
0.0
  0
LINE
  5
118
330
17
100
AcDbEntity
  8
0
420
16727743
100
AcDbLine
 10
19.970998051440706
 20
-97.98550523842466
 30
0.0
 11
-39.137366683720245
 21
92.02318473658704
 31
0.0
  0
LINE
  5
119
330
17
100
AcDbEntity
  8
0
420
16727743
100
AcDbLine
 10
18.738131458572447
 20
-98.22872507286888
 30
0.0
 11
-36.81245526846777
 21
92.97764858882515
 31
0.0
  0
LINE
  5
11A
330
17
100
AcDbEntity
  8
0
420
16727743
100
AcDbLine
 10
17.502305897527588
 20
-98.45643345292055
 30
0.0
 11
-34.46429231745168
 21
93.87338576538741
 31
0.0
  0
LINE
  5
11B
330
17
100
AcDbEntity
  8
0
420
16727743
100
AcDbLine
 10
16.263716519488334
 20
-98.66859442078682
 30
0.0
 11
-32.09436098072089
 21
94.70983049947445
 31
0.0
  0
LINE
  5
11C
330
17
100
AcDbEntity
  8
0
420
16727743
100
AcDbLine
 10
15.022558912075706
 20
-98.86517447379141
 30
0.0
 11
-29.704158157703493
 21
95.48645447466428
 31
0.0
  0
LINE
  5
11D
330
17
100
AcDbEntity
  8
0
420
16727743
100
AcDbLine
 10
13.77902906846379
 20
-99.04614256966511
 30
0.0
 11
-27.295193551732506
 21
96.2027671586086
 31
0.0
  0
LINE
  5
11E
330
17
100
AcDbEntity
  8
0
420
16727743
100
AcDbLine
 10
12.533323356430397
 20
-99.21147013144778
 30
0.0
 11
-24.86898871648544
 21
96.85831611286312
 31
0.0
  0
LINE
  5
11F
330
17
100
AcDbEntity
  8
0
420
16727743
100
AcDbLine
 10
11.285638487348137
 20
-99.36113105200084
 30
0.0
 11
-22.42707609493806
 21
97.45268727865772
 31
0.0
  0
LINE
  5
120
330
17
100
AcDbEntity
  8
0
420
16727743
100
AcDbLine
 10
10.036171485121494
 20
-99.49510169813004
 30
0.0
 11
-19.970998051440706
 21
97.98550523842468
 31
0.0
  0
LINE
  5
121
330
17
100
AcDbEntity
  8
0
420
16727743
100
AcDbLine
 10
8.785119655074308
 20
-99.61336091431727
 30
0.0
 11
-17.502305897527588
 21
98.45643345292055
 31
0.0
  0
LINE
  5
122
330
17
100
AcDbEntity
  8
0
420
16727743
100
AcDbLine
 10
7.532680552793258
 20
-99.7158900260614
 30
0.0
 11
-15.022558912075679
 21
98.86517447379141
 31
0.0
  0
LINE
  5
123
330
17
100
AcDbEntity
  8
0
420
16727743
100
AcDbLine
 10
6.279051952931307
 20
-99.80267284282715
 30
0.0
 11
-12.53332335643037
 21
99.21147013144778
 31
0.0
  0
LINE
  5
124
330
17
100
AcDbEntity
  8
0
420
16727743
100
AcDbLine
 10
5.024431817976956
 20
-99.87369566060174
 30
0.0
 11
-10.036171485121509
 21
99.49510169813001
 31
0.0
  0
LINE
  5
125
330
17
100
AcDbEntity
  8
0
420
16727743
100
AcDbLine
 10
3.769018266993443
 20
-99.92894726405892
 30
0.0
 11
-7.532680552793258
 21
99.7158900260614
 31
0.0
  0
LINE
  5
126
330
17
100
AcDbEntity
  8
0
420
16727743
100
AcDbLine
 10
2.513009544333726
 20
-99.96841892832998
 30
0.0
 11
-5.024431817976928
 21
99.87369566060174
 31
0.0
  0
LINE
  5
127
330
17
100
AcDbEntity
  8
0
420
16727743
100
AcDbLine
 10
1.2566039883352271
 20
-99.9921044203816
 30
0.0
 11
-2.5130095443336975
 21
99.96841892833001
 31
0.0
  0
LINE
  5
128
330
17
100
AcDbEntity
  8
0
420
16727744
100
AcDbLine
 10
0.0
 20
-100.0
 30
0.0
 11
-1.4500872158369392e-14
 21
100.0
 31
0.0
  0
LINE
  5
129
330
17
100
AcDbEntity
  8
0
420
16727743
100
AcDbLine
 10
-1.2566039883352706
 20
-99.9921044203816
 30
0.0
 11
2.5130095443337552
 21
99.96841892833
 31
0.0
  0
LINE
  5
12A
330
17
100
AcDbEntity
  8
0
420
16727743
100
AcDbLine
 10
-2.51300954433377
 20
-99.96841892832998
 30
0.0
 11
5.024431817976986
 21
99.87369566060174
 31
0.0
  0
LINE
  5
12B
330
17
100
AcDbEntity
  8
0
420
16727743
100
AcDbLine
 10
-3.769018266993486
 20
-99.92894726405892
 30
0.0
 11
7.532680552793317
 21
99.7158900260614
 31
0.0
  0
LINE
  5
12C
330
17
100
AcDbEntity
  8
0
420
16727743
100
AcDbLine
 10
-5.024431817976942
 20
-99.87369566060174
 30
0.0
 11
10.036171485121466
 21
99.49510169813001
 31
0.0
  0
LINE
  5
12D
330
17
100
AcDbEntity
  8
0
420
16727743
100
AcDbLine
 10
-6.2790519529313364
 20
-99.80267284282715
 30
0.0
 11
12.53332335643043
 21
99.21147013144778
 31
0.0
  0
LINE
  5
12E
330
17
100
AcDbEntity
  8
0
420
16727743
100
AcDbLine
 10
-7.532680552793288
 20
-99.7158900260614
 30
0.0
 11
15.02255891207572
 21
98.8651744737914
 31
0.0
  0
LINE
  5
12F
330
17
100
AcDbEntity
  8
0
420
16727743
100
AcDbLine
 10
-8.785119655074338
 20
-99.61336091431724
 30
0.0
 11
17.502305897527645
 21
98.45643345292055
 31
0.0
  0
LINE
  5
130
330
17
100
AcDbEntity
  8
0
420
16727743
100
AcDbLine
 10
-10.036171485121523
 20
-99.49510169813004
 30
0.0
 11
19.970998051440763
 21
97.98550523842466
 31
0.0
  0
LINE
  5
131
330
17
100
AcDbEntity
  8
0
420
16727743
100
AcDbLine
 10
-11.285638487348166
 20
-99.36113105200084
 30
0.0
 11
22.427076094938116
 21
97.4526872786577
 31
0.0
  0
LINE
  5
132
330
17
100
AcDbEntity
  8
0
420
16727743
100
AcDbLine
 10
-12.533323356430442
 20
-99.21147013144778
 30
0.0
 11
24.868988716485486
 21
96.85831611286312
 31
0.0
  0
LINE
  5
133
330
17
100
AcDbEntity
  8
0
420
16727743
100
AcDbLine
 10
-13.77902906846382
 20
-99.04614256966511
 30
0.0
 11
27.29519355173255
 21
96.20276715860858
 31
0.0
  0
LINE
  5
134
330
17
100
AcDbEntity
  8
0
420
16727743
100
AcDbLine
 10
-15.022558912075738
 20
-98.86517447379138
 30
0.0
 11
29.704158157703546
 21
95.48645447466428
 31
0.0
  0
LINE
  5
135
330
17
100
AcDbEntity
  8
0
420
16727743
100
AcDbLine
 10
-16.263716519488362
 20
-98.66859442078682
 30
0.0
 11
32.094360980720936
 21
94.70983049947444
 31
0.0
  0
LINE
  5
136
330
17
100
AcDbEntity
  8
0
420
16727743
100
AcDbLine
 10
-17.502305897527616
 20
-98.45643345292055
 30
0.0
 11
34.464292317451736
 21
93.8733857653874
 31
0.0
  0
LINE
  5
137
330
17
100
AcDbEntity
  8
0
420
16727743
100
AcDbLine
 10
-18.738131458572475
 20
-98.22872507286885
 30
0.0
 11
36.81245526846783
 21
92.97764858882512
 31
0.0
  0
LINE
  5
138
330
17
100
AcDbEntity
  8
0
420
16727743
100
AcDbLine
 10
-19.970998051440734
 20
-97.98550523842466
 30
0.0
 11
39.13736668372029
 21
92.02318473658701
 31
0.0
  0
LINE
  5
139
330
17
100
AcDbEntity
  8
0
420
16727999
100
AcDbLine
 10
-21.200710992205458
 20
-97.72681235681935
 30
0.0
 11
41.43755809932839
 21
91.01059706849958
 31
0.0
  0
LINE
  5
13A
330
17
100
AcDbEntity
  8
0
420
16727998
100
AcDbLine
 10
-22.427076094938116
 20
-97.4526872786577
 30
0.0
 11
43.711576665093304
 21
89.9405251566371
 31
0.0
  0
LINE
  5
13B
330
17
100
AcDbEntity
  8
0
420
16727998
100
AcDbLine
 10
-23.649899702372483
 20
-97.16317329146739
 30
0.0
 11
45.95798606214882
 21
88.81364488135445
 31
0.0
  0
LINE
  5
13C
330
17
100
AcDbEntity
  8
0
420
16727998
100
AcDbLine
 10
-24.868988716485514
 20
-96.85831611286312
 30
0.0
 11
48.175367410171575
 21
87.63066800438635
 31
0.0
  0
LINE
  5
13D
330
17
100
AcDbEntity
  8
0
420
16727998
100
AcDbLine
 10
-26.084150628989683
 20
-96.53816388332739
 30
0.0
 11
50.36232016357607
 21
86.39234171928354
 31
0.0
  0
LINE
  5
13E
330
17
100
AcDbEntity
  8
0
420
16727998
100
AcDbLine
 10
-27.29519355173252
 20
-96.2027671586086
 30
0.0
 11
52.517462996129574
 21
85.09944817946919
 31
0.0
  0
LINE
  5
13F
330
17
100
AcDbEntity
  8
0
420
16728254
100
AcDbLine
 10
-28.501926246997616
 20
-95.85217890173759
 30
0.0
 11
54.639434673426926
 21
83.75280400421416
 31
0.0
  0
LINE
  5
140
330
17
100
AcDbEntity
  8
0
420
16728254
100
AcDbLine
 10
-29.70415815770352
 20
-95.4864544746643
 30
0.0
 11
56.726894912675675
 21
82.35325976284271
 31
0.0
  0
LINE
  5
141
330
17
100
AcDbEntity
  8
0
420
16728254
100
AcDbLine
 10
-30.901699437494734
 20
-95.10565162951536
 30
0.0
 11
58.77852522924728
 21
80.90169943749474
 31
0.0
  0
LINE
  5
142
330
17
100
AcDbEntity
  8
0
420
16728253
100
AcDbLine
 10
-32.09436098072095
 20
-94.7098304994744
 30
0.0
 11
60.793029769460546
 21
79.39903986478353
 31
0.0
  0
LINE
  5
143
330
17
100
AcDbEntity
  8
0
420
16728253
100
AcDbLine
 10
-33.281954452298685
 20
-94.29905358928646
 30
0.0
 11
62.769136129070056
 21
77.84623015670233
 31
0.0
  0
LINE
  5
144
330
17
100
AcDbEntity
  8
0
420
16728253
100
AcDbLine
 10
-34.464292317451736
 20
-93.87338576538738
 30
0.0
 11
64.7055961569445
 21
76.24425110114474
 31
0.0
  0
LINE
  5
145
330
17
100
AcDbEntity
  8
0
420
16728253
100
AcDbLine
 10
-35.641187871325094
 20
-93.43289424566119
 30
0.0
 11
66.60118674342519
 21
74.59411454241817
 31
0.0
  0
LINE
  5
146
330
17
100
AcDbEntity
  8
0
420
16728509
100
AcDbLine
 10
-36.8124552684678
 20
-92.97764858882516
 30
0.0
 11
68.45471059286888
 21
72.89686274214115
 31
0.0
  0
LINE
  5
147
330
17
100
AcDbEntity
  8
0
420
16728509
100
AcDbLine
 10
-37.977909552180115
 20
-92.50772068344583
 30
0.0
 11
70.26499697988494
 21
71.15356772092852
 31
0.0
  0
LINE
  5
148
330
17
100
AcDbEntity
  8
0
420
16728508
100
AcDbLine
 10
-39.13736668372025
 20
-92.02318473658704
 30
0.0
 11
72.03090248879073
 21
69.36533058128047
 31
0.0
  0
LINE
  5
149
330
17
100
AcDbEntity
  8
0
420
16728508
100
AcDbLine
 10
-40.29064357136629
 20
-91.52411726209174
 30
0.0
 11
73.75131173581744
 21
67.5332808121024
 31
0.0
  0
LINE
  5
14A
330
17
100
AcDbEntity
  8
0
420
16728764
100
AcDbLine
 10
-41.43755809932842
 20
-91.01059706849955
 30
0.0
 11
75.42513807361037
 21
65.65857557529566
 31
0.0
  0
LINE
  5
14B
330
17
100
AcDbEntity
  8
0
420
16728764
100
AcDbLine
 10
-42.577929156507274
 20
-90.48270524660194
 30
0.0
 11
77.05132427757894
 21
63.74239897486896
 31
0.0
  0
LINE
  5
14C
330
17
100
AcDbEntity
  8
0
420
16728764
100
AcDbLine
 10
-43.711576665093304
 20
-89.9405251566371
 30
0.0
 11
78.62884321366194
 21
61.78596130903341
 31
0.0
  0
LINE
  5
14D
330
17
100
AcDbEntity
  8
0
420
16729019
100
AcDbLine
 10
-44.83832160900325
 20
-89.38414241512638
 30
0.0
 11
80.15669848708768
 21
59.79049830575184
 31
0.0
  0
LINE
  5
14E
330
17
100
AcDbEntity
  8
0
420
16729019
100
AcDbLine
 10
-45.957986062148784
 20
-88.81364488135446
 30
0.0
 11
81.6339250717184
 21
57.75727034222676
 31
0.0
  0
LINE
  5
14F
330
17
100
AcDbEntity
  8
0
420
16729019
100
AcDbLine
 10
-47.07039321653326
 20
-88.22912264349534
 30
0.0
 11
83.05958991958127
 21
55.68756164881879
 31
0.0
  0
LINE
  5
150
330
17
100
AcDbEntity
  8
0
420
16729019
100
AcDbLine
 10
-48.175367410171546
 20
-87.63066800438637
 30
0.0
 11
84.43279255020153
 21
53.58267949789963
 31
0.0
  0
LINE
  5
151
330
17
100
AcDbEntity
  8
0
420
16729019
100
AcDbLine
 10
-49.27273415482919
 20
-87.01837546695256
 30
0.0
 11
85.75266561936526
 21
51.443953378150596
 31
0.0
  0
LINE
  5
152
330
17
100
AcDbEntity
  8
0
420
16729274
100
AcDbLine
 10
-50.36232016357608
 20
-86.39234171928354
 30
0.0
 11
87.01837546695256
 21
49.272734154829166
 31
0.0
  0
LINE
  5
153
330
17
100
AcDbEntity
  8
0
420
16729274
100
AcDbLine
 10
-51.44395337815065
 20
-85.7526656193652
 30
0.0
 11
88.22912264349534
 21
47.07039321653325
 31
0.0
  0
LINE
  5
154
330
17
100
AcDbEntity
  8
0
420
16729274
100
AcDbLine
 10
-52.51746299612958
 20
-85.09944817946918
 30
0.0
 11
89.38414241512638
 21
44.8383216090032
 31
0.0
  0
LINE
  5
155
330
17
100
AcDbEntity
  8
0
420
16729529
100
AcDbLine
 10
-53.58267949789969
 20
-84.4327925502015
 30
0.0
 11
90.48270524660197
 21
42.577929156507224
 31
0.0
  0
LINE
  5
156
330
17
100
AcDbEntity
  8
0
420
16729529
100
AcDbLine
 10
-54.6394346734269
 20
-83.75280400421417
 30
0.0
 11
91.52411726209176
 21
40.29064357136629
 31
0.0
  0
LINE
  5
157
330
17
100
AcDbEntity
  8
0
420
16729529
100
AcDbLine
 10
-55.68756164881881
 20
-83.05958991958127
 30
0.0
 11
92.50772068344583
 21
37.97790955218011
 31
0.0
  0
LINE
  5
158
330
17
100
AcDbEntity
  8
0
420
16729785
100
AcDbLine
 10
-56.72689491267566
 20
-82.35325976284275
 30
0.0
 11
93.43289424566123
 21
35.641187871325045
 31
0.0
  0
LINE
  5
159
330
17
100
AcDbEntity
  8
0
420
16729784
100
AcDbLine
 10
-57.75727034222678
 20
-81.6339250717184
 30
0.0
 11
94.29905358928646
 21
33.28195445229862
 31
0.0
  0
LINE
  5
15A
330
17
100
AcDbEntity
  8
0
420
16729784
100
AcDbLine
 10
-58.77852522924735
 20
-80.90169943749473
 30
0.0
 11
95.10565162951536
 21
30.901699437494678
 31
0.0
  0
LINE
  5
15B
330
17
100
AcDbEntity
  8
0
420
16730040
100
AcDbLine
 10
-59.790498305751896
 20
-80.15669848708767
 30
0.0
 11
95.85217890173759
 21
28.501926246997616
 31
0.0
  0
LINE
  5
15C
330
17
100
AcDbEntity
  8
0
420
16730039
100
AcDbLine
 10
-60.793029769460546
 20
-79.39903986478353
 30
0.0
 11
96.53816388332739
 21
26.084150628989683
 31
0.0
  0
LINE
  5
15D
330
17
100
AcDbEntity
  8
0
420
16730295
100
AcDbLine
 10
-61.78596130903345
 20
-78.62884321366187
 30
0.0
 11
97.16317329146742
 21
23.649899702372426
 31
0.0
  0
LINE
  5
15E
330
17
100
AcDbEntity
  8
0
420
16730295
100
AcDbLine
 10
-62.76913612907007
 20
-77.84623015670233
 30
0.0
 11
97.72681235681938
 21
21.200710992205412
 31
0.0
  0
LINE
  5
15F
330
17
100
AcDbEntity
  8
0
420
16730295
100
AcDbLine
 10
-63.742398974868976
 20
-77.05132427757894
 30
0.0
 11
98.22872507286888
 21
18.738131458572475
 31
0.0
  0
LINE
  5
160
330
17
100
AcDbEntity
  8
0
420
16730550
100
AcDbLine
 10
-64.70559615694444
 20
-76.24425110114477
 30
0.0
 11
98.66859442078682
 21
16.263716519488348
 31
0.0
  0
LINE
  5
161
330
17
100
AcDbEntity
  8
0
420
16730550
100
AcDbLine
 10
-65.65857557529566
 20
-75.42513807361037
 30
0.0
 11
99.04614256966514
 21
13.779029068463764
 31
0.0
  0
LINE
  5
162
330
17
100
AcDbEntity
  8
0
420
16730550
100
AcDbLine
 10
-66.60118674342519
 20
-74.5941145424182
 30
0.0
 11
99.36113105200087
 21
11.285638487348109
 31
0.0
  0
LINE
  5
163
330
17
100
AcDbEntity
  8
0
420
16730805
100
AcDbLine
 10
-67.53328081210243
 20
-73.75131173581737
 30
0.0
 11
99.61336091431727
 21
8.785119655074324
 31
0.0
  0
LINE
  5
164
330
17
100
AcDbEntity
  8
0
420
16730805
100
AcDbLine
 10
-68.45471059286888
 20
-72.89686274214114
 30
0.0
 11
99.80267284282715
 21
6.279051952931322
 31
0.0
  0
LINE
  5
165
330
17
100
AcDbEntity
  8
0
420
16731061
100
AcDbLine
 10
-69.3653305812805
 20
-72.03090248879066
 30
0.0
 11
99.92894726405892
 21
3.7690182669934282
 31
0.0
  0
LINE
  5
166
330
17
100
AcDbEntity
  8
0
420
16731060
100
AcDbLine
 10
-70.26499697988494
 20
-71.15356772092852
 30
0.0
 11
99.9921044203816
 21
1.2566039883352127
 31
0.0
  0
LINE
  5
167
330
17
100
AcDbEntity
  8
0
420
16731316
100
AcDbLine
 10
-71.15356772092854
 20
-70.26499697988491
 30
0.0
 11
99.9921044203816
 21
-1.2566039883352416
 31
0.0
  0
LINE
  5
168
330
17
100
AcDbEntity
  8
0
420
16731315
100
AcDbLine
 10
-72.03090248879069
 20
-69.36533058128049
 30
0.0
 11
99.92894726405892
 21
-3.7690182669934567
 31
0.0
  0
LINE
  5
169
330
17
100
AcDbEntity
  8
0
420
16731315
100
AcDbLine
 10
-72.89686274214118
 20
-68.45471059286885
 30
0.0
 11
99.80267284282715
 21
-6.279051952931365
 31
0.0
  0
LINE
  5
16A
330
17
100
AcDbEntity
  8
0
420
16731571
100
AcDbLine
 10
-73.75131173581741
 20
-67.53328081210242
 30
0.0
 11
99.61336091431724
 21
-8.785119655074366
 31
0.0
  0
LINE
  5
16B
330
17
100
AcDbEntity
  8
0
420
16731570
100
AcDbLine
 10
-74.59411454241821
 20
-66.60118674342516
 30
0.0
 11
99.36113105200084
 21
-11.285638487348152
 31
0.0
  0
LINE
  5
16C
330
17
100
AcDbEntity
  8
0
420
16731826
100
AcDbLine
 10
-75.42513807361038
 20
-65.65857557529563
 30
0.0
 11
99.04614256966511
 21
-13.779029068463808
 31
0.0
  0
LINE
  5
16D
330
17
100
AcDbEntity
  8
0
420
16731826
100
AcDbLine
 10
-76.24425110114478
 20
-64.70559615694442
 30
0.0
 11
98.66859442078682
 21
-16.26371651948839
 31
0.0
  0
LINE
  5
16E
330
17
100
AcDbEntity
  8
0
420
16732081
100
AcDbLine
 10
-77.05132427757894
 20
-63.74239897486894
 30
0.0
 11
98.22872507286885
 21
-18.738131458572504
 31
0.0
  0
LINE
  5
16F
330
17
100
AcDbEntity
  8
0
420
16732081
100
AcDbLine
 10
-77.84623015670238
 20
-62.769136129070034
 30
0.0
 11
97.72681235681932
 21
-21.20071099220553
 31
0.0
  0
LINE
  5
170
330
17
100
AcDbEntity
  8
0
420
16732336
100
AcDbLine
 10
-78.62884321366191
 20
-61.78596130903339
 30
0.0
 11
97.16317329146736
 21
-23.649899702372558
 31
0.0
  0
LINE
  5
171
330
17
100
AcDbEntity
  8
0
420
16732336
100
AcDbLine
 10
-79.39903986478357
 20
-60.793029769460496
 30
0.0
 11
96.53816388332737
 21
-26.0841506289898
 31
0.0
  0
LINE
  5
172
330
17
100
AcDbEntity
  8
0
420
16732591
100
AcDbLine
 10
-80.15669848708764
 20
-59.790498305751896
 30
0.0
 11
95.85217890173762
 21
-28.50192624699756
 31
0.0
  0
LINE
  5
173
330
17
100
AcDbEntity
  8
0
420
16732591
100
AcDbLine
 10
-80.90169943749473
 20
-58.778525229247315
 30
0.0
 11
95.10565162951536
 21
-30.901699437494706
 31
0.0
  0
LINE
  5
174
330
17
100
AcDbEntity
  8
0
420
16732847
100
AcDbLine
 10
-81.6339250717184
 20
-57.757270342226754
 30
0.0
 11
94.29905358928646
 21
-33.281954452298656
 31
0.0
  0
LINE
  5
175
330
17
100
AcDbEntity
  8
0
420
16732846
100
AcDbLine
 10
-82.35325976284275
 20
-56.726894912675654
 30
0.0
 11
93.43289424566123
 21
-35.64118787132507
 31
0.0
  0
LINE
  5
176
330
17
100
AcDbEntity
  8
0
420
16733102
100
AcDbLine
 10
-83.05958991958128
 20
-55.68756164881879
 30
0.0
 11
92.5077206834458
 21
-37.977909552180144
 31
0.0
  0
LINE
  5
177
330
17
100
AcDbEntity
  8
0
420
16733101
100
AcDbLine
 10
-83.75280400421418
 20
-54.63943467342687
 30
0.0
 11
91.52411726209174
 21
-40.29064357136631
 31
0.0
  0
LINE
  5
178
330
17
100
AcDbEntity
  8
0
420
16733357
100
AcDbLine
 10
-84.43279255020153
 20
-53.58267949789963
 30
0.0
 11
90.48270524660191
 21
-42.577929156507324
 31
0.0
  0
LINE
  5
179
330
17
100
AcDbEntity
  8
0
420
16733356
100
AcDbLine
 10
-85.09944817946922
 20
-52.51746299612952
 30
0.0
 11
89.38414241512632
 21
-44.83832160900331
 31
0.0
  0
LINE
  5
17A
330
17
100
AcDbEntity
  8
0
420
16733612
100
AcDbLine
 10
-85.7526656193652
 20
-51.44395337815065
 30
0.0
 11
88.22912264349534
 21
-47.0703932165332
 31
0.0
  0
LINE
  5
17B
330
17
100
AcDbEntity
  8
0
420
16733867
100
AcDbLine
 10
-86.39234171928354
 20
-50.3623201635761
 30
0.0
 11
87.01837546695256
 21
-49.27273415482913
 31
0.0
  0
LINE
  5
17C
330
17
100
AcDbEntity
  8
0
420
16733867
100
AcDbLine
 10
-87.01837546695256
 20
-49.27273415482916
 30
0.0
 11
85.75266561936525
 21
-51.44395337815063
 31
0.0
  0
LINE
  5
17D
330
17
100
AcDbEntity
  8
0
420
16734122
100
AcDbLine
 10
-87.63066800438637
 20
-48.17536741017151
 30
0.0
 11
84.43279255020153
 21
-53.58267949789967
 31
0.0
  0
LINE
  5
17E
330
17
100
AcDbEntity
  8
0
420
16734122
100
AcDbLine
 10
-88.22912264349534
 20
-47.070393216533226
 30
0.0
 11
83.05958991958124
 21
-55.687561648818814
 31
0.0
  0
LINE
  5
17F
330
17
100
AcDbEntity
  8
0
420
16734377
100
AcDbLine
 10
-88.81364488135446
 20
-45.95798606214876
 30
0.0
 11
81.63392507171837
 21
-57.75727034222682
 31
0.0
  0
LINE
  5
180
330
17
100
AcDbEntity
  8
0
420
16734377
100
AcDbLine
 10
-89.3841424151264
 20
-44.838321609003195
 30
0.0
 11
80.15669848708762
 21
-59.79049830575196
 31
0.0
  0
LINE
  5
181
330
17
100
AcDbEntity
  8
0
420
16734633
100
AcDbLine
 10
-89.94052515663714
 20
-43.71157666509325
 30
0.0
 11
78.62884321366181
 21
-61.785961309033496
 31
0.0
  0
LINE
  5
182
330
17
100
AcDbEntity
  8
0
420
16734888
100
AcDbLine
 10
-90.48270524660194
 20
-42.5779291565073
 30
0.0
 11
77.05132427757894
 21
-63.74239897486892
 31
0.0
  0
LINE
  5
183
330
17
100
AcDbEntity
  8
0
420
16734888
100
AcDbLine
 10
-91.01059706849956
 20
-41.43755809932842
 30
0.0
 11
75.42513807361041
 21
-65.65857557529563
 31
0.0
  0
LINE
  5
184
330
17
100
AcDbEntity
  8
0
420
16735143
100
AcDbLine
 10
-91.52411726209175
 20
-40.29064357136628
 30
0.0
 11
73.75131173581741
 21
-67.53328081210242
 31
0.0
  0
LINE
  5
185
330
17
100
AcDbEntity
  8
0
420
16735398
100
AcDbLine
 10
-92.02318473658704
 20
-39.137366683720224
 30
0.0
 11
72.03090248879069
 21
-69.36533058128049
 31
0.0
  0
LINE
  5
186
330
17
100
AcDbEntity
  8
0
420
16735398
100
AcDbLine
 10
-92.50772068344581
 20
-37.977909552180115
 30
0.0
 11
70.26499697988491
 21
-71.15356772092852
 31
0.0
  0
LINE
  5
187
330
17
100
AcDbEntity
  8
0
420
16735653
100
AcDbLine
 10
-92.97764858882515
 20
-36.81245526846777
 30
0.0
 11
68.45471059286882
 21
-72.89686274214118
 31
0.0
  0
LINE
  5
188
330
17
100
AcDbEntity
  8
0
420
16735653
100
AcDbLine
 10
-93.43289424566122
 20
-35.641187871325045
 30
0.0
 11
66.6011867434251
 21
-74.59411454241825
 31
0.0
  0
LINE
  5
189
330
17
100
AcDbEntity
  8
0
420
16735908
100
AcDbLine
 10
-93.87338576538743
 20
-34.46429231745168
 30
0.0
 11
64.70559615694437
 21
-76.24425110114485
 31
0.0
  0
LINE
  5
18A
330
17
100
AcDbEntity
  8
0
420
16736164
100
AcDbLine
 10
-94.29905358928646
 20
-33.28195445229859
 30
0.0
 11
62.76913612906998
 21
-77.84623015670242
 31
0.0
  0
LINE
  5
18B
330
17
100
AcDbEntity
  8
0
420
16736163
100
AcDbLine
 10
-94.7098304994744
 20
-32.094360980720964
 30
0.0
 11
60.79302976946058
 21
-79.3990398647835
 31
0.0
  0
LINE
  5
18C
330
17
100
AcDbEntity
  8
0
420
16736419
100
AcDbLine
 10
-95.10565162951535
 20
-30.901699437494734
 30
0.0
 11
58.77852522924735
 21
-80.90169943749473
 31
0.0
  0
LINE
  5
18D
330
17
100
AcDbEntity
  8
0
420
16736674
100
AcDbLine
 10
-95.48645447466428
 20
-29.704158157703493
 30
0.0
 11
56.726894912675654
 21
-82.35325976284275
 31
0.0
  0
LINE
  5
18E
330
17
100
AcDbEntity
  8
0
420
16736674
100
AcDbLine
 10
-95.85217890173759
 20
-28.501926246997606
 30
0.0
 11
54.63943467342689
 21
-83.75280400421417
 31
0.0
  0
LINE
  5
18F
330
17
100
AcDbEntity
  8
0
420
16736929
100
AcDbLine
 10
-96.2027671586086
 20
-27.295193551732506
 30
0.0
 11
52.51746299612955
 21
-85.0994481794692
 31
0.0
  0
LINE
  5
190
330
17
100
AcDbEntity
  8
0
420
16737185
100
AcDbLine
 10
-96.53816388332741
 20
-26.084150628989654
 30
0.0
 11
50.362320163576044
 21
-86.39234171928356
 31
0.0
  0
LINE
  5
191
330
17
100
AcDbEntity
  8
0
420
16737184
100
AcDbLine
 10
-96.85831611286312
 20
-24.86898871648544
 30
0.0
 11
48.175367410171454
 21
-87.63066800438638
 31
0.0
  0
LINE
  5
192
330
17
100
AcDbEntity
  8
0
420
16737439
100
AcDbLine
 10
-97.1631732914674
 20
-23.649899702372426
 30
0.0
 11
45.957986062148706
 21
-88.8136448813545
 31
0.0
  0
LINE
  5
193
330
17
100
AcDbEntity
  8
0
420
16737695
100
AcDbLine
 10
-97.4526872786577
 20
-22.427076094938144
 30
0.0
 11
43.71157666509336
 21
-89.94052515663707
 31
0.0
  0
LINE
  5
194
330
17
100
AcDbEntity
  8
0
420
16737694
100
AcDbLine
 10
-97.72681235681935
 20
-21.200710992205472
 30
0.0
 11
41.437558099328456
 21
-91.01059706849955
 31
0.0
  0
LINE
  5
195
330
17
100
AcDbEntity
  8
0
420
16737950
100
AcDbLine
 10
-97.98550523842468
 20
-19.970998051440706
 30
0.0
 11
39.13736668372025
 21
-92.02318473658704
 31
0.0
  0
LINE
  5
196
330
17
100
AcDbEntity
  8
0
420
16738205
100
AcDbLine
 10
-98.22872507286887
 20
-18.73813145857246
 30
0.0
 11
36.8124552684678
 21
-92.97764858882516
 31
0.0
  0
LINE
  5
197
330
17
100
AcDbEntity
  8
0
420
16738460
100
AcDbLine
 10
-98.45643345292055
 20
-17.502305897527588
 30
0.0
 11
34.46429231745168
 21
-93.87338576538741
 31
0.0
  0
LINE
  5
198
330
17
100
AcDbEntity
  8
0
420
16738460
100
AcDbLine
 10
-98.66859442078682
 20
-16.263716519488334
 30
0.0
 11
32.09436098072091
 21
-94.70983049947445
 31
0.0
  0
LINE
  5
199
330
17
100
AcDbEntity
  8
0
420
16738715
100
AcDbLine
 10
-98.86517447379141
 20
-15.022558912075665
 30
0.0
 11
29.704158157703432
 21
-95.4864544746643
 31
0.0
  0
LINE
  5
19A
330
17
100
AcDbEntity
  8
0
420
16738971
100
AcDbLine
 10
-99.04614256966514
 20
-13.779029068463764
 30
0.0
 11
27.29519355173243
 21
-96.20276715860862
 31
0.0
  0
LINE
  5
19B
330
17
100
AcDbEntity
  8
0
420
16739226
100
AcDbLine
 10
-99.21147013144778
 20
-12.53332335643037
 30
0.0
 11
24.86898871648537
 21
-96.85831611286314
 31
0.0
  0
LINE
  5
19C
330
17
100
AcDbEntity
  8
0
420
16739225
100
AcDbLine
 10
-99.36113105200084
 20
-11.285638487348196
 30
0.0
 11
22.427076094938144
 21
-97.4526872786577
 31
0.0
  0
LINE
  5
19D
330
17
100
AcDbEntity
  8
0
420
16739481
100
AcDbLine
 10
-99.49510169813001
 20
-10.036171485121494
 30
0.0
 11
19.970998051440734
 21
-97.98550523842466
 31
0.0
  0
LINE
  5
19E
330
17
100
AcDbEntity
  8
0
420
16739736
100
AcDbLine
 10
-99.61336091431725
 20
-8.785119655074308
 30
0.0
 11
17.502305897527602
 21
-98.45643345292055
 31
0.0
  0
LINE
  5
19F
330
17
100
AcDbEntity
  8
0
420
16739991
100
AcDbLine
 10
-99.7158900260614
 20
-7.532680552793258
 30
0.0
 11
15.022558912075693
 21
-98.86517447379141
 31
0.0
  0
LINE
  5
1A0
330
17
100
AcDbEntity
  8
0
420
16739991
100
AcDbLine
 10
-99.80267284282715
 20
-6.279051952931307
 30
0.0
 11
12.533323356430385
 21
-99.21147013144778
 31
0.0
  0
LINE
  5
1A1
330
17
100
AcDbEntity
  8
0
420
16740246
100
AcDbLine
 10
-99.87369566060174
 20
-5.024431817976928
 30
0.0
 11
10.036171485121422
 21
-99.49510169813004
 31
0.0
  0
LINE
  5
1A2
330
17
100
AcDbEntity
  8
0
420
16740501
100
AcDbLine
 10
-99.92894726405893
 20
-3.769018266993414
 30
0.0
 11
7.532680552793186
 21
-99.7158900260614
 31
0.0
  0
LINE
  5
1A3
330
17
100
AcDbEntity
  8
0
420
16740757
100
AcDbLine
 10
-99.96841892833001
 20
-2.5130095443336975
 30
0.0
 11
5.024431817976855
 21
-99.87369566060174
 31
0.0
  0
LINE
  5
1A4
330
17
100
AcDbEntity
  8
0
420
16741012
100
AcDbLine
 10
-99.99210442038161
 20
-1.2566039883352853
 30
0.0
 11
2.5130095443337988
 21
-99.96841892832998
 31
0.0
  0
LINE
  5
1A5
330
17
100
AcDbEntity
  8
0
420
16741011
100
AcDbLine
 10
-100.0
 20
-1.4500872158369392e-14
 30
0.0
 11
2.9001744316738784e-14
 21
-100.0
 31
0.0
  0
LINE
  5
1A6
330
17
100
AcDbEntity
  8
0
420
16741267
100
AcDbLine
 10
-99.99210442038161
 20
1.2566039883352562
 30
0.0
 11
-2.5130095443337406
 21
-99.96841892832998
 31
0.0
  0
LINE
  5
1A7
330
17
100
AcDbEntity
  8
0
420
16741522
100
AcDbLine
 10
-99.96841892833
 20
2.5130095443337552
 30
0.0
 11
-5.024431817976971
 21
-99.87369566060174
 31
0.0
  0
LINE
  5
1A8
330
17
100
AcDbEntity
  8
0
420
16741777
100
AcDbLine
 10
-99.92894726405892
 20
3.7690182669934713
 30
0.0
 11
-7.532680552793303
 21
-99.7158900260614
 31
0.0
  0
LINE
  5
1A9
330
17
100
AcDbEntity
  8
0
420
16742033
100
AcDbLine
 10
-99.87369566060174
 20
5.024431817976986
 30
0.0
 11
-10.036171485121539
 21
-99.49510169813
 31
0.0
  0
LINE
  5
1AA
330
17
100
AcDbEntity
  8
0
420
16742032
100
AcDbLine
 10
-99.80267284282715
 20
6.279051952931381
 30
0.0
 11
-12.5333233564305
 21
-99.21147013144778
 31
0.0
  0
LINE
  5
1AB
330
17
100
AcDbEntity
  8
0
420
16742287
100
AcDbLine
 10
-99.7158900260614
 20
7.532680552793317
 30
0.0
 11
-15.022558912075809
 21
-98.86517447379138
 31
0.0
  0
LINE
  5
1AC
330
17
100
AcDbEntity
  8
0
420
16742543
100
AcDbLine
 10
-99.61336091431725
 20
8.785119655074295
 30
0.0
 11
-17.502305897527545
 21
-98.45643345292055
 31
0.0
  0
LINE
  5
1AD
330
17
100
AcDbEntity
  8
0
420
16742798
100
AcDbLine
 10
-99.49510169813001
 20
10.03617148512148
 30
0.0
 11
-19.97099805144066
 21
-97.9855052384247
 31
0.0
  0
LINE
  5
1AE
330
17
100
AcDbEntity
  8
0
420
16743053
100
AcDbLine
 10
-99.36113105200084
 20
11.285638487348166
 30
0.0
 11
-22.4270760949381
 21
-97.4526872786577
 31
0.0
  0
LINE
  5
1AF
330
17
100
AcDbEntity
  8
0
420
16743309
100
AcDbLine
 10
-99.21147013144778
 20
12.53332335643043
 30
0.0
 11
-24.868988716485486
 21
-96.85831611286312
 31
0.0
  0
LINE
  5
1B0
330
17
100
AcDbEntity
  8
0
420
16677772
100
AcDbLine
 10
-99.04614256966512
 20
13.77902906846382
 30
0.0
 11
-27.29519355173255
 21
-96.20276715860857
 31
0.0
  0
LINE
  5
1B1
330
17
100
AcDbEntity
  8
0
420
16743563
100
AcDbLine
 10
-98.8651744737914
 20
15.022558912075738
 30
0.0
 11
-29.704158157703535
 21
-95.4864544746643
 31
0.0
  0
LINE
  5
1B2
330
17
100
AcDbEntity
  8
0
420
16743819
100
AcDbLine
 10
-98.66859442078679
 20
16.26371651948839
 30
0.0
 11
-32.09436098072103
 21
-94.70983049947439
 31
0.0
  0
LINE
  5
1B3
330
17
100
AcDbEntity
  8
0
420
16744074
100
AcDbLine
 10
-98.45643345292055
 20
17.502305897527645
 30
0.0
 11
-34.46429231745179
 21
-93.87338576538738
 31
0.0
  0
LINE
  5
1B4
330
17
100
AcDbEntity
  8
0
420
16744329
100
AcDbLine
 10
-98.22872507286885
 20
18.738131458572518
 30
0.0
 11
-36.81245526846789
 21
-92.9776485888251
 31
0.0
  0
LINE
  5
1B5
330
17
100
AcDbEntity
  8
0
420
16744584
100
AcDbLine
 10
-97.98550523842468
 20
19.970998051440674
 30
0.0
 11
-39.137366683720195
 21
-92.02318473658704
 31
0.0
  0
LINE
  5
1B6
330
17
100
AcDbEntity
  8
0
420
16744840
100
AcDbLine
 10
-97.72681235681935
 20
21.200710992205458
 30
0.0
 11
-41.43755809932839
 21
-91.01059706849958
 31
0.0
  0
LINE
  5
1B7
330
17
100
AcDbEntity
  8
0
420
16744839
100
AcDbLine
 10
-97.4526872786577
 20
22.427076094938116
 30
0.0
 11
-43.71157666509329
 21
-89.94052515663712
 31
0.0
  0
LINE
  5
1B8
330
17
100
AcDbEntity
  8
0
420
16745094
100
AcDbLine
 10
-97.16317329146739
 20
23.649899702372483
 30
0.0
 11
-45.957986062148805
 21
-88.81364488135445
 31
0.0
  0
LINE
  5
1B9
330
17
100
AcDbEntity
  8
0
420
16745349
100
AcDbLine
 10
-96.85831611286312
 20
24.8689887164855
 30
0.0
 11
-48.17536741017157
 21
-87.63066800438637
 31
0.0
  0
LINE
  5
1BA
330
17
100
AcDbEntity
  8
0
420
16745605
100
AcDbLine
 10
-96.53816388332737
 20
26.08415062898973
 30
0.0
 11
-50.362320163576136
 21
-86.39234171928351
 31
0.0
  0
LINE
  5
1BB
330
17
100
AcDbEntity
  8
0
420
16745860
100
AcDbLine
 10
-96.20276715860858
 20
27.295193551732567
 30
0.0
 11
-52.51746299612964
 21
-85.09944817946915
 31
0.0
  0
LINE
  5
1BC
330
17
100
AcDbEntity
  8
0
420
16746115
100
AcDbLine
 10
-95.85217890173757
 20
28.501926246997662
 30
0.0
 11
-54.63943467342699
 21
-83.75280400421411
 31
0.0
  0
LINE
  5
1BD
330
17
100
AcDbEntity
  8
0
420
16746370
100
AcDbLine
 10
-95.4864544746643
 20
29.704158157703464
 30
0.0
 11
-56.726894912675604
 21
-82.35325976284278
 31
0.0
  0
LINE
  5
1BE
330
17
100
AcDbEntity
  8
0
420
16681090
100
AcDbLine
 10
-95.10565162951536
 20
30.901699437494734
 30
0.0
 11
-58.77852522924729
 21
-80.90169943749477
 31
0.0
  0
LINE
  5
1BF
330
17
100
AcDbEntity
  8
0
420
16746881
100
AcDbLine
 10
-94.70983049947444
 20
32.09436098072095
 30
0.0
 11
-60.793029769460524
 21
-79.39903986478353
 31
0.0
  0
LINE
  5
1C0
330
17
100
AcDbEntity
  8
0
420
16681600
100
AcDbLine
 10
-94.29905358928644
 20
33.281954452298685
 30
0.0
 11
-62.769136129070056
 21
-77.84623015670233
 31
0.0
  0
LINE
  5
1C1
330
17
100
AcDbEntity
  8
0
420
16747391
100
AcDbLine
 10
-93.8733857653874
 20
34.464292317451715
 30
0.0
 11
-64.70559615694445
 21
-76.24425110114477
 31
0.0
  0
LINE
  5
1C2
330
17
100
AcDbEntity
  8
0
420
16747646
100
AcDbLine
 10
-93.43289424566119
 20
35.641187871325094
 30
0.0
 11
-66.60118674342522
 21
-74.5941145424182
 31
0.0
  0
LINE
  5
1C3
330
17
100
AcDbEntity
  8
0
420
16747646
100
AcDbLine
 10
-92.97764858882512
 20
36.81245526846783
 30
0.0
 11
-68.45471059286892
 21
-72.89686274214108
 31
0.0
  0
LINE
  5
1C4
330
17
100
AcDbEntity
  8
0
420
16747901
100
AcDbLine
 10
-92.50772068344578
 20
37.97790955218016
 30
0.0
 11
-70.26499697988498
 21
-71.15356772092846
 31
0.0
  0
LINE
  5
1C5
330
17
100
AcDbEntity
  8
0
420
16748156
100
AcDbLine
 10
-92.023184736587
 20
39.1373666837203
 30
0.0
 11
-72.03090248879077
 21
-69.36533058128043
 31
0.0
  0
LINE
  5
1C6
330
17
100
AcDbEntity
  8
0
420
16748411
100
AcDbLine
 10
-91.52411726209176
 20
40.29064357136625
 30
0.0
 11
-73.75131173581735
 21
-67.53328081210248
 31
0.0
  0
LINE
  5
1C7
330
17
100
AcDbEntity
  8
0
420
16748667
100
AcDbLine
 10
-91.01059706849956
 20
41.437558099328406
 30
0.0
 11
-75.42513807361037
 21
-65.65857557529566
 31
0.0
  0
LINE
  5
1C8
330
17
100
AcDbEntity
  8
0
420
16748922
100
AcDbLine
 10
-90.48270524660194
 20
42.57792915650726
 30
0.0
 11
-77.05132427757893
 21
-63.742398974868976
 31
0.0
  0
LINE
  5
1C9
330
17
100
AcDbEntity
  8
0
420
16749177
100
AcDbLine
 10
-89.9405251566371
 20
43.711576665093304
 30
0.0
 11
-78.62884321366191
 21
-61.785961309033425
 31
0.0
  0
LINE
  5
1CA
330
17
100
AcDbEntity
  8
0
420
16683896
100
AcDbLine
 10
-89.38414241512636
 20
44.838321609003245
 30
0.0
 11
-80.15669848708768
 21
-59.79049830575184
 31
0.0
  0
LINE
  5
1CB
330
17
100
AcDbEntity
  8
0
420
16749687
100
AcDbLine
 10
-88.81364488135445
 20
45.95798606214881
 30
0.0
 11
-81.63392507171844
 21
-57.7572703422267
 31
0.0
  0
LINE
  5
1CC
330
17
100
AcDbEntity
  8
0
420
16684407
100
AcDbLine
 10
-88.2291226434953
 20
47.070393216533304
 30
0.0
 11
-83.05958991958131
 21
-55.68756164881874
 31
0.0
  0
LINE
  5
1CD
330
17
100
AcDbEntity
  8
0
420
16750198
100
AcDbLine
 10
-87.63066800438635
 20
48.175367410171575
 30
0.0
 11
-84.43279255020155
 21
-53.582679497899576
 31
0.0
  0
LINE
  5
1CE
330
17
100
AcDbEntity
  8
0
420
16750453
100
AcDbLine
 10
-87.01837546695258
 20
49.272734154829145
 30
0.0
 11
-85.7526656193652
 21
-51.44395337815069
 31
0.0
  0
LINE
  5
1CF
330
17
100
AcDbEntity
  8
0
420
16750708
100
AcDbLine
 10
-86.39234171928354
 20
50.36232016357608
 30
0.0
 11
-87.01837546695256
 21
-49.27273415482919
 31
0.0
  0
LINE
  5
1D0
330
17
100
AcDbEntity
  8
0
420
16750963
100
AcDbLine
 10
-85.75266561936522
 20
51.44395337815064
 30
0.0
 11
-88.22912264349534
 21
-47.070393216533255
 31
0.0
  0
LINE
  5
1D1
330
17
100
AcDbEntity
  8
0
420
16751219
100
AcDbLine
 10
-85.09944817946919
 20
52.51746299612958
 30
0.0
 11
-89.3841424151264
 21
-44.83832160900322
 31
0.0
  0
LINE
  5
1D2
330
17
100
AcDbEntity
  8
0
420
16751474
100
AcDbLine
 10
-84.4327925502015
 20
53.582679497899676
 30
0.0
 11
-90.48270524660197
 21
-42.577929156507246
 31
0.0
  0
LINE
  5
1D3
330
17
100
AcDbEntity
  8
0
420
16751729
100
AcDbLine
 10
-83.75280400421416
 20
54.63943467342693
 30
0.0
 11
-91.52411726209178
 21
-40.29064357136622
 31
0.0
  0
LINE
  5
1D4
330
17
100
AcDbEntity
  8
0
420
16751984
100
AcDbLine
 10
-83.05958991958124
 20
55.68756164881884
 30
0.0
 11
-92.50772068344584
 21
-37.97790955218006
 31
0.0
  0
LINE
  5
1D5
330
17
100
AcDbEntity
  8
0
420
16752239
100
AcDbLine
 10
-82.35325976284271
 20
56.7268949126757
 30
0.0
 11
-93.43289424566123
 21
-35.64118787132498
 31
0.0
  0
LINE
  5
1D6
330
17
100
AcDbEntity
  8
0
420
16752494
100
AcDbLine
 10
-81.63392507171841
 20
57.75727034222674
 30
0.0
 11
-94.29905358928642
 21
-33.28195445229871
 31
0.0
  0
LINE
  5
1D7
330
17
100
AcDbEntity
  8
0
420
16752750
100
AcDbLine
 10
-80.90169943749474
 20
58.7785252292473
 30
0.0
 11
-95.10565162951534
 21
-30.901699437494795
 31
0.0
  0
LINE
  5
1D8
330
17
100
AcDbEntity
  8
0
420
16753005
100
AcDbLine
 10
-80.15669848708767
 20
59.79049830575188
 30
0.0
 11
-95.85217890173759
 21
-28.501926246997616
 31
0.0
  0
LINE
  5
1D9
330
17
100
AcDbEntity
  8
0
420
16753260
100
AcDbLine
 10
-79.39903986478353
 20
60.793029769460546
 30
0.0
 11
-96.53816388332739
 21
-26.084150628989683
 31
0.0
  0
LINE
  5
1DA
330
17
100
AcDbEntity
  8
0
420
16753515
100
AcDbLine
 10
-78.62884321366187
 20
61.785961309033446
 30
0.0
 11
-97.1631732914674
 21
-23.64989970237244
 31
0.0
  0
LINE
  5
1DB
330
17
100
AcDbEntity
  8
0
420
16753770
100
AcDbLine
 10
-77.84623015670233
 20
62.76913612907007
 30
0.0
 11
-97.72681235681937
 21
-21.200710992205412
 31
0.0
  0
LINE
  5
1DC
330
17
100
AcDbEntity
  8
0
420
16754025
100
AcDbLine
 10
-77.0513242775789
 20
63.742398974869
 30
0.0
 11
-98.22872507286888
 21
-18.738131458572386
 31
0.0
  0
LINE
  5
1DD
330
17
100
AcDbEntity
  8
0
420
16754281
100
AcDbLine
 10
-76.24425110114474
 20
64.70559615694447
 30
0.0
 11
-98.66859442078683
 21
-16.263716519488273
 31
0.0
  0
LINE
  5
1DE
330
17
100
AcDbEntity
  8
0
420
16754536
100
AcDbLine
 10
-75.42513807361034
 20
65.65857557529569
 30
0.0
 11
-99.04614256966514
 21
-13.779029068463691
 31
0.0
  0
LINE
  5
1DF
330
17
100
AcDbEntity
  8
0
420
16754791
100
AcDbLine
 10
-74.59411454241823
 20
66.60118674342515
 30
0.0
 11
-99.36113105200084
 21
-11.28563848734821
 31
0.0
  0
LINE
  5
1E0
330
17
100
AcDbEntity
  8
0
420
16755046
100
AcDbLine
 10
-73.7513117358174
 20
67.53328081210243
 30
0.0
 11
-99.61336091431724
 21
-8.785119655074338
 31
0.0
  0
LINE
  5
1E1
330
17
100
AcDbEntity
  8
0
420
16755301
100
AcDbLine
 10
-72.89686274214115
 20
68.45471059286888
 30
0.0
 11
-99.80267284282715
 21
-6.2790519529313364
 31
0.0
  0
LINE
  5
1E2
330
17
100
AcDbEntity
  8
0
420
16755556
100
AcDbLine
 10
-72.03090248879069
 20
69.3653305812805
 30
0.0
 11
-99.92894726405892
 21
-3.7690182669934282
 31
0.0
  0
LINE
  5
1E3
330
17
100
AcDbEntity
  8
0
420
16755812
100
AcDbLine
 10
-71.1535677209285
 20
70.26499697988494
 30
0.0
 11
-99.99210442038161
 21
-1.2566039883352127
 31
0.0
  0
LINE
  5
1E4
330
17
100
AcDbEntity
  8
0
420
16756323
100
AcDbLine
 10
-70.2649969798849
 20
71.15356772092855
 30
0.0
 11
-99.99210442038161
 21
1.2566039883353288
 31
0.0
  0
LINE
  5
1E5
330
17
100
AcDbEntity
  8
0
420
16756322
100
AcDbLine
 10
-69.36533058128047
 20
72.03090248879073
 30
0.0
 11
-99.92894726405892
 21
3.769018266993544
 31
0.0
  0
LINE
  5
1E6
330
17
100
AcDbEntity
  8
0
420
16756833
100
AcDbLine
 10
-68.45471059286882
 20
72.8968627421412
 30
0.0
 11
-99.80267284282715
 21
6.279051952931438
 31
0.0
  0
LINE
  5
1E7
330
17
100
AcDbEntity
  8
0
420
16757088
100
AcDbLine
 10
-67.53328081210246
 20
73.75131173581737
 30
0.0
 11
-99.61336091431725
 21
8.785119655074265
 31
0.0
  0
LINE
  5
1E8
330
17
100
AcDbEntity
  8
0
420
16757343
100
AcDbLine
 10
-66.60118674342516
 20
74.59411454241821
 30
0.0
 11
-99.36113105200084
 21
11.285638487348137
 31
0.0
  0
LINE
  5
1E9
330
17
100
AcDbEntity
  8
0
420
16757598
100
AcDbLine
 10
-65.65857557529564
 20
75.42513807361037
 30
0.0
 11
-99.04614256966512
 21
13.77902906846379
 31
0.0
  0
LINE
  5
1EA
330
17
100
AcDbEntity
  8
0
420
16757853
100
AcDbLine
 10
-64.70559615694442
 20
76.24425110114478
 30
0.0
 11
-98.66859442078679
 21
16.263716519488376
 31
0.0
  0
LINE
  5
1EB
330
17
100
AcDbEntity
  8
0
420
16758109
100
AcDbLine
 10
-63.742398974868955
 20
77.05132427757894
 30
0.0
 11
-98.22872507286885
 21
18.738131458572504
 31
0.0
  0
LINE
  5
1EC
330
17
100
AcDbEntity
  8
0
420
16758364
100
AcDbLine
 10
-62.76913612907003
 20
77.84623015670236
 30
0.0
 11
-97.72681235681934
 21
21.200710992205515
 31
0.0
  0
LINE
  5
1ED
330
17
100
AcDbEntity
  8
0
420
16758619
100
AcDbLine
 10
-61.7859613090334
 20
78.62884321366191
 30
0.0
 11
-97.16317329146737
 21
23.64989970237254
 31
0.0
  0
LINE
  5
1EE
330
17
100
AcDbEntity
  8
0
420
16758874
100
AcDbLine
 10
-60.793029769460496
 20
79.39903986478356
 30
0.0
 11
-96.53816388332737
 21
26.084150628989782
 31
0.0
  0
LINE
  5
1EF
330
17
100
AcDbEntity
  8
0
420
16759129
100
AcDbLine
 10
-59.79049830575184
 20
80.1566984870877
 30
0.0
 11
-95.85217890173755
 21
28.501926246997733
 31
0.0
  0
LINE
  5
1F0
330
17
100
AcDbEntity
  8
0
420
16759384
100
AcDbLine
 10
-58.77852522924732
 20
80.90169943749473
 30
0.0
 11
-95.10565162951536
 21
30.901699437494706
 31
0.0
  0
LINE
  5
1F1
330
17
100
AcDbEntity
  8
0
420
16759639
100
AcDbLine
 10
-57.75727034222676
 20
81.6339250717184
 30
0.0
 11
-94.29905358928646
 21
33.281954452298656
 31
0.0
  0
LINE
  5
1F2
330
17
100
AcDbEntity
  8
0
420
16760150
100
AcDbLine
 10
-56.72689491267564
 20
82.35325976284275
 30
0.0
 11
-93.43289424566122
 21
35.64118787132507
 31
0.0
  0
LINE
  5
1F3
330
17
100
AcDbEntity
  8
0
420
16760406
100
AcDbLine
 10
-55.687561648818786
 20
83.05958991958128
 30
0.0
 11
-92.5077206834458
 21
37.97790955218014
 31
0.0
  0
LINE
  5
1F4
330
17
100
AcDbEntity
  8
0
420
16760661
100
AcDbLine
 10
-54.63943467342689
 20
83.75280400421418
 30
0.0
 11
-91.52411726209174
 21
40.29064357136631
 31
0.0
  0
LINE
  5
1F5
330
17
100
AcDbEntity
  8
0
420
16760916
100
AcDbLine
 10
-53.58267949789963
 20
84.43279255020153
 30
0.0
 11
-90.48270524660192
 21
42.577929156507324
 31
0.0
  0
LINE
  5
1F6
330
17
100
AcDbEntity
  8
0
420
16761171
100
AcDbLine
 10
-52.517462996129524
 20
85.0994481794692
 30
0.0
 11
-89.38414241512633
 21
44.83832160900331
 31
0.0
  0
LINE
  5
1F7
330
17
100
AcDbEntity
  8
0
420
16761426
100
AcDbLine
 10
-51.443953378150596
 20
85.75266561936526
 30
0.0
 11
-88.22912264349527
 21
47.070393216533354
 31
0.0
  0
LINE
  5
1F8
330
17
100
AcDbEntity
  8
0
420
16761681
100
AcDbLine
 10
-50.3623201635761
 20
86.39234171928352
 30
0.0
 11
-87.01837546695259
 21
49.27273415482911
 31
0.0
  0
LINE
  5
1F9
330
17
100
AcDbEntity
  8
0
420
16761936
100
AcDbLine
 10
-49.272734154829166
 20
87.01837546695256
 30
0.0
 11
-85.75266561936525
 21
51.44395337815062
 31
0.0
  0
LINE
  5
1FA
330
17
100
AcDbEntity
  8
0
420
16762191
100
AcDbLine
 10
-48.175367410171525
 20
87.63066800438637
 30
0.0
 11
-84.43279255020151
 21
53.582679497899655
 31
0.0
  0
LINE
  5
1FB
330
17
100
AcDbEntity
  8
0
420
16762446
100
AcDbLine
 10
-47.07039321653325
 20
88.22912264349534
 30
0.0
 11
-83.05958991958126
 21
55.687561648818814
 31
0.0
  0
LINE
  5
1FC
330
17
100
AcDbEntity
  8
0
420
16762957
100
AcDbLine
 10
-45.95798606214877
 20
88.81364488135446
 30
0.0
 11
-81.63392507171838
 21
57.757270342226796
 31
0.0
  0
LINE
  5
1FD
330
17
100
AcDbEntity
  8
0
420
16763212
100
AcDbLine
 10
-44.838321609003195
 20
89.3841424151264
 30
0.0
 11
-80.15669848708762
 21
59.79049830575194
 31
0.0
  0
LINE
  5
1FE
330
17
100
AcDbEntity
  8
0
420
16763468
100
AcDbLine
 10
-43.71157666509325
 20
89.94052515663712
 30
0.0
 11
-78.62884321366182
 21
61.785961309033496
 31
0.0
  0
LINE
  5
1FF
330
17
100
AcDbEntity
  8
0
420
16698187
100
AcDbLine
 10
-42.57792915650721
 20
90.48270524660198
 30
0.0
 11
-77.05132427757887
 21
63.742398974869054
 31
0.0
  0
LINE
  5
200
330
17
100
AcDbEntity
  8
0
420
16763978
100
AcDbLine
 10
-41.437558099328434
 20
91.01059706849955
 30
0.0
 11
-75.42513807361043
 21
65.65857557529561
 31
0.0
  0
LINE
  5
201
330
17
100
AcDbEntity
  8
0
420
16764233
100
AcDbLine
 10
-40.29064357136628
 20
91.52411726209175
 30
0.0
 11
-73.75131173581741
 21
67.53328081210242
 31
0.0
  0
LINE
  5
202
330
17
100
AcDbEntity
  8
0
420
16764488
100
AcDbLine
 10
-39.137366683720245
 20
92.02318473658704
 30
0.0
 11
-72.03090248879069
 21
69.36533058128049
 31
0.0
  0
LINE
  5
203
330
17
100
AcDbEntity
  8
0
420
16764743
100
AcDbLine
 10
-37.977909552180115
 20
92.50772068344581
 30
0.0
 11
-70.26499697988491
 21
71.15356772092854
 31
0.0
  0
LINE
  5
204
330
17
100
AcDbEntity
  8
0
420
16765254
100
AcDbLine
 10
-36.81245526846777
 20
92.97764858882515
 30
0.0
 11
-68.45471059286884
 21
72.89686274214118
 31
0.0
  0
LINE
  5
205
330
17
100
AcDbEntity
  8
0
420
16765509
100
AcDbLine
 10
-35.641187871325045
 20
93.43289424566122
 30
0.0
 11
-66.60118674342512
 21
74.59411454241824
 31
0.0
  0
LINE
  5
206
330
17
100
AcDbEntity
  8
0
420
16765764
100
AcDbLine
 10
-34.46429231745168
 20
93.87338576538741
 30
0.0
 11
-64.70559615694438
 21
76.24425110114484
 31
0.0
  0
LINE
  5
207
330
17
100
AcDbEntity
  8
0
420
16766019
100
AcDbLine
 10
-33.28195445229862
 20
94.29905358928646
 30
0.0
 11
-62.76913612906997
 21
77.8462301567024
 31
0.0
  0
LINE
  5
208
330
17
100
AcDbEntity
  8
0
420
16766274
100
AcDbLine
 10
-32.09436098072089
 20
94.70983049947445
 30
0.0
 11
-60.793029769460446
 21
79.3990398647836
 31
0.0
  0
LINE
  5
209
330
17
100
AcDbEntity
  8
0
420
16700994
100
AcDbLine
 10
-30.901699437494766
 20
95.10565162951535
 30
0.0
 11
-58.77852522924735
 21
80.90169943749473
 31
0.0
  0
LINE
  5
20A
330
17
100
AcDbEntity
  8
0
420
16701249
100
AcDbLine
 10
-29.704158157703493
 20
95.48645447466428
 30
0.0
 11
-56.72689491267566
 21
82.35325976284274
 31
0.0
  0
LINE
  5
20B
330
17
100
AcDbEntity
  8
0
420
16767296
100
AcDbLine
 10
-28.501926246997616
 20
95.85217890173759
 30
0.0
 11
-54.63943467342691
 21
83.75280400421417
 31
0.0
  0
LINE
  5
20C
330
17
100
AcDbEntity
  8
0
420
16767295
100
AcDbLine
 10
-27.295193551732506
 20
96.2027671586086
 30
0.0
 11
-52.51746299612955
 21
85.09944817946919
 31
0.0
  0
LINE
  5
20D
330
17
100
AcDbEntity
  8
0
420
16767806
100
AcDbLine
 10
-26.084150628989672
 20
96.53816388332741
 30
0.0
 11
-50.362320163576044
 21
86.39234171928355
 31
0.0
  0
LINE
  5
20E
330
17
100
AcDbEntity
  8
0
420
16768061
100
AcDbLine
 10
-24.86898871648544
 20
96.85831611286312
 30
0.0
 11
-48.17536741017147
 21
87.63066800438638
 31
0.0
  0
LINE
  5
20F
330
17
100
AcDbEntity
  8
0
420
16768316
100
AcDbLine
 10
-23.649899702372426
 20
97.1631732914674
 30
0.0
 11
-45.957986062148706
 21
88.81364488135448
 31
0.0
  0
LINE
  5
210
330
17
100
AcDbEntity
  8
0
420
16768571
100
AcDbLine
 10
-22.42707609493806
 20
97.45268727865772
 30
0.0
 11
-43.71157666509319
 21
89.94052515663715
 31
0.0
  0
LINE
  5
211
330
17
100
AcDbEntity
  8
0
420
16768826
100
AcDbLine
 10
-21.200710992205487
 20
97.72681235681934
 30
0.0
 11
-41.437558099328456
 21
91.01059706849955
 31
0.0
  0
LINE
  5
212
330
17
100
AcDbEntity
  8
0
420
16769081
100
AcDbLine
 10
-19.970998051440706
 20
97.98550523842468
 30
0.0
 11
-39.13736668372025
 21
92.02318473658703
 31
0.0
  0
LINE
  5
213
330
17
100
AcDbEntity
  8
0
420
16704056
100
AcDbLine
 10
-18.73813145857246
 20
98.22872507286887
 30
0.0
 11
-36.8124552684678
 21
92.97764858882515
 31
0.0
  0
LINE
  5
214
330
17
100
AcDbEntity
  8
0
420
16769847
100
AcDbLine
 10
-17.502305897527588
 20
98.45643345292055
 30
0.0
 11
-34.46429231745169
 21
93.87338576538741
 31
0.0
  0
LINE
  5
215
330
17
100
AcDbEntity
  8
0
420
16770102
100
AcDbLine
 10
-16.263716519488334
 20
98.66859442078682
 30
0.0
 11
-32.09436098072091
 21
94.70983049947445
 31
0.0
  0
LINE
  5
216
330
17
100
AcDbEntity
  8
0
420
16770358
100
AcDbLine
 10
-15.022558912075679
 20
98.86517447379141
 30
0.0
 11
-29.704158157703432
 21
95.48645447466431
 31
0.0
  0
LINE
  5
217
330
17
100
AcDbEntity
  8
0
420
16770613
100
AcDbLine
 10
-13.779029068463764
 20
99.04614256966514
 30
0.0
 11
-27.29519355173245
 21
96.20276715860861
 31
0.0
  0
LINE
  5
218
330
17
100
AcDbEntity
  8
0
420
16770868
100
AcDbLine
 10
-12.53332335643037
 20
99.21147013144778
 30
0.0
 11
-24.868988716485383
 21
96.85831611286314
 31
0.0
  0
LINE
  5
219
330
17
100
AcDbEntity
  8
0
420
16771123
100
AcDbLine
 10
-11.285638487348109
 20
99.36113105200086
 30
0.0
 11
-22.427076094938002
 21
97.45268727865775
 31
0.0
  0
LINE
  5
21A
330
17
100
AcDbEntity
  8
0
420
16771378
100
AcDbLine
 10
-10.036171485121509
 20
99.49510169813001
 30
0.0
 11
-19.970998051440734
 21
97.98550523842466
 31
0.0
  0
LINE
  5
21B
330
17
100
AcDbEntity
  8
0
420
16771889
100
AcDbLine
 10
-8.785119655074324
 20
99.61336091431725
 30
0.0
 11
-17.502305897527616
 21
98.45643345292055
 31
0.0
  0
LINE
  5
21C
330
17
100
AcDbEntity
  8
0
420
16772144
100
AcDbLine
 10
-7.532680552793258
 20
99.7158900260614
 30
0.0
 11
-15.022558912075693
 21
98.86517447379141
 31
0.0
  0
LINE
  5
21D
330
17
100
AcDbEntity
  8
0
420
16772399
100
AcDbLine
 10
-6.279051952931322
 20
99.80267284282715
 30
0.0
 11
-12.533323356430397
 21
99.21147013144778
 31
0.0
  0
LINE
  5
21E
330
17
100
AcDbEntity
  8
0
420
16772654
100
AcDbLine
 10
-5.024431817976928
 20
99.87369566060174
 30
0.0
 11
-10.036171485121436
 21
99.49510169813001
 31
0.0
  0
LINE
  5
21F
330
17
100
AcDbEntity
  8
0
420
16772909
100
AcDbLine
 10
-3.769018266993414
 20
99.92894726405893
 30
0.0
 11
-7.5326805527932015
 21
99.7158900260614
 31
0.0
  0
LINE
  5
220
330
17
100
AcDbEntity
  8
0
420
16773164
100
AcDbLine
 10
-2.5130095443336975
 20
99.96841892833001
 30
0.0
 11
-5.024431817976869
 21
99.87369566060175
 31
0.0
  0
LINE
  5
221
330
17
100
AcDbEntity
  8
0
420
16773675
100
AcDbLine
 10
-1.256603988335198
 20
99.99210442038161
 30
0.0
 11
-2.5130095443336393
 21
99.96841892833001
 31
0.0
  0
ENDSEC
  0
SECTION
  2
OBJECTS
  0
DICTIONARY
  5
A
330
0
100
AcDbDictionary
281
1
  3
ACAD_COLOR
350
B
  3
ACAD_GROUP
350
C
  3
ACAD_LAYOUT
350
D
  3
ACAD_MATERIAL
350
E
  3
ACAD_MLEADERSTYLE
350
F
  3
ACAD_MLINESTYLE
350
10
  3
ACAD_PLOTSETTINGS
350
11
  3
ACAD_PLOTSTYLENAME
350
12
  3
ACAD_SCALELIST
350
14
  3
ACAD_TABLESTYLE
350
15
  3
ACAD_VISUALSTYLE
350
16
  0
DICTIONARY
  5
B
330
A
100
AcDbDictionary
281
1
  0
DICTIONARY
  5
C
330
A
100
AcDbDictionary
281
1
  0
DICTIONARY
  5
D
330
A
100
AcDbDictionary
281
1
  3
Model
350
1A
  3
Layout1
350
1E
  0
DICTIONARY
  5
E
330
A
100
AcDbDictionary
281
1
  3
ByBlock
350
1F
  3
ByLayer
350
20
  3
Global
350
21
  0
DICTIONARY
  5
F
330
A
100
AcDbDictionary
281
1
  3
Standard
350
2C
  0
DICTIONARY
  5
10
330
A
100
AcDbDictionary
281
1
  3
Standard
350
22
  0
DICTIONARY
  5
11
330
A
100
AcDbDictionary
281
1
  0
ACDBDICTIONARYWDFLT
  5
12
330
A
100
AcDbDictionary
281
1
  3
Normal
350
13
100
AcDbDictionaryWithDefault
340
13
  0
ACDBPLACEHOLDER
  5
13
330
12
  0
DICTIONARY
  5
14
330
A
100
AcDbDictionary
281
1
  0
DICTIONARY
  5
15
330
A
100
AcDbDictionary
281
1
  0
DICTIONARY
  5
16
330
A
100
AcDbDictionary
281
1
  0
LAYOUT
  5
1A
330
D
100
AcDbPlotSettings
  1

  2
Adobe PDF
  4
A4
  6

 40
3.175
 41
3.175
 42
3.175
 43
3.175
 44
209.91
 45
297.03
 46
0.0
 47
0.0
 48
0.0
 49
0.0
140
0.0
141
0.0
142
1.0
143
1.0
 70
688
 72
0
 73
1
 74
5
  7

 75
16
 76
0
 77
2
 78
300
147
1.0
148
0.0
149
0.0
100
AcDbLayout
  1
Model
 70
1
 71
0
 10
-3.175
 20
-3.175
 11
293.857
 21
206.735
 12
0.0
 22
0.0
 32
0.0
 14
29.068
 24
20.356
 34
0.0
 15
261.614
 25
183.204
 35
0.0
146
0.0
 13
0.0
 23
0.0
 33
0.0
 16
1.0
 26
0.0
 36
0.0
 17
0.0
 27
1.0
 37
0.0
 76
1
330
17
  0
LAYOUT
  5
1E
330
D
100
AcDbPlotSettings
  1

  2
Adobe PDF
  4
A4
  6

 40
3.175
 41
3.175
 42
3.175
 43
3.175
 44
209.91
 45
297.03
 46
0.0
 47
0.0
 48
0.0
 49
0.0
140
0.0
141
0.0
142
1.0
143
1.0
 70
688
 72
0
 73
1
 74
5
  7

 75
16
 76
0
 77
2
 78
300
147
1.0
148
0.0
149
0.0
100
AcDbLayout
  1
Layout1
 70
1
 71
1
 10
-3.175
 20
-3.175
 11
293.857
 21
206.735
 12
0.0
 22
0.0
 32
0.0
 14
29.068
 24
20.356
 34
0.0
 15
261.614
 25
183.204
 35
0.0
146
0.0
 13
0.0
 23
0.0
 33
0.0
 16
1.0
 26
0.0
 36
0.0
 17
0.0
 27
1.0
 37
0.0
 76
1
330
1B
  0
MATERIAL
  5
1F
102
{ACAD_REACTORS
330
E
102
}
330
E
100
AcDbMaterial
  1
ByBlock
  2

 70
0
 40
1.0
 71
1
 41
1.0
 91
-1023410177
 42
1.0
 72
1
  3

 73
1
 74
1
 75
1
 44
0.5
 73
0
 45
1.0
 46
1.0
 77
1
  4

 78
1
 79
1
170
1
 48
1.0
171
1
  6

172
1
173
1
174
1
140
1.0
141
1.0
175
1
  7

176
1
177
1
178
1
143
1.0
179
1
  8

270
1
271
1
272
1
145
1.0
146
1.0
273
1
  9

274
1
275
1
276
1
 42
1.0
 72
1
  3

 73
1
 74
1
 75
1
 94
63
  0
MATERIAL
  5
20
102
{ACAD_REACTORS
330
E
102
}
330
E
100
AcDbMaterial
  1
ByLayer
  2

 70
0
 40
1.0
 71
1
 41
1.0
 91
-1023410177
 42
1.0
 72
1
  3

 73
1
 74
1
 75
1
 44
0.5
 73
0
 45
1.0
 46
1.0
 77
1
  4

 78
1
 79
1
170
1
 48
1.0
171
1
  6

172
1
173
1
174
1
140
1.0
141
1.0
175
1
  7

176
1
177
1
178
1
143
1.0
179
1
  8

270
1
271
1
272
1
145
1.0
146
1.0
273
1
  9

274
1
275
1
276
1
 42
1.0
 72
1
  3

 73
1
 74
1
 75
1
 94
63
  0
MATERIAL
  5
21
102
{ACAD_REACTORS
330
E
102
}
330
E
100
AcDbMaterial
  1
Global
  2

 70
0
 40
1.0
 71
1
 41
1.0
 91
-1023410177
 42
1.0
 72
1
  3

 73
1
 74
1
 75
1
 44
0.5
 73
0
 45
1.0
 46
1.0
 77
1
  4

 78
1
 79
1
170
1
 48
1.0
171
1
  6

172
1
173
1
174
1
140
1.0
141
1.0
175
1
  7

176
1
177
1
178
1
143
1.0
179
1
  8

270
1
271
1
272
1
145
1.0
146
1.0
273
1
  9

274
1
275
1
276
1
 42
1.0
 72
1
  3

 73
1
 74
1
 75
1
 94
63
  0
MLINESTYLE
  5
22
102
{ACAD_REACTORS
330
10
102
}
330
10
100
AcDbMlineStyle
  2
Standard
 70
0
  3

 62
256
 51
90.0
 52
90.0
 71
2
 49
0.5
 62
256
  6
BYLAYER
 49
-0.5
 62
256
  6
BYLAYER
  0
MLEADERSTYLE
  5
2C
102
{ACAD_REACTORS
330
F
102
}
330
F
100
AcDbMLeaderStyle
179
2
170
2
171
1
172
0
 90
2
 40
0.0
 41
0.0
173
1
 91
-1056964608
 92
-2
290
1
 42
2.0
291
1
 43
8.0
  3
Standard
 44
4.0
300

342
29
174
1
175
1
176
0
178
1
 93
-1056964608
 45
4.0
292
0
297
0
 46
4.0
 94
-1056964608
 47
1.0
 49
0.0
140
1.0
294
1
141
0.0
177
0
142
1.0
295
0
296
0
143
3.75
271
0
272
9
272
9
  0
ENDSEC
  0
EOF
