  0
SECTION
  2
HEADER
  9
$ACADVER
  1
AC1018
  9
$ACADMAINTVER
 70
0
  9
$DWGCODEPAGE
  3
ANSI_1252
  9
$LASTSAVEDBY
  1
ezdxf
  9
$INSBASE
 10
0.0
 20
0.0
 30
0.0
  9
$EXTMIN
 10
-100
 20
-100
 30
-100
  9
$EXTMAX
 10
100
 20
100
 30
100
  9
$LIMMIN
 10
0.0
 20
0.0
  9
$LIMMAX
 10
420.0
 20
297.0
  9
$ORTHOMODE
 70
0
  9
$REGENMODE
 70
1
  9
$FILLMODE
 70
1
  9
$QTEXTMODE
 70
0
  9
$MIRRTEXT
 70
1
  9
$LTSCALE
 40
1.0
  9
$ATTMODE
 70
1
  9
$TEXTSIZE
 40
2.5
  9
$TRACEWID
 40
1.0
  9
$TEXTSTYLE
  7
Standard
  9
$CLAYER
  8
0
  9
$CELTYPE
  6
ByLayer
  9
$CECOLOR
 62
256
  9
$CELTSCALE
 40
1.0
  9
$DISPSILH
 70
0
  9
$DIMSCALE
 40
1.0
  9
$DIMASZ
 40
2.5
  9
$DIMEXO
 40
0.625
  9
$DIMDLI
 40
3.75
  9
$DIMRND
 40
0.0
  9
$DIMDLE
 40
0.0
  9
$DIMEXE
 40
1.25
  9
$DIMTP
 40
0.0
  9
$DIMTM
 40
0.0
  9
$DIMTXT
 40
2.5
  9
$DIMCEN
 40
2.5
  9
$DIMTSZ
 40
0.0
  9
$DIMTOL
 70
0
  9
$DIMLIM
 70
0
  9
$DIMTIH
 70
0
  9
$DIMTOH
 70
0
  9
$DIMSE1
 70
0
  9
$DIMSE2
 70
0
  9
$DIMTAD
 70
1
  9
$DIMZIN
 70
8
  9
$DIMBLK
  1

  9
$DIMASO
 70
1
  9
$DIMSHO
 70
1
  9
$DIMPOST
  1

  9
$DIMAPOST
  1

  9
$DIMALT
 70
0
  9
$DIMALTD
 70
3
  9
$DIMALTF
 40
0.03937007874
  9
$DIMLFAC
 40
1.0
  9
$DIMTOFL
 70
1
  9
$DIMTVP
 40
0.0
  9
$DIMTIX
 70
0
  9
$DIMSOXD
 70
0
  9
$DIMSAH
 70
0
  9
$DIMBLK1
  1

  9
$DIMBLK2
  1

  9
$DIMSTYLE
  2
ISO-25
  9
$DIMCLRD
 70
0
  9
$DIMCLRE
 70
0
  9
$DIMCLRT
 70
0
  9
$DIMTFAC
 40
1.0
  9
$DIMGAP
 40
0.625
  9
$DIMJUST
 70
0
  9
$DIMSD1
 70
0
  9
$DIMSD2
 70
0
  9
$DIMTOLJ
 70
0
  9
$DIMTZIN
 70
8
  9
$DIMALTZ
 70
0
  9
$DIMALTTZ
 70
0
  9
$DIMUPT
 70
0
  9
$DIMDEC
 70
2
  9
$DIMTDEC
 70
2
  9
$DIMALTU
 70
2
  9
$DIMALTTD
 70
3
  9
$DIMTXSTY
  7
Standard
  9
$DIMAUNIT
 70
0
  9
$DIMADEC
 70
0
  9
$DIMALTRND
 40
0.0
  9
$DIMAZIN
 70
0
  9
$DIMDSEP
 70
44
  9
$DIMATFIT
 70
3
  9
$DIMFRAC
 70
0
  9
$DIMLDRBLK
  1

  9
$DIMLUNIT
 70
2
  9
$DIMLWD
 70
-2
  9
$DIMLWE
 70
-2
  9
$DIMTMOVE
 70
0
  9
$LUNITS
 70
2
  9
$LUPREC
 70
4
  9
$SKETCHINC
 40
1.0
  9
$FILLETRAD
 40
10.0
  9
$AUNITS
 70
0
  9
$AUPREC
 70
2
  9
$MENU
  1
.
  9
$ELEVATION
 40
0.0
  9
$PELEVATION
 40
0.0
  9
$THICKNESS
 40
0.0
  9
$LIMCHECK
 70
0
  9
$CHAMFERA
 40
0.0
  9
$CHAMFERB
 40
0.0
  9
$CHAMFERC
 40
0.0
  9
$CHAMFERD
 40
0.0
  9
$SKPOLY
 70
0
  9
$TDCREATE
 40
2458957.60994213
  9
$TDUCREATE
 40
2458532.153996898
  9
$TDUPDATE
 40
2458957.609953704
  9
$TDUUPDATE
 40
2458532.1544311
  9
$TDINDWG
 40
0.0
  9
$TDUSRTIMER
 40
0.0
  9
$USRTIMER
 70
1
  9
$ANGBASE
 50
0.0
  9
$ANGDIR
 70
0
  9
$PDMODE
 70
0
  9
$PDSIZE
 40
0.0
  9
$PLINEWID
 40
0.0
  9
$SPLFRAME
 70
0
  9
$SPLINETYPE
 70
6
  9
$SPLINESEGS
 70
8
  9
$HANDSEED
  5
3B2
  9
$SURFTAB1
 70
6
  9
$SURFTAB2
 70
6
  9
$SURFTYPE
 70
6
  9
$SURFU
 70
6
  9
$SURFV
 70
6
  9
$UCSBASE
  2

  9
$UCSNAME
  2

  9
$UCSORG
 10
0.0
 20
0.0
 30
0.0
  9
$UCSXDIR
 10
1.0
 20
0.0
 30
0.0
  9
$UCSYDIR
 10
0.0
 20
1.0
 30
0.0
  9
$UCSORTHOREF
  2

  9
$UCSORTHOVIEW
 70
0
  9
$UCSORGTOP
 10
0.0
 20
0.0
 30
0.0
  9
$UCSORGBOTTOM
 10
0.0
 20
0.0
 30
0.0
  9
$UCSORGLEFT
 10
0.0
 20
0.0
 30
0.0
  9
$UCSORGRIGHT
 10
0.0
 20
0.0
 30
0.0
  9
$UCSORGFRONT
 10
0.0
 20
0.0
 30
0.0
  9
$UCSORGBACK
 10
0.0
 20
0.0
 30
0.0
  9
$PUCSBASE
  2

  9
$PUCSNAME
  2

  9
$PUCSORG
 10
0.0
 20
0.0
 30
0.0
  9
$PUCSXDIR
 10
1.0
 20
0.0
 30
0.0
  9
$PUCSYDIR
 10
0.0
 20
1.0
 30
0.0
  9
$PUCSORTHOREF
  2

  9
$PUCSORTHOVIEW
 70
0
  9
$PUCSORGTOP
 10
0.0
 20
0.0
 30
0.0
  9
$PUCSORGBOTTOM
 10
0.0
 20
0.0
 30
0.0
  9
$PUCSORGLEFT
 10
0.0
 20
0.0
 30
0.0
  9
$PUCSORGRIGHT
 10
0.0
 20
0.0
 30
0.0
  9
$PUCSORGFRONT
 10
0.0
 20
0.0
 30
0.0
  9
$PUCSORGBACK
 10
0.0
 20
0.0
 30
0.0
  9
$USERI1
 70
0
  9
$USERI2
 70
0
  9
$USERI3
 70
0
  9
$USERI4
 70
0
  9
$USERI5
 70
0
  9
$USERR1
 40
0.0
  9
$USERR2
 40
0.0
  9
$USERR3
 40
0.0
  9
$USERR4
 40
0.0
  9
$USERR5
 40
0.0
  9
$WORLDVIEW
 70
1
  9
$SHADEDGE
 70
3
  9
$SHADEDIF
 70
70
  9
$TILEMODE
 70
1
  9
$MAXACTVP
 70
64
  9
$PINSBASE
 10
0.0
 20
0.0
 30
0.0
  9
$PLIMCHECK
 70
0
  9
$PEXTMIN
 10
1e+20
 20
1e+20
 30
1e+20
  9
$PEXTMAX
 10
-1e+20
 20
-1e+20
 30
-1e+20
  9
$PLIMMIN
 10
0.0
 20
0.0
  9
$PLIMMAX
 10
420.0
 20
297.0
  9
$UNITMODE
 70
0
  9
$VISRETAIN
 70
1
  9
$PLINEGEN
 70
0
  9
$PSLTSCALE
 70
1
  9
$TREEDEPTH
 70
3020
  9
$CMLSTYLE
  2
Standard
  9
$CMLJUST
 70
0
  9
$CMLSCALE
 40
20.0
  9
$PROXYGRAPHICS
 70
1
  9
$MEASUREMENT
 70
1
  9
$CELWEIGHT
370
-1
  9
$ENDCAPS
280
0
  9
$JOINSTYLE
280
0
  9
$LWDISPLAY
290
0
  9
$INSUNITS
 70
6
  9
$HYPERLINKBASE
  1

  9
$STYLESHEET
  1

  9
$XEDIT
290
1
  9
$CEPSNTYPE
380
0
  9
$PSTYLEMODE
290
1
  9
$FINGERPRINTGUID
  2
516F7578-80A8-11EA-A4E2-8C89A57128BD
  9
$VERSIONGUID
  2
51BFB19B-80A8-11EA-B639-8C89A57128BD
  9
$EXTNAMES
290
1
  9
$PSVPSCALE
 40
0.0
  9
$OLESTARTUP
290
0
  9
$SORTENTS
280
127
  9
$INDEXCTL
280
0
  9
$HIDETEXT
280
1
  9
$XCLIPFRAME
280
2
  9
$HALOGAP
280
0
  9
$OBSCOLOR
 70
257
  9
$OBSLTYPE
280
0
  9
$INTERSECTIONDISPLAY
280
0
  9
$INTERSECTIONCOLOR
 70
257
  9
$DIMASSOC
280
2
  9
$PROJECTNAME
  1

  0
ENDSEC
  0
SECTION
  2
CLASSES
  0
CLASS
  1
ACDBDICTIONARYWDFLT
  2
AcDbDictionaryWithDefault
  3
ObjectDBX Classes
 90
0
 91
0
280
0
281
0
  0
CLASS
  1
SUN
  2
AcDbSun
  3
SCENEOE
 90
1153
 91
0
280
0
281
0
  0
CLASS
  1
VISUALSTYLE
  2
AcDbVisualStyle
  3
ObjectDBX Classes
 90
4095
 91
0
280
0
281
0
  0
CLASS
  1
MATERIAL
  2
AcDbMaterial
  3
ObjectDBX Classes
 90
1153
 91
0
280
0
281
0
  0
CLASS
  1
SCALE
  2
AcDbScale
  3
ObjectDBX Classes
 90
1153
 91
0
280
0
281
0
  0
CLASS
  1
TABLESTYLE
  2
AcDbTableStyle
  3
ObjectDBX Classes
 90
4095
 91
0
280
0
281
0
  0
CLASS
  1
MLEADERSTYLE
  2
AcDbMLeaderStyle
  3
ACDB_MLEADERSTYLE_CLASS
 90
4095
 91
0
280
0
281
0
  0
CLASS
  1
DICTIONARYVAR
  2
AcDbDictionaryVar
  3
ObjectDBX Classes
 90
0
 91
0
280
0
281
0
  0
CLASS
  1
CELLSTYLEMAP
  2
AcDbCellStyleMap
  3
ObjectDBX Classes
 90
1152
 91
0
280
0
281
0
  0
CLASS
  1
MENTALRAYRENDERSETTINGS
  2
AcDbMentalRayRenderSettings
  3
SCENEOE
 90
1024
 91
0
280
0
281
0
  0
CLASS
  1
ACDBDETAILVIEWSTYLE
  2
AcDbDetailViewStyle
  3
ObjectDBX Classes
 90
1025
 91
0
280
0
281
0
  0
CLASS
  1
ACDBSECTIONVIEWSTYLE
  2
AcDbSectionViewStyle
  3
ObjectDBX Classes
 90
1025
 91
0
280
0
281
0
  0
CLASS
  1
RASTERVARIABLES
  2
AcDbRasterVariables
  3
ISM
 90
0
 91
0
280
0
281
0
  0
CLASS
  1
ACDBPLACEHOLDER
  2
AcDbPlaceHolder
  3
ObjectDBX Classes
 90
0
 91
0
280
0
281
0
  0
CLASS
  1
LAYOUT
  2
AcDbLayout
  3
ObjectDBX Classes
 90
0
 91
0
280
0
281
0
  0
ENDSEC
  0
SECTION
  2
TABLES
  0
TABLE
  2
VPORT
  5
8
330
0
100
AcDbSymbolTable
 70
1
  0
VPORT
  5
23
330
8
100
AcDbSymbolTableRecord
100
AcDbViewportTableRecord
  2
*Active
 70
0
 10
0.0
 20
0.0
 11
1.0
 21
1.0
 12
70.0
 22
50.0
 13
0.0
 23
0.0
 14
0.5
 24
0.5
 15
0.5
 25
0.5
 16
0.0
 26
0.0
 36
1.0
 17
0.0
 27
0.0
 37
0.0
 40
1.0
 41
1.34
 42
50.0
 43
0.0
 44
0.0
 50
0.0
 51
0.0
 71
0
 72
1000
 73
1
 74
3
 75
0
 76
0
 77
0
 78
0
281
0
 65
0
146
0.0
  0
ENDTAB
  0
TABLE
  2
LTYPE
  5
2
330
0
100
AcDbSymbolTable
 70
3
  0
LTYPE
  5
24
330
2
100
AcDbSymbolTableRecord
100
AcDbLinetypeTableRecord
  2
ByBlock
 70
0
  3

 72
65
 73
0
 40
0.0
  0
LTYPE
  5
25
330
2
100
AcDbSymbolTableRecord
100
AcDbLinetypeTableRecord
  2
ByLayer
 70
0
  3

 72
65
 73
0
 40
0.0
  0
LTYPE
  5
26
330
2
100
AcDbSymbolTableRecord
100
AcDbLinetypeTableRecord
  2
Continuous
 70
0
  3

 72
65
 73
0
 40
0.0
  0
ENDTAB
  0
TABLE
  2
LAYER
  5
1
330
0
100
AcDbSymbolTable
 70
2
  0
LAYER
  5
27
330
1
100
AcDbSymbolTableRecord
100
AcDbLayerTableRecord
  2
0
 70
0
 62
7
  6
Continuous
370
-3
390
13
  0
LAYER
  5
28
330
1
100
AcDbSymbolTableRecord
100
AcDbLayerTableRecord
  2
Defpoints
 70
0
 62
7
  6
Continuous
290
0
370
-3
390
13
  0
ENDTAB
  0
TABLE
  2
STYLE
  5
5
330
0
100
AcDbSymbolTable
 70
1
  0
STYLE
  5
29
330
5
100
AcDbSymbolTableRecord
100
AcDbTextStyleTableRecord
  2
Standard
 70
0
 40
0.0
 41
1.0
 50
0.0
 71
0
 42
2.5
  3
txt
  4

  0
ENDTAB
  0
TABLE
  2
VIEW
  5
7
330
0
100
AcDbSymbolTable
 70
0
  0
ENDTAB
  0
TABLE
  2
UCS
  5
6
330
0
100
AcDbSymbolTable
 70
0
  0
ENDTAB
  0
TABLE
  2
APPID
  5
3
330
0
100
AcDbSymbolTable
 70
1
  0
APPID
  5
2A
330
3
100
AcDbSymbolTableRecord
100
AcDbRegAppTableRecord
  2
ACAD
 70
0
  0
ENDTAB
  0
TABLE
  2
DIMSTYLE
  5
4
330
0
100
AcDbSymbolTable
 70
1
100
AcDbDimStyleTable
  0
DIMSTYLE
105
2B
330
4
100
AcDbSymbolTableRecord
100
AcDbDimStyleTableRecord
  2
Standard
 70
0
  3

  4

 40
1.0
 41
2.5
 42
0.625
 43
3.75
 44
1.25
 45
0.0
 46
0.0
 47
0.0
 48
0.0
140
2.5
141
2.5
142
0.0
143
0.03937007874
144
1.0
145
0.0
146
1.0
147
0.625
148
0.0
 71
0
 72
0
 73
0
 74
0
 75
0
 76
0
 77
1
 78
8
 79
0
170
0
171
3
172
1
173
0
174
0
175
0
176
0
177
0
178
0
179
0
271
0
272
2
273
2
274
3
275
0
276
0
277
2
278
44
279
0
280
0
281
0
282
0
283
0
284
8
285
0
286
0
288
0
289
3
371
-2
372
-2
  0
ENDTAB
  0
TABLE
  2
BLOCK_RECORD
  5
9
330
0
100
AcDbSymbolTable
 70
2
  0
BLOCK_RECORD
  5
17
330
9
100
AcDbSymbolTableRecord
100
AcDbBlockTableRecord
  2
*Model_Space
340
1A
  0
BLOCK_RECORD
  5
1B
330
9
100
AcDbSymbolTableRecord
100
AcDbBlockTableRecord
  2
*Paper_Space
340
1E
  0
ENDTAB
  0
ENDSEC
  0
SECTION
  2
BLOCKS
  0
BLOCK
  5
18
330
17
100
AcDbEntity
  8
0
100
AcDbBlockBegin
  2
*Model_Space
 70
0
 10
0.0
 20
0.0
 30
0.0
  3
*Model_Space
  1

  0
ENDBLK
  5
19
330
17
100
AcDbEntity
  8
0
100
AcDbBlockEnd
  0
BLOCK
  5
1C
330
1B
100
AcDbEntity
  8
0
100
AcDbBlockBegin
  2
*Paper_Space
 70
0
 10
0.0
 20
0.0
 30
0.0
  3
*Paper_Space
  1

  0
ENDBLK
  5
1D
330
1B
100
AcDbEntity
  8
0
100
AcDbBlockEnd
  0
ENDSEC
  0
SECTION
  2
ENTITIES
  0
CIRCLE
  5
2D
330
17
100
AcDbEntity
  8
0
100
AcDbCircle
 10
0.0
 20
0.0
 30
0.0
 40
100.0
  0
LINE
  5
2E
330
17
100
AcDbEntity
  8
0
420
65535
100
AcDbLine
 10
0.0
 20
100.0
 30
0.0
 11
0.0
 21
100.0
 31
0.0
  0
LINE
  5
2F
330
17
100
AcDbEntity
  8
0
420
65278
100
AcDbLine
 10
0.6981260297961551
 20
99.99756307053947
 30
0.0
 11
1.3962180339145285
 21
99.99025240093043
 31
0.0
  0
LINE
  5
30
330
17
100
AcDbEntity
  8
0
420
130557
100
AcDbLine
 10
1.3962180339145285
 20
99.99025240093043
 30
0.0
 11
2.792163872356894
 21
99.96101150403544
 31
0.0
  0
LINE
  5
31
330
17
100
AcDbEntity
  8
0
420
130557
100
AcDbLine
 10
2.094241988335701
 20
99.97806834748455
 30
0.0
 11
4.187565372919977
 21
99.91228300988583
 31
0.0
  0
LINE
  5
32
330
17
100
AcDbEntity
  8
0
420
195836
100
AcDbLine
 10
2.792163872356894
 20
99.96101150403544
 30
0.0
 11
5.582150499316389
 21
99.8440764181981
 31
0.0
  0
LINE
  5
33
330
17
100
AcDbEntity
  8
0
420
195836
100
AcDbLine
 10
3.4899496702501134
 20
99.93908270190957
 30
0.0
 11
6.97564737441254
 21
99.75640502598242
 31
0.0
  0
LINE
  5
34
330
17
100
AcDbEntity
  8
0
420
261115
100
AcDbLine
 10
4.187565372919977
 20
99.91228300988583
 30
0.0
 11
8.367784333231565
 21
99.64928592495043
 31
0.0
  0
LINE
  5
35
330
17
100
AcDbEntity
  8
0
420
261115
100
AcDbLine
 10
4.884976979561338
 20
99.8806137341434
 30
0.0
 11
9.75828997591497
 21
99.52273999818311
 31
0.0
  0
LINE
  5
36
330
17
100
AcDbEntity
  8
0
420
326394
100
AcDbLine
 10
5.582150499316389
 20
99.8440764181981
 30
0.0
 11
11.146893220632572
 21
99.37679191605963
 31
0.0
  0
LINE
  5
37
330
17
100
AcDbEntity
  8
0
420
326394
100
AcDbLine
 10
6.2790519529313515
 20
99.80267284282715
 30
0.0
 11
12.533323356430442
 21
99.21147013144778
 31
0.0
  0
LINE
  5
38
330
17
100
AcDbEntity
  8
0
420
391673
100
AcDbLine
 10
6.97564737441254
 20
99.75640502598242
 30
0.0
 11
13.91731009600656
 21
99.02680687415703
 31
0.0
  0
LINE
  5
39
330
17
100
AcDbEntity
  8
0
420
456952
100
AcDbLine
 10
7.671902812681881
 20
99.70527522269202
 30
0.0
 11
15.298583628403833
 21
98.82283814465528
 31
0.0
  0
LINE
  5
3A
330
17
100
AcDbEntity
  8
0
420
456952
100
AcDbLine
 10
8.367784333231565
 20
99.64928592495043
 30
0.0
 11
16.67687467161025
 21
98.59960370705049
 31
0.0
  0
LINE
  5
3B
330
17
100
AcDbEntity
  8
0
420
522231
100
AcDbLine
 10
9.06325801977801
 20
99.58843986159704
 30
0.0
 11
18.051914525055984
 21
98.3571470813386
 31
0.0
  0
LINE
  5
3C
330
17
100
AcDbEntity
  8
0
420
522231
100
AcDbLine
 10
9.75828997591494
 20
99.52273999818311
 30
0.0
 11
19.42343512199718
 21
98.09551553491917
 31
0.0
  0
LINE
  5
3D
330
17
100
AcDbEntity
  8
0
420
587510
100
AcDbLine
 10
10.45284632676535
 20
99.45218953682733
 30
0.0
 11
20.79116908177592
 21
97.81476007338057
 31
0.0
  0
LINE
  5
3E
330
17
100
AcDbEntity
  8
0
420
587510
100
AcDbLine
 10
11.146893220632544
 20
99.37679191605963
 30
0.0
 11
22.15484976194671
 21
97.51493543055633
 31
0.0
  0
LINE
  5
3F
330
17
100
AcDbEntity
  8
0
420
652789
100
AcDbLine
 10
11.840396830650091
 20
99.2965508106537
 30
0.0
 11
23.514211310259
 21
97.19610005785462
 31
0.0
  0
LINE
  5
40
330
17
100
AcDbEntity
  8
0
420
718068
100
AcDbLine
 10
12.53332335643043
 20
99.21147013144778
 30
0.0
 11
24.868988716485486
 21
96.85831611286312
 31
0.0
  0
LINE
  5
41
330
17
100
AcDbEntity
  8
0
420
718068
100
AcDbLine
 10
13.225639025712246
 20
99.12155402515418
 30
0.0
 11
26.21891786408647
 21
96.50164944723115
 31
0.0
  0
LINE
  5
42
330
17
100
AcDbEntity
  8
0
420
783347
100
AcDbLine
 10
13.917310096006547
 20
99.02680687415703
 30
0.0
 11
27.563735581699923
 21
96.12616959383189
 31
0.0
  0
LINE
  5
43
330
17
100
AcDbEntity
  8
0
420
783347
100
AcDbLine
 10
14.60830285624116
 20
98.92723329629884
 30
0.0
 11
28.903179694447147
 21
95.73194975320673
 31
0.0
  0
LINE
  5
44
330
17
100
AcDbEntity
  8
0
420
848626
100
AcDbLine
 10
15.298583628403817
 20
98.82283814465528
 30
0.0
 11
30.236989075044455
 21
95.3190667792947
 31
0.0
  0
LINE
  5
45
330
17
100
AcDbEntity
  8
0
420
848626
100
AcDbLine
 10
15.988118769183496
 20
98.71362650729878
 30
0.0
 11
31.564903694710257
 21
94.88760116444965
 31
0.0
  0
LINE
  5
46
330
17
100
AcDbEntity
  8
0
420
913905
100
AcDbLine
 10
16.676874671610236
 20
98.59960370705049
 30
0.0
 11
32.886664673858334
 21
94.4376370237481
 31
0.0
  0
LINE
  5
47
330
17
100
AcDbEntity
  8
0
420
913648
100
AcDbLine
 10
17.364817766693044
 20
98.48077530122082
 30
0.0
 11
34.202014332566876
 21
93.96926207859083
 31
0.0
  0
LINE
  5
48
330
17
100
AcDbEntity
  8
0
420
979184
100
AcDbLine
 10
18.051914525056
 20
98.3571470813386
 30
0.0
 11
35.510696240813715
 21
93.48256763960143
 31
0.0
  0
LINE
  5
49
330
17
100
AcDbEntity
  8
0
420
978927
100
AcDbLine
 10
18.738131458572475
 20
98.22872507286885
 30
0.0
 11
36.8124552684678
 21
92.97764858882515
 31
0.0
  0
LINE
  5
4A
330
17
100
AcDbEntity
  8
0
420
1044463
100
AcDbLine
 10
19.42343512199721
 20
98.09551553491916
 30
0.0
 11
38.10703763502743
 21
92.4546033612313
 31
0.0
  0
LINE
  5
4B
330
17
100
AcDbEntity
  8
0
420
1109742
100
AcDbLine
 10
20.107792114596474
 20
97.9575249599344
 30
0.0
 11
39.39419095909511
 21
91.91353392552344
 31
0.0
  0
LINE
  5
4C
330
17
100
AcDbEntity
  8
0
420
1109742
100
AcDbLine
 10
20.791169081775948
 20
97.81476007338055
 30
0.0
 11
40.67366430758002
 21
91.35454576426008
 31
0.0
  0
LINE
  5
4D
330
17
100
AcDbEntity
  8
0
420
1175021
100
AcDbLine
 10
21.47353271670633
 20
97.66722783341679
 30
0.0
 11
41.94520824461772
 21
90.77774785329085
 31
0.0
  0
LINE
  5
4E
330
17
100
AcDbEntity
  8
0
420
1175021
100
AcDbLine
 10
22.15484976194674
 20
97.51493543055632
 30
0.0
 11
43.208574880198256
 21
90.18325264051137
 31
0.0
  0
LINE
  5
4F
330
17
100
AcDbEntity
  8
0
420
1240300
100
AcDbLine
 10
22.835087011065575
 20
97.35789028731602
 30
0.0
 11
44.463517918492784
 21
89.57117602394126
 31
0.0
  0
LINE
  5
50
330
17
100
AcDbEntity
  8
0
420
1240043
100
AcDbLine
 10
23.514211310259
 20
97.19610005785462
 30
0.0
 11
45.7097927058694
 21
88.94163732912976
 31
0.0
  0
LINE
  5
51
330
17
100
AcDbEntity
  8
0
420
1305579
100
AcDbLine
 10
24.192189559966764
 20
97.02957262759965
 30
0.0
 11
46.94715627858905
 21
88.2947592858927
 31
0.0
  0
LINE
  5
52
330
17
100
AcDbEntity
  8
0
420
1370858
100
AcDbLine
 10
24.868988716485486
 20
96.85831611286312
 30
0.0
 11
48.17536741017151
 21
87.63066800438637
 31
0.0
  0
LINE
  5
53
330
17
100
AcDbEntity
  8
0
420
1370858
100
AcDbLine
 10
25.544575793579043
 20
96.68233886044594
 30
0.0
 11
49.3941866584231
 21
86.94949295052191
 31
0.0
  0
LINE
  5
54
330
17
100
AcDbEntity
  8
0
420
1436137
100
AcDbLine
 10
26.21891786408647
 20
96.50164944723115
 30
0.0
 11
50.60337641211636
 21
86.25136692072574
 31
0.0
  0
LINE
  5
55
330
17
100
AcDbEntity
  8
0
420
1436137
100
AcDbLine
 10
26.89198206152656
 20
96.31625667976581
 30
0.0
 11
51.802700937313006
 21
85.53642601605067
 31
0.0
  0
LINE
  5
56
330
17
100
AcDbEntity
  8
0
420
1501416
100
AcDbLine
 10
27.563735581699923
 20
96.12616959383189
 30
0.0
 11
52.99192642332049
 21
84.8048096156426
 31
0.0
  0
LINE
  5
57
330
17
100
AcDbEntity
  8
0
420
1501416
100
AcDbLine
 10
28.234145684287665
 20
95.93139745400576
 30
0.0
 11
54.17082102827398
 21
84.05666034956842
 31
0.0
  0
LINE
  5
58
330
17
100
AcDbEntity
  8
0
420
1566695
100
AcDbLine
 10
28.903179694447147
 20
95.73194975320673
 30
0.0
 11
55.33915492433442
 21
83.29212407100995
 31
0.0
  0
LINE
  5
59
330
17
100
AcDbEntity
  8
0
420
1566438
100
AcDbLine
 10
29.570805004404672
 20
95.52783621223436
 30
0.0
 11
56.49670034249379
 21
82.51134982782952
 31
0.0
  0
LINE
  5
5A
330
17
100
AcDbEntity
  8
0
420
1631974
100
AcDbLine
 10
30.236989075044455
 20
95.3190667792947
 30
0.0
 11
57.64323161697932
 21
81.71448983351286
 31
0.0
  0
LINE
  5
5B
330
17
100
AcDbEntity
  8
0
420
1697253
100
AcDbLine
 10
30.901699437494734
 20
95.10565162951535
 30
0.0
 11
58.778525229247315
 21
80.90169943749474
 31
0.0
  0
LINE
  5
5C
330
17
100
AcDbEntity
  8
0
420
1697253
100
AcDbLine
 10
31.564903694710257
 20
94.88760116444965
 30
0.0
 11
59.90235985155859
 21
80.07313709487335
 31
0.0
  0
LINE
  5
5D
330
17
100
AcDbEntity
  8
0
420
1762532
100
AcDbLine
 10
32.226569523051126
 20
94.66492601156963
 30
0.0
 11
61.014516390126786
 21
79.22896433551907
 31
0.0
  0
LINE
  5
5E
330
17
100
AcDbEntity
  8
0
420
1762532
100
AcDbLine
 10
32.886664673858334
 20
94.4376370237481
 30
0.0
 11
62.114778027831065
 21
78.36934573258397
 31
0.0
  0
LINE
  5
5F
330
17
100
AcDbEntity
  8
0
420
1827811
100
AcDbLine
 10
33.545156975025506
 20
94.20574527872967
 30
0.0
 11
63.20293026648509
 21
77.49444887041795
 31
0.0
  0
LINE
  5
60
330
17
100
AcDbEntity
  8
0
420
1827554
100
AcDbLine
 10
34.202014332566876
 20
93.96926207859083
 30
0.0
 11
64.27876096865396
 21
76.6044443118978
 31
0.0
  0
LINE
  5
61
330
17
100
AcDbEntity
  8
0
420
1893090
100
AcDbLine
 10
34.85720473218152
 20
93.72819894918915
 30
0.0
 11
65.34206039901058
 21
75.69950556517563
 31
0.0
  0
LINE
  5
62
330
17
100
AcDbEntity
  8
0
420
1892833
100
AcDbLine
 10
35.510696240813715
 20
93.48256763960143
 30
0.0
 11
66.39262126522416
 21
74.77980904985317
 31
0.0
  0
LINE
  5
63
330
17
100
AcDbEntity
  8
0
420
1958369
100
AcDbLine
 10
36.162457008209245
 20
93.23238012155122
 30
0.0
 11
67.43023875837235
 21
73.84553406258837
 31
0.0
  0
LINE
  5
64
330
17
100
AcDbEntity
  8
0
420
1958112
100
AcDbLine
 10
36.8124552684678
 20
92.97764858882515
 30
0.0
 11
68.45471059286888
 21
72.89686274214114
 31
0.0
  0
LINE
  5
65
330
17
100
AcDbEntity
  8
0
420
2023648
100
AcDbLine
 10
37.46065934159121
 20
92.71838545667875
 30
0.0
 11
69.46583704589975
 21
71.9339800338651
 31
0.0
  0
LINE
  5
66
330
17
100
AcDbEntity
  8
0
420
2088927
100
AcDbLine
 10
38.10703763502743
 20
92.4546033612313
 30
0.0
 11
70.46342099635946
 21
70.95707365365207
 31
0.0
  0
LINE
  5
67
330
17
100
AcDbEntity
  8
0
420
2088927
100
AcDbLine
 10
38.751558645210295
 20
92.18631515885006
 30
0.0
 11
71.44726796328038
 21
69.96633405133652
 31
0.0
  0
LINE
  5
68
330
17
100
AcDbEntity
  8
0
420
2154206
100
AcDbLine
 10
39.39419095909511
 20
91.91353392552344
 30
0.0
 11
72.41718614374679
 21
68.96195437356695
 31
0.0
  0
LINE
  5
69
330
17
100
AcDbEntity
  8
0
420
2153949
100
AcDbLine
 10
40.034903255689514
 20
91.63627295622395
 30
0.0
 11
73.37298645028764
 21
67.94413042615163
 31
0.0
  0
LINE
  5
6A
330
17
100
AcDbEntity
  8
0
420
2219485
100
AcDbLine
 10
40.67366430758002
 20
91.35454576426008
 30
0.0
 11
74.31448254773944
 21
66.9130606358858
 31
0.0
  0
LINE
  5
6B
330
17
100
AcDbEntity
  8
0
420
2219228
100
AcDbLine
 10
41.31044298245419
 20
91.06836608061771
 30
0.0
 11
75.24149088957246
 21
65.86894601186802
 31
0.0
  0
LINE
  5
6C
330
17
100
AcDbEntity
  8
0
420
2284764
100
AcDbLine
 10
41.94520824461772
 20
90.77774785329086
 30
0.0
 11
76.15383075367367
 21
64.8119901063131
 31
0.0
  0
LINE
  5
6D
330
17
100
AcDbEntity
  8
0
420
2350043
100
AcDbLine
 10
42.577929156507274
 20
90.48270524660195
 30
0.0
 11
77.0513242775789
 21
63.742398974868976
 31
0.0
  0
LINE
  5
6E
330
17
100
AcDbEntity
  8
0
420
2350043
100
AcDbLine
 10
43.20857488019823
 20
90.18325264051138
 30
0.0
 11
77.93379649314743
 21
62.660381136446055
 31
0.0
  0
LINE
  5
6F
330
17
100
AcDbEntity
  8
0
420
2415322
100
AcDbLine
 10
43.83711467890776
 20
89.8794046299167
 30
0.0
 11
78.80107536067219
 21
61.56614753256583
 31
0.0
  0
LINE
  5
70
330
17
100
AcDbEntity
  8
0
420
2415322
100
AcDbLine
 10
44.463517918492755
 20
89.57117602394129
 30
0.0
 11
79.65299180241962
 21
60.45991148623748
 31
0.0
  0
LINE
  5
71
330
17
100
AcDbEntity
  8
0
420
2480601
100
AcDbLine
 10
45.08775406894309
 20
89.25858184521255
 30
0.0
 11
80.48937973559143
 21
59.341888660370145
 31
0.0
  0
LINE
  5
72
330
17
100
AcDbEntity
  8
0
420
2480344
100
AcDbLine
 10
45.709792705869425
 20
88.94163732912975
 30
0.0
 11
81.31007610470277
 21
58.21229701572894
 31
0.0
  0
LINE
  5
73
330
17
100
AcDbEntity
  8
0
420
2545880
100
AcDbLine
 10
46.329603511986186
 20
88.62035792312147
 30
0.0
 11
82.1149209133704
 21
57.07135676844316
 31
0.0
  0
LINE
  5
74
330
17
100
AcDbEntity
  8
0
420
2545623
100
AcDbLine
 10
46.94715627858908
 20
88.29475928589268
 30
0.0
 11
82.90375725550417
 21
55.91929034707468
 31
0.0
  0
LINE
  5
75
330
17
100
AcDbEntity
  8
0
420
2611159
100
AcDbLine
 10
47.56242090702753
 20
87.96485728666164
 30
0.0
 11
83.67643134589618
 21
54.756322349255015
 31
0.0
  0
LINE
  5
76
330
17
100
AcDbEntity
  8
0
420
2610902
100
AcDbLine
 10
48.175367410171546
 20
87.63066800438637
 30
0.0
 11
84.43279255020153
 21
53.582679497899655
 31
0.0
  0
LINE
  5
77
330
17
100
AcDbEntity
  8
0
420
2676438
100
AcDbLine
 10
48.78596591387326
 20
87.29220772698098
 30
0.0
 11
85.17269341430477
 21
52.398590597007896
 31
0.0
  0
LINE
  5
78
330
17
100
AcDbEntity
  8
0
420
2741717
100
AcDbLine
 10
49.3941866584231
 20
86.94949295052191
 30
0.0
 11
85.89598969306645
 21
51.20428648705714
 31
0.0
  0
LINE
  5
79
330
17
100
AcDbEntity
  8
0
420
2741717
100
AcDbLine
 10
50.0
 20
86.60254037844386
 30
0.0
 11
86.60254037844388
 21
49.999999999999986
 31
0.0
  0
LINE
  5
7A
330
17
100
AcDbEntity
  8
0
420
2806996
100
AcDbLine
 10
50.60337641211636
 20
86.25136692072574
 30
0.0
 11
87.29220772698098
 21
48.78596591387329
 31
0.0
  0
LINE
  5
7B
330
17
100
AcDbEntity
  8
0
420
2806996
100
AcDbLine
 10
51.20428648705716
 20
85.89598969306644
 30
0.0
 11
87.96485728666164
 21
47.562420907027544
 31
0.0
  0
LINE
  5
7C
330
17
100
AcDbEntity
  8
0
420
2872275
100
AcDbLine
 10
51.802700937313006
 20
85.53642601605067
 30
0.0
 11
88.62035792312146
 21
46.32960351198619
 31
0.0
  0
LINE
  5
7D
330
17
100
AcDbEntity
  8
0
420
2872018
100
AcDbLine
 10
52.39859059700791
 20
85.17269341430477
 30
0.0
 11
89.25858184521253
 21
45.08775406894309
 31
0.0
  0
LINE
  5
7E
330
17
100
AcDbEntity
  8
0
420
2937554
100
AcDbLine
 10
52.99192642332049
 20
84.8048096156426
 30
0.0
 11
89.87940462991669
 21
43.83711467890775
 31
0.0
  0
LINE
  5
7F
330
17
100
AcDbEntity
  8
0
420
2937297
100
AcDbLine
 10
53.58267949789963
 20
84.43279255020151
 30
0.0
 11
90.48270524660194
 21
42.577929156507274
 31
0.0
  0
LINE
  5
80
330
17
100
AcDbEntity
  8
0
420
3002833
100
AcDbLine
 10
54.170821028274
 20
84.05666034956842
 30
0.0
 11
91.06836608061771
 21
41.31044298245416
 31
0.0
  0
LINE
  5
81
330
17
100
AcDbEntity
  8
0
420
3002576
100
AcDbLine
 10
54.75632234925503
 20
83.67643134589615
 30
0.0
 11
91.63627295622396
 21
40.03490325568948
 31
0.0
  0
LINE
  5
82
330
17
100
AcDbEntity
  8
0
420
3068112
100
AcDbLine
 10
55.33915492433442
 20
83.29212407100994
 30
0.0
 11
92.18631515885006
 21
38.75155864521029
 31
0.0
  0
LINE
  5
83
330
17
100
AcDbEntity
  8
0
420
3067855
100
AcDbLine
 10
55.91929034707468
 20
82.90375725550417
 30
0.0
 11
92.71838545667876
 21
37.46065934159119
 31
0.0
  0
LINE
  5
84
330
17
100
AcDbEntity
  8
0
420
3133391
100
AcDbLine
 10
56.49670034249379
 20
82.51134982782952
 30
0.0
 11
93.23238012155124
 21
36.162457008209216
 31
0.0
  0
LINE
  5
85
330
17
100
AcDbEntity
  8
0
420
3133134
100
AcDbLine
 10
57.07135676844318
 20
82.1149209133704
 30
0.0
 11
93.72819894918916
 21
34.85720473218149
 31
0.0
  0
LINE
  5
86
330
17
100
AcDbEntity
  8
0
420
3198670
100
AcDbLine
 10
57.64323161697932
 20
81.71448983351286
 30
0.0
 11
94.20574527872967
 21
33.545156975025506
 31
0.0
  0
LINE
  5
87
330
17
100
AcDbEntity
  8
0
420
3263949
100
AcDbLine
 10
58.21229701572895
 20
81.31007610470277
 30
0.0
 11
94.66492601156963
 21
32.226569523051104
 31
0.0
  0
LINE
  5
88
330
17
100
AcDbEntity
  8
0
420
3263692
100
AcDbLine
 10
58.778525229247315
 20
80.90169943749474
 30
0.0
 11
95.10565162951536
 21
30.901699437494734
 31
0.0
  0
LINE
  5
89
330
17
100
AcDbEntity
  8
0
420
3329228
100
AcDbLine
 10
59.34188866037016
 20
80.4893797355914
 30
0.0
 11
95.52783621223435
 21
29.570805004404672
 31
0.0
  0
LINE
  5
8A
330
17
100
AcDbEntity
  8
0
420
3328971
100
AcDbLine
 10
59.90235985155859
 20
80.07313709487335
 30
0.0
 11
95.93139745400576
 21
28.234145684287636
 31
0.0
  0
LINE
  5
8B
330
17
100
AcDbEntity
  8
0
420
3394507
100
AcDbLine
 10
60.459911486237495
 20
79.65299180241962
 30
0.0
 11
96.3162566797658
 21
26.89198206152656
 31
0.0
  0
LINE
  5
8C
330
17
100
AcDbEntity
  8
0
420
3394250
100
AcDbLine
 10
61.014516390126786
 20
79.22896433551907
 30
0.0
 11
96.68233886044594
 21
25.544575793579043
 31
0.0
  0
LINE
  5
8D
330
17
100
AcDbEntity
  8
0
420
3459786
100
AcDbLine
 10
61.56614753256583
 20
78.80107536067219
 30
0.0
 11
97.02957262759965
 21
24.192189559966764
 31
0.0
  0
LINE
  5
8E
330
17
100
AcDbEntity
  8
0
420
3459529
100
AcDbLine
 10
62.114778027831065
 20
78.36934573258397
 30
0.0
 11
97.35789028731602
 21
22.835087011065557
 31
0.0
  0
LINE
  5
8F
330
17
100
AcDbEntity
  8
0
420
3525065
100
AcDbLine
 10
62.66038113644606
 20
77.93379649314743
 30
0.0
 11
97.66722783341677
 21
21.473532716706302
 31
0.0
  0
LINE
  5
90
330
17
100
AcDbEntity
  8
0
420
3524808
100
AcDbLine
 10
63.20293026648509
 20
77.49444887041795
 30
0.0
 11
97.95752495993439
 21
20.107792114596446
 31
0.0
  0
LINE
  5
91
330
17
100
AcDbEntity
  8
0
420
3590344
100
AcDbLine
 10
63.742398974868976
 20
77.05132427757893
 30
0.0
 11
98.22872507286888
 21
18.73813145857246
 31
0.0
  0
LINE
  5
92
330
17
100
AcDbEntity
  8
0
420
3590087
100
AcDbLine
 10
64.27876096865394
 20
76.60444431189781
 30
0.0
 11
98.48077530122082
 21
17.364817766693044
 31
0.0
  0
LINE
  5
93
330
17
100
AcDbEntity
  8
0
420
3655623
100
AcDbLine
 10
64.8119901063131
 20
76.15383075367367
 30
0.0
 11
98.71362650729878
 21
15.988118769183481
 31
0.0
  0
LINE
  5
94
330
17
100
AcDbEntity
  8
0
420
3655366
100
AcDbLine
 10
65.34206039901055
 20
75.69950556517564
 30
0.0
 11
98.92723329629884
 21
14.60830285624116
 31
0.0
  0
LINE
  5
95
330
17
100
AcDbEntity
  8
0
420
3720902
100
AcDbLine
 10
65.86894601186808
 20
75.24149088957243
 30
0.0
 11
99.12155402515418
 21
13.225639025712233
 31
0.0
  0
LINE
  5
96
330
17
100
AcDbEntity
  8
0
420
3786181
100
AcDbLine
 10
66.39262126522416
 20
74.77980904985317
 30
0.0
 11
99.29655081065371
 21
11.840396830650091
 31
0.0
  0
LINE
  5
97
330
17
100
AcDbEntity
  8
0
420
3786181
100
AcDbLine
 10
66.9130606358858
 20
74.31448254773942
 30
0.0
 11
99.45218953682733
 21
10.452846326765334
 31
0.0
  0
LINE
  5
98
330
17
100
AcDbEntity
  8
0
420
3851460
100
AcDbLine
 10
67.43023875837233
 20
73.84553406258838
 30
0.0
 11
99.58843986159704
 21
9.06325801977801
 31
0.0
  0
LINE
  5
99
330
17
100
AcDbEntity
  8
0
420
3851203
100
AcDbLine
 10
67.94413042615164
 20
73.37298645028764
 30
0.0
 11
99.70527522269202
 21
7.671902812681852
 31
0.0
  0
LINE
  5
9A
330
17
100
AcDbEntity
  8
0
420
3916739
100
AcDbLine
 10
68.45471059286888
 20
72.89686274214114
 30
0.0
 11
99.80267284282715
 21
6.279051952931322
 31
0.0
  0
LINE
  5
9B
330
17
100
AcDbEntity
  8
0
420
3916482
100
AcDbLine
 10
68.961954373567
 20
72.41718614374675
 30
0.0
 11
99.88061373414342
 21
4.884976979561309
 31
0.0
  0
LINE
  5
9C
330
17
100
AcDbEntity
  8
0
420
3982018
100
AcDbLine
 10
69.46583704589972
 20
71.93398003386511
 30
0.0
 11
99.93908270190958
 21
3.4899496702500845
 31
0.0
  0
LINE
  5
9D
330
17
100
AcDbEntity
  8
0
420
3981761
100
AcDbLine
 10
69.96633405133652
 20
71.44726796328034
 30
0.0
 11
99.97806834748455
 21
2.094241988335701
 31
0.0
  0
LINE
  5
9E
330
17
100
AcDbEntity
  8
0
420
4047297
100
AcDbLine
 10
70.46342099635946
 20
70.95707365365209
 30
0.0
 11
99.99756307053946
 21
0.6981260297961551
 31
0.0
  0
LINE
  5
9F
330
17
100
AcDbEntity
  8
0
420
4047040
100
AcDbLine
 10
70.95707365365209
 20
70.46342099635946
 30
0.0
 11
99.99756307053946
 21
-0.6981260297961551
 31
0.0
  0
LINE
  5
A0
330
17
100
AcDbEntity
  8
0
420
4112576
100
AcDbLine
 10
71.44726796328031
 20
69.96633405133655
 30
0.0
 11
99.97806834748455
 21
-2.094241988335701
 31
0.0
  0
LINE
  5
A1
330
17
100
AcDbEntity
  8
0
420
4112319
100
AcDbLine
 10
71.93398003386513
 20
69.46583704589972
 30
0.0
 11
99.93908270190958
 21
-3.489949670250099
 31
0.0
  0
LINE
  5
A2
330
17
100
AcDbEntity
  8
0
420
4177855
100
AcDbLine
 10
72.41718614374676
 20
68.96195437356697
 30
0.0
 11
99.88061373414342
 21
-4.884976979561338
 31
0.0
  0
LINE
  5
A3
330
17
100
AcDbEntity
  8
0
420
4177598
100
AcDbLine
 10
72.89686274214114
 20
68.45471059286888
 30
0.0
 11
99.80267284282715
 21
-6.2790519529313515
 31
0.0
  0
LINE
  5
A4
330
17
100
AcDbEntity
  8
0
420
4243134
100
AcDbLine
 10
73.37298645028764
 20
67.94413042615164
 30
0.0
 11
99.70527522269202
 21
-7.671902812681881
 31
0.0
  0
LINE
  5
A5
330
17
100
AcDbEntity
  8
0
420
4242877
100
AcDbLine
 10
73.84553406258838
 20
67.43023875837233
 30
0.0
 11
99.58843986159704
 21
-9.063258019778024
 31
0.0
  0
LINE
  5
A6
330
17
100
AcDbEntity
  8
0
420
4308413
100
AcDbLine
 10
74.31448254773942
 20
66.91306063588583
 30
0.0
 11
99.45218953682733
 21
-10.452846326765364
 31
0.0
  0
LINE
  5
A7
330
17
100
AcDbEntity
  8
0
420
4308156
100
AcDbLine
 10
74.77980904985317
 20
66.39262126522415
 30
0.0
 11
99.29655081065371
 21
-11.840396830650105
 31
0.0
  0
LINE
  5
A8
330
17
100
AcDbEntity
  8
0
420
4373692
100
AcDbLine
 10
75.24149088957243
 20
65.86894601186803
 30
0.0
 11
99.12155402515418
 21
-13.225639025712264
 31
0.0
  0
LINE
  5
A9
330
17
100
AcDbEntity
  8
0
420
4373435
100
AcDbLine
 10
75.69950556517566
 20
65.34206039901053
 30
0.0
 11
98.92723329629884
 21
-14.60830285624116
 31
0.0
  0
LINE
  5
AA
330
17
100
AcDbEntity
  8
0
420
4438971
100
AcDbLine
 10
76.15383075367367
 20
64.81199010631309
 30
0.0
 11
98.71362650729878
 21
-15.988118769183481
 31
0.0
  0
LINE
  5
AB
330
17
100
AcDbEntity
  8
0
420
4438714
100
AcDbLine
 10
76.60444431189781
 20
64.27876096865393
 30
0.0
 11
98.48077530122082
 21
-17.364817766693044
 31
0.0
  0
LINE
  5
AC
330
17
100
AcDbEntity
  8
0
420
4504250
100
AcDbLine
 10
77.05132427757894
 20
63.74239897486896
 30
0.0
 11
98.22872507286888
 21
-18.73813145857246
 31
0.0
  0
LINE
  5
AD
330
17
100
AcDbEntity
  8
0
420
4503993
100
AcDbLine
 10
77.49444887041798
 20
63.20293026648508
 30
0.0
 11
97.95752495993439
 21
-20.107792114596474
 31
0.0
  0
LINE
  5
AE
330
17
100
AcDbEntity
  8
0
420
4569529
100
AcDbLine
 10
77.93379649314743
 20
62.66038113644604
 30
0.0
 11
97.66722783341677
 21
-21.47353271670633
 31
0.0
  0
LINE
  5
AF
330
17
100
AcDbEntity
  8
0
420
4569272
100
AcDbLine
 10
78.36934573258398
 20
62.11477802783103
 30
0.0
 11
97.35789028731602
 21
-22.83508701106559
 31
0.0
  0
LINE
  5
B0
330
17
100
AcDbEntity
  8
0
420
4634808
100
AcDbLine
 10
78.80107536067219
 20
61.56614753256582
 30
0.0
 11
97.02957262759965
 21
-24.192189559966778
 31
0.0
  0
LINE
  5
B1
330
17
100
AcDbEntity
  8
0
420
4634551
100
AcDbLine
 10
79.2289643355191
 20
61.01451639012675
 30
0.0
 11
96.68233886044594
 21
-25.544575793579078
 31
0.0
  0
LINE
  5
B2
330
17
100
AcDbEntity
  8
0
420
4700087
100
AcDbLine
 10
79.65299180241962
 20
60.45991148623747
 30
0.0
 11
96.3162566797658
 21
-26.891982061526587
 31
0.0
  0
LINE
  5
B3
330
17
100
AcDbEntity
  8
0
420
4699830
100
AcDbLine
 10
80.07313709487336
 20
59.90235985155857
 30
0.0
 11
95.93139745400576
 21
-28.234145684287665
 31
0.0
  0
LINE
  5
B4
330
17
100
AcDbEntity
  8
0
420
4765366
100
AcDbLine
 10
80.48937973559143
 20
59.341888660370145
 30
0.0
 11
95.52783621223435
 21
-29.570805004404672
 31
0.0
  0
LINE
  5
B5
330
17
100
AcDbEntity
  8
0
420
4765109
100
AcDbLine
 10
80.90169943749473
 20
58.778525229247315
 30
0.0
 11
95.10565162951536
 21
-30.901699437494734
 31
0.0
  0
LINE
  5
B6
330
17
100
AcDbEntity
  8
0
420
4830645
100
AcDbLine
 10
81.31007610470277
 20
58.21229701572894
 30
0.0
 11
94.66492601156963
 21
-32.22656952305109
 31
0.0
  0
LINE
  5
B7
330
17
100
AcDbEntity
  8
0
420
4830388
100
AcDbLine
 10
81.71448983351286
 20
57.64323161697932
 30
0.0
 11
94.20574527872967
 21
-33.545156975025506
 31
0.0
  0
LINE
  5
B8
330
17
100
AcDbEntity
  8
0
420
4895667
100
AcDbLine
 10
82.1149209133704
 20
57.07135676844316
 30
0.0
 11
93.72819894918914
 21
-34.85720473218152
 31
0.0
  0
LINE
  5
B9
330
17
100
AcDbEntity
  8
0
420
4895667
100
AcDbLine
 10
82.51134982782952
 20
56.49670034249379
 30
0.0
 11
93.2323801215512
 21
-36.162457008209245
 31
0.0
  0
LINE
  5
BA
330
17
100
AcDbEntity
  8
0
420
4960946
100
AcDbLine
 10
82.90375725550417
 20
55.91929034707468
 30
0.0
 11
92.71838545667876
 21
-37.46065934159121
 31
0.0
  0
LINE
  5
BB
330
17
100
AcDbEntity
  8
0
420
4960946
100
AcDbLine
 10
83.29212407100995
 20
55.3391549243344
 30
0.0
 11
92.18631515885006
 21
-38.751558645210295
 31
0.0
  0
LINE
  5
BC
330
17
100
AcDbEntity
  8
0
420
5026482
100
AcDbLine
 10
83.67643134589618
 20
54.756322349255015
 30
0.0
 11
91.63627295622396
 21
-40.034903255689514
 31
0.0
  0
LINE
  5
BD
330
17
100
AcDbEntity
  8
0
420
5026225
100
AcDbLine
 10
84.05666034956846
 20
54.17082102827398
 30
0.0
 11
91.06836608061771
 21
-41.31044298245419
 31
0.0
  0
LINE
  5
BE
330
17
100
AcDbEntity
  8
0
420
5091761
100
AcDbLine
 10
84.43279255020153
 20
53.582679497899655
 30
0.0
 11
90.48270524660194
 21
-42.577929156507274
 31
0.0
  0
LINE
  5
BF
330
17
100
AcDbEntity
  8
0
420
5091504
100
AcDbLine
 10
84.80480961564261
 20
52.99192642332049
 30
0.0
 11
89.87940462991669
 21
-43.83711467890776
 31
0.0
  0
LINE
  5
C0
330
17
100
AcDbEntity
  8
0
420
5157040
100
AcDbLine
 10
85.17269341430477
 20
52.398590597007896
 30
0.0
 11
89.25858184521253
 21
-45.08775406894309
 31
0.0
  0
LINE
  5
C1
330
17
100
AcDbEntity
  8
0
420
5156783
100
AcDbLine
 10
85.53642601605067
 20
51.802700937313006
 30
0.0
 11
88.62035792312146
 21
-46.329603511986186
 31
0.0
  0
LINE
  5
C2
330
17
100
AcDbEntity
  8
0
420
5222319
100
AcDbLine
 10
85.89598969306645
 20
51.20428648705714
 30
0.0
 11
87.96485728666164
 21
-47.56242090702756
 31
0.0
  0
LINE
  5
C3
330
17
100
AcDbEntity
  8
0
420
5222062
100
AcDbLine
 10
86.25136692072574
 20
50.60337641211636
 30
0.0
 11
87.29220772698098
 21
-48.78596591387329
 31
0.0
  0
LINE
  5
C4
330
17
100
AcDbEntity
  8
0
420
5287341
100
AcDbLine
 10
86.60254037844388
 20
49.999999999999986
 30
0.0
 11
86.60254037844382
 21
-50.000000000000036
 31
0.0
  0
LINE
  5
C5
330
17
100
AcDbEntity
  8
0
420
5287341
100
AcDbLine
 10
86.94949295052191
 20
49.39418665842308
 30
0.0
 11
85.89598969306643
 21
-51.20428648705718
 31
0.0
  0
LINE
  5
C6
330
17
100
AcDbEntity
  8
0
420
5352877
100
AcDbLine
 10
87.29220772698098
 20
48.78596591387328
 30
0.0
 11
85.17269341430477
 21
-52.39859059700791
 31
0.0
  0
LINE
  5
C7
330
17
100
AcDbEntity
  8
0
420
5352620
100
AcDbLine
 10
87.63066800438637
 20
48.17536741017153
 30
0.0
 11
84.43279255020153
 21
-53.58267949789963
 31
0.0
  0
LINE
  5
C8
330
17
100
AcDbEntity
  8
0
420
5418156
100
AcDbLine
 10
87.96485728666164
 20
47.56242090702752
 30
0.0
 11
83.67643134589618
 21
-54.75632234925503
 31
0.0
  0
LINE
  5
C9
330
17
100
AcDbEntity
  8
0
420
5417899
100
AcDbLine
 10
88.2947592858927
 20
46.947156278589084
 30
0.0
 11
82.90375725550417
 21
-55.91929034707468
 31
0.0
  0
LINE
  5
CA
330
17
100
AcDbEntity
  8
0
420
5483435
100
AcDbLine
 10
88.62035792312149
 20
46.32960351198617
 30
0.0
 11
82.1149209133704
 21
-57.07135676844316
 31
0.0
  0
LINE
  5
CB
330
17
100
AcDbEntity
  8
0
420
5483178
100
AcDbLine
 10
88.94163732912975
 20
45.70979270586942
 30
0.0
 11
81.31007610470277
 21
-58.21229701572895
 31
0.0
  0
LINE
  5
CC
330
17
100
AcDbEntity
  8
0
420
5548714
100
AcDbLine
 10
89.25858184521253
 20
45.08775406894308
 30
0.0
 11
80.48937973559143
 21
-59.34188866037016
 31
0.0
  0
LINE
  5
CD
330
17
100
AcDbEntity
  8
0
420
5548457
100
AcDbLine
 10
89.5711760239413
 20
44.46351791849275
 30
0.0
 11
79.65299180241962
 21
-60.459911486237495
 31
0.0
  0
LINE
  5
CE
330
17
100
AcDbEntity
  8
0
420
5613993
100
AcDbLine
 10
89.87940462991672
 20
43.83711467890774
 30
0.0
 11
78.80107536067219
 21
-61.56614753256583
 31
0.0
  0
LINE
  5
CF
330
17
100
AcDbEntity
  8
0
420
5613736
100
AcDbLine
 10
90.1832526405114
 20
43.20857488019823
 30
0.0
 11
77.93379649314743
 21
-62.66038113644606
 31
0.0
  0
LINE
  5
D0
330
17
100
AcDbEntity
  8
0
420
5679272
100
AcDbLine
 10
90.48270524660197
 20
42.57792915650726
 30
0.0
 11
77.0513242775789
 21
-63.742398974868976
 31
0.0
  0
LINE
  5
D1
330
17
100
AcDbEntity
  8
0
420
5679015
100
AcDbLine
 10
90.77774785329086
 20
41.9452082446177
 30
0.0
 11
76.15383075367367
 21
-64.8119901063131
 31
0.0
  0
LINE
  5
D2
330
17
100
AcDbEntity
  8
0
420
5679015
100
AcDbLine
 10
91.06836608061771
 20
41.31044298245416
 30
0.0
 11
75.24149088957243
 21
-65.86894601186808
 31
0.0
  0
LINE
  5
D3
330
17
100
AcDbEntity
  8
0
420
5744294
100
AcDbLine
 10
91.35454576426012
 20
40.67366430758001
 30
0.0
 11
74.31448254773942
 21
-66.91306063588584
 31
0.0
  0
LINE
  5
D4
330
17
100
AcDbEntity
  8
0
420
5744294
100
AcDbLine
 10
91.63627295622396
 20
40.03490325568948
 30
0.0
 11
73.37298645028764
 21
-67.94413042615164
 31
0.0
  0
LINE
  5
D5
330
17
100
AcDbEntity
  8
0
420
5809573
100
AcDbLine
 10
91.91353392552344
 20
39.39419095909511
 30
0.0
 11
72.41718614374673
 21
-68.961954373567
 31
0.0
  0
LINE
  5
D6
330
17
100
AcDbEntity
  8
0
420
5809573
100
AcDbLine
 10
92.18631515885006
 20
38.75155864521029
 30
0.0
 11
71.44726796328031
 21
-69.96633405133656
 31
0.0
  0
LINE
  5
D7
330
17
100
AcDbEntity
  8
0
420
5874852
100
AcDbLine
 10
92.45460336123132
 20
38.107037635027396
 30
0.0
 11
70.46342099635946
 21
-70.95707365365209
 31
0.0
  0
LINE
  5
D8
330
17
100
AcDbEntity
  8
0
420
5874852
100
AcDbLine
 10
92.71838545667876
 20
37.46065934159119
 30
0.0
 11
69.46583704589972
 21
-71.93398003386513
 31
0.0
  0
LINE
  5
D9
330
17
100
AcDbEntity
  8
0
420
5940388
100
AcDbLine
 10
92.97764858882516
 20
36.81245526846778
 30
0.0
 11
68.45471059286885
 21
-72.89686274214118
 31
0.0
  0
LINE
  5
DA
330
17
100
AcDbEntity
  8
0
420
5940131
100
AcDbLine
 10
93.23238012155124
 20
36.162457008209216
 30
0.0
 11
67.43023875837233
 21
-73.84553406258841
 31
0.0
  0
LINE
  5
DB
330
17
100
AcDbEntity
  8
0
420
6005667
100
AcDbLine
 10
93.48256763960146
 20
35.51069624081369
 30
0.0
 11
66.39262126522414
 21
-74.77980904985321
 31
0.0
  0
LINE
  5
DC
330
17
100
AcDbEntity
  8
0
420
6005410
100
AcDbLine
 10
93.72819894918916
 20
34.85720473218149
 30
0.0
 11
65.34206039901052
 21
-75.69950556517566
 31
0.0
  0
LINE
  5
DD
330
17
100
AcDbEntity
  8
0
420
6070946
100
AcDbLine
 10
93.96926207859082
 20
34.202014332566876
 30
0.0
 11
64.27876096865396
 21
-76.60444431189781
 31
0.0
  0
LINE
  5
DE
330
17
100
AcDbEntity
  8
0
420
6070689
100
AcDbLine
 10
94.20574527872967
 20
33.545156975025506
 30
0.0
 11
63.20293026648509
 21
-77.49444887041795
 31
0.0
  0
LINE
  5
DF
330
17
100
AcDbEntity
  8
0
420
6136225
100
AcDbLine
 10
94.4376370237481
 20
32.88666467385832
 30
0.0
 11
62.114778027831065
 21
-78.36934573258398
 31
0.0
  0
LINE
  5
E0
330
17
100
AcDbEntity
  8
0
420
6135968
100
AcDbLine
 10
94.66492601156963
 20
32.226569523051104
 30
0.0
 11
61.014516390126786
 21
-79.22896433551907
 31
0.0
  0
LINE
  5
E1
330
17
100
AcDbEntity
  8
0
420
6135968
100
AcDbLine
 10
94.88760116444966
 20
31.564903694710246
 30
0.0
 11
59.90235985155859
 21
-80.07313709487333
 31
0.0
  0
LINE
  5
E2
330
17
100
AcDbEntity
  8
0
420
6201247
100
AcDbLine
 10
95.10565162951536
 20
30.901699437494734
 30
0.0
 11
58.778525229247315
 21
-80.90169943749473
 31
0.0
  0
LINE
  5
E3
330
17
100
AcDbEntity
  8
0
420
6201247
100
AcDbLine
 10
95.31906677929472
 20
30.23698907504444
 30
0.0
 11
57.64323161697932
 21
-81.71448983351286
 31
0.0
  0
LINE
  5
E4
330
17
100
AcDbEntity
  8
0
420
6266526
100
AcDbLine
 10
95.52783621223435
 20
29.570805004404672
 30
0.0
 11
56.49670034249379
 21
-82.51134982782952
 31
0.0
  0
LINE
  5
E5
330
17
100
AcDbEntity
  8
0
420
6266526
100
AcDbLine
 10
95.73194975320672
 20
28.903179694447147
 30
0.0
 11
55.33915492433442
 21
-83.29212407100995
 31
0.0
  0
LINE
  5
E6
330
17
100
AcDbEntity
  8
0
420
6332062
100
AcDbLine
 10
95.93139745400576
 20
28.234145684287636
 30
0.0
 11
54.17082102827398
 21
-84.05666034956842
 31
0.0
  0
LINE
  5
E7
330
17
100
AcDbEntity
  8
0
420
6331805
100
AcDbLine
 10
96.12616959383189
 20
27.563735581699905
 30
0.0
 11
52.99192642332049
 21
-84.80480961564258
 31
0.0
  0
LINE
  5
E8
330
17
100
AcDbEntity
  8
0
420
6397341
100
AcDbLine
 10
96.3162566797658
 20
26.89198206152656
 30
0.0
 11
51.802700937313006
 21
-85.53642601605067
 31
0.0
  0
LINE
  5
E9
330
17
100
AcDbEntity
  8
0
420
6397084
100
AcDbLine
 10
96.50164944723116
 20
26.21891786408647
 30
0.0
 11
50.60337641211636
 21
-86.25136692072574
 31
0.0
  0
LINE
  5
EA
330
17
100
AcDbEntity
  8
0
420
6462620
100
AcDbLine
 10
96.68233886044594
 20
25.544575793579043
 30
0.0
 11
49.3941866584231
 21
-86.94949295052191
 31
0.0
  0
LINE
  5
EB
330
17
100
AcDbEntity
  8
0
420
6462363
100
AcDbLine
 10
96.85831611286312
 20
24.868988716485468
 30
0.0
 11
48.17536741017151
 21
-87.63066800438637
 31
0.0
  0
LINE
  5
EC
330
17
100
AcDbEntity
  8
0
420
6462363
100
AcDbLine
 10
97.02957262759965
 20
24.192189559966764
 30
0.0
 11
46.94715627858905
 21
-88.2947592858927
 31
0.0
  0
LINE
  5
ED
330
17
100
AcDbEntity
  8
0
420
6527642
100
AcDbLine
 10
97.19610005785461
 20
23.514211310258986
 30
0.0
 11
45.7097927058694
 21
-88.94163732912975
 31
0.0
  0
LINE
  5
EE
330
17
100
AcDbEntity
  8
0
420
6527642
100
AcDbLine
 10
97.35789028731602
 20
22.835087011065557
 30
0.0
 11
44.46351791849273
 21
-89.5711760239413
 31
0.0
  0
LINE
  5
EF
330
17
100
AcDbEntity
  8
0
420
6592921
100
AcDbLine
 10
97.51493543055632
 20
22.15484976194671
 30
0.0
 11
43.2085748801982
 21
-90.1832526405114
 31
0.0
  0
LINE
  5
F0
330
17
100
AcDbEntity
  8
0
420
6592921
100
AcDbLine
 10
97.66722783341677
 20
21.473532716706302
 30
0.0
 11
41.94520824461769
 21
-90.77774785329089
 31
0.0
  0
LINE
  5
F1
330
17
100
AcDbEntity
  8
0
420
6658457
100
AcDbLine
 10
97.81476007338057
 20
20.79116908177592
 30
0.0
 11
40.67366430757999
 21
-91.35454576426012
 31
0.0
  0
LINE
  5
F2
330
17
100
AcDbEntity
  8
0
420
6658200
100
AcDbLine
 10
97.95752495993439
 20
20.107792114596446
 30
0.0
 11
39.394190959095084
 21
-91.91353392552344
 31
0.0
  0
LINE
  5
F3
330
17
100
AcDbEntity
  8
0
420
6658200
100
AcDbLine
 10
98.09551553491917
 20
19.42343512199718
 30
0.0
 11
38.107037635027396
 21
-92.45460336123132
 31
0.0
  0
LINE
  5
F4
330
17
100
AcDbEntity
  8
0
420
6723479
100
AcDbLine
 10
98.22872507286888
 20
18.73813145857246
 30
0.0
 11
36.8124552684678
 21
-92.97764858882516
 31
0.0
  0
LINE
  5
F5
330
17
100
AcDbEntity
  8
0
420
6723479
100
AcDbLine
 10
98.35714708133861
 20
18.051914525056
 30
0.0
 11
35.510696240813715
 21
-93.48256763960146
 31
0.0
  0
LINE
  5
F6
330
17
100
AcDbEntity
  8
0
420
6789015
100
AcDbLine
 10
98.48077530122082
 20
17.364817766693044
 30
0.0
 11
34.202014332566876
 21
-93.96926207859082
 31
0.0
  0
LINE
  5
F7
330
17
100
AcDbEntity
  8
0
420
6788758
100
AcDbLine
 10
98.59960370705048
 20
16.67687467161022
 30
0.0
 11
32.886664673858334
 21
-94.4376370237481
 31
0.0
  0
LINE
  5
F8
330
17
100
AcDbEntity
  8
0
420
6854294
100
AcDbLine
 10
98.71362650729878
 20
15.988118769183481
 30
0.0
 11
31.564903694710257
 21
-94.88760116444966
 31
0.0
  0
LINE
  5
F9
330
17
100
AcDbEntity
  8
0
420
6854037
100
AcDbLine
 10
98.82283814465528
 20
15.298583628403803
 30
0.0
 11
30.236989075044455
 21
-95.31906677929472
 31
0.0
  0
LINE
  5
FA
330
17
100
AcDbEntity
  8
0
420
6854037
100
AcDbLine
 10
98.92723329629884
 20
14.60830285624116
 30
0.0
 11
28.903179694447147
 21
-95.73194975320672
 31
0.0
  0
LINE
  5
FB
330
17
100
AcDbEntity
  8
0
420
6919316
100
AcDbLine
 10
99.02680687415702
 20
13.917310096006547
 30
0.0
 11
27.563735581699923
 21
-96.12616959383189
 31
0.0
  0
LINE
  5
FC
330
17
100
AcDbEntity
  8
0
420
6919316
100
AcDbLine
 10
99.12155402515418
 20
13.225639025712233
 30
0.0
 11
26.21891786408647
 21
-96.50164944723115
 31
0.0
  0
LINE
  5
FD
330
17
100
AcDbEntity
  8
0
420
6984595
100
AcDbLine
 10
99.21147013144778
 20
12.53332335643043
 30
0.0
 11
24.868988716485486
 21
-96.85831611286312
 31
0.0
  0
LINE
  5
FE
330
17
100
AcDbEntity
  8
0
420
6984595
100
AcDbLine
 10
99.29655081065371
 20
11.840396830650091
 30
0.0
 11
23.514211310259
 21
-97.19610005785461
 31
0.0
  0
LINE
  5
FF
330
17
100
AcDbEntity
  8
0
420
7050131
100
AcDbLine
 10
99.37679191605962
 20
11.146893220632544
 30
0.0
 11
22.15484976194671
 21
-97.51493543055632
 31
0.0
  0
LINE
  5
100
330
17
100
AcDbEntity
  8
0
420
7049874
100
AcDbLine
 10
99.45218953682733
 20
10.452846326765334
 30
0.0
 11
20.79116908177592
 21
-97.81476007338057
 31
0.0
  0
LINE
  5
101
330
17
100
AcDbEntity
  8
0
420
7049874
100
AcDbLine
 10
99.52273999818311
 20
9.75828997591494
 30
0.0
 11
19.42343512199718
 21
-98.09551553491917
 31
0.0
  0
LINE
  5
102
330
17
100
AcDbEntity
  8
0
420
7115153
100
AcDbLine
 10
99.58843986159704
 20
9.06325801977801
 30
0.0
 11
18.051914525055984
 21
-98.35714708133861
 31
0.0
  0
LINE
  5
103
330
17
100
AcDbEntity
  8
0
420
7115153
100
AcDbLine
 10
99.64928592495042
 20
8.367784333231535
 30
0.0
 11
16.676874671610207
 21
-98.5996037070505
 31
0.0
  0
LINE
  5
104
330
17
100
AcDbEntity
  8
0
420
7180689
100
AcDbLine
 10
99.70527522269202
 20
7.671902812681852
 30
0.0
 11
15.298583628403788
 21
-98.82283814465528
 31
0.0
  0
LINE
  5
105
330
17
100
AcDbEntity
  8
0
420
7180432
100
AcDbLine
 10
99.75640502598242
 20
6.975647374412511
 30
0.0
 11
13.917310096006533
 21
-99.02680687415702
 31
0.0
  0
LINE
  5
106
330
17
100
AcDbEntity
  8
0
420
7180432
100
AcDbLine
 10
99.80267284282715
 20
6.279051952931322
 30
0.0
 11
12.533323356430397
 21
-99.21147013144778
 31
0.0
  0
LINE
  5
107
330
17
100
AcDbEntity
  8
0
420
7245711
100
AcDbLine
 10
99.84407641819813
 20
5.582150499316359
 30
0.0
 11
11.146893220632528
 21
-99.37679191605962
 31
0.0
  0
LINE
  5
108
330
17
100
AcDbEntity
  8
0
420
7245711
100
AcDbLine
 10
99.88061373414342
 20
4.884976979561309
 30
0.0
 11
9.758289975914925
 21
-99.52273999818311
 31
0.0
  0
LINE
  5
109
330
17
100
AcDbEntity
  8
0
420
7310990
100
AcDbLine
 10
99.91228300988581
 20
4.187565372919948
 30
0.0
 11
8.367784333231523
 21
-99.64928592495042
 31
0.0
  0
LINE
  5
10A
330
17
100
AcDbEntity
  8
0
420
7310990
100
AcDbLine
 10
99.93908270190958
 20
3.4899496702500845
 30
0.0
 11
6.975647374412497
 21
-99.75640502598242
 31
0.0
  0
LINE
  5
10B
330
17
100
AcDbEntity
  8
0
420
7310990
100
AcDbLine
 10
99.96101150403544
 20
2.7921638723568654
 30
0.0
 11
5.582150499316345
 21
-99.84407641819813
 31
0.0
  0
LINE
  5
10C
330
17
100
AcDbEntity
  8
0
420
7376269
100
AcDbLine
 10
99.97806834748455
 20
2.094241988335701
 30
0.0
 11
4.187565372919977
 21
-99.91228300988581
 31
0.0
  0
LINE
  5
10D
330
17
100
AcDbEntity
  8
0
420
7376269
100
AcDbLine
 10
99.99025240093043
 20
1.3962180339145285
 30
0.0
 11
2.792163872356894
 21
-99.96101150403544
 31
0.0
  0
LINE
  5
10E
330
17
100
AcDbEntity
  8
0
420
7441548
100
AcDbLine
 10
99.99756307053946
 20
0.6981260297961551
 30
0.0
 11
1.3962180339145285
 21
-99.99025240093043
 31
0.0
  0
LINE
  5
10F
330
17
100
AcDbEntity
  8
0
420
7441548
100
AcDbLine
 10
100.0
 20
-0.0
 30
0.0
 11
0.0
 21
-100.0
 31
0.0
  0
LINE
  5
110
330
17
100
AcDbEntity
  8
0
420
7507084
100
AcDbLine
 10
99.99756307053946
 20
-0.6981260297961551
 30
0.0
 11
-1.3962180339145285
 21
-99.99025240093043
 31
0.0
  0
LINE
  5
111
330
17
100
AcDbEntity
  8
0
420
7506827
100
AcDbLine
 10
99.99025240093043
 20
-1.3962180339145285
 30
0.0
 11
-2.7921638723568796
 21
-99.96101150403544
 31
0.0
  0
LINE
  5
112
330
17
100
AcDbEntity
  8
0
420
7506827
100
AcDbLine
 10
99.97806834748455
 20
-2.094241988335701
 30
0.0
 11
-4.187565372919963
 21
-99.91228300988581
 31
0.0
  0
LINE
  5
113
330
17
100
AcDbEntity
  8
0
420
7572106
100
AcDbLine
 10
99.96101150403544
 20
-2.792163872356894
 30
0.0
 11
-5.582150499316389
 21
-99.84407641819813
 31
0.0
  0
LINE
  5
114
330
17
100
AcDbEntity
  8
0
420
7572106
100
AcDbLine
 10
99.93908270190958
 20
-3.489949670250099
 30
0.0
 11
-6.975647374412526
 21
-99.75640502598242
 31
0.0
  0
LINE
  5
115
330
17
100
AcDbEntity
  8
0
420
7572106
100
AcDbLine
 10
99.91228300988581
 20
-4.187565372919963
 30
0.0
 11
-8.367784333231551
 21
-99.64928592495042
 31
0.0
  0
LINE
  5
116
330
17
100
AcDbEntity
  8
0
420
7637385
100
AcDbLine
 10
99.88061373414342
 20
-4.884976979561338
 30
0.0
 11
-9.758289975914956
 21
-99.52273999818311
 31
0.0
  0
LINE
  5
117
330
17
100
AcDbEntity
  8
0
420
7637385
100
AcDbLine
 10
99.84407641819813
 20
-5.582150499316389
 30
0.0
 11
-11.146893220632558
 21
-99.37679191605962
 31
0.0
  0
LINE
  5
118
330
17
100
AcDbEntity
  8
0
420
7702664
100
AcDbLine
 10
99.80267284282715
 20
-6.2790519529313515
 30
0.0
 11
-12.533323356430442
 21
-99.21147013144778
 31
0.0
  0
LINE
  5
119
330
17
100
AcDbEntity
  8
0
420
7702664
100
AcDbLine
 10
99.75640502598242
 20
-6.97564737441254
 30
0.0
 11
-13.91731009600656
 21
-99.02680687415702
 31
0.0
  0
LINE
  5
11A
330
17
100
AcDbEntity
  8
0
420
7702664
100
AcDbLine
 10
99.70527522269202
 20
-7.671902812681881
 30
0.0
 11
-15.298583628403817
 21
-98.82283814465528
 31
0.0
  0
LINE
  5
11B
330
17
100
AcDbEntity
  8
0
420
7767943
100
AcDbLine
 10
99.64928592495042
 20
-8.367784333231565
 30
0.0
 11
-16.67687467161025
 21
-98.59960370705048
 31
0.0
  0
LINE
  5
11C
330
17
100
AcDbEntity
  8
0
420
7767943
100
AcDbLine
 10
99.58843986159704
 20
-9.063258019778024
 30
0.0
 11
-18.051914525056013
 21
-98.35714708133861
 31
0.0
  0
LINE
  5
11D
330
17
100
AcDbEntity
  8
0
420
7767943
100
AcDbLine
 10
99.52273999818311
 20
-9.758289975914956
 30
0.0
 11
-19.423435121997223
 21
-98.09551553491917
 31
0.0
  0
LINE
  5
11E
330
17
100
AcDbEntity
  8
0
420
7833222
100
AcDbLine
 10
99.45218953682733
 20
-10.452846326765364
 30
0.0
 11
-20.791169081775948
 21
-97.81476007338054
 31
0.0
  0
LINE
  5
11F
330
17
100
AcDbEntity
  8
0
420
7833222
100
AcDbLine
 10
99.37679191605962
 20
-11.146893220632558
 30
0.0
 11
-22.154849761946753
 21
-97.51493543055632
 31
0.0
  0
LINE
  5
120
330
17
100
AcDbEntity
  8
0
420
7898501
100
AcDbLine
 10
99.29655081065371
 20
-11.840396830650105
 30
0.0
 11
-23.51421131025903
 21
-97.19610005785461
 31
0.0
  0
LINE
  5
121
330
17
100
AcDbEntity
  8
0
420
7898501
100
AcDbLine
 10
99.21147013144778
 20
-12.533323356430442
 30
0.0
 11
-24.868988716485514
 21
-96.85831611286312
 31
0.0
  0
LINE
  5
122
330
17
100
AcDbEntity
  8
0
420
7898501
100
AcDbLine
 10
99.12155402515418
 20
-13.225639025712264
 30
0.0
 11
-26.218917864086507
 21
-96.50164944723115
 31
0.0
  0
LINE
  5
123
330
17
100
AcDbEntity
  8
0
420
7963780
100
AcDbLine
 10
99.02680687415702
 20
-13.917310096006547
 30
0.0
 11
-27.563735581699905
 21
-96.12616959383189
 31
0.0
  0
LINE
  5
124
330
17
100
AcDbEntity
  8
0
420
7963780
100
AcDbLine
 10
98.92723329629884
 20
-14.60830285624116
 30
0.0
 11
-28.903179694447147
 21
-95.73194975320672
 31
0.0
  0
LINE
  5
125
330
17
100
AcDbEntity
  8
0
420
8029316
100
AcDbLine
 10
98.82283814465528
 20
-15.298583628403803
 30
0.0
 11
-30.23698907504444
 21
-95.31906677929472
 31
0.0
  0
LINE
  5
126
330
17
100
AcDbEntity
  8
0
420
8029059
100
AcDbLine
 10
98.71362650729878
 20
-15.988118769183481
 30
0.0
 11
-31.564903694710246
 21
-94.88760116444966
 31
0.0
  0
LINE
  5
127
330
17
100
AcDbEntity
  8
0
420
8029059
100
AcDbLine
 10
98.59960370705048
 20
-16.67687467161022
 30
0.0
 11
-32.886664673858306
 21
-94.4376370237481
 31
0.0
  0
LINE
  5
128
330
17
100
AcDbEntity
  8
0
420
8094595
100
AcDbLine
 10
98.48077530122082
 20
-17.364817766693044
 30
0.0
 11
-34.202014332566876
 21
-93.96926207859082
 31
0.0
  0
LINE
  5
129
330
17
100
AcDbEntity
  8
0
420
8094338
100
AcDbLine
 10
98.35714708133861
 20
-18.051914525056
 30
0.0
 11
-35.5106962408137
 21
-93.48256763960146
 31
0.0
  0
LINE
  5
12A
330
17
100
AcDbEntity
  8
0
420
8094338
100
AcDbLine
 10
98.22872507286888
 20
-18.73813145857246
 30
0.0
 11
-36.8124552684678
 21
-92.97764858882516
 31
0.0
  0
LINE
  5
12B
330
17
100
AcDbEntity
  8
0
420
8159617
100
AcDbLine
 10
98.09551553491917
 20
-19.42343512199721
 30
0.0
 11
-38.10703763502741
 21
-92.45460336123132
 31
0.0
  0
LINE
  5
12C
330
17
100
AcDbEntity
  8
0
420
8159617
100
AcDbLine
 10
97.95752495993439
 20
-20.107792114596474
 30
0.0
 11
-39.39419095909511
 21
-91.91353392552344
 31
0.0
  0
LINE
  5
12D
330
17
100
AcDbEntity
  8
0
420
8159617
100
AcDbLine
 10
97.81476007338054
 20
-20.791169081775948
 30
0.0
 11
-40.67366430758002
 21
-91.35454576426008
 31
0.0
  0
LINE
  5
12E
330
17
100
AcDbEntity
  8
0
420
8224896
100
AcDbLine
 10
97.66722783341677
 20
-21.47353271670633
 30
0.0
 11
-41.94520824461772
 21
-90.77774785329083
 31
0.0
  0
LINE
  5
12F
330
17
100
AcDbEntity
  8
0
420
8224896
100
AcDbLine
 10
97.51493543055632
 20
-22.15484976194674
 30
0.0
 11
-43.20857488019825
 21
-90.18325264051137
 31
0.0
  0
LINE
  5
130
330
17
100
AcDbEntity
  8
0
420
8224896
100
AcDbLine
 10
97.35789028731602
 20
-22.83508701106559
 30
0.0
 11
-44.46351791849276
 21
-89.57117602394126
 31
0.0
  0
LINE
  5
131
330
17
100
AcDbEntity
  8
0
420
8290175
100
AcDbLine
 10
97.19610005785461
 20
-23.514211310259014
 30
0.0
 11
-45.709792705869425
 21
-88.94163732912975
 31
0.0
  0
LINE
  5
132
330
17
100
AcDbEntity
  8
0
420
8290175
100
AcDbLine
 10
97.02957262759965
 20
-24.192189559966778
 30
0.0
 11
-46.94715627858909
 21
-88.29475928589267
 31
0.0
  0
LINE
  5
133
330
17
100
AcDbEntity
  8
0
420
8290175
100
AcDbLine
 10
96.85831611286312
 20
-24.868988716485486
 30
0.0
 11
-48.175367410171546
 21
-87.63066800438637
 31
0.0
  0
LINE
  5
134
330
17
100
AcDbEntity
  8
0
420
8420733
100
AcDbLine
 10
96.68233886044594
 20
-25.544575793579078
 30
0.0
 11
-49.394186658423116
 21
-86.94949295052187
 31
0.0
  0
LINE
  5
135
330
17
100
AcDbEntity
  8
0
420
8486012
100
AcDbLine
 10
96.50164944723115
 20
-26.21891786408649
 30
0.0
 11
-50.6033764121164
 21
-86.25136692072573
 31
0.0
  0
LINE
  5
136
330
17
100
AcDbEntity
  8
0
420
8551291
100
AcDbLine
 10
96.3162566797658
 20
-26.891982061526587
 30
0.0
 11
-51.80270093731304
 21
-85.53642601605064
 31
0.0
  0
LINE
  5
137
330
17
100
AcDbEntity
  8
0
420
8681849
100
AcDbLine
 10
96.12616959383186
 20
-27.563735581699934
 30
0.0
 11
-52.991926423320514
 21
-84.80480961564258
 31
0.0
  0
LINE
  5
138
330
17
100
AcDbEntity
  8
0
420
8681849
100
AcDbLine
 10
95.93139745400576
 20
-28.234145684287665
 30
0.0
 11
-54.170821028274005
 21
-84.05666034956839
 31
0.0
  0
LINE
  5
139
330
17
100
AcDbEntity
  8
0
420
8812407
100
AcDbLine
 10
95.73194975320672
 20
-28.90317969444718
 30
0.0
 11
-55.33915492433443
 21
-83.29212407100992
 31
0.0
  0
LINE
  5
13A
330
17
100
AcDbEntity
  8
0
420
8943222
100
AcDbLine
 10
95.52783621223435
 20
-29.570805004404672
 30
0.0
 11
-56.49670034249379
 21
-82.51134982782952
 31
0.0
  0
LINE
  5
13B
330
17
100
AcDbEntity
  8
0
420
8942965
100
AcDbLine
 10
95.31906677929472
 20
-30.236989075044455
 30
0.0
 11
-57.64323161697932
 21
-81.71448983351286
 31
0.0
  0
LINE
  5
13C
330
17
100
AcDbEntity
  8
0
420
9073523
100
AcDbLine
 10
95.10565162951536
 20
-30.901699437494734
 30
0.0
 11
-58.7785252292473
 21
-80.90169943749473
 31
0.0
  0
LINE
  5
13D
330
17
100
AcDbEntity
  8
0
420
9138802
100
AcDbLine
 10
94.88760116444966
 20
-31.564903694710228
 30
0.0
 11
-59.90235985155857
 21
-80.07313709487333
 31
0.0
  0
LINE
  5
13E
330
17
100
AcDbEntity
  8
0
420
9204081
100
AcDbLine
 10
94.66492601156963
 20
-32.22656952305109
 30
0.0
 11
-61.01451639012676
 21
-79.22896433551907
 31
0.0
  0
LINE
  5
13F
330
17
100
AcDbEntity
  8
0
420
9334639
100
AcDbLine
 10
94.4376370237481
 20
-32.886664673858306
 30
0.0
 11
-62.11477802783103
 21
-78.36934573258398
 31
0.0
  0
LINE
  5
140
330
17
100
AcDbEntity
  8
0
420
9400175
100
AcDbLine
 10
94.20574527872967
 20
-33.545156975025506
 30
0.0
 11
-63.20293026648509
 21
-77.49444887041798
 31
0.0
  0
LINE
  5
141
330
17
100
AcDbEntity
  8
0
420
9465197
100
AcDbLine
 10
93.96926207859082
 20
-34.202014332566876
 30
0.0
 11
-64.27876096865394
 21
-76.60444431189781
 31
0.0
  0
LINE
  5
142
330
17
100
AcDbEntity
  8
0
420
9530476
100
AcDbLine
 10
93.72819894918914
 20
-34.85720473218152
 30
0.0
 11
-65.34206039901055
 21
-75.69950556517566
 31
0.0
  0
LINE
  5
143
330
17
100
AcDbEntity
  8
0
420
9595755
100
AcDbLine
 10
93.48256763960146
 20
-35.510696240813715
 30
0.0
 11
-66.39262126522416
 21
-74.77980904985317
 31
0.0
  0
LINE
  5
144
330
17
100
AcDbEntity
  8
0
420
9661034
100
AcDbLine
 10
93.2323801215512
 20
-36.162457008209245
 30
0.0
 11
-67.43023875837234
 21
-73.84553406258838
 31
0.0
  0
LINE
  5
145
330
17
100
AcDbEntity
  8
0
420
9791592
100
AcDbLine
 10
92.97764858882516
 20
-36.8124552684678
 30
0.0
 11
-68.45471059286888
 21
-72.89686274214114
 31
0.0
  0
LINE
  5
146
330
17
100
AcDbEntity
  8
0
420
9857128
100
AcDbLine
 10
92.71838545667876
 20
-37.46065934159121
 30
0.0
 11
-69.46583704589973
 21
-71.93398003386513
 31
0.0
  0
LINE
  5
147
330
17
100
AcDbEntity
  8
0
420
9922150
100
AcDbLine
 10
92.45460336123132
 20
-38.10703763502743
 30
0.0
 11
-70.46342099635947
 21
-70.95707365365209
 31
0.0
  0
LINE
  5
148
330
17
100
AcDbEntity
  8
0
420
10052965
100
AcDbLine
 10
92.18631515885006
 20
-38.751558645210295
 30
0.0
 11
-71.44726796328035
 21
-69.96633405133652
 31
0.0
  0
LINE
  5
149
330
17
100
AcDbEntity
  8
0
420
10052708
100
AcDbLine
 10
91.91353392552344
 20
-39.39419095909511
 30
0.0
 11
-72.41718614374676
 21
-68.96195437356697
 31
0.0
  0
LINE
  5
14A
330
17
100
AcDbEntity
  8
0
420
10183266
100
AcDbLine
 10
91.63627295622396
 20
-40.034903255689514
 30
0.0
 11
-73.37298645028764
 21
-67.94413042615164
 31
0.0
  0
LINE
  5
14B
330
17
100
AcDbEntity
  8
0
420
10248545
100
AcDbLine
 10
91.35454576426008
 20
-40.67366430758002
 30
0.0
 11
-74.31448254773943
 21
-66.9130606358858
 31
0.0
  0
LINE
  5
14C
330
17
100
AcDbEntity
  8
0
420
10313824
100
AcDbLine
 10
91.06836608061771
 20
-41.31044298245419
 30
0.0
 11
-75.24149088957245
 21
-65.86894601186802
 31
0.0
  0
LINE
  5
14D
330
17
100
AcDbEntity
  8
0
420
10379103
100
AcDbLine
 10
90.77774785329083
 20
-41.94520824461772
 30
0.0
 11
-76.15383075367367
 21
-64.81199010631306
 31
0.0
  0
LINE
  5
14E
330
17
100
AcDbEntity
  8
0
420
10444382
100
AcDbLine
 10
90.48270524660194
 20
-42.577929156507274
 30
0.0
 11
-77.05132427757894
 21
-63.74239897486894
 31
0.0
  0
LINE
  5
14F
330
17
100
AcDbEntity
  8
0
420
10509661
100
AcDbLine
 10
90.18325264051137
 20
-43.208574880198256
 30
0.0
 11
-77.93379649314744
 21
-62.660381136446034
 31
0.0
  0
LINE
  5
150
330
17
100
AcDbEntity
  8
0
420
10574940
100
AcDbLine
 10
89.87940462991669
 20
-43.83711467890776
 30
0.0
 11
-78.80107536067223
 21
-61.56614753256581
 31
0.0
  0
LINE
  5
151
330
17
100
AcDbEntity
  8
0
420
10705755
100
AcDbLine
 10
89.57117602394126
 20
-44.463517918492755
 30
0.0
 11
-79.65299180241965
 21
-60.45991148623746
 31
0.0
  0
LINE
  5
152
330
17
100
AcDbEntity
  8
0
420
10771034
100
AcDbLine
 10
89.25858184521253
 20
-45.08775406894309
 30
0.0
 11
-80.48937973559144
 21
-59.3418886603701
 31
0.0
  0
LINE
  5
153
330
17
100
AcDbEntity
  8
0
420
10836056
100
AcDbLine
 10
88.94163732912975
 20
-45.709792705869425
 30
0.0
 11
-81.31007610470279
 21
-58.2122970157289
 31
0.0
  0
LINE
  5
154
330
17
100
AcDbEntity
  8
0
420
10901335
100
AcDbLine
 10
88.62035792312146
 20
-46.329603511986186
 30
0.0
 11
-82.11492091337044
 21
-57.071356768443124
 31
0.0
  0
LINE
  5
155
330
17
100
AcDbEntity
  8
0
420
10966614
100
AcDbLine
 10
88.29475928589267
 20
-46.947156278589105
 30
0.0
 11
-82.90375725550419
 21
-55.91929034707466
 31
0.0
  0
LINE
  5
156
330
17
100
AcDbEntity
  8
0
420
11031893
100
AcDbLine
 10
87.96485728666164
 20
-47.56242090702756
 30
0.0
 11
-83.67643134589619
 21
-54.756322349254994
 31
0.0
  0
LINE
  5
157
330
17
100
AcDbEntity
  8
0
420
11097172
100
AcDbLine
 10
87.63066800438637
 20
-48.175367410171546
 30
0.0
 11
-84.43279255020153
 21
-53.58267949789963
 31
0.0
  0
LINE
  5
158
330
17
100
AcDbEntity
  8
0
420
11227987
100
AcDbLine
 10
87.29220772698098
 20
-48.78596591387329
 30
0.0
 11
-85.17269341430479
 21
-52.398590597007875
 31
0.0
  0
LINE
  5
159
330
17
100
AcDbEntity
  8
0
420
11227730
100
AcDbLine
 10
86.94949295052187
 20
-49.39418665842313
 30
0.0
 11
-85.89598969306647
 21
-51.204286487057104
 31
0.0
  0
LINE
  5
15A
330
17
100
AcDbEntity
  8
0
420
11293009
100
AcDbLine
 10
86.60254037844382
 20
-50.000000000000036
 30
0.0
 11
-86.60254037844388
 21
-49.99999999999994
 31
0.0
  0
LINE
  5
15B
330
17
100
AcDbEntity
  8
0
420
11423824
100
AcDbLine
 10
86.25136692072573
 20
-50.60337641211642
 30
0.0
 11
-87.29220772698099
 21
-48.785965913873206
 31
0.0
  0
LINE
  5
15C
330
17
100
AcDbEntity
  8
0
420
11423567
100
AcDbLine
 10
85.89598969306643
 20
-51.20428648705718
 30
0.0
 11
-87.96485728666168
 21
-47.56242090702747
 31
0.0
  0
LINE
  5
15D
330
17
100
AcDbEntity
  8
0
420
11554125
100
AcDbLine
 10
85.53642601605067
 20
-51.802700937313006
 30
0.0
 11
-88.62035792312145
 21
-46.329603511986214
 31
0.0
  0
LINE
  5
15E
330
17
100
AcDbEntity
  8
0
420
11619661
100
AcDbLine
 10
85.17269341430477
 20
-52.39859059700791
 30
0.0
 11
-89.25858184521253
 21
-45.08775406894309
 31
0.0
  0
LINE
  5
15F
330
17
100
AcDbEntity
  8
0
420
11684940
100
AcDbLine
 10
84.80480961564261
 20
-52.99192642332049
 30
0.0
 11
-89.87940462991668
 21
-43.83711467890776
 31
0.0
  0
LINE
  5
160
330
17
100
AcDbEntity
  8
0
420
11749962
100
AcDbLine
 10
84.43279255020153
 20
-53.58267949789963
 30
0.0
 11
-90.48270524660194
 21
-42.5779291565073
 31
0.0
  0
LINE
  5
161
330
17
100
AcDbEntity
  8
0
420
11815498
100
AcDbLine
 10
84.05666034956846
 20
-54.17082102827398
 30
0.0
 11
-91.06836608061771
 21
-41.31044298245419
 31
0.0
  0
LINE
  5
162
330
17
100
AcDbEntity
  8
0
420
11880777
100
AcDbLine
 10
83.67643134589618
 20
-54.75632234925503
 30
0.0
 11
-91.63627295622395
 21
-40.034903255689514
 31
0.0
  0
LINE
  5
163
330
17
100
AcDbEntity
  8
0
420
11880520
100
AcDbLine
 10
83.29212407100995
 20
-55.3391549243344
 30
0.0
 11
-92.18631515885004
 21
-38.751558645210324
 31
0.0
  0
LINE
  5
164
330
17
100
AcDbEntity
  8
0
420
12011078
100
AcDbLine
 10
82.90375725550417
 20
-55.91929034707468
 30
0.0
 11
-92.71838545667875
 21
-37.46065934159124
 31
0.0
  0
LINE
  5
165
330
17
100
AcDbEntity
  8
0
420
12076614
100
AcDbLine
 10
82.51134982782952
 20
-56.49670034249379
 30
0.0
 11
-93.23238012155122
 21
-36.162457008209245
 31
0.0
  0
LINE
  5
166
330
17
100
AcDbEntity
  8
0
420
12141893
100
AcDbLine
 10
82.1149209133704
 20
-57.07135676844316
 30
0.0
 11
-93.72819894918915
 21
-34.85720473218152
 31
0.0
  0
LINE
  5
167
330
17
100
AcDbEntity
  8
0
420
12206915
100
AcDbLine
 10
81.71448983351286
 20
-57.64323161697932
 30
0.0
 11
-94.20574527872967
 21
-33.545156975025506
 31
0.0
  0
LINE
  5
168
330
17
100
AcDbEntity
  8
0
420
12272451
100
AcDbLine
 10
81.31007610470277
 20
-58.21229701572895
 30
0.0
 11
-94.66492601156963
 21
-32.226569523051126
 31
0.0
  0
LINE
  5
169
330
17
100
AcDbEntity
  8
0
420
12337730
100
AcDbLine
 10
80.90169943749473
 20
-58.778525229247315
 30
0.0
 11
-95.10565162951535
 21
-30.901699437494734
 31
0.0
  0
LINE
  5
16A
330
17
100
AcDbEntity
  8
0
420
12337473
100
AcDbLine
 10
80.48937973559143
 20
-59.34188866037016
 30
0.0
 11
-95.52783621223436
 21
-29.570805004404672
 31
0.0
  0
LINE
  5
16B
330
17
100
AcDbEntity
  8
0
420
12468288
100
AcDbLine
 10
80.07313709487333
 20
-59.90235985155859
 30
0.0
 11
-95.93139745400576
 21
-28.234145684287647
 31
0.0
  0
LINE
  5
16C
330
17
100
AcDbEntity
  8
0
420
12533567
100
AcDbLine
 10
79.65299180241962
 20
-60.459911486237495
 30
0.0
 11
-96.3162566797658
 21
-26.891982061526576
 31
0.0
  0
LINE
  5
16D
330
17
100
AcDbEntity
  8
0
420
12598846
100
AcDbLine
 10
79.22896433551907
 20
-61.014516390126786
 30
0.0
 11
-96.68233886044594
 21
-25.54457579357906
 31
0.0
  0
LINE
  5
16E
330
17
100
AcDbEntity
  8
0
420
12598589
100
AcDbLine
 10
78.80107536067219
 20
-61.56614753256583
 30
0.0
 11
-97.02957262759965
 21
-24.192189559966764
 31
0.0
  0
LINE
  5
16F
330
17
100
AcDbEntity
  8
0
420
12663868
100
AcDbLine
 10
78.36934573258398
 20
-62.114778027831065
 30
0.0
 11
-97.35789028731602
 21
-22.835087011065575
 31
0.0
  0
LINE
  5
170
330
17
100
AcDbEntity
  8
0
420
12794683
100
AcDbLine
 10
77.93379649314743
 20
-62.66038113644606
 30
0.0
 11
-97.66722783341679
 21
-21.473532716706316
 31
0.0
  0
LINE
  5
171
330
17
100
AcDbEntity
  8
0
420
12794426
100
AcDbLine
 10
77.49444887041795
 20
-63.20293026648509
 30
0.0
 11
-97.9575249599344
 21
-20.10779211459646
 31
0.0
  0
LINE
  5
172
330
17
100
AcDbEntity
  8
0
420
12859705
100
AcDbLine
 10
77.0513242775789
 20
-63.742398974868976
 30
0.0
 11
-98.22872507286887
 21
-18.73813145857246
 31
0.0
  0
LINE
  5
173
330
17
100
AcDbEntity
  8
0
420
12925241
100
AcDbLine
 10
76.60444431189781
 20
-64.27876096865394
 30
0.0
 11
-98.48077530122082
 21
-17.36481776669303
 31
0.0
  0
LINE
  5
174
330
17
100
AcDbEntity
  8
0
420
12990520
100
AcDbLine
 10
76.15383075367367
 20
-64.8119901063131
 30
0.0
 11
-98.71362650729878
 21
-15.988118769183481
 31
0.0
  0
LINE
  5
175
330
17
100
AcDbEntity
  8
0
420
13055799
100
AcDbLine
 10
75.69950556517566
 20
-65.34206039901055
 30
0.0
 11
-98.92723329629884
 21
-14.608302856241146
 31
0.0
  0
LINE
  5
176
330
17
100
AcDbEntity
  8
0
420
13055542
100
AcDbLine
 10
75.24149088957243
 20
-65.86894601186808
 30
0.0
 11
-99.12155402515418
 21
-13.225639025712233
 31
0.0
  0
LINE
  5
177
330
17
100
AcDbEntity
  8
0
420
13186357
100
AcDbLine
 10
74.77980904985317
 20
-66.39262126522416
 30
0.0
 11
-99.2965508106537
 21
-11.840396830650075
 31
0.0
  0
LINE
  5
178
330
17
100
AcDbEntity
  8
0
420
13251636
100
AcDbLine
 10
74.31448254773942
 20
-66.91306063588584
 30
0.0
 11
-99.45218953682733
 21
-10.452846326765334
 31
0.0
  0
LINE
  5
179
330
17
100
AcDbEntity
  8
0
420
13251379
100
AcDbLine
 10
73.84553406258836
 20
-67.43023875837235
 30
0.0
 11
-99.58843986159704
 21
-9.063258019777996
 31
0.0
  0
LINE
  5
17A
330
17
100
AcDbEntity
  8
0
420
13316658
100
AcDbLine
 10
73.37298645028764
 20
-67.94413042615164
 30
0.0
 11
-99.70527522269202
 21
-7.6719028126818385
 31
0.0
  0
LINE
  5
17B
330
17
100
AcDbEntity
  8
0
420
13382194
100
AcDbLine
 10
72.89686274214114
 20
-68.45471059286888
 30
0.0
 11
-99.80267284282715
 21
-6.279051952931307
 31
0.0
  0
LINE
  5
17C
330
17
100
AcDbEntity
  8
0
420
13447473
100
AcDbLine
 10
72.41718614374673
 20
-68.961954373567
 30
0.0
 11
-99.88061373414341
 21
-4.884976979561294
 31
0.0
  0
LINE
  5
17D
330
17
100
AcDbEntity
  8
0
420
13512752
100
AcDbLine
 10
71.9339800338651
 20
-69.46583704589972
 30
0.0
 11
-99.93908270190957
 21
-3.48994967025007
 31
0.0
  0
LINE
  5
17E
330
17
100
AcDbEntity
  8
0
420
13512495
100
AcDbLine
 10
71.44726796328031
 20
-69.96633405133656
 30
0.0
 11
-99.97806834748455
 21
-2.094241988335672
 31
0.0
  0
LINE
  5
17F
330
17
100
AcDbEntity
  8
0
420
13578031
100
AcDbLine
 10
70.95707365365209
 20
-70.46342099635946
 30
0.0
 11
-99.99756307053947
 21
-0.6981260297961261
 31
0.0
  0
LINE
  5
180
330
17
100
AcDbEntity
  8
0
420
13643310
100
AcDbLine
 10
70.46342099635946
 20
-70.95707365365209
 30
0.0
 11
-99.99756307053947
 21
0.6981260297961841
 31
0.0
  0
LINE
  5
181
330
17
100
AcDbEntity
  8
0
420
13708589
100
AcDbLine
 10
69.96633405133652
 20
-71.44726796328035
 30
0.0
 11
-99.97806834748455
 21
2.09424198833573
 31
0.0
  0
LINE
  5
182
330
17
100
AcDbEntity
  8
0
420
13708332
100
AcDbLine
 10
69.46583704589972
 20
-71.93398003386513
 30
0.0
 11
-99.93908270190957
 21
3.489949670250128
 31
0.0
  0
LINE
  5
183
330
17
100
AcDbEntity
  8
0
420
13773611
100
AcDbLine
 10
68.96195437356695
 20
-72.41718614374679
 30
0.0
 11
-99.8806137341434
 21
4.884976979561367
 31
0.0
  0
LINE
  5
184
330
17
100
AcDbEntity
  8
0
420
13839147
100
AcDbLine
 10
68.45471059286885
 20
-72.89686274214118
 30
0.0
 11
-99.80267284282715
 21
6.279051952931381
 31
0.0
  0
LINE
  5
185
330
17
100
AcDbEntity
  8
0
420
13904426
100
AcDbLine
 10
67.94413042615164
 20
-73.37298645028764
 30
0.0
 11
-99.70527522269202
 21
7.67190281268191
 31
0.0
  0
LINE
  5
186
330
17
100
AcDbEntity
  8
0
420
13969705
100
AcDbLine
 10
67.43023875837233
 20
-73.84553406258841
 30
0.0
 11
-99.58843986159704
 21
9.063258019778068
 31
0.0
  0
LINE
  5
187
330
17
100
AcDbEntity
  8
0
420
13969448
100
AcDbLine
 10
66.9130606358858
 20
-74.31448254773944
 30
0.0
 11
-99.45218953682733
 21
10.452846326765393
 31
0.0
  0
LINE
  5
188
330
17
100
AcDbEntity
  8
0
420
14034984
100
AcDbLine
 10
66.39262126522414
 20
-74.77980904985321
 30
0.0
 11
-99.2965508106537
 21
11.840396830650148
 31
0.0
  0
LINE
  5
189
330
17
100
AcDbEntity
  8
0
420
14100263
100
AcDbLine
 10
65.86894601186802
 20
-75.24149088957246
 30
0.0
 11
-99.12155402515418
 21
13.22563902571229
 31
0.0
  0
LINE
  5
18A
330
17
100
AcDbEntity
  8
0
420
14165542
100
AcDbLine
 10
65.34206039901052
 20
-75.69950556517566
 30
0.0
 11
-98.92723329629882
 21
14.608302856241217
 31
0.0
  0
LINE
  5
18B
330
17
100
AcDbEntity
  8
0
420
14165285
100
AcDbLine
 10
64.81199010631306
 20
-76.15383075367367
 30
0.0
 11
-98.71362650729878
 21
15.98811876918354
 31
0.0
  0
LINE
  5
18C
330
17
100
AcDbEntity
  8
0
420
14230821
100
AcDbLine
 10
64.27876096865396
 20
-76.60444431189781
 30
0.0
 11
-98.48077530122082
 21
17.364817766693
 31
0.0
  0
LINE
  5
18D
330
17
100
AcDbEntity
  8
0
420
14296100
100
AcDbLine
 10
63.742398974868976
 20
-77.0513242775789
 30
0.0
 11
-98.22872507286887
 21
18.738131458572433
 31
0.0
  0
LINE
  5
18E
330
17
100
AcDbEntity
  8
0
420
14361379
100
AcDbLine
 10
63.20293026648509
 20
-77.49444887041795
 30
0.0
 11
-97.95752495993442
 21
20.107792114596432
 31
0.0
  0
LINE
  5
18F
330
17
100
AcDbEntity
  8
0
420
14426658
100
AcDbLine
 10
62.66038113644606
 20
-77.93379649314743
 30
0.0
 11
-97.66722783341679
 21
21.473532716706288
 31
0.0
  0
LINE
  5
190
330
17
100
AcDbEntity
  8
0
420
14426401
100
AcDbLine
 10
62.114778027831065
 20
-78.36934573258398
 30
0.0
 11
-97.35789028731602
 21
22.835087011065543
 31
0.0
  0
LINE
  5
191
330
17
100
AcDbEntity
  8
0
420
14491937
100
AcDbLine
 10
61.56614753256583
 20
-78.80107536067219
 30
0.0
 11
-97.02957262759965
 21
24.19218955996675
 31
0.0
  0
LINE
  5
192
330
17
100
AcDbEntity
  8
0
420
14557216
100
AcDbLine
 10
61.014516390126786
 20
-79.22896433551907
 30
0.0
 11
-96.68233886044595
 21
25.544575793579032
 31
0.0
  0
LINE
  5
193
330
17
100
AcDbEntity
  8
0
420
14622495
100
AcDbLine
 10
60.459911486237495
 20
-79.65299180241962
 30
0.0
 11
-96.31625667976581
 21
26.89198206152656
 31
0.0
  0
LINE
  5
194
330
17
100
AcDbEntity
  8
0
420
14622495
100
AcDbLine
 10
59.90235985155859
 20
-80.07313709487333
 30
0.0
 11
-95.93139745400576
 21
28.234145684287636
 31
0.0
  0
LINE
  5
195
330
17
100
AcDbEntity
  8
0
420
14622238
100
AcDbLine
 10
59.34188866037016
 20
-80.48937973559143
 30
0.0
 11
-95.52783621223438
 21
29.57080500440466
 31
0.0
  0
LINE
  5
196
330
17
100
AcDbEntity
  8
0
420
14687774
100
AcDbLine
 10
58.778525229247315
 20
-80.90169943749473
 30
0.0
 11
-95.10565162951536
 21
30.901699437494734
 31
0.0
  0
LINE
  5
197
330
17
100
AcDbEntity
  8
0
420
14753053
100
AcDbLine
 10
58.21229701572895
 20
-81.31007610470277
 30
0.0
 11
-94.66492601156963
 21
32.22656952305109
 31
0.0
  0
LINE
  5
198
330
17
100
AcDbEntity
  8
0
420
14818332
100
AcDbLine
 10
57.64323161697932
 20
-81.71448983351286
 30
0.0
 11
-94.20574527872968
 21
33.54515697502549
 31
0.0
  0
LINE
  5
199
330
17
100
AcDbEntity
  8
0
420
14883611
100
AcDbLine
 10
57.07135676844318
 20
-82.1149209133704
 30
0.0
 11
-93.72819894918916
 21
34.857204732181515
 31
0.0
  0
LINE
  5
19A
330
17
100
AcDbEntity
  8
0
420
14883611
100
AcDbLine
 10
56.49670034249379
 20
-82.51134982782952
 30
0.0
 11
-93.23238012155122
 21
36.162457008209216
 31
0.0
  0
LINE
  5
19B
330
17
100
AcDbEntity
  8
0
420
14883354
100
AcDbLine
 10
55.91929034707468
 20
-82.90375725550417
 30
0.0
 11
-92.71838545667875
 21
37.4606593415912
 31
0.0
  0
LINE
  5
19C
330
17
100
AcDbEntity
  8
0
420
14948890
100
AcDbLine
 10
55.33915492433442
 20
-83.29212407100995
 30
0.0
 11
-92.18631515885006
 21
38.751558645210295
 31
0.0
  0
LINE
  5
19D
330
17
100
AcDbEntity
  8
0
420
15014169
100
AcDbLine
 10
54.75632234925503
 20
-83.67643134589618
 30
0.0
 11
-91.63627295622396
 21
40.0349032556895
 31
0.0
  0
LINE
  5
19E
330
17
100
AcDbEntity
  8
0
420
15079448
100
AcDbLine
 10
54.17082102827398
 20
-84.05666034956842
 30
0.0
 11
-91.06836608061772
 21
41.31044298245418
 31
0.0
  0
LINE
  5
19F
330
17
100
AcDbEntity
  8
0
420
15079448
100
AcDbLine
 10
53.58267949789963
 20
-84.43279255020153
 30
0.0
 11
-90.48270524660194
 21
42.57792915650726
 31
0.0
  0
LINE
  5
1A0
330
17
100
AcDbEntity
  8
0
420
15079191
100
AcDbLine
 10
52.99192642332049
 20
-84.80480961564258
 30
0.0
 11
-89.87940462991669
 21
43.837114678907746
 31
0.0
  0
LINE
  5
1A1
330
17
100
AcDbEntity
  8
0
420
15144727
100
AcDbLine
 10
52.39859059700791
 20
-85.17269341430477
 30
0.0
 11
-89.25858184521255
 21
45.087754068943084
 31
0.0
  0
LINE
  5
1A2
330
17
100
AcDbEntity
  8
0
420
15210006
100
AcDbLine
 10
51.802700937313006
 20
-85.53642601605067
 30
0.0
 11
-88.62035792312146
 21
46.329603511986186
 31
0.0
  0
LINE
  5
1A3
330
17
100
AcDbEntity
  8
0
420
15210006
100
AcDbLine
 10
51.20428648705716
 20
-85.89598969306645
 30
0.0
 11
-87.96485728666164
 21
47.56242090702753
 31
0.0
  0
LINE
  5
1A4
330
17
100
AcDbEntity
  8
0
420
15275285
100
AcDbLine
 10
50.60337641211636
 20
-86.25136692072574
 30
0.0
 11
-87.29220772698098
 21
48.785965913873284
 31
0.0
  0
LINE
  5
1A5
330
17
100
AcDbEntity
  8
0
420
15340564
100
AcDbLine
 10
50.0
 20
-86.60254037844388
 30
0.0
 11
-86.60254037844386
 21
50.000000000000014
 31
0.0
  0
LINE
  5
1A6
330
17
100
AcDbEntity
  8
0
420
15340564
100
AcDbLine
 10
49.3941866584231
 20
-86.94949295052191
 30
0.0
 11
-85.89598969306643
 21
51.204286487057175
 31
0.0
  0
LINE
  5
1A7
330
17
100
AcDbEntity
  8
0
420
15340564
100
AcDbLine
 10
48.78596591387326
 20
-87.29220772698098
 30
0.0
 11
-85.17269341430476
 21
52.39859059700793
 31
0.0
  0
LINE
  5
1A8
330
17
100
AcDbEntity
  8
0
420
15405843
100
AcDbLine
 10
48.17536741017151
 20
-87.63066800438637
 30
0.0
 11
-84.4327925502015
 21
53.582679497899676
 31
0.0
  0
LINE
  5
1A9
330
17
100
AcDbEntity
  8
0
420
15471122
100
AcDbLine
 10
47.5624209070275
 20
-87.96485728666164
 30
0.0
 11
-83.67643134589615
 21
54.756322349255036
 31
0.0
  0
LINE
  5
1AA
330
17
100
AcDbEntity
  8
0
420
15471122
100
AcDbLine
 10
46.94715627858905
 20
-88.2947592858927
 30
0.0
 11
-82.90375725550415
 21
55.9192903470747
 31
0.0
  0
LINE
  5
1AB
330
17
100
AcDbEntity
  8
0
420
15536401
100
AcDbLine
 10
46.32960351198615
 20
-88.62035792312149
 30
0.0
 11
-82.1149209133704
 21
57.071356768443195
 31
0.0
  0
LINE
  5
1AC
330
17
100
AcDbEntity
  8
0
420
15536144
100
AcDbLine
 10
45.7097927058694
 20
-88.94163732912975
 30
0.0
 11
-81.31007610470276
 21
58.212297015728964
 31
0.0
  0
LINE
  5
1AD
330
17
100
AcDbEntity
  8
0
420
15536144
100
AcDbLine
 10
45.08775406894306
 20
-89.25858184521256
 30
0.0
 11
-80.4893797355914
 21
59.34188866037017
 31
0.0
  0
LINE
  5
1AE
330
17
100
AcDbEntity
  8
0
420
15601680
100
AcDbLine
 10
44.46351791849273
 20
-89.5711760239413
 30
0.0
 11
-79.6529918024196
 21
60.459911486237516
 31
0.0
  0
LINE
  5
1AF
330
17
100
AcDbEntity
  8
0
420
15601680
100
AcDbLine
 10
43.83711467890773
 20
-89.87940462991672
 30
0.0
 11
-78.80107536067217
 21
61.56614753256585
 31
0.0
  0
LINE
  5
1B0
330
17
100
AcDbEntity
  8
0
420
15666959
100
AcDbLine
 10
43.2085748801982
 20
-90.1832526405114
 30
0.0
 11
-77.93379649314738
 21
62.66038113644608
 31
0.0
  0
LINE
  5
1B1
330
17
100
AcDbEntity
  8
0
420
15732238
100
AcDbLine
 10
42.577929156507246
 20
-90.48270524660197
 30
0.0
 11
-77.0513242775789
 21
63.742398974869
 31
0.0
  0
LINE
  5
1B2
330
17
100
AcDbEntity
  8
0
420
15732238
100
AcDbLine
 10
41.94520824461769
 20
-90.77774785329089
 30
0.0
 11
-76.15383075367363
 21
64.81199010631312
 31
0.0
  0
LINE
  5
1B3
330
17
100
AcDbEntity
  8
0
420
15797517
100
AcDbLine
 10
41.31044298245416
 20
-91.06836608061771
 30
0.0
 11
-75.24149088957242
 21
65.86894601186808
 31
0.0
  0
LINE
  5
1B4
330
17
100
AcDbEntity
  8
0
420
15797517
100
AcDbLine
 10
40.67366430757999
 20
-91.35454576426012
 30
0.0
 11
-74.31448254773939
 21
66.91306063588586
 31
0.0
  0
LINE
  5
1B5
330
17
100
AcDbEntity
  8
0
420
15797517
100
AcDbLine
 10
40.03490325568945
 20
-91.63627295622396
 30
0.0
 11
-73.3729864502876
 21
67.94413042615169
 31
0.0
  0
LINE
  5
1B6
330
17
100
AcDbEntity
  8
0
420
15797517
100
AcDbLine
 10
39.394190959095084
 20
-91.91353392552344
 30
0.0
 11
-72.41718614374672
 21
68.96195437356701
 31
0.0
  0
LINE
  5
1B7
330
17
100
AcDbEntity
  8
0
420
15862796
100
AcDbLine
 10
38.75155864521027
 20
-92.18631515885006
 30
0.0
 11
-71.4472679632803
 21
69.96633405133656
 31
0.0
  0
LINE
  5
1B8
330
17
100
AcDbEntity
  8
0
420
15928075
100
AcDbLine
 10
38.107037635027396
 20
-92.45460336123132
 30
0.0
 11
-70.46342099635943
 21
70.95707365365212
 31
0.0
  0
LINE
  5
1B9
330
17
100
AcDbEntity
  8
0
420
15928075
100
AcDbLine
 10
37.46065934159118
 20
-92.71838545667876
 30
0.0
 11
-69.46583704589969
 21
71.93398003386515
 31
0.0
  0
LINE
  5
1BA
330
17
100
AcDbEntity
  8
0
420
15993354
100
AcDbLine
 10
36.8124552684678
 20
-92.97764858882516
 30
0.0
 11
-68.45471059286889
 21
72.89686274214114
 31
0.0
  0
LINE
  5
1BB
330
17
100
AcDbEntity
  8
0
420
15993354
100
AcDbLine
 10
36.162457008209245
 20
-93.2323801215512
 30
0.0
 11
-67.43023875837235
 21
73.84553406258836
 31
0.0
  0
LINE
  5
1BC
330
17
100
AcDbEntity
  8
0
420
15993354
100
AcDbLine
 10
35.510696240813715
 20
-93.48256763960146
 30
0.0
 11
-66.39262126522418
 21
74.77980904985316
 31
0.0
  0
LINE
  5
1BD
330
17
100
AcDbEntity
  8
0
420
15993354
100
AcDbLine
 10
34.85720473218152
 20
-93.72819894918914
 30
0.0
 11
-65.34206039901056
 21
75.69950556517563
 31
0.0
  0
LINE
  5
1BE
330
17
100
AcDbEntity
  8
0
420
16058633
100
AcDbLine
 10
34.202014332566876
 20
-93.96926207859082
 30
0.0
 11
-64.27876096865394
 21
76.6044443118978
 31
0.0
  0
LINE
  5
1BF
330
17
100
AcDbEntity
  8
0
420
16058633
100
AcDbLine
 10
33.545156975025506
 20
-94.20574527872967
 30
0.0
 11
-63.202930266485104
 21
77.49444887041794
 31
0.0
  0
LINE
  5
1C0
330
17
100
AcDbEntity
  8
0
420
16123912
100
AcDbLine
 10
32.886664673858334
 20
-94.4376370237481
 30
0.0
 11
-62.11477802783105
 21
78.36934573258397
 31
0.0
  0
LINE
  5
1C1
330
17
100
AcDbEntity
  8
0
420
16123912
100
AcDbLine
 10
32.226569523051126
 20
-94.66492601156963
 30
0.0
 11
-61.014516390126786
 21
79.22896433551905
 31
0.0
  0
LINE
  5
1C2
330
17
100
AcDbEntity
  8
0
420
16123912
100
AcDbLine
 10
31.564903694710257
 20
-94.88760116444966
 30
0.0
 11
-59.90235985155859
 21
80.07313709487333
 31
0.0
  0
LINE
  5
1C3
330
17
100
AcDbEntity
  8
0
420
16189191
100
AcDbLine
 10
30.901699437494734
 20
-95.10565162951536
 30
0.0
 11
-58.77852522924732
 21
80.90169943749473
 31
0.0
  0
LINE
  5
1C4
330
17
100
AcDbEntity
  8
0
420
16189191
100
AcDbLine
 10
30.236989075044455
 20
-95.31906677929472
 30
0.0
 11
-57.64323161697934
 21
81.71448983351284
 31
0.0
  0
LINE
  5
1C5
330
17
100
AcDbEntity
  8
0
420
16254470
100
AcDbLine
 10
29.570805004404672
 20
-95.52783621223435
 30
0.0
 11
-56.4967003424938
 21
82.51134982782952
 31
0.0
  0
LINE
  5
1C6
330
17
100
AcDbEntity
  8
0
420
16254470
100
AcDbLine
 10
28.903179694447147
 20
-95.73194975320672
 30
0.0
 11
-55.33915492433442
 21
83.29212407100994
 31
0.0
  0
LINE
  5
1C7
330
17
100
AcDbEntity
  8
0
420
16254470
100
AcDbLine
 10
28.234145684287665
 20
-95.93139745400576
 30
0.0
 11
-54.170821028274
 21
84.05666034956842
 31
0.0
  0
LINE
  5
1C8
330
17
100
AcDbEntity
  8
0
420
16254470
100
AcDbLine
 10
27.563735581699923
 20
-96.12616959383189
 30
0.0
 11
-52.9919264233205
 21
84.8048096156426
 31
0.0
  0
LINE
  5
1C9
330
17
100
AcDbEntity
  8
0
420
16254470
100
AcDbLine
 10
26.89198206152656
 20
-96.3162566797658
 30
0.0
 11
-51.80270093731303
 21
85.53642601605065
 31
0.0
  0
LINE
  5
1CA
330
17
100
AcDbEntity
  8
0
420
16319749
100
AcDbLine
 10
26.21891786408647
 20
-96.50164944723115
 30
0.0
 11
-50.60337641211638
 21
86.25136692072574
 31
0.0
  0
LINE
  5
1CB
330
17
100
AcDbEntity
  8
0
420
16319749
100
AcDbLine
 10
25.544575793579043
 20
-96.68233886044594
 30
0.0
 11
-49.3941866584231
 21
86.94949295052191
 31
0.0
  0
LINE
  5
1CC
330
17
100
AcDbEntity
  8
0
420
16319749
100
AcDbLine
 10
24.868988716485486
 20
-96.85831611286312
 30
0.0
 11
-48.175367410171525
 21
87.63066800438637
 31
0.0
  0
LINE
  5
1CD
330
17
100
AcDbEntity
  8
0
420
16385028
100
AcDbLine
 10
24.192189559966764
 20
-97.02957262759965
 30
0.0
 11
-46.94715627858908
 21
88.2947592858927
 31
0.0
  0
LINE
  5
1CE
330
17
100
AcDbEntity
  8
0
420
16385028
100
AcDbLine
 10
23.514211310259
 20
-97.19610005785461
 30
0.0
 11
-45.70979270586941
 21
88.94163732912975
 31
0.0
  0
LINE
  5
1CF
330
17
100
AcDbEntity
  8
0
420
16385028
100
AcDbLine
 10
22.835087011065575
 20
-97.35789028731602
 30
0.0
 11
-44.46351791849274
 21
89.57117602394129
 31
0.0
  0
LINE
  5
1D0
330
17
100
AcDbEntity
  8
0
420
16450307
100
AcDbLine
 10
22.15484976194671
 20
-97.51493543055632
 30
0.0
 11
-43.20857488019823
 21
90.18325264051138
 31
0.0
  0
LINE
  5
1D1
330
17
100
AcDbEntity
  8
0
420
16450307
100
AcDbLine
 10
21.473532716706302
 20
-97.66722783341677
 30
0.0
 11
-41.9452082446177
 21
90.77774785329086
 31
0.0
  0
LINE
  5
1D2
330
17
100
AcDbEntity
  8
0
420
16450307
100
AcDbLine
 10
20.79116908177592
 20
-97.81476007338057
 30
0.0
 11
-40.673664307580005
 21
91.3545457642601
 31
0.0
  0
LINE
  5
1D3
330
17
100
AcDbEntity
  8
0
420
16450307
100
AcDbLine
 10
20.10779211459646
 20
-97.95752495993439
 30
0.0
 11
-39.3941909590951
 21
91.91353392552345
 31
0.0
  0
LINE
  5
1D4
330
17
100
AcDbEntity
  8
0
420
16450307
100
AcDbLine
 10
19.42343512199718
 20
-98.09551553491917
 30
0.0
 11
-38.107037635027396
 21
92.45460336123132
 31
0.0
  0
LINE
  5
1D5
330
17
100
AcDbEntity
  8
0
420
16450307
100
AcDbLine
 10
18.738131458572447
 20
-98.22872507286888
 30
0.0
 11
-36.81245526846777
 21
92.97764858882515
 31
0.0
  0
LINE
  5
1D6
330
17
100
AcDbEntity
  8
0
420
16450307
100
AcDbLine
 10
18.051914525055984
 20
-98.35714708133861
 30
0.0
 11
-35.51069624081369
 21
93.48256763960146
 31
0.0
  0
LINE
  5
1D7
330
17
100
AcDbEntity
  8
0
420
16515586
100
AcDbLine
 10
17.364817766693015
 20
-98.48077530122082
 30
0.0
 11
-34.20201433256685
 21
93.96926207859083
 31
0.0
  0
LINE
  5
1D8
330
17
100
AcDbEntity
  8
0
420
16515586
100
AcDbLine
 10
16.676874671610207
 20
-98.5996037070505
 30
0.0
 11
-32.886664673858306
 21
94.43763702374811
 31
0.0
  0
LINE
  5
1D9
330
17
100
AcDbEntity
  8
0
420
16515586
100
AcDbLine
 10
15.988118769183469
 20
-98.71362650729878
 30
0.0
 11
-31.564903694710228
 21
94.88760116444966
 31
0.0
  0
LINE
  5
1DA
330
17
100
AcDbEntity
  8
0
420
16515586
100
AcDbLine
 10
15.298583628403788
 20
-98.82283814465528
 30
0.0
 11
-30.236989075044423
 21
95.3190667792947
 31
0.0
  0
LINE
  5
1DB
330
17
100
AcDbEntity
  8
0
420
16515586
100
AcDbLine
 10
14.608302856241146
 20
-98.92723329629884
 30
0.0
 11
-28.903179694447132
 21
95.73194975320673
 31
0.0
  0
LINE
  5
1DC
330
17
100
AcDbEntity
  8
0
420
16580865
100
AcDbLine
 10
13.917310096006533
 20
-99.02680687415702
 30
0.0
 11
-27.563735581699895
 21
96.1261695938319
 31
0.0
  0
LINE
  5
1DD
330
17
100
AcDbEntity
  8
0
420
16580865
100
AcDbLine
 10
13.22563902571222
 20
-99.12155402515418
 30
0.0
 11
-26.218917864086443
 21
96.50164944723116
 31
0.0
  0
LINE
  5
1DE
330
17
100
AcDbEntity
  8
0
420
16580865
100
AcDbLine
 10
12.533323356430397
 20
-99.21147013144778
 30
0.0
 11
-24.86898871648544
 21
96.85831611286312
 31
0.0
  0
LINE
  5
1DF
330
17
100
AcDbEntity
  8
0
420
16580865
100
AcDbLine
 10
11.840396830650075
 20
-99.29655081065371
 30
0.0
 11
-23.514211310258972
 21
97.19610005785462
 31
0.0
  0
LINE
  5
1E0
330
17
100
AcDbEntity
  8
0
420
16580865
100
AcDbLine
 10
11.146893220632528
 20
-99.37679191605962
 30
0.0
 11
-22.154849761946696
 21
97.51493543055633
 31
0.0
  0
LINE
  5
1E1
330
17
100
AcDbEntity
  8
0
420
16580865
100
AcDbLine
 10
10.452846326765322
 20
-99.45218953682733
 30
0.0
 11
-20.79116908177589
 21
97.81476007338057
 31
0.0
  0
LINE
  5
1E2
330
17
100
AcDbEntity
  8
0
420
16646144
100
AcDbLine
 10
9.758289975914925
 20
-99.52273999818311
 30
0.0
 11
-19.42343512199715
 21
98.09551553491917
 31
0.0
  0
LINE
  5
1E3
330
17
100
AcDbEntity
  8
0
420
16646144
100
AcDbLine
 10
9.063258019777996
 20
-99.58843986159704
 30
0.0
 11
-18.051914525055953
 21
98.35714708133861
 31
0.0
  0
LINE
  5
1E4
330
17
100
AcDbEntity
  8
0
420
16646144
100
AcDbLine
 10
8.367784333231523
 20
-99.64928592495042
 30
0.0
 11
-16.67687467161018
 21
98.5996037070505
 31
0.0
  0
LINE
  5
1E5
330
17
100
AcDbEntity
  8
0
420
16646144
100
AcDbLine
 10
7.6719028126818385
 20
-99.70527522269202
 30
0.0
 11
-15.298583628403758
 21
98.8228381446553
 31
0.0
  0
LINE
  5
1E6
330
17
100
AcDbEntity
  8
0
420
16646144
100
AcDbLine
 10
6.975647374412497
 20
-99.75640502598242
 30
0.0
 11
-13.917310096006489
 21
99.02680687415703
 31
0.0
  0
LINE
  5
1E7
330
17
100
AcDbEntity
  8
0
420
16646144
100
AcDbLine
 10
6.279051952931307
 20
-99.80267284282715
 30
0.0
 11
-12.53332335643037
 21
99.21147013144778
 31
0.0
  0
LINE
  5
1E8
330
17
100
AcDbEntity
  8
0
420
16646144
100
AcDbLine
 10
5.582150499316345
 20
-99.84407641819813
 30
0.0
 11
-11.146893220632485
 21
99.37679191605964
 31
0.0
  0
LINE
  5
1E9
330
17
100
AcDbEntity
  8
0
420
16646144
100
AcDbLine
 10
4.884976979561338
 20
-99.8806137341434
 30
0.0
 11
-9.758289975914984
 21
99.52273999818311
 31
0.0
  0
LINE
  5
1EA
330
17
100
AcDbEntity
  8
0
420
16646144
100
AcDbLine
 10
4.187565372919977
 20
-99.91228300988581
 30
0.0
 11
-8.36778433323158
 21
99.64928592495042
 31
0.0
  0
LINE
  5
1EB
330
17
100
AcDbEntity
  8
0
420
16646144
100
AcDbLine
 10
3.4899496702501134
 20
-99.93908270190958
 30
0.0
 11
-6.975647374412554
 21
99.75640502598242
 31
0.0
  0
LINE
  5
1EC
330
17
100
AcDbEntity
  8
0
420
16646144
100
AcDbLine
 10
2.792163872356894
 20
-99.96101150403544
 30
0.0
 11
-5.582150499316403
 21
99.8440764181981
 31
0.0
  0
LINE
  5
1ED
330
17
100
AcDbEntity
  8
0
420
16646144
100
AcDbLine
 10
2.094241988335701
 20
-99.97806834748455
 30
0.0
 11
-4.187565372919991
 21
99.91228300988583
 31
0.0
  0
LINE
  5
1EE
330
17
100
AcDbEntity
  8
0
420
16646144
100
AcDbLine
 10
1.3962180339145285
 20
-99.99025240093043
 30
0.0
 11
-2.7921638723569084
 21
99.96101150403544
 31
0.0
  0
LINE
  5
1EF
330
17
100
AcDbEntity
  8
0
420
16646144
100
AcDbLine
 10
0.6981260297961551
 20
-99.99756307053946
 30
0.0
 11
-1.396218033914543
 21
99.99025240093043
 31
0.0
  0
LINE
  5
1F0
330
17
100
AcDbEntity
  8
0
420
16711680
100
AcDbLine
 10
0.0
 20
-100.0
 30
0.0
 11
-1.4500872158369392e-14
 21
100.0
 31
0.0
  0
LINE
  5
1F1
330
17
100
AcDbEntity
  8
0
420
16646144
100
AcDbLine
 10
-0.6981260297961551
 20
-99.99756307053946
 30
0.0
 11
1.3962180339145138
 21
99.99025240093043
 31
0.0
  0
LINE
  5
1F2
330
17
100
AcDbEntity
  8
0
420
16646144
100
AcDbLine
 10
-1.3962180339145285
 20
-99.99025240093043
 30
0.0
 11
2.7921638723568796
 21
99.96101150403544
 31
0.0
  0
LINE
  5
1F3
330
17
100
AcDbEntity
  8
0
420
16646144
100
AcDbLine
 10
-2.094241988335687
 20
-99.97806834748455
 30
0.0
 11
4.187565372919948
 21
99.91228300988583
 31
0.0
  0
LINE
  5
1F4
330
17
100
AcDbEntity
  8
0
420
16646144
100
AcDbLine
 10
-2.7921638723568796
 20
-99.96101150403544
 30
0.0
 11
5.5821504993163735
 21
99.8440764181981
 31
0.0
  0
LINE
  5
1F5
330
17
100
AcDbEntity
  8
0
420
16646144
100
AcDbLine
 10
-3.489949670250099
 20
-99.93908270190958
 30
0.0
 11
6.975647374412526
 21
99.75640502598243
 31
0.0
  0
LINE
  5
1F6
330
17
100
AcDbEntity
  8
0
420
16646144
100
AcDbLine
 10
-4.187565372919963
 20
-99.91228300988581
 30
0.0
 11
8.367784333231535
 21
99.64928592495043
 31
0.0
  0
LINE
  5
1F7
330
17
100
AcDbEntity
  8
0
420
16646144
100
AcDbLine
 10
-4.884976979561324
 20
-99.88061373414342
 30
0.0
 11
9.75828997591494
 21
99.52273999818311
 31
0.0
  0
LINE
  5
1F8
330
17
100
AcDbEntity
  8
0
420
16646144
100
AcDbLine
 10
-5.582150499316389
 20
-99.84407641819813
 30
0.0
 11
11.146893220632544
 21
99.37679191605963
 31
0.0
  0
LINE
  5
1F9
330
17
100
AcDbEntity
  8
0
420
16646144
100
AcDbLine
 10
-6.2790519529313364
 20
-99.80267284282715
 30
0.0
 11
12.53332335643043
 21
99.21147013144778
 31
0.0
  0
LINE
  5
1FA
330
17
100
AcDbEntity
  8
0
420
16646144
100
AcDbLine
 10
-6.975647374412526
 20
-99.75640502598242
 30
0.0
 11
13.917310096006547
 21
99.02680687415703
 31
0.0
  0
LINE
  5
1FB
330
17
100
AcDbEntity
  8
0
420
16646144
100
AcDbLine
 10
-7.671902812681868
 20
-99.70527522269202
 30
0.0
 11
15.298583628403803
 21
98.82283814465528
 31
0.0
  0
LINE
  5
1FC
330
17
100
AcDbEntity
  8
0
420
16646144
100
AcDbLine
 10
-8.367784333231551
 20
-99.64928592495042
 30
0.0
 11
16.67687467161022
 21
98.59960370705049
 31
0.0
  0
LINE
  5
1FD
330
17
100
AcDbEntity
  8
0
420
16646144
100
AcDbLine
 10
-9.063258019778024
 20
-99.58843986159704
 30
0.0
 11
18.051914525056
 21
98.3571470813386
 31
0.0
  0
LINE
  5
1FE
330
17
100
AcDbEntity
  8
0
420
16646144
100
AcDbLine
 10
-9.758289975914956
 20
-99.52273999818311
 30
0.0
 11
19.42343512199721
 21
98.09551553491916
 31
0.0
  0
LINE
  5
1FF
330
17
100
AcDbEntity
  8
0
420
16580865
100
AcDbLine
 10
-10.45284632676535
 20
-99.45218953682733
 30
0.0
 11
20.791169081775948
 21
97.81476007338055
 31
0.0
  0
LINE
  5
200
330
17
100
AcDbEntity
  8
0
420
16580865
100
AcDbLine
 10
-11.146893220632558
 20
-99.37679191605962
 30
0.0
 11
22.15484976194674
 21
97.51493543055632
 31
0.0
  0
LINE
  5
201
330
17
100
AcDbEntity
  8
0
420
16580865
100
AcDbLine
 10
-11.840396830650105
 20
-99.29655081065371
 30
0.0
 11
23.51421131025903
 21
97.19610005785462
 31
0.0
  0
LINE
  5
202
330
17
100
AcDbEntity
  8
0
420
16580865
100
AcDbLine
 10
-12.533323356430442
 20
-99.21147013144778
 30
0.0
 11
24.868988716485486
 21
96.85831611286312
 31
0.0
  0
LINE
  5
203
330
17
100
AcDbEntity
  8
0
420
16580865
100
AcDbLine
 10
-13.225639025712264
 20
-99.12155402515418
 30
0.0
 11
26.21891786408647
 21
96.50164944723115
 31
0.0
  0
LINE
  5
204
330
17
100
AcDbEntity
  8
0
420
16580865
100
AcDbLine
 10
-13.91731009600656
 20
-99.02680687415702
 30
0.0
 11
27.563735581699948
 21
96.12616959383188
 31
0.0
  0
LINE
  5
205
330
17
100
AcDbEntity
  8
0
420
16515586
100
AcDbLine
 10
-14.608302856241174
 20
-98.92723329629884
 30
0.0
 11
28.90317969444718
 21
95.73194975320673
 31
0.0
  0
LINE
  5
206
330
17
100
AcDbEntity
  8
0
420
16515586
100
AcDbLine
 10
-15.298583628403817
 20
-98.82283814465528
 30
0.0
 11
30.236989075044484
 21
95.31906677929469
 31
0.0
  0
LINE
  5
207
330
17
100
AcDbEntity
  8
0
420
16515586
100
AcDbLine
 10
-15.988118769183496
 20
-98.71362650729878
 30
0.0
 11
31.56490369471029
 21
94.88760116444965
 31
0.0
  0
LINE
  5
208
330
17
100
AcDbEntity
  8
0
420
16515586
100
AcDbLine
 10
-16.67687467161025
 20
-98.59960370705048
 30
0.0
 11
32.88666467385837
 21
94.4376370237481
 31
0.0
  0
LINE
  5
209
330
17
100
AcDbEntity
  8
0
420
16515586
100
AcDbLine
 10
-17.364817766693044
 20
-98.48077530122082
 30
0.0
 11
34.202014332566904
 21
93.96926207859083
 31
0.0
  0
LINE
  5
20A
330
17
100
AcDbEntity
  8
0
420
16450307
100
AcDbLine
 10
-18.051914525056013
 20
-98.35714708133861
 30
0.0
 11
35.510696240813715
 21
93.48256763960143
 31
0.0
  0
LINE
  5
20B
330
17
100
AcDbEntity
  8
0
420
16450307
100
AcDbLine
 10
-18.738131458572475
 20
-98.22872507286885
 30
0.0
 11
36.81245526846783
 21
92.97764858882512
 31
0.0
  0
LINE
  5
20C
330
17
100
AcDbEntity
  8
0
420
16450307
100
AcDbLine
 10
-19.423435121997223
 20
-98.09551553491917
 30
0.0
 11
38.10703763502746
 21
92.4546033612313
 31
0.0
  0
LINE
  5
20D
330
17
100
AcDbEntity
  8
0
420
16450307
100
AcDbLine
 10
-20.10779211459649
 20
-97.95752495993439
 30
0.0
 11
39.39419095909514
 21
91.91353392552342
 31
0.0
  0
LINE
  5
20E
330
17
100
AcDbEntity
  8
0
420
16450307
100
AcDbLine
 10
-20.791169081775948
 20
-97.81476007338054
 30
0.0
 11
40.67366430758005
 21
91.35454576426008
 31
0.0
  0
LINE
  5
20F
330
17
100
AcDbEntity
  8
0
420
16450307
100
AcDbLine
 10
-21.473532716706348
 20
-97.66722783341677
 30
0.0
 11
41.945208244617746
 21
90.77774785329085
 31
0.0
  0
LINE
  5
210
330
17
100
AcDbEntity
  8
0
420
16450307
100
AcDbLine
 10
-22.154849761946753
 20
-97.51493543055632
 30
0.0
 11
43.208574880198256
 21
90.18325264051134
 31
0.0
  0
LINE
  5
211
330
17
100
AcDbEntity
  8
0
420
16385028
100
AcDbLine
 10
-22.835087011065603
 20
-97.35789028731602
 30
0.0
 11
44.463517918492784
 21
89.57117602394126
 31
0.0
  0
LINE
  5
212
330
17
100
AcDbEntity
  8
0
420
16385028
100
AcDbLine
 10
-23.51421131025903
 20
-97.19610005785461
 30
0.0
 11
45.709792705869454
 21
88.94163732912973
 31
0.0
  0
LINE
  5
213
330
17
100
AcDbEntity
  8
0
420
16385028
100
AcDbLine
 10
-24.192189559966796
 20
-97.02957262759965
 30
0.0
 11
46.947156278589105
 21
88.29475928589268
 31
0.0
  0
LINE
  5
214
330
17
100
AcDbEntity
  8
0
420
16319749
100
AcDbLine
 10
-24.868988716485514
 20
-96.85831611286312
 30
0.0
 11
48.175367410171575
 21
87.63066800438635
 31
0.0
  0
LINE
  5
215
330
17
100
AcDbEntity
  8
0
420
16319749
100
AcDbLine
 10
-25.544575793579078
 20
-96.68233886044594
 30
0.0
 11
49.39418665842316
 21
86.94949295052187
 31
0.0
  0
LINE
  5
216
330
17
100
AcDbEntity
  8
0
420
16319749
100
AcDbLine
 10
-26.218917864086507
 20
-96.50164944723115
 30
0.0
 11
50.60337641211642
 21
86.25136692072572
 31
0.0
  0
LINE
  5
217
330
17
100
AcDbEntity
  8
0
420
16254470
100
AcDbLine
 10
-26.89198206152656
 20
-96.3162566797658
 30
0.0
 11
51.802700937312984
 21
85.53642601605068
 31
0.0
  0
LINE
  5
218
330
17
100
AcDbEntity
  8
0
420
16254470
100
AcDbLine
 10
-27.563735581699905
 20
-96.12616959383189
 30
0.0
 11
52.99192642332046
 21
84.80480961564261
 31
0.0
  0
LINE
  5
219
330
17
100
AcDbEntity
  8
0
420
16254470
100
AcDbLine
 10
-28.234145684287636
 20
-95.93139745400576
 30
0.0
 11
54.17082102827398
 21
84.05666034956846
 31
0.0
  0
LINE
  5
21A
330
17
100
AcDbEntity
  8
0
420
16254470
100
AcDbLine
 10
-28.903179694447147
 20
-95.73194975320672
 30
0.0
 11
55.3391549243344
 21
83.29212407100997
 31
0.0
  0
LINE
  5
21B
330
17
100
AcDbEntity
  8
0
420
16254470
100
AcDbLine
 10
-29.57080500440466
 20
-95.52783621223438
 30
0.0
 11
56.49670034249377
 21
82.51134982782953
 31
0.0
  0
LINE
  5
21C
330
17
100
AcDbEntity
  8
0
420
16189191
100
AcDbLine
 10
-30.23698907504444
 20
-95.31906677929472
 30
0.0
 11
57.64323161697929
 21
81.71448983351286
 31
0.0
  0
LINE
  5
21D
330
17
100
AcDbEntity
  8
0
420
16189191
100
AcDbLine
 10
-30.901699437494734
 20
-95.10565162951536
 30
0.0
 11
58.77852522924728
 21
80.90169943749474
 31
0.0
  0
LINE
  5
21E
330
17
100
AcDbEntity
  8
0
420
16123912
100
AcDbLine
 10
-31.564903694710246
 20
-94.88760116444966
 30
0.0
 11
59.90235985155857
 21
80.07313709487336
 31
0.0
  0
LINE
  5
21F
330
17
100
AcDbEntity
  8
0
420
16123912
100
AcDbLine
 10
-32.22656952305109
 20
-94.66492601156963
 30
0.0
 11
61.01451639012675
 21
79.22896433551908
 31
0.0
  0
LINE
  5
220
330
17
100
AcDbEntity
  8
0
420
16123912
100
AcDbLine
 10
-32.886664673858306
 20
-94.4376370237481
 30
0.0
 11
62.11477802783103
 21
78.36934573258398
 31
0.0
  0
LINE
  5
221
330
17
100
AcDbEntity
  8
0
420
16058633
100
AcDbLine
 10
-33.545156975025506
 20
-94.20574527872967
 30
0.0
 11
63.20293026648509
 21
77.49444887041797
 31
0.0
  0
LINE
  5
222
330
17
100
AcDbEntity
  8
0
420
16058633
100
AcDbLine
 10
-34.202014332566876
 20
-93.96926207859082
 30
0.0
 11
64.27876096865394
 21
76.60444431189781
 31
0.0
  0
LINE
  5
223
330
17
100
AcDbEntity
  8
0
420
15993354
100
AcDbLine
 10
-34.85720473218152
 20
-93.72819894918914
 30
0.0
 11
65.34206039901052
 21
75.69950556517566
 31
0.0
  0
LINE
  5
224
330
17
100
AcDbEntity
  8
0
420
15993354
100
AcDbLine
 10
-35.5106962408137
 20
-93.48256763960146
 30
0.0
 11
66.39262126522416
 21
74.7798090498532
 31
0.0
  0
LINE
  5
225
330
17
100
AcDbEntity
  8
0
420
15993354
100
AcDbLine
 10
-36.16245700820923
 20
-93.2323801215512
 30
0.0
 11
67.43023875837233
 21
73.84553406258838
 31
0.0
  0
LINE
  5
226
330
17
100
AcDbEntity
  8
0
420
15993354
100
AcDbLine
 10
-36.8124552684678
 20
-92.97764858882516
 30
0.0
 11
68.45471059286888
 21
72.89686274214115
 31
0.0
  0
LINE
  5
227
330
17
100
AcDbEntity
  8
0
420
15928075
100
AcDbLine
 10
-37.46065934159121
 20
-92.71838545667876
 30
0.0
 11
69.46583704589972
 21
71.93398003386513
 31
0.0
  0
LINE
  5
228
330
17
100
AcDbEntity
  8
0
420
15928075
100
AcDbLine
 10
-38.10703763502741
 20
-92.45460336123132
 30
0.0
 11
70.46342099635946
 21
70.95707365365209
 31
0.0
  0
LINE
  5
229
330
17
100
AcDbEntity
  8
0
420
15862796
100
AcDbLine
 10
-38.751558645210295
 20
-92.18631515885006
 30
0.0
 11
71.44726796328031
 21
69.96633405133655
 31
0.0
  0
LINE
  5
22A
330
17
100
AcDbEntity
  8
0
420
15797517
100
AcDbLine
 10
-39.39419095909511
 20
-91.91353392552344
 30
0.0
 11
72.41718614374673
 21
68.96195437356697
 31
0.0
  0
LINE
  5
22B
330
17
100
AcDbEntity
  8
0
420
15797517
100
AcDbLine
 10
-40.034903255689514
 20
-91.63627295622396
 30
0.0
 11
73.37298645028764
 21
67.94413042615164
 31
0.0
  0
LINE
  5
22C
330
17
100
AcDbEntity
  8
0
420
15797517
100
AcDbLine
 10
-40.67366430758002
 20
-91.35454576426008
 30
0.0
 11
74.31448254773942
 21
66.91306063588583
 31
0.0
  0
LINE
  5
22D
330
17
100
AcDbEntity
  8
0
420
15797517
100
AcDbLine
 10
-41.31044298245419
 20
-91.06836608061771
 30
0.0
 11
75.24149088957243
 21
65.86894601186805
 31
0.0
  0
LINE
  5
22E
330
17
100
AcDbEntity
  8
0
420
15732238
100
AcDbLine
 10
-41.94520824461772
 20
-90.77774785329083
 30
0.0
 11
76.15383075367367
 21
64.81199010631308
 31
0.0
  0
LINE
  5
22F
330
17
100
AcDbEntity
  8
0
420
15732238
100
AcDbLine
 10
-42.577929156507274
 20
-90.48270524660194
 30
0.0
 11
77.05132427757894
 21
63.74239897486896
 31
0.0
  0
LINE
  5
230
330
17
100
AcDbEntity
  8
0
420
15666959
100
AcDbLine
 10
-43.20857488019825
 20
-90.18325264051137
 30
0.0
 11
77.93379649314743
 21
62.66038113644604
 31
0.0
  0
LINE
  5
231
330
17
100
AcDbEntity
  8
0
420
15601680
100
AcDbLine
 10
-43.83711467890776
 20
-89.87940462991669
 30
0.0
 11
78.80107536067219
 21
61.56614753256582
 31
0.0
  0
LINE
  5
232
330
17
100
AcDbEntity
  8
0
420
15601680
100
AcDbLine
 10
-44.46351791849276
 20
-89.57117602394126
 30
0.0
 11
79.65299180241962
 21
60.45991148623747
 31
0.0
  0
LINE
  5
233
330
17
100
AcDbEntity
  8
0
420
15536144
100
AcDbLine
 10
-45.087754068943084
 20
-89.25858184521253
 30
0.0
 11
80.48937973559143
 21
59.341888660370124
 31
0.0
  0
LINE
  5
234
330
17
100
AcDbEntity
  8
0
420
15536144
100
AcDbLine
 10
-45.709792705869425
 20
-88.94163732912975
 30
0.0
 11
81.31007610470277
 21
58.21229701572892
 31
0.0
  0
LINE
  5
235
330
17
100
AcDbEntity
  8
0
420
15536401
100
AcDbLine
 10
-46.32960351198619
 20
-88.62035792312146
 30
0.0
 11
82.1149209133704
 21
57.07135676844315
 31
0.0
  0
LINE
  5
236
330
17
100
AcDbEntity
  8
0
420
15471122
100
AcDbLine
 10
-46.94715627858909
 20
-88.29475928589267
 30
0.0
 11
82.90375725550419
 21
55.91929034707466
 31
0.0
  0
LINE
  5
237
330
17
100
AcDbEntity
  8
0
420
15471122
100
AcDbLine
 10
-47.56242090702754
 20
-87.96485728666164
 30
0.0
 11
83.67643134589618
 21
54.756322349255
 31
0.0
  0
LINE
  5
238
330
17
100
AcDbEntity
  8
0
420
15405843
100
AcDbLine
 10
-48.175367410171546
 20
-87.63066800438637
 30
0.0
 11
84.43279255020153
 21
53.58267949789963
 31
0.0
  0
LINE
  5
239
330
17
100
AcDbEntity
  8
0
420
15340564
100
AcDbLine
 10
-48.785965913873284
 20
-87.29220772698098
 30
0.0
 11
85.17269341430477
 21
52.39859059700789
 31
0.0
  0
LINE
  5
23A
330
17
100
AcDbEntity
  8
0
420
15340564
100
AcDbLine
 10
-49.394186658423116
 20
-86.94949295052187
 30
0.0
 11
85.89598969306645
 21
51.204286487057125
 31
0.0
  0
LINE
  5
23B
330
17
100
AcDbEntity
  8
0
420
15340564
100
AcDbLine
 10
-50.00000000000002
 20
-86.60254037844382
 30
0.0
 11
86.60254037844388
 21
49.999999999999964
 31
0.0
  0
LINE
  5
23C
330
17
100
AcDbEntity
  8
0
420
15275285
100
AcDbLine
 10
-50.6033764121164
 20
-86.25136692072573
 30
0.0
 11
87.29220772698098
 21
48.785965913873234
 31
0.0
  0
LINE
  5
23D
330
17
100
AcDbEntity
  8
0
420
15210006
100
AcDbLine
 10
-51.204286487057175
 20
-85.89598969306643
 30
0.0
 11
87.96485728666168
 21
47.56242090702749
 31
0.0
  0
LINE
  5
23E
330
17
100
AcDbEntity
  8
0
420
15210006
100
AcDbLine
 10
-51.80270093731304
 20
-85.53642601605064
 30
0.0
 11
88.62035792312149
 21
46.32960351198613
 31
0.0
  0
LINE
  5
23F
330
17
100
AcDbEntity
  8
0
420
15144727
100
AcDbLine
 10
-52.39859059700793
 20
-85.17269341430476
 30
0.0
 11
89.25858184521259
 21
45.087754068943035
 31
0.0
  0
LINE
  5
240
330
17
100
AcDbEntity
  8
0
420
15079191
100
AcDbLine
 10
-52.991926423320514
 20
-84.80480961564258
 30
0.0
 11
89.87940462991672
 21
43.8371146789077
 31
0.0
  0
LINE
  5
241
330
17
100
AcDbEntity
  8
0
420
15079448
100
AcDbLine
 10
-53.58267949789969
 20
-84.4327925502015
 30
0.0
 11
90.48270524660197
 21
42.577929156507224
 31
0.0
  0
LINE
  5
242
330
17
100
AcDbEntity
  8
0
420
15079448
100
AcDbLine
 10
-54.170821028274005
 20
-84.05666034956839
 30
0.0
 11
91.06836608061774
 21
41.310442982454134
 31
0.0
  0
LINE
  5
243
330
17
100
AcDbEntity
  8
0
420
15014169
100
AcDbLine
 10
-54.75632234925505
 20
-83.67643134589618
 30
0.0
 11
91.63627295622396
 21
40.03490325568945
 31
0.0
  0
LINE
  5
244
330
17
100
AcDbEntity
  8
0
420
14948890
100
AcDbLine
 10
-55.33915492433443
 20
-83.29212407100992
 30
0.0
 11
92.18631515885006
 21
38.75155864521025
 31
0.0
  0
LINE
  5
245
330
17
100
AcDbEntity
  8
0
420
14883354
100
AcDbLine
 10
-55.919290347074714
 20
-82.90375725550415
 30
0.0
 11
92.71838545667876
 21
37.46065934159115
 31
0.0
  0
LINE
  5
246
330
17
100
AcDbEntity
  8
0
420
14883611
100
AcDbLine
 10
-56.49670034249379
 20
-82.51134982782952
 30
0.0
 11
93.2323801215512
 21
36.16245700820926
 31
0.0
  0
LINE
  5
247
330
17
100
AcDbEntity
  8
0
420
14883611
100
AcDbLine
 10
-57.07135676844316
 20
-82.1149209133704
 30
0.0
 11
93.72819894918914
 21
34.85720473218156
 31
0.0
  0
LINE
  5
248
330
17
100
AcDbEntity
  8
0
420
14818332
100
AcDbLine
 10
-57.64323161697932
 20
-81.71448983351286
 30
0.0
 11
94.20574527872967
 21
33.545156975025535
 31
0.0
  0
LINE
  5
249
330
17
100
AcDbEntity
  8
0
420
14753053
100
AcDbLine
 10
-58.21229701572893
 20
-81.31007610470277
 30
0.0
 11
94.66492601156962
 21
32.226569523051126
 31
0.0
  0
LINE
  5
24A
330
17
100
AcDbEntity
  8
0
420
14687774
100
AcDbLine
 10
-58.7785252292473
 20
-80.90169943749473
 30
0.0
 11
95.10565162951536
 21
30.901699437494766
 31
0.0
  0
LINE
  5
24B
330
17
100
AcDbEntity
  8
0
420
14622238
100
AcDbLine
 10
-59.34188866037013
 20
-80.48937973559143
 30
0.0
 11
95.52783621223435
 21
29.570805004404697
 31
0.0
  0
LINE
  5
24C
330
17
100
AcDbEntity
  8
0
420
14622495
100
AcDbLine
 10
-59.90235985155857
 20
-80.07313709487333
 30
0.0
 11
95.93139745400576
 21
28.234145684287665
 31
0.0
  0
LINE
  5
24D
330
17
100
AcDbEntity
  8
0
420
14622495
100
AcDbLine
 10
-60.45991148623748
 20
-79.65299180241962
 30
0.0
 11
96.3162566797658
 21
26.891982061526587
 31
0.0
  0
LINE
  5
24E
330
17
100
AcDbEntity
  8
0
420
14557216
100
AcDbLine
 10
-61.01451639012676
 20
-79.22896433551907
 30
0.0
 11
96.68233886044594
 21
25.544575793579078
 31
0.0
  0
LINE
  5
24F
330
17
100
AcDbEntity
  8
0
420
14491937
100
AcDbLine
 10
-61.56614753256583
 20
-78.80107536067219
 30
0.0
 11
97.02957262759965
 21
24.192189559966796
 31
0.0
  0
LINE
  5
250
330
17
100
AcDbEntity
  8
0
420
14426401
100
AcDbLine
 10
-62.11477802783103
 20
-78.36934573258398
 30
0.0
 11
97.35789028731602
 21
22.83508701106559
 31
0.0
  0
LINE
  5
251
330
17
100
AcDbEntity
  8
0
420
14426658
100
AcDbLine
 10
-62.660381136446055
 20
-77.93379649314743
 30
0.0
 11
97.66722783341677
 21
21.47353271670633
 31
0.0
  0
LINE
  5
252
330
17
100
AcDbEntity
  8
0
420
14361379
100
AcDbLine
 10
-63.20293026648509
 20
-77.49444887041798
 30
0.0
 11
97.95752495993439
 21
20.107792114596474
 31
0.0
  0
LINE
  5
253
330
17
100
AcDbEntity
  8
0
420
14296100
100
AcDbLine
 10
-63.742398974868976
 20
-77.05132427757894
 30
0.0
 11
98.22872507286888
 21
18.738131458572475
 31
0.0
  0
LINE
  5
254
330
17
100
AcDbEntity
  8
0
420
14230821
100
AcDbLine
 10
-64.27876096865394
 20
-76.60444431189781
 30
0.0
 11
98.48077530122082
 21
17.364817766693044
 31
0.0
  0
LINE
  5
255
330
17
100
AcDbEntity
  8
0
420
14165285
100
AcDbLine
 10
-64.81199010631309
 20
-76.15383075367367
 30
0.0
 11
98.71362650729878
 21
15.988118769183481
 31
0.0
  0
LINE
  5
256
330
17
100
AcDbEntity
  8
0
420
14165542
100
AcDbLine
 10
-65.34206039901055
 20
-75.69950556517566
 30
0.0
 11
98.92723329629884
 21
14.60830285624116
 31
0.0
  0
LINE
  5
257
330
17
100
AcDbEntity
  8
0
420
14100263
100
AcDbLine
 10
-65.86894601186806
 20
-75.24149088957243
 30
0.0
 11
99.12155402515418
 21
13.225639025712246
 31
0.0
  0
LINE
  5
258
330
17
100
AcDbEntity
  8
0
420
14034984
100
AcDbLine
 10
-66.39262126522416
 20
-74.77980904985317
 30
0.0
 11
99.29655081065371
 21
11.840396830650091
 31
0.0
  0
LINE
  5
259
330
17
100
AcDbEntity
  8
0
420
13969448
100
AcDbLine
 10
-66.91306063588583
 20
-74.31448254773942
 30
0.0
 11
99.45218953682733
 21
10.45284632676535
 31
0.0
  0
LINE
  5
25A
330
17
100
AcDbEntity
  8
0
420
13969705
100
AcDbLine
 10
-67.43023875837234
 20
-73.84553406258838
 30
0.0
 11
99.58843986159704
 21
9.06325801977801
 31
0.0
  0
LINE
  5
25B
330
17
100
AcDbEntity
  8
0
420
13904426
100
AcDbLine
 10
-67.94413042615166
 20
-73.37298645028764
 30
0.0
 11
99.70527522269202
 21
7.671902812681852
 31
0.0
  0
LINE
  5
25C
330
17
100
AcDbEntity
  8
0
420
13839147
100
AcDbLine
 10
-68.45471059286888
 20
-72.89686274214114
 30
0.0
 11
99.80267284282715
 21
6.279051952931322
 31
0.0
  0
LINE
  5
25D
330
17
100
AcDbEntity
  8
0
420
13773611
100
AcDbLine
 10
-68.96195437356697
 20
-72.41718614374673
 30
0.0
 11
99.88061373414342
 21
4.884976979561309
 31
0.0
  0
LINE
  5
25E
330
17
100
AcDbEntity
  8
0
420
13708332
100
AcDbLine
 10
-69.46583704589973
 20
-71.93398003386513
 30
0.0
 11
99.93908270190958
 21
3.4899496702500845
 31
0.0
  0
LINE
  5
25F
330
17
100
AcDbEntity
  8
0
420
13708589
100
AcDbLine
 10
-69.96633405133656
 20
-71.44726796328031
 30
0.0
 11
99.97806834748455
 21
2.094241988335672
 31
0.0
  0
LINE
  5
260
330
17
100
AcDbEntity
  8
0
420
13643310
100
AcDbLine
 10
-70.46342099635947
 20
-70.95707365365209
 30
0.0
 11
99.99756307053946
 21
0.6981260297961407
 31
0.0
  0
LINE
  5
261
330
17
100
AcDbEntity
  8
0
420
13578031
100
AcDbLine
 10
-70.9570736536521
 20
-70.46342099635946
 30
0.0
 11
99.99756307053946
 21
-0.6981260297961697
 31
0.0
  0
LINE
  5
262
330
17
100
AcDbEntity
  8
0
420
13512495
100
AcDbLine
 10
-71.44726796328035
 20
-69.96633405133652
 30
0.0
 11
99.97806834748455
 21
-2.0942419883357157
 31
0.0
  0
LINE
  5
263
330
17
100
AcDbEntity
  8
0
420
13512752
100
AcDbLine
 10
-71.93398003386513
 20
-69.46583704589972
 30
0.0
 11
99.93908270190958
 21
-3.489949670250128
 31
0.0
  0
LINE
  5
264
330
17
100
AcDbEntity
  8
0
420
13447473
100
AcDbLine
 10
-72.41718614374676
 20
-68.96195437356697
 30
0.0
 11
99.8806137341434
 21
-4.884976979561353
 31
0.0
  0
LINE
  5
265
330
17
100
AcDbEntity
  8
0
420
13382194
100
AcDbLine
 10
-72.89686274214118
 20
-68.45471059286885
 30
0.0
 11
99.80267284282715
 21
-6.279051952931365
 31
0.0
  0
LINE
  5
266
330
17
100
AcDbEntity
  8
0
420
13316658
100
AcDbLine
 10
-73.37298645028764
 20
-67.94413042615164
 30
0.0
 11
99.70527522269202
 21
-7.671902812681896
 31
0.0
  0
LINE
  5
267
330
17
100
AcDbEntity
  8
0
420
13251379
100
AcDbLine
 10
-73.84553406258838
 20
-67.43023875837233
 30
0.0
 11
99.58843986159704
 21
-9.063258019778054
 31
0.0
  0
LINE
  5
268
330
17
100
AcDbEntity
  8
0
420
13251636
100
AcDbLine
 10
-74.31448254773943
 20
-66.9130606358858
 30
0.0
 11
99.45218953682733
 21
-10.452846326765378
 31
0.0
  0
LINE
  5
269
330
17
100
AcDbEntity
  8
0
420
13186357
100
AcDbLine
 10
-74.7798090498532
 20
-66.39262126522414
 30
0.0
 11
99.29655081065371
 21
-11.840396830650134
 31
0.0
  0
LINE
  5
26A
330
17
100
AcDbEntity
  8
0
420
13055542
100
AcDbLine
 10
-75.24149088957245
 20
-65.86894601186802
 30
0.0
 11
99.12155402515418
 21
-13.225639025712276
 31
0.0
  0
LINE
  5
26B
330
17
100
AcDbEntity
  8
0
420
13055799
100
AcDbLine
 10
-75.69950556517563
 20
-65.34206039901058
 30
0.0
 11
98.92723329629887
 21
-14.608302856241115
 31
0.0
  0
LINE
  5
26C
330
17
100
AcDbEntity
  8
0
420
12990520
100
AcDbLine
 10
-76.15383075367367
 20
-64.81199010631306
 30
0.0
 11
98.71362650729878
 21
-15.988118769183524
 31
0.0
  0
LINE
  5
26D
330
17
100
AcDbEntity
  8
0
420
12925241
100
AcDbLine
 10
-76.6044443118978
 20
-64.27876096865396
 30
0.0
 11
98.48077530122082
 21
-17.364817766692987
 31
0.0
  0
LINE
  5
26E
330
17
100
AcDbEntity
  8
0
420
12859705
100
AcDbLine
 10
-77.05132427757894
 20
-63.74239897486894
 30
0.0
 11
98.22872507286885
 21
-18.738131458572504
 31
0.0
  0
LINE
  5
26F
330
17
100
AcDbEntity
  8
0
420
12794426
100
AcDbLine
 10
-77.49444887041795
 20
-63.202930266485126
 30
0.0
 11
97.95752495993442
 21
-20.107792114596432
 31
0.0
  0
LINE
  5
270
330
17
100
AcDbEntity
  8
0
420
12794683
100
AcDbLine
 10
-77.93379649314744
 20
-62.660381136446034
 30
0.0
 11
97.66722783341677
 21
-21.473532716706362
 31
0.0
  0
LINE
  5
271
330
17
100
AcDbEntity
  8
0
420
12663868
100
AcDbLine
 10
-78.36934573258397
 20
-62.114778027831065
 30
0.0
 11
97.35789028731602
 21
-22.835087011065543
 31
0.0
  0
LINE
  5
272
330
17
100
AcDbEntity
  8
0
420
12598589
100
AcDbLine
 10
-78.80107536067223
 20
-61.56614753256581
 30
0.0
 11
97.02957262759965
 21
-24.192189559966824
 31
0.0
  0
LINE
  5
273
330
17
100
AcDbEntity
  8
0
420
12598846
100
AcDbLine
 10
-79.22896433551905
 20
-61.014516390126786
 30
0.0
 11
96.68233886044594
 21
-25.544575793579018
 31
0.0
  0
LINE
  5
274
330
17
100
AcDbEntity
  8
0
420
12533567
100
AcDbLine
 10
-79.65299180241965
 20
-60.45991148623746
 30
0.0
 11
96.3162566797658
 21
-26.89198206152662
 31
0.0
  0
LINE
  5
275
330
17
100
AcDbEntity
  8
0
420
12468288
100
AcDbLine
 10
-80.07313709487333
 20
-59.90235985155859
 30
0.0
 11
95.93139745400576
 21
-28.234145684287604
 31
0.0
  0
LINE
  5
276
330
17
100
AcDbEntity
  8
0
420
12337473
100
AcDbLine
 10
-80.48937973559144
 20
-59.3418886603701
 30
0.0
 11
95.52783621223435
 21
-29.570805004404733
 31
0.0
  0
LINE
  5
277
330
17
100
AcDbEntity
  8
0
420
12337730
100
AcDbLine
 10
-80.90169943749473
 20
-58.778525229247315
 30
0.0
 11
95.10565162951536
 21
-30.901699437494706
 31
0.0
  0
LINE
  5
278
330
17
100
AcDbEntity
  8
0
420
12272451
100
AcDbLine
 10
-81.31007610470279
 20
-58.2122970157289
 30
0.0
 11
94.66492601156962
 21
-32.22656952305118
 31
0.0
  0
LINE
  5
279
330
17
100
AcDbEntity
  8
0
420
12206915
100
AcDbLine
 10
-81.71448983351286
 20
-57.64323161697932
 30
0.0
 11
94.20574527872967
 21
-33.54515697502548
 31
0.0
  0
LINE
  5
27A
330
17
100
AcDbEntity
  8
0
420
12141893
100
AcDbLine
 10
-82.11492091337044
 20
-57.071356768443124
 30
0.0
 11
93.72819894918914
 21
-34.857204732181586
 31
0.0
  0
LINE
  5
27B
330
17
100
AcDbEntity
  8
0
420
12076614
100
AcDbLine
 10
-82.51134982782952
 20
-56.49670034249379
 30
0.0
 11
93.23238012155124
 21
-36.162457008209216
 31
0.0
  0
LINE
  5
27C
330
17
100
AcDbEntity
  8
0
420
12011078
100
AcDbLine
 10
-82.90375725550419
 20
-55.91929034707466
 30
0.0
 11
92.7183854566787
 21
-37.46065934159127
 31
0.0
  0
LINE
  5
27D
330
17
100
AcDbEntity
  8
0
420
11880520
100
AcDbLine
 10
-83.29212407100994
 20
-55.33915492433442
 30
0.0
 11
92.18631515885006
 21
-38.751558645210295
 31
0.0
  0
LINE
  5
27E
330
17
100
AcDbEntity
  8
0
420
11880777
100
AcDbLine
 10
-83.67643134589619
 20
-54.756322349254994
 30
0.0
 11
91.6362729562239
 21
-40.03490325568957
 31
0.0
  0
LINE
  5
27F
330
17
100
AcDbEntity
  8
0
420
11815498
100
AcDbLine
 10
-84.05666034956842
 20
-54.17082102827398
 30
0.0
 11
91.06836608061771
 21
-41.31044298245416
 31
0.0
  0
LINE
  5
280
330
17
100
AcDbEntity
  8
0
420
11749962
100
AcDbLine
 10
-84.43279255020153
 20
-53.58267949789963
 30
0.0
 11
90.48270524660191
 21
-42.577929156507324
 31
0.0
  0
LINE
  5
281
330
17
100
AcDbEntity
  8
0
420
11684940
100
AcDbLine
 10
-84.8048096156426
 20
-52.99192642332049
 30
0.0
 11
89.87940462991672
 21
-43.83711467890773
 31
0.0
  0
LINE
  5
282
330
17
100
AcDbEntity
  8
0
420
11619661
100
AcDbLine
 10
-85.17269341430479
 20
-52.398590597007875
 30
0.0
 11
89.25858184521253
 21
-45.087754068943156
 31
0.0
  0
LINE
  5
283
330
17
100
AcDbEntity
  8
0
420
11554125
100
AcDbLine
 10
-85.53642601605065
 20
-51.802700937313006
 30
0.0
 11
88.62035792312149
 21
-46.329603511986186
 31
0.0
  0
LINE
  5
284
330
17
100
AcDbEntity
  8
0
420
11423567
100
AcDbLine
 10
-85.89598969306647
 20
-51.204286487057104
 30
0.0
 11
87.96485728666161
 21
-47.562420907027615
 31
0.0
  0
LINE
  5
285
330
17
100
AcDbEntity
  8
0
420
11423824
100
AcDbLine
 10
-86.25136692072574
 20
-50.60337641211636
 30
0.0
 11
87.29220772698098
 21
-48.78596591387326
 31
0.0
  0
LINE
  5
286
330
17
100
AcDbEntity
  8
0
420
11293009
100
AcDbLine
 10
-86.60254037844388
 20
-49.99999999999994
 30
0.0
 11
86.60254037844382
 21
-50.000000000000085
 31
0.0
  0
LINE
  5
287
330
17
100
AcDbEntity
  8
0
420
11227730
100
AcDbLine
 10
-86.94949295052191
 20
-49.3941866584231
 30
0.0
 11
85.89598969306643
 21
-51.20428648705716
 31
0.0
  0
LINE
  5
288
330
17
100
AcDbEntity
  8
0
420
11227987
100
AcDbLine
 10
-87.29220772698099
 20
-48.785965913873206
 30
0.0
 11
85.17269341430472
 21
-52.398590597007995
 31
0.0
  0
LINE
  5
289
330
17
100
AcDbEntity
  8
0
420
11097172
100
AcDbLine
 10
-87.63066800438637
 20
-48.17536741017151
 30
0.0
 11
84.43279255020153
 21
-53.58267949789967
 31
0.0
  0
LINE
  5
28A
330
17
100
AcDbEntity
  8
0
420
11031893
100
AcDbLine
 10
-87.96485728666168
 20
-47.56242090702747
 30
0.0
 11
83.67643134589612
 21
-54.756322349255115
 31
0.0
  0
LINE
  5
28B
330
17
100
AcDbEntity
  8
0
420
10966614
100
AcDbLine
 10
-88.2947592858927
 20
-46.94715627858908
 30
0.0
 11
82.90375725550417
 21
-55.91929034707468
 31
0.0
  0
LINE
  5
28C
330
17
100
AcDbEntity
  8
0
420
10901335
100
AcDbLine
 10
-88.62035792312145
 20
-46.329603511986214
 30
0.0
 11
82.11492091337045
 21
-57.0713567684431
 31
0.0
  0
LINE
  5
28D
330
17
100
AcDbEntity
  8
0
420
10836056
100
AcDbLine
 10
-88.94163732912975
 20
-45.7097927058694
 30
0.0
 11
81.31007610470276
 21
-58.21229701572895
 31
0.0
  0
LINE
  5
28E
330
17
100
AcDbEntity
  8
0
420
10771034
100
AcDbLine
 10
-89.25858184521253
 20
-45.08775406894309
 30
0.0
 11
80.48937973559148
 21
-59.3418886603701
 31
0.0
  0
LINE
  5
28F
330
17
100
AcDbEntity
  8
0
420
10705755
100
AcDbLine
 10
-89.57117602394129
 20
-44.46351791849273
 30
0.0
 11
79.6529918024196
 21
-60.459911486237516
 31
0.0
  0
LINE
  5
290
330
17
100
AcDbEntity
  8
0
420
10574940
100
AcDbLine
 10
-89.87940462991668
 20
-43.83711467890776
 30
0.0
 11
78.80107536067224
 21
-61.56614753256577
 31
0.0
  0
LINE
  5
291
330
17
100
AcDbEntity
  8
0
420
10509661
100
AcDbLine
 10
-90.18325264051138
 20
-43.2085748801982
 30
0.0
 11
77.93379649314738
 21
-62.66038113644606
 31
0.0
  0
LINE
  5
292
330
17
100
AcDbEntity
  8
0
420
10444382
100
AcDbLine
 10
-90.48270524660194
 20
-42.5779291565073
 30
0.0
 11
77.05132427757894
 21
-63.74239897486892
 31
0.0
  0
LINE
  5
293
330
17
100
AcDbEntity
  8
0
420
10379103
100
AcDbLine
 10
-90.77774785329086
 20
-41.94520824461769
 30
0.0
 11
76.15383075367367
 21
-64.8119901063131
 31
0.0
  0
LINE
  5
294
330
17
100
AcDbEntity
  8
0
420
10313824
100
AcDbLine
 10
-91.06836608061771
 20
-41.31044298245419
 30
0.0
 11
75.24149088957249
 21
-65.86894601186802
 31
0.0
  0
LINE
  5
295
330
17
100
AcDbEntity
  8
0
420
10248545
100
AcDbLine
 10
-91.3545457642601
 20
-40.67366430758002
 30
0.0
 11
74.31448254773942
 21
-66.91306063588586
 31
0.0
  0
LINE
  5
296
330
17
100
AcDbEntity
  8
0
420
10183266
100
AcDbLine
 10
-91.63627295622395
 20
-40.034903255689514
 30
0.0
 11
73.37298645028767
 21
-67.94413042615162
 31
0.0
  0
LINE
  5
297
330
17
100
AcDbEntity
  8
0
420
10052708
100
AcDbLine
 10
-91.91353392552345
 20
-39.394190959095084
 30
0.0
 11
72.41718614374673
 21
-68.961954373567
 31
0.0
  0
LINE
  5
298
330
17
100
AcDbEntity
  8
0
420
10052965
100
AcDbLine
 10
-92.18631515885004
 20
-38.751558645210324
 30
0.0
 11
71.44726796328038
 21
-69.96633405133652
 31
0.0
  0
LINE
  5
299
330
17
100
AcDbEntity
  8
0
420
9922150
100
AcDbLine
 10
-92.45460336123132
 20
-38.107037635027396
 30
0.0
 11
70.46342099635943
 21
-70.95707365365212
 31
0.0
  0
LINE
  5
29A
330
17
100
AcDbEntity
  8
0
420
9857128
100
AcDbLine
 10
-92.71838545667875
 20
-37.46065934159124
 30
0.0
 11
69.46583704589978
 21
-71.93398003386507
 31
0.0
  0
LINE
  5
29B
330
17
100
AcDbEntity
  8
0
420
9791592
100
AcDbLine
 10
-92.97764858882515
 20
-36.81245526846777
 30
0.0
 11
68.45471059286882
 21
-72.89686274214118
 31
0.0
  0
LINE
  5
29C
330
17
100
AcDbEntity
  8
0
420
9661034
100
AcDbLine
 10
-93.23238012155122
 20
-36.162457008209245
 30
0.0
 11
67.43023875837238
 21
-73.84553406258836
 31
0.0
  0
LINE
  5
29D
330
17
100
AcDbEntity
  8
0
420
9595755
100
AcDbLine
 10
-93.48256763960146
 20
-35.51069624081369
 30
0.0
 11
66.39262126522414
 21
-74.77980904985324
 31
0.0
  0
LINE
  5
29E
330
17
100
AcDbEntity
  8
0
420
9530476
100
AcDbLine
 10
-93.72819894918915
 20
-34.85720473218152
 30
0.0
 11
65.34206039901058
 21
-75.6995055651756
 31
0.0
  0
LINE
  5
29F
330
17
100
AcDbEntity
  8
0
420
9465197
100
AcDbLine
 10
-93.96926207859083
 20
-34.20201433256685
 30
0.0
 11
64.2787609686539
 21
-76.60444431189784
 31
0.0
  0
LINE
  5
2A0
330
17
100
AcDbEntity
  8
0
420
9400175
100
AcDbLine
 10
-94.20574527872967
 20
-33.545156975025506
 30
0.0
 11
63.202930266485126
 21
-77.49444887041793
 31
0.0
  0
LINE
  5
2A1
330
17
100
AcDbEntity
  8
0
420
9334639
100
AcDbLine
 10
-94.43763702374811
 20
-32.886664673858306
 30
0.0
 11
62.114778027830994
 21
-78.36934573258401
 31
0.0
  0
LINE
  5
2A2
330
17
100
AcDbEntity
  8
0
420
9204081
100
AcDbLine
 10
-94.66492601156963
 20
-32.226569523051126
 30
0.0
 11
61.014516390126786
 21
-79.22896433551904
 31
0.0
  0
LINE
  5
2A3
330
17
100
AcDbEntity
  8
0
420
9138802
100
AcDbLine
 10
-94.88760116444966
 20
-31.564903694710228
 30
0.0
 11
59.90235985155854
 21
-80.07313709487339
 31
0.0
  0
LINE
  5
2A4
330
17
100
AcDbEntity
  8
0
420
9073523
100
AcDbLine
 10
-95.10565162951535
 20
-30.901699437494734
 30
0.0
 11
58.77852522924735
 21
-80.90169943749473
 31
0.0
  0
LINE
  5
2A5
330
17
100
AcDbEntity
  8
0
420
8942965
100
AcDbLine
 10
-95.31906677929472
 20
-30.236989075044423
 30
0.0
 11
57.643231616979264
 21
-81.71448983351289
 31
0.0
  0
LINE
  5
2A6
330
17
100
AcDbEntity
  8
0
420
8943222
100
AcDbLine
 10
-95.52783621223436
 20
-29.570805004404672
 30
0.0
 11
56.496700342493824
 21
-82.51134982782952
 31
0.0
  0
LINE
  5
2A7
330
17
100
AcDbEntity
  8
0
420
8812407
100
AcDbLine
 10
-95.73194975320673
 20
-28.903179694447118
 30
0.0
 11
55.339154924334366
 21
-83.29212407100998
 31
0.0
  0
LINE
  5
2A8
330
17
100
AcDbEntity
  8
0
420
8681849
100
AcDbLine
 10
-95.93139745400576
 20
-28.234145684287647
 30
0.0
 11
54.170821028274
 21
-84.05666034956839
 31
0.0
  0
LINE
  5
2A9
330
17
100
AcDbEntity
  8
0
420
8681849
100
AcDbLine
 10
-96.1261695938319
 20
-27.563735581699895
 30
0.0
 11
52.991926423320436
 21
-84.80480961564264
 31
0.0
  0
LINE
  5
2AA
330
17
100
AcDbEntity
  8
0
420
8551291
100
AcDbLine
 10
-96.3162566797658
 20
-26.891982061526576
 30
0.0
 11
51.80270093731304
 21
-85.53642601605064
 31
0.0
  0
LINE
  5
2AB
330
17
100
AcDbEntity
  8
0
420
8486012
100
AcDbLine
 10
-96.50164944723116
 20
-26.218917864086432
 30
0.0
 11
50.603376412116305
 21
-86.25136692072579
 31
0.0
  0
LINE
  5
2AC
330
17
100
AcDbEntity
  8
0
420
8420733
100
AcDbLine
 10
-96.68233886044594
 20
-25.54457579357906
 30
0.0
 11
49.3941866584231
 21
-86.94949295052187
 31
0.0
  0
LINE
  5
2AD
330
17
100
AcDbEntity
  8
0
420
8290175
100
AcDbLine
 10
-96.85831611286312
 20
-24.86898871648544
 30
0.0
 11
48.175367410171454
 21
-87.63066800438638
 31
0.0
  0
LINE
  5
2AE
330
17
100
AcDbEntity
  8
0
420
8290175
100
AcDbLine
 10
-97.02957262759965
 20
-24.192189559966764
 30
0.0
 11
46.94715627858908
 21
-88.29475928589267
 31
0.0
  0
LINE
  5
2AF
330
17
100
AcDbEntity
  8
0
420
8290175
100
AcDbLine
 10
-97.19610005785464
 20
-23.514211310258958
 30
0.0
 11
45.70979270586934
 21
-88.9416373291298
 31
0.0
  0
LINE
  5
2B0
330
17
100
AcDbEntity
  8
0
420
8224896
100
AcDbLine
 10
-97.35789028731602
 20
-22.835087011065575
 30
0.0
 11
44.463517918492755
 21
-89.57117602394126
 31
0.0
  0
LINE
  5
2B1
330
17
100
AcDbEntity
  8
0
420
8224896
100
AcDbLine
 10
-97.51493543055633
 20
-22.15484976194668
 30
0.0
 11
43.20857488019814
 21
-90.1832526405114
 31
0.0
  0
LINE
  5
2B2
330
17
100
AcDbEntity
  8
0
420
8224896
100
AcDbLine
 10
-97.66722783341679
 20
-21.473532716706316
 30
0.0
 11
41.94520824461772
 21
-90.77774785329086
 31
0.0
  0
LINE
  5
2B3
330
17
100
AcDbEntity
  8
0
420
8159617
100
AcDbLine
 10
-97.81476007338057
 20
-20.79116908177589
 30
0.0
 11
40.673664307579934
 21
-91.35454576426012
 31
0.0
  0
LINE
  5
2B4
330
17
100
AcDbEntity
  8
0
420
8159617
100
AcDbLine
 10
-97.9575249599344
 20
-20.10779211459646
 30
0.0
 11
39.39419095909511
 21
-91.91353392552344
 31
0.0
  0
LINE
  5
2B5
330
17
100
AcDbEntity
  8
0
420
8159617
100
AcDbLine
 10
-98.09551553491917
 20
-19.42343512199715
 30
0.0
 11
38.10703763502734
 21
-92.45460336123132
 31
0.0
  0
LINE
  5
2B6
330
17
100
AcDbEntity
  8
0
420
8094338
100
AcDbLine
 10
-98.22872507286887
 20
-18.73813145857246
 30
0.0
 11
36.8124552684678
 21
-92.97764858882516
 31
0.0
  0
LINE
  5
2B7
330
17
100
AcDbEntity
  8
0
420
8094338
100
AcDbLine
 10
-98.35714708133861
 20
-18.05191452505594
 30
0.0
 11
35.5106962408136
 21
-93.48256763960148
 31
0.0
  0
LINE
  5
2B8
330
17
100
AcDbEntity
  8
0
420
8094595
100
AcDbLine
 10
-98.48077530122082
 20
-17.36481776669303
 30
0.0
 11
34.202014332566876
 21
-93.96926207859082
 31
0.0
  0
LINE
  5
2B9
330
17
100
AcDbEntity
  8
0
420
8029059
100
AcDbLine
 10
-98.5996037070505
 20
-16.67687467161018
 30
0.0
 11
32.88666467385822
 21
-94.43763702374814
 31
0.0
  0
LINE
  5
2BA
330
17
100
AcDbEntity
  8
0
420
8029059
100
AcDbLine
 10
-98.71362650729878
 20
-15.988118769183481
 30
0.0
 11
31.564903694710228
 21
-94.88760116444966
 31
0.0
  0
LINE
  5
2BB
330
17
100
AcDbEntity
  8
0
420
8029316
100
AcDbLine
 10
-98.82283814465528
 20
-15.298583628403847
 30
0.0
 11
30.236989075044512
 21
-95.31906677929466
 31
0.0
  0
LINE
  5
2BC
330
17
100
AcDbEntity
  8
0
420
7963780
100
AcDbLine
 10
-98.92723329629884
 20
-14.608302856241146
 30
0.0
 11
28.903179694447147
 21
-95.73194975320672
 31
0.0
  0
LINE
  5
2BD
330
17
100
AcDbEntity
  8
0
420
7963780
100
AcDbLine
 10
-99.02680687415703
 20
-13.917310096006577
 30
0.0
 11
27.563735581699977
 21
-96.12616959383186
 31
0.0
  0
LINE
  5
2BE
330
17
100
AcDbEntity
  8
0
420
7898501
100
AcDbLine
 10
-99.12155402515418
 20
-13.225639025712233
 30
0.0
 11
26.218917864086443
 21
-96.50164944723116
 31
0.0
  0
LINE
  5
2BF
330
17
100
AcDbEntity
  8
0
420
7898501
100
AcDbLine
 10
-99.21147013144778
 20
-12.533323356430456
 30
0.0
 11
24.86898871648554
 21
-96.85831611286312
 31
0.0
  0
LINE
  5
2C0
330
17
100
AcDbEntity
  8
0
420
7898501
100
AcDbLine
 10
-99.2965508106537
 20
-11.840396830650075
 30
0.0
 11
23.514211310258972
 21
-97.19610005785461
 31
0.0
  0
LINE
  5
2C1
330
17
100
AcDbEntity
  8
0
420
7833222
100
AcDbLine
 10
-99.37679191605963
 20
-11.146893220632572
 30
0.0
 11
22.154849761946796
 21
-97.51493543055632
 31
0.0
  0
LINE
  5
2C2
330
17
100
AcDbEntity
  8
0
420
7833222
100
AcDbLine
 10
-99.45218953682733
 20
-10.452846326765334
 30
0.0
 11
20.791169081775905
 21
-97.81476007338057
 31
0.0
  0
LINE
  5
2C3
330
17
100
AcDbEntity
  8
0
420
7767943
100
AcDbLine
 10
-99.52273999818311
 20
-9.75828997591497
 30
0.0
 11
19.42343512199725
 21
-98.09551553491914
 31
0.0
  0
LINE
  5
2C4
330
17
100
AcDbEntity
  8
0
420
7767943
100
AcDbLine
 10
-99.58843986159704
 20
-9.063258019777996
 30
0.0
 11
18.051914525055967
 21
-98.35714708133861
 31
0.0
  0
LINE
  5
2C5
330
17
100
AcDbEntity
  8
0
420
7767943
100
AcDbLine
 10
-99.64928592495043
 20
-8.367784333231565
 30
0.0
 11
16.676874671610282
 21
-98.59960370705048
 31
0.0
  0
LINE
  5
2C6
330
17
100
AcDbEntity
  8
0
420
7702664
100
AcDbLine
 10
-99.70527522269202
 20
-7.6719028126818385
 30
0.0
 11
15.298583628403776
 21
-98.82283814465528
 31
0.0
  0
LINE
  5
2C7
330
17
100
AcDbEntity
  8
0
420
7702664
100
AcDbLine
 10
-99.75640502598242
 20
-6.975647374412554
 30
0.0
 11
13.917310096006592
 21
-99.02680687415702
 31
0.0
  0
LINE
  5
2C8
330
17
100
AcDbEntity
  8
0
420
7702664
100
AcDbLine
 10
-99.80267284282715
 20
-6.279051952931307
 30
0.0
 11
12.533323356430385
 21
-99.21147013144778
 31
0.0
  0
LINE
  5
2C9
330
17
100
AcDbEntity
  8
0
420
7637385
100
AcDbLine
 10
-99.8440764181981
 20
-5.582150499316403
 30
0.0
 11
11.1468932206326
 21
-99.37679191605962
 31
0.0
  0
LINE
  5
2CA
330
17
100
AcDbEntity
  8
0
420
7637385
100
AcDbLine
 10
-99.88061373414341
 20
-4.884976979561294
 30
0.0
 11
9.758289975914897
 21
-99.52273999818311
 31
0.0
  0
LINE
  5
2CB
330
17
100
AcDbEntity
  8
0
420
7572106
100
AcDbLine
 10
-99.91228300988583
 20
-4.187565372919977
 30
0.0
 11
8.367784333231594
 21
-99.64928592495042
 31
0.0
  0
LINE
  5
2CC
330
17
100
AcDbEntity
  8
0
420
7572106
100
AcDbLine
 10
-99.93908270190957
 20
-3.48994967025007
 30
0.0
 11
6.975647374412482
 21
-99.75640502598242
 31
0.0
  0
LINE
  5
2CD
330
17
100
AcDbEntity
  8
0
420
7572106
100
AcDbLine
 10
-99.96101150403544
 20
-2.7921638723569084
 30
0.0
 11
5.582150499316417
 21
-99.84407641819813
 31
0.0
  0
LINE
  5
2CE
330
17
100
AcDbEntity
  8
0
420
7506827
100
AcDbLine
 10
-99.97806834748455
 20
-2.094241988335672
 30
0.0
 11
4.187565372919905
 21
-99.91228300988581
 31
0.0
  0
LINE
  5
2CF
330
17
100
AcDbEntity
  8
0
420
7506827
100
AcDbLine
 10
-99.99025240093043
 20
-1.396218033914543
 30
0.0
 11
2.792163872356923
 21
-99.96101150403544
 31
0.0
  0
LINE
  5
2D0
330
17
100
AcDbEntity
  8
0
420
7507084
100
AcDbLine
 10
-99.99756307053947
 20
-0.6981260297961261
 30
0.0
 11
1.3962180339144705
 21
-99.99025240093043
 31
0.0
  0
LINE
  5
2D1
330
17
100
AcDbEntity
  8
0
420
7441548
100
AcDbLine
 10
-100.0
 20
-1.4500872158369392e-14
 30
0.0
 11
2.9001744316738784e-14
 21
-100.0
 31
0.0
  0
LINE
  5
2D2
330
17
100
AcDbEntity
  8
0
420
7441548
100
AcDbLine
 10
-99.99756307053947
 20
0.6981260297961841
 30
0.0
 11
-1.3962180339145864
 21
-99.99025240093043
 31
0.0
  0
LINE
  5
2D3
330
17
100
AcDbEntity
  8
0
420
7376269
100
AcDbLine
 10
-99.99025240093043
 20
1.3962180339145138
 30
0.0
 11
-2.7921638723568654
 21
-99.96101150403544
 31
0.0
  0
LINE
  5
2D4
330
17
100
AcDbEntity
  8
0
420
7376269
100
AcDbLine
 10
-99.97806834748455
 20
2.09424198833573
 30
0.0
 11
-4.18756537292002
 21
-99.91228300988581
 31
0.0
  0
LINE
  5
2D5
330
17
100
AcDbEntity
  8
0
420
7310990
100
AcDbLine
 10
-99.96101150403544
 20
2.7921638723568796
 30
0.0
 11
-5.582150499316359
 21
-99.84407641819813
 31
0.0
  0
LINE
  5
2D6
330
17
100
AcDbEntity
  8
0
420
7310990
100
AcDbLine
 10
-99.93908270190957
 20
3.489949670250128
 30
0.0
 11
-6.975647374412598
 21
-99.75640502598242
 31
0.0
  0
LINE
  5
2D7
330
17
100
AcDbEntity
  8
0
420
7310990
100
AcDbLine
 10
-99.91228300988583
 20
4.187565372919963
 30
0.0
 11
-8.367784333231535
 21
-99.64928592495042
 31
0.0
  0
LINE
  5
2D8
330
17
100
AcDbEntity
  8
0
420
7245711
100
AcDbLine
 10
-99.8806137341434
 20
4.884976979561367
 30
0.0
 11
-9.758289975915012
 21
-99.52273999818308
 31
0.0
  0
LINE
  5
2D9
330
17
100
AcDbEntity
  8
0
420
7245711
100
AcDbLine
 10
-99.8440764181981
 20
5.5821504993163735
 30
0.0
 11
-11.146893220632528
 21
-99.37679191605962
 31
0.0
  0
LINE
  5
2DA
330
17
100
AcDbEntity
  8
0
420
7180432
100
AcDbLine
 10
-99.80267284282715
 20
6.279051952931381
 30
0.0
 11
-12.5333233564305
 21
-99.21147013144778
 31
0.0
  0
LINE
  5
2DB
330
17
100
AcDbEntity
  8
0
420
7180432
100
AcDbLine
 10
-99.75640502598242
 20
6.975647374412526
 30
0.0
 11
-13.917310096006533
 21
-99.02680687415702
 31
0.0
  0
LINE
  5
2DC
330
17
100
AcDbEntity
  8
0
420
7180689
100
AcDbLine
 10
-99.70527522269202
 20
7.67190281268191
 30
0.0
 11
-15.29858362840389
 21
-98.82283814465528
 31
0.0
  0
LINE
  5
2DD
330
17
100
AcDbEntity
  8
0
420
7115153
100
AcDbLine
 10
-99.64928592495043
 20
8.367784333231551
 30
0.0
 11
-16.67687467161022
 21
-98.5996037070505
 31
0.0
  0
LINE
  5
2DE
330
17
100
AcDbEntity
  8
0
420
7115153
100
AcDbLine
 10
-99.58843986159704
 20
9.063258019778068
 30
0.0
 11
-18.051914525056084
 21
-98.35714708133855
 31
0.0
  0
LINE
  5
2DF
330
17
100
AcDbEntity
  8
0
420
7049874
100
AcDbLine
 10
-99.52273999818311
 20
9.758289975914956
 30
0.0
 11
-19.423435121997194
 21
-98.09551553491917
 31
0.0
  0
LINE
  5
2E0
330
17
100
AcDbEntity
  8
0
420
7049874
100
AcDbLine
 10
-99.45218953682733
 20
10.452846326765393
 30
0.0
 11
-20.79116908177602
 21
-97.81476007338054
 31
0.0
  0
LINE
  5
2E1
330
17
100
AcDbEntity
  8
0
420
7050131
100
AcDbLine
 10
-99.37679191605963
 20
11.146893220632544
 30
0.0
 11
-22.15484976194674
 21
-97.51493543055632
 31
0.0
  0
LINE
  5
2E2
330
17
100
AcDbEntity
  8
0
420
6984595
100
AcDbLine
 10
-99.2965508106537
 20
11.840396830650148
 30
0.0
 11
-23.514211310259086
 21
-97.19610005785461
 31
0.0
  0
LINE
  5
2E3
330
17
100
AcDbEntity
  8
0
420
6984595
100
AcDbLine
 10
-99.21147013144778
 20
12.53332335643043
 30
0.0
 11
-24.868988716485486
 21
-96.85831611286312
 31
0.0
  0
LINE
  5
2E4
330
17
100
AcDbEntity
  8
0
420
6919316
100
AcDbLine
 10
-99.12155402515418
 20
13.22563902571229
 30
0.0
 11
-26.21891786408656
 21
-96.5016494472311
 31
0.0
  0
LINE
  5
2E5
330
17
100
AcDbEntity
  8
0
420
6919316
100
AcDbLine
 10
-99.02680687415703
 20
13.917310096006547
 30
0.0
 11
-27.563735581699923
 21
-96.12616959383189
 31
0.0
  0
LINE
  5
2E6
330
17
100
AcDbEntity
  8
0
420
6854037
100
AcDbLine
 10
-98.92723329629882
 20
14.608302856241217
 30
0.0
 11
-28.90317969444725
 21
-95.73194975320672
 31
0.0
  0
LINE
  5
2E7
330
17
100
AcDbEntity
  8
0
420
6854037
100
AcDbLine
 10
-98.82283814465528
 20
15.298583628403817
 30
0.0
 11
-30.236989075044455
 21
-95.31906677929469
 31
0.0
  0
LINE
  5
2E8
330
17
100
AcDbEntity
  8
0
420
6854294
100
AcDbLine
 10
-98.71362650729878
 20
15.98811876918354
 30
0.0
 11
-31.564903694710345
 21
-94.8876011644496
 31
0.0
  0
LINE
  5
2E9
330
17
100
AcDbEntity
  8
0
420
6788758
100
AcDbLine
 10
-98.59960370705049
 20
16.676874671610236
 30
0.0
 11
-32.886664673858334
 21
-94.4376370237481
 31
0.0
  0
LINE
  5
2EA
330
17
100
AcDbEntity
  8
0
420
6789015
100
AcDbLine
 10
-98.48077530122082
 20
17.364817766693
 30
0.0
 11
-34.2020143325668
 21
-93.96926207859087
 31
0.0
  0
LINE
  5
2EB
330
17
100
AcDbEntity
  8
0
420
6723479
100
AcDbLine
 10
-98.3571470813386
 20
18.051914525056013
 30
0.0
 11
-35.510696240813715
 21
-93.48256763960146
 31
0.0
  0
LINE
  5
2EC
330
17
100
AcDbEntity
  8
0
420
6723479
100
AcDbLine
 10
-98.22872507286887
 20
18.738131458572433
 30
0.0
 11
-36.81245526846773
 21
-92.97764858882516
 31
0.0
  0
LINE
  5
2ED
330
17
100
AcDbEntity
  8
0
420
6658200
100
AcDbLine
 10
-98.09551553491916
 20
19.42343512199721
 30
0.0
 11
-38.10703763502743
 21
-92.4546033612313
 31
0.0
  0
LINE
  5
2EE
330
17
100
AcDbEntity
  8
0
420
6658200
100
AcDbLine
 10
-97.95752495993442
 20
20.107792114596432
 30
0.0
 11
-39.394190959095056
 21
-91.91353392552347
 31
0.0
  0
LINE
  5
2EF
330
17
100
AcDbEntity
  8
0
420
6658457
100
AcDbLine
 10
-97.81476007338055
 20
20.791169081775948
 30
0.0
 11
-40.67366430758005
 21
-91.35454576426005
 31
0.0
  0
LINE
  5
2F0
330
17
100
AcDbEntity
  8
0
420
6592921
100
AcDbLine
 10
-97.66722783341679
 20
21.473532716706288
 30
0.0
 11
-41.94520824461766
 21
-90.77774785329089
 31
0.0
  0
LINE
  5
2F1
330
17
100
AcDbEntity
  8
0
420
6592921
100
AcDbLine
 10
-97.51493543055632
 20
22.154849761946753
 30
0.0
 11
-43.208574880198256
 21
-90.18325264051137
 31
0.0
  0
LINE
  5
2F2
330
17
100
AcDbEntity
  8
0
420
6527642
100
AcDbLine
 10
-97.35789028731602
 20
22.835087011065543
 30
0.0
 11
-44.4635179184927
 21
-89.5711760239413
 31
0.0
  0
LINE
  5
2F3
330
17
100
AcDbEntity
  8
0
420
6527642
100
AcDbLine
 10
-97.19610005785462
 20
23.51421131025903
 30
0.0
 11
-45.70979270586945
 21
-88.94163732912975
 31
0.0
  0
LINE
  5
2F4
330
17
100
AcDbEntity
  8
0
420
6462363
100
AcDbLine
 10
-97.02957262759965
 20
24.19218955996675
 30
0.0
 11
-46.947156278589034
 21
-88.29475928589272
 31
0.0
  0
LINE
  5
2F5
330
17
100
AcDbEntity
  8
0
420
6462363
100
AcDbLine
 10
-96.85831611286312
 20
24.8689887164855
 30
0.0
 11
-48.17536741017157
 21
-87.63066800438637
 31
0.0
  0
LINE
  5
2F6
330
17
100
AcDbEntity
  8
0
420
6462620
100
AcDbLine
 10
-96.68233886044595
 20
25.544575793579032
 30
0.0
 11
-49.39418665842305
 21
-86.94949295052193
 31
0.0
  0
LINE
  5
2F7
330
17
100
AcDbEntity
  8
0
420
6397084
100
AcDbLine
 10
-96.50164944723115
 20
26.21891786408649
 30
0.0
 11
-50.60337641211642
 21
-86.25136692072573
 31
0.0
  0
LINE
  5
2F8
330
17
100
AcDbEntity
  8
0
420
6397341
100
AcDbLine
 10
-96.31625667976581
 20
26.89198206152656
 30
0.0
 11
-51.802700937312984
 21
-85.5364260160507
 31
0.0
  0
LINE
  5
2F9
330
17
100
AcDbEntity
  8
0
420
6331805
100
AcDbLine
 10
-96.12616959383188
 20
27.563735581699948
 30
0.0
 11
-52.991926423320535
 21
-84.80480961564258
 31
0.0
  0
LINE
  5
2FA
330
17
100
AcDbEntity
  8
0
420
6332062
100
AcDbLine
 10
-95.93139745400576
 20
28.234145684287636
 30
0.0
 11
-54.17082102827395
 21
-84.05666034956846
 31
0.0
  0
LINE
  5
2FB
330
17
100
AcDbEntity
  8
0
420
6266526
100
AcDbLine
 10
-95.73194975320672
 20
28.90317969444718
 30
0.0
 11
-55.33915492433445
 21
-83.29212407100992
 31
0.0
  0
LINE
  5
2FC
330
17
100
AcDbEntity
  8
0
420
6266526
100
AcDbLine
 10
-95.52783621223438
 20
29.57080500440466
 30
0.0
 11
-56.49670034249377
 21
-82.51134982782953
 31
0.0
  0
LINE
  5
2FD
330
17
100
AcDbEntity
  8
0
420
6201247
100
AcDbLine
 10
-95.31906677929469
 20
30.236989075044484
 30
0.0
 11
-57.64323161697937
 21
-81.7144898335128
 31
0.0
  0
LINE
  5
2FE
330
17
100
AcDbEntity
  8
0
420
6201247
100
AcDbLine
 10
-95.10565162951536
 20
30.901699437494734
 30
0.0
 11
-58.77852522924729
 21
-80.90169943749477
 31
0.0
  0
LINE
  5
2FF
330
17
100
AcDbEntity
  8
0
420
6135968
100
AcDbLine
 10
-94.88760116444965
 20
31.56490369471029
 30
0.0
 11
-59.90235985155863
 21
-80.07313709487333
 31
0.0
  0
LINE
  5
300
330
17
100
AcDbEntity
  8
0
420
6135968
100
AcDbLine
 10
-94.66492601156963
 20
32.22656952305109
 30
0.0
 11
-61.01451639012674
 21
-79.2289643355191
 31
0.0
  0
LINE
  5
301
330
17
100
AcDbEntity
  8
0
420
6136225
100
AcDbLine
 10
-94.4376370237481
 20
32.88666467385837
 30
0.0
 11
-62.114778027831086
 21
-78.36934573258392
 31
0.0
  0
LINE
  5
302
330
17
100
AcDbEntity
  8
0
420
6070689
100
AcDbLine
 10
-94.20574527872968
 20
33.54515697502549
 30
0.0
 11
-63.20293026648507
 21
-77.49444887041798
 31
0.0
  0
LINE
  5
303
330
17
100
AcDbEntity
  8
0
420
6070946
100
AcDbLine
 10
-93.96926207859082
 20
34.202014332566904
 30
0.0
 11
-64.27876096865398
 21
-76.60444431189775
 31
0.0
  0
LINE
  5
304
330
17
100
AcDbEntity
  8
0
420
6005410
100
AcDbLine
 10
-93.72819894918916
 20
34.857204732181515
 30
0.0
 11
-65.34206039901053
 21
-75.69950556517566
 31
0.0
  0
LINE
  5
305
330
17
100
AcDbEntity
  8
0
420
6005667
100
AcDbLine
 10
-93.48256763960143
 20
35.51069624081374
 30
0.0
 11
-66.39262126522422
 21
-74.77980904985311
 31
0.0
  0
LINE
  5
306
330
17
100
AcDbEntity
  8
0
420
5940131
100
AcDbLine
 10
-93.23238012155122
 20
36.162457008209216
 30
0.0
 11
-67.43023875837233
 21
-73.84553406258838
 31
0.0
  0
LINE
  5
307
330
17
100
AcDbEntity
  8
0
420
5940388
100
AcDbLine
 10
-92.97764858882512
 20
36.81245526846783
 30
0.0
 11
-68.45471059286892
 21
-72.89686274214108
 31
0.0
  0
LINE
  5
308
330
17
100
AcDbEntity
  8
0
420
5874852
100
AcDbLine
 10
-92.71838545667875
 20
37.4606593415912
 30
0.0
 11
-69.4658370458997
 21
-71.93398003386513
 31
0.0
  0
LINE
  5
309
330
17
100
AcDbEntity
  8
0
420
5874852
100
AcDbLine
 10
-92.4546033612313
 20
38.107037635027446
 30
0.0
 11
-70.46342099635952
 21
-70.95707365365203
 31
0.0
  0
LINE
  5
30A
330
17
100
AcDbEntity
  8
0
420
5809573
100
AcDbLine
 10
-92.18631515885006
 20
38.751558645210295
 30
0.0
 11
-71.44726796328031
 21
-69.96633405133656
 31
0.0
  0
LINE
  5
30B
330
17
100
AcDbEntity
  8
0
420
5809573
100
AcDbLine
 10
-91.91353392552342
 20
39.39419095909515
 30
0.0
 11
-72.4171861437468
 21
-68.96195437356695
 31
0.0
  0
LINE
  5
30C
330
17
100
AcDbEntity
  8
0
420
5744294
100
AcDbLine
 10
-91.63627295622396
 20
40.0349032556895
 30
0.0
 11
-73.37298645028764
 21
-67.94413042615164
 31
0.0
  0
LINE
  5
30D
330
17
100
AcDbEntity
  8
0
420
5744294
100
AcDbLine
 10
-91.35454576426008
 20
40.67366430758006
 30
0.0
 11
-74.31448254773947
 21
-66.91306063588574
 31
0.0
  0
LINE
  5
30E
330
17
100
AcDbEntity
  8
0
420
5679015
100
AcDbLine
 10
-91.06836608061772
 20
41.31044298245418
 30
0.0
 11
-75.24149088957243
 21
-65.86894601186805
 31
0.0
  0
LINE
  5
30F
330
17
100
AcDbEntity
  8
0
420
5679015
100
AcDbLine
 10
-90.77774785329085
 20
41.94520824461775
 30
0.0
 11
-76.15383075367374
 21
-64.811990106313
 31
0.0
  0
LINE
  5
310
330
17
100
AcDbEntity
  8
0
420
5679272
100
AcDbLine
 10
-90.48270524660194
 20
42.57792915650726
 30
0.0
 11
-77.05132427757893
 21
-63.742398974868976
 31
0.0
  0
LINE
  5
311
330
17
100
AcDbEntity
  8
0
420
5613736
100
AcDbLine
 10
-90.18325264051134
 20
43.20857488019828
 30
0.0
 11
-77.93379649314745
 21
-62.66038113644598
 31
0.0
  0
LINE
  5
312
330
17
100
AcDbEntity
  8
0
420
5613993
100
AcDbLine
 10
-89.87940462991669
 20
43.837114678907746
 30
0.0
 11
-78.8010753606722
 21
-61.56614753256583
 31
0.0
  0
LINE
  5
313
330
17
100
AcDbEntity
  8
0
420
5548457
100
AcDbLine
 10
-89.57117602394126
 20
44.4635179184928
 30
0.0
 11
-79.65299180241969
 21
-60.4599114862374
 31
0.0
  0
LINE
  5
314
330
17
100
AcDbEntity
  8
0
420
5548714
100
AcDbLine
 10
-89.25858184521255
 20
45.087754068943084
 30
0.0
 11
-80.4893797355914
 21
-59.34188866037013
 31
0.0
  0
LINE
  5
315
330
17
100
AcDbEntity
  8
0
420
5483178
100
AcDbLine
 10
-88.94163732912973
 20
45.70979270586946
 30
0.0
 11
-81.31007610470282
 21
-58.21229701572888
 31
0.0
  0
LINE
  5
316
330
17
100
AcDbEntity
  8
0
420
5483435
100
AcDbLine
 10
-88.62035792312146
 20
46.329603511986186
 30
0.0
 11
-82.11492091337041
 21
-57.07135676844316
 31
0.0
  0
LINE
  5
317
330
17
100
AcDbEntity
  8
0
420
5417899
100
AcDbLine
 10
-88.29475928589271
 20
46.94715627858905
 30
0.0
 11
-82.90375725550413
 21
-55.91929034707475
 31
0.0
  0
LINE
  5
318
330
17
100
AcDbEntity
  8
0
420
5418156
100
AcDbLine
 10
-87.96485728666164
 20
47.56242090702753
 30
0.0
 11
-83.67643134589618
 21
-54.756322349254994
 31
0.0
  0
LINE
  5
319
330
17
100
AcDbEntity
  8
0
420
5352620
100
AcDbLine
 10
-87.63066800438637
 20
48.175367410171496
 30
0.0
 11
-84.43279255020147
 21
-53.58267949789972
 31
0.0
  0
LINE
  5
31A
330
17
100
AcDbEntity
  8
0
420
5352877
100
AcDbLine
 10
-87.29220772698098
 20
48.785965913873284
 30
0.0
 11
-85.17269341430477
 21
-52.39859059700791
 31
0.0
  0
LINE
  5
31B
330
17
100
AcDbEntity
  8
0
420
5287341
100
AcDbLine
 10
-86.94949295052191
 20
49.39418665842308
 30
0.0
 11
-85.89598969306641
 21
-51.20428648705722
 31
0.0
  0
LINE
  5
31C
330
17
100
AcDbEntity
  8
0
420
5287598
100
AcDbLine
 10
-86.60254037844386
 20
50.000000000000014
 30
0.0
 11
-86.60254037844388
 21
-49.99999999999997
 31
0.0
  0
LINE
  5
31D
330
17
100
AcDbEntity
  8
0
420
5222062
100
AcDbLine
 10
-86.25136692072574
 20
50.60337641211636
 30
0.0
 11
-87.29220772698095
 21
-48.785965913873326
 31
0.0
  0
LINE
  5
31E
330
17
100
AcDbEntity
  8
0
420
5222319
100
AcDbLine
 10
-85.89598969306643
 20
51.204286487057175
 30
0.0
 11
-87.96485728666168
 21
-47.5624209070275
 31
0.0
  0
LINE
  5
31F
330
17
100
AcDbEntity
  8
0
420
5156783
100
AcDbLine
 10
-85.53642601605068
 20
51.802700937313
 30
0.0
 11
-88.62035792312145
 21
-46.32960351198624
 31
0.0
  0
LINE
  5
320
330
17
100
AcDbEntity
  8
0
420
5157040
100
AcDbLine
 10
-85.17269341430476
 20
52.39859059700793
 30
0.0
 11
-89.25858184521256
 21
-45.087754068943035
 31
0.0
  0
LINE
  5
321
330
17
100
AcDbEntity
  8
0
420
5091504
100
AcDbLine
 10
-84.80480961564261
 20
52.99192642332048
 30
0.0
 11
-89.87940462991666
 21
-43.83711467890779
 31
0.0
  0
LINE
  5
322
330
17
100
AcDbEntity
  8
0
420
5091761
100
AcDbLine
 10
-84.4327925502015
 20
53.582679497899676
 30
0.0
 11
-90.48270524660197
 21
-42.577929156507246
 31
0.0
  0
LINE
  5
323
330
17
100
AcDbEntity
  8
0
420
5026225
100
AcDbLine
 10
-84.05666034956843
 20
54.17082102827396
 30
0.0
 11
-91.0683660806177
 21
-41.31044298245422
 31
0.0
  0
LINE
  5
324
330
17
100
AcDbEntity
  8
0
420
5026482
100
AcDbLine
 10
-83.67643134589615
 20
54.756322349255036
 30
0.0
 11
-91.63627295622399
 21
-40.03490325568945
 31
0.0
  0
LINE
  5
325
330
17
100
AcDbEntity
  8
0
420
4960946
100
AcDbLine
 10
-83.29212407100997
 20
55.33915492433439
 30
0.0
 11
-92.18631515885004
 21
-38.75155864521035
 31
0.0
  0
LINE
  5
326
330
17
100
AcDbEntity
  8
0
420
4960946
100
AcDbLine
 10
-82.90375725550415
 20
55.9192903470747
 30
0.0
 11
-92.71838545667876
 21
-37.46065934159115
 31
0.0
  0
LINE
  5
327
330
17
100
AcDbEntity
  8
0
420
4895667
100
AcDbLine
 10
-82.51134982782953
 20
56.496700342493774
 30
0.0
 11
-93.2323801215512
 21
-36.16245700820927
 31
0.0
  0
LINE
  5
328
330
17
100
AcDbEntity
  8
0
420
4895667
100
AcDbLine
 10
-82.1149209133704
 20
57.071356768443195
 30
0.0
 11
-93.72819894918918
 21
-34.85720473218149
 31
0.0
  0
LINE
  5
329
330
17
100
AcDbEntity
  8
0
420
4830388
100
AcDbLine
 10
-81.71448983351286
 20
57.64323161697931
 30
0.0
 11
-94.20574527872965
 21
-33.545156975025535
 31
0.0
  0
LINE
  5
32A
330
17
100
AcDbEntity
  8
0
420
4830645
100
AcDbLine
 10
-81.31007610470276
 20
58.212297015728964
 30
0.0
 11
-94.66492601156963
 21
-32.22656952305106
 31
0.0
  0
LINE
  5
32B
330
17
100
AcDbEntity
  8
0
420
4765109
100
AcDbLine
 10
-80.90169943749474
 20
58.7785252292473
 30
0.0
 11
-95.10565162951534
 21
-30.901699437494795
 31
0.0
  0
LINE
  5
32C
330
17
100
AcDbEntity
  8
0
420
4765366
100
AcDbLine
 10
-80.4893797355914
 20
59.34188866037017
 30
0.0
 11
-95.52783621223438
 21
-29.570805004404615
 31
0.0
  0
LINE
  5
32D
330
17
100
AcDbEntity
  8
0
420
4699830
100
AcDbLine
 10
-80.07313709487336
 20
59.90235985155857
 30
0.0
 11
-95.93139745400575
 21
-28.234145684287675
 31
0.0
  0
LINE
  5
32E
330
17
100
AcDbEntity
  8
0
420
4700087
100
AcDbLine
 10
-79.6529918024196
 20
60.459911486237516
 30
0.0
 11
-96.31625667976583
 21
-26.891982061526516
 31
0.0
  0
LINE
  5
32F
330
17
100
AcDbEntity
  8
0
420
4634551
100
AcDbLine
 10
-79.22896433551908
 20
61.01451639012675
 30
0.0
 11
-96.68233886044594
 21
-25.544575793579078
 31
0.0
  0
LINE
  5
330
330
17
100
AcDbEntity
  8
0
420
4634808
100
AcDbLine
 10
-78.80107536067217
 20
61.56614753256585
 30
0.0
 11
-97.02957262759966
 21
-24.192189559966707
 31
0.0
  0
LINE
  5
331
330
17
100
AcDbEntity
  8
0
420
4569272
100
AcDbLine
 10
-78.36934573258398
 20
62.11477802783103
 30
0.0
 11
-97.35789028731602
 21
-22.835087011065603
 31
0.0
  0
LINE
  5
332
330
17
100
AcDbEntity
  8
0
420
4569529
100
AcDbLine
 10
-77.93379649314738
 20
62.66038113644608
 30
0.0
 11
-97.66722783341679
 21
-21.473532716706245
 31
0.0
  0
LINE
  5
333
330
17
100
AcDbEntity
  8
0
420
4503993
100
AcDbLine
 10
-77.49444887041797
 20
63.20293026648508
 30
0.0
 11
-97.9575249599344
 21
-20.10779211459649
 31
0.0
  0
LINE
  5
334
330
17
100
AcDbEntity
  8
0
420
4504250
100
AcDbLine
 10
-77.0513242775789
 20
63.742398974869
 30
0.0
 11
-98.22872507286888
 21
-18.738131458572386
 31
0.0
  0
LINE
  5
335
330
17
100
AcDbEntity
  8
0
420
4438714
100
AcDbLine
 10
-76.60444431189781
 20
64.27876096865393
 30
0.0
 11
-98.48077530122082
 21
-17.364817766693044
 31
0.0
  0
LINE
  5
336
330
17
100
AcDbEntity
  8
0
420
4438971
100
AcDbLine
 10
-76.15383075367363
 20
64.81199010631312
 30
0.0
 11
-98.7136265072988
 21
-15.98811876918341
 31
0.0
  0
LINE
  5
337
330
17
100
AcDbEntity
  8
0
420
4373435
100
AcDbLine
 10
-75.69950556517564
 20
65.34206039901053
 30
0.0
 11
-98.92723329629884
 21
-14.608302856241174
 31
0.0
  0
LINE
  5
338
330
17
100
AcDbEntity
  8
0
420
4373692
100
AcDbLine
 10
-75.24149088957242
 20
65.86894601186808
 30
0.0
 11
-99.12155402515418
 21
-13.22563902571216
 31
0.0
  0
LINE
  5
339
330
17
100
AcDbEntity
  8
0
420
4308156
100
AcDbLine
 10
-74.77980904985317
 20
66.39262126522416
 30
0.0
 11
-99.2965508106537
 21
-11.840396830650105
 31
0.0
  0
LINE
  5
33A
330
17
100
AcDbEntity
  8
0
420
4308413
100
AcDbLine
 10
-74.31448254773939
 20
66.91306063588586
 30
0.0
 11
-99.45218953682733
 21
-10.452846326765263
 31
0.0
  0
LINE
  5
33B
330
17
100
AcDbEntity
  8
0
420
4242877
100
AcDbLine
 10
-73.84553406258838
 20
67.43023875837234
 30
0.0
 11
-99.58843986159704
 21
-9.063258019778024
 31
0.0
  0
LINE
  5
33C
330
17
100
AcDbEntity
  8
0
420
4243134
100
AcDbLine
 10
-73.3729864502876
 20
67.94413042615169
 30
0.0
 11
-99.70527522269204
 21
-7.67190281268178
 31
0.0
  0
LINE
  5
33D
330
17
100
AcDbEntity
  8
0
420
4177598
100
AcDbLine
 10
-72.89686274214115
 20
68.45471059286888
 30
0.0
 11
-99.80267284282715
 21
-6.2790519529313364
 31
0.0
  0
LINE
  5
33E
330
17
100
AcDbEntity
  8
0
420
4177855
100
AcDbLine
 10
-72.41718614374672
 20
68.96195437356701
 30
0.0
 11
-99.88061373414341
 21
-4.8849769795612366
 31
0.0
  0
LINE
  5
33F
330
17
100
AcDbEntity
  8
0
420
4112319
100
AcDbLine
 10
-71.93398003386511
 20
69.46583704589973
 30
0.0
 11
-99.93908270190957
 21
-3.489949670250099
 31
0.0
  0
LINE
  5
340
330
17
100
AcDbEntity
  8
0
420
4112576
100
AcDbLine
 10
-71.4472679632803
 20
69.96633405133656
 30
0.0
 11
-99.97806834748455
 21
-2.0942419883356
 31
0.0
  0
LINE
  5
341
330
17
100
AcDbEntity
  8
0
420
4047040
100
AcDbLine
 10
-70.95707365365209
 20
70.46342099635947
 30
0.0
 11
-99.99756307053947
 21
-0.6981260297961551
 31
0.0
  0
LINE
  5
342
330
17
100
AcDbEntity
  8
0
420
4047297
100
AcDbLine
 10
-70.46342099635943
 20
70.95707365365212
 30
0.0
 11
-99.99756307053947
 21
0.6981260297962566
 31
0.0
  0
LINE
  5
343
330
17
100
AcDbEntity
  8
0
420
3981761
100
AcDbLine
 10
-69.96633405133652
 20
71.44726796328035
 30
0.0
 11
-99.97806834748455
 21
2.094241988335701
 31
0.0
  0
LINE
  5
344
330
17
100
AcDbEntity
  8
0
420
3982018
100
AcDbLine
 10
-69.46583704589969
 20
71.93398003386515
 30
0.0
 11
-99.93908270190957
 21
3.4899496702502004
 31
0.0
  0
LINE
  5
345
330
17
100
AcDbEntity
  8
0
420
3916482
100
AcDbLine
 10
-68.96195437356697
 20
72.41718614374676
 30
0.0
 11
-99.8806137341434
 21
4.884976979561338
 31
0.0
  0
LINE
  5
346
330
17
100
AcDbEntity
  8
0
420
3916739
100
AcDbLine
 10
-68.45471059286889
 20
72.89686274214114
 30
0.0
 11
-99.80267284282715
 21
6.279051952931264
 31
0.0
  0
LINE
  5
347
330
17
100
AcDbEntity
  8
0
420
3851203
100
AcDbLine
 10
-67.94413042615164
 20
73.37298645028764
 30
0.0
 11
-99.70527522269202
 21
7.671902812681881
 31
0.0
  0
LINE
  5
348
330
17
100
AcDbEntity
  8
0
420
3851460
100
AcDbLine
 10
-67.43023875837235
 20
73.84553406258836
 30
0.0
 11
-99.58843986159704
 21
9.063258019777951
 31
0.0
  0
LINE
  5
349
330
17
100
AcDbEntity
  8
0
420
3786181
100
AcDbLine
 10
-66.91306063588583
 20
74.31448254773943
 30
0.0
 11
-99.45218953682733
 21
10.452846326765364
 31
0.0
  0
LINE
  5
34A
330
17
100
AcDbEntity
  8
0
420
3786181
100
AcDbLine
 10
-66.39262126522418
 20
74.77980904985316
 30
0.0
 11
-99.2965508106537
 21
11.840396830650032
 31
0.0
  0
LINE
  5
34B
330
17
100
AcDbEntity
  8
0
420
3720902
100
AcDbLine
 10
-65.86894601186803
 20
75.24149088957245
 30
0.0
 11
-99.12155402515418
 21
13.225639025712264
 31
0.0
  0
LINE
  5
34C
330
17
100
AcDbEntity
  8
0
420
3655366
100
AcDbLine
 10
-65.34206039901056
 20
75.69950556517563
 30
0.0
 11
-98.92723329629885
 21
14.608302856241101
 31
0.0
  0
LINE
  5
34D
330
17
100
AcDbEntity
  8
0
420
3655623
100
AcDbLine
 10
-64.81199010631308
 20
76.15383075367367
 30
0.0
 11
-98.71362650729878
 21
15.98811876918351
 31
0.0
  0
LINE
  5
34E
330
17
100
AcDbEntity
  8
0
420
3590087
100
AcDbLine
 10
-64.27876096865394
 20
76.6044443118978
 30
0.0
 11
-98.48077530122082
 21
17.364817766692987
 31
0.0
  0
LINE
  5
34F
330
17
100
AcDbEntity
  8
0
420
3590344
100
AcDbLine
 10
-63.742398974868955
 20
77.05132427757894
 30
0.0
 11
-98.22872507286885
 21
18.738131458572504
 31
0.0
  0
LINE
  5
350
330
17
100
AcDbEntity
  8
0
420
3524808
100
AcDbLine
 10
-63.202930266485104
 20
77.49444887041794
 30
0.0
 11
-97.95752495993442
 21
20.107792114596418
 31
0.0
  0
LINE
  5
351
330
17
100
AcDbEntity
  8
0
420
3525065
100
AcDbLine
 10
-62.660381136446034
 20
77.93379649314743
 30
0.0
 11
-97.66722783341677
 21
21.473532716706362
 31
0.0
  0
LINE
  5
352
330
17
100
AcDbEntity
  8
0
420
3459529
100
AcDbLine
 10
-62.11477802783105
 20
78.36934573258397
 30
0.0
 11
-97.35789028731604
 21
22.835087011065518
 31
0.0
  0
LINE
  5
353
330
17
100
AcDbEntity
  8
0
420
3459786
100
AcDbLine
 10
-61.56614753256581
 20
78.80107536067223
 30
0.0
 11
-97.02957262759965
 21
24.19218955996681
 31
0.0
  0
LINE
  5
354
330
17
100
AcDbEntity
  8
0
420
3394250
100
AcDbLine
 10
-61.014516390126786
 20
79.22896433551905
 30
0.0
 11
-96.68233886044595
 21
25.544575793579018
 31
0.0
  0
LINE
  5
355
330
17
100
AcDbEntity
  8
0
420
3394507
100
AcDbLine
 10
-60.45991148623746
 20
79.65299180241965
 30
0.0
 11
-96.3162566797658
 21
26.89198206152662
 31
0.0
  0
LINE
  5
356
330
17
100
AcDbEntity
  8
0
420
3328971
100
AcDbLine
 10
-59.90235985155859
 20
80.07313709487333
 30
0.0
 11
-95.93139745400576
 21
28.234145684287604
 31
0.0
  0
LINE
  5
357
330
17
100
AcDbEntity
  8
0
420
3329228
100
AcDbLine
 10
-59.341888660370124
 20
80.48937973559143
 30
0.0
 11
-95.52783621223435
 21
29.570805004404715
 31
0.0
  0
LINE
  5
358
330
17
100
AcDbEntity
  8
0
420
3263692
100
AcDbLine
 10
-58.77852522924732
 20
80.90169943749473
 30
0.0
 11
-95.10565162951536
 21
30.901699437494706
 31
0.0
  0
LINE
  5
359
330
17
100
AcDbEntity
  8
0
420
3263949
100
AcDbLine
 10
-58.21229701572892
 20
81.31007610470277
 30
0.0
 11
-94.66492601156962
 21
32.226569523051154
 31
0.0
  0
LINE
  5
35A
330
17
100
AcDbEntity
  8
0
420
3198670
100
AcDbLine
 10
-57.64323161697934
 20
81.71448983351284
 30
0.0
 11
-94.20574527872968
 21
33.54515697502548
 31
0.0
  0
LINE
  5
35B
330
17
100
AcDbEntity
  8
0
420
3133134
100
AcDbLine
 10
-57.07135676844314
 20
82.11492091337044
 30
0.0
 11
-93.72819894918914
 21
34.857204732181586
 31
0.0
  0
LINE
  5
35C
330
17
100
AcDbEntity
  8
0
420
3133391
100
AcDbLine
 10
-56.4967003424938
 20
82.51134982782952
 30
0.0
 11
-93.23238012155124
 21
36.1624570082092
 31
0.0
  0
LINE
  5
35D
330
17
100
AcDbEntity
  8
0
420
3067855
100
AcDbLine
 10
-55.91929034707466
 20
82.90375725550419
 30
0.0
 11
-92.71838545667872
 21
37.46065934159125
 31
0.0
  0
LINE
  5
35E
330
17
100
AcDbEntity
  8
0
420
3068112
100
AcDbLine
 10
-55.33915492433442
 20
83.29212407100994
 30
0.0
 11
-92.18631515885006
 21
38.751558645210274
 31
0.0
  0
LINE
  5
35F
330
17
100
AcDbEntity
  8
0
420
3002576
100
AcDbLine
 10
-54.756322349254994
 20
83.67643134589619
 30
0.0
 11
-91.63627295622392
 21
40.03490325568956
 31
0.0
  0
LINE
  5
360
330
17
100
AcDbEntity
  8
0
420
3002833
100
AcDbLine
 10
-54.170821028274
 20
84.05666034956842
 30
0.0
 11
-91.06836608061772
 21
41.310442982454155
 31
0.0
  0
LINE
  5
361
330
17
100
AcDbEntity
  8
0
420
2937297
100
AcDbLine
 10
-53.58267949789963
 20
84.43279255020153
 30
0.0
 11
-90.48270524660192
 21
42.577929156507324
 31
0.0
  0
LINE
  5
362
330
17
100
AcDbEntity
  8
0
420
2937554
100
AcDbLine
 10
-52.9919264233205
 20
84.8048096156426
 30
0.0
 11
-89.8794046299167
 21
43.837114678907724
 31
0.0
  0
LINE
  5
363
330
17
100
AcDbEntity
  8
0
420
2872018
100
AcDbLine
 10
-52.398590597007875
 20
85.17269341430477
 30
0.0
 11
-89.25858184521252
 21
45.08775406894315
 31
0.0
  0
LINE
  5
364
330
17
100
AcDbEntity
  8
0
420
2872275
100
AcDbLine
 10
-51.80270093731303
 20
85.53642601605065
 30
0.0
 11
-88.62035792312147
 21
46.329603511986164
 31
0.0
  0
LINE
  5
365
330
17
100
AcDbEntity
  8
0
420
2806996
100
AcDbLine
 10
-51.20428648705712
 20
85.89598969306647
 30
0.0
 11
-87.96485728666161
 21
47.562420907027594
 31
0.0
  0
LINE
  5
366
330
17
100
AcDbEntity
  8
0
420
2806996
100
AcDbLine
 10
-50.60337641211638
 20
86.25136692072574
 30
0.0
 11
-87.29220772698098
 21
48.785965913873255
 31
0.0
  0
LINE
  5
367
330
17
100
AcDbEntity
  8
0
420
2741717
100
AcDbLine
 10
-49.999999999999964
 20
86.60254037844388
 30
0.0
 11
-86.60254037844382
 21
50.000000000000064
 31
0.0
  0
LINE
  5
368
330
17
100
AcDbEntity
  8
0
420
2741717
100
AcDbLine
 10
-49.3941866584231
 20
86.94949295052191
 30
0.0
 11
-85.89598969306644
 21
51.204286487057146
 31
0.0
  0
LINE
  5
369
330
17
100
AcDbEntity
  8
0
420
2676438
100
AcDbLine
 10
-48.78596591387323
 20
87.29220772698099
 30
0.0
 11
-85.17269341430472
 21
52.39859059700799
 31
0.0
  0
LINE
  5
36A
330
17
100
AcDbEntity
  8
0
420
2610902
100
AcDbLine
 10
-48.175367410171525
 20
87.63066800438637
 30
0.0
 11
-84.43279255020151
 21
53.582679497899655
 31
0.0
  0
LINE
  5
36B
330
17
100
AcDbEntity
  8
0
420
2611159
100
AcDbLine
 10
-47.56242090702748
 20
87.96485728666168
 30
0.0
 11
-83.67643134589612
 21
54.75632234925509
 31
0.0
  0
LINE
  5
36C
330
17
100
AcDbEntity
  8
0
420
2545623
100
AcDbLine
 10
-46.94715627858908
 20
88.2947592858927
 30
0.0
 11
-82.90375725550417
 21
55.91929034707468
 31
0.0
  0
LINE
  5
36D
330
17
100
AcDbEntity
  8
0
420
2545880
100
AcDbLine
 10
-46.32960351198613
 20
88.62035792312149
 30
0.0
 11
-82.11492091337036
 21
57.07135676844325
 31
0.0
  0
LINE
  5
36E
330
17
100
AcDbEntity
  8
0
420
2480344
100
AcDbLine
 10
-45.70979270586941
 20
88.94163732912975
 30
0.0
 11
-81.31007610470277
 21
58.21229701572894
 31
0.0
  0
LINE
  5
36F
330
17
100
AcDbEntity
  8
0
420
2480601
100
AcDbLine
 10
-45.08775406894303
 20
89.25858184521257
 30
0.0
 11
-80.48937973559136
 21
59.34188866037022
 31
0.0
  0
LINE
  5
370
330
17
100
AcDbEntity
  8
0
420
2415322
100
AcDbLine
 10
-44.46351791849274
 20
89.57117602394129
 30
0.0
 11
-79.65299180241962
 21
60.459911486237495
 31
0.0
  0
LINE
  5
371
330
17
100
AcDbEntity
  8
0
420
2415322
100
AcDbLine
 10
-43.8371146789077
 20
89.87940462991672
 30
0.0
 11
-78.80107536067213
 21
61.56614753256591
 31
0.0
  0
LINE
  5
372
330
17
100
AcDbEntity
  8
0
420
2350043
100
AcDbLine
 10
-43.20857488019823
 20
90.18325264051138
 30
0.0
 11
-77.9337964931474
 21
62.66038113644606
 31
0.0
  0
LINE
  5
373
330
17
100
AcDbEntity
  8
0
420
2350043
100
AcDbLine
 10
-42.57792915650721
 20
90.48270524660198
 30
0.0
 11
-77.05132427757887
 21
63.742398974869054
 31
0.0
  0
LINE
  5
374
330
17
100
AcDbEntity
  8
0
420
2284764
100
AcDbLine
 10
-41.9452082446177
 20
90.77774785329086
 30
0.0
 11
-76.15383075367367
 21
64.8119901063131
 31
0.0
  0
LINE
  5
375
330
17
100
AcDbEntity
  8
0
420
2219228
100
AcDbLine
 10
-41.310442982454205
 20
91.06836608061771
 30
0.0
 11
-75.24149088957247
 21
65.86894601186799
 31
0.0
  0
LINE
  5
376
330
17
100
AcDbEntity
  8
0
420
2219485
100
AcDbLine
 10
-40.673664307580005
 20
91.3545457642601
 30
0.0
 11
-74.31448254773942
 21
66.91306063588584
 31
0.0
  0
LINE
  5
377
330
17
100
AcDbEntity
  8
0
420
2153949
100
AcDbLine
 10
-40.03490325568953
 20
91.63627295622395
 30
0.0
 11
-73.37298645028768
 21
67.9441304261516
 31
0.0
  0
LINE
  5
378
330
17
100
AcDbEntity
  8
0
420
2154206
100
AcDbLine
 10
-39.3941909590951
 20
91.91353392552345
 30
0.0
 11
-72.41718614374675
 21
68.961954373567
 31
0.0
  0
LINE
  5
379
330
17
100
AcDbEntity
  8
0
420
2088927
100
AcDbLine
 10
-38.751558645210324
 20
92.18631515885004
 30
0.0
 11
-71.44726796328038
 21
69.9663340513365
 31
0.0
  0
LINE
  5
37A
330
17
100
AcDbEntity
  8
0
420
2088927
100
AcDbLine
 10
-38.107037635027396
 20
92.45460336123132
 30
0.0
 11
-70.46342099635945
 21
70.95707365365212
 31
0.0
  0
LINE
  5
37B
330
17
100
AcDbEntity
  8
0
420
2023648
100
AcDbLine
 10
-37.46065934159124
 20
92.71838545667875
 30
0.0
 11
-69.46583704589978
 21
71.93398003386508
 31
0.0
  0
LINE
  5
37C
330
17
100
AcDbEntity
  8
0
420
1958112
100
AcDbLine
 10
-36.81245526846777
 20
92.97764858882515
 30
0.0
 11
-68.45471059286884
 21
72.89686274214118
 31
0.0
  0
LINE
  5
37D
330
17
100
AcDbEntity
  8
0
420
1958369
100
AcDbLine
 10
-36.162457008209245
 20
93.2323801215512
 30
0.0
 11
-67.43023875837238
 21
73.84553406258834
 31
0.0
  0
LINE
  5
37E
330
17
100
AcDbEntity
  8
0
420
1892833
100
AcDbLine
 10
-35.51069624081369
 20
93.48256763960146
 30
0.0
 11
-66.39262126522414
 21
74.77980904985321
 31
0.0
  0
LINE
  5
37F
330
17
100
AcDbEntity
  8
0
420
1893090
100
AcDbLine
 10
-34.85720473218156
 20
93.72819894918915
 30
0.0
 11
-65.34206039901058
 21
75.69950556517561
 31
0.0
  0
LINE
  5
380
330
17
100
AcDbEntity
  8
0
420
1827554
100
AcDbLine
 10
-34.20201433256685
 20
93.96926207859083
 30
0.0
 11
-64.2787609686539
 21
76.60444431189782
 31
0.0
  0
LINE
  5
381
330
17
100
AcDbEntity
  8
0
420
1827811
100
AcDbLine
 10
-33.54515697502552
 20
94.20574527872967
 30
0.0
 11
-63.202930266485126
 21
77.49444887041793
 31
0.0
  0
LINE
  5
382
330
17
100
AcDbEntity
  8
0
420
1762532
100
AcDbLine
 10
-32.886664673858306
 20
94.43763702374811
 30
0.0
 11
-62.11477802783101
 21
78.36934573258401
 31
0.0
  0
LINE
  5
383
330
17
100
AcDbEntity
  8
0
420
1762532
100
AcDbLine
 10
-32.226569523051126
 20
94.66492601156963
 30
0.0
 11
-61.01451639012679
 21
79.22896433551905
 31
0.0
  0
LINE
  5
384
330
17
100
AcDbEntity
  8
0
420
1697253
100
AcDbLine
 10
-31.564903694710228
 20
94.88760116444966
 30
0.0
 11
-59.90235985155855
 21
80.07313709487337
 31
0.0
  0
LINE
  5
385
330
17
100
AcDbEntity
  8
0
420
1697253
100
AcDbLine
 10
-30.901699437494766
 20
95.10565162951535
 30
0.0
 11
-58.77852522924735
 21
80.90169943749473
 31
0.0
  0
LINE
  5
386
330
17
100
AcDbEntity
  8
0
420
1631974
100
AcDbLine
 10
-30.236989075044423
 20
95.3190667792947
 30
0.0
 11
-57.643231616979286
 21
81.71448983351289
 31
0.0
  0
LINE
  5
387
330
17
100
AcDbEntity
  8
0
420
1566438
100
AcDbLine
 10
-29.570805004404686
 20
95.52783621223436
 30
0.0
 11
-56.496700342493824
 21
82.51134982782949
 31
0.0
  0
LINE
  5
388
330
17
100
AcDbEntity
  8
0
420
1566695
100
AcDbLine
 10
-28.903179694447132
 20
95.73194975320673
 30
0.0
 11
-55.339154924334366
 21
83.29212407100998
 31
0.0
  0
LINE
  5
389
330
17
100
AcDbEntity
  8
0
420
1501416
100
AcDbLine
 10
-28.234145684287665
 20
95.93139745400576
 30
0.0
 11
-54.17082102827402
 21
84.05666034956842
 31
0.0
  0
LINE
  5
38A
330
17
100
AcDbEntity
  8
0
420
1501416
100
AcDbLine
 10
-27.563735581699895
 20
96.1261695938319
 30
0.0
 11
-52.99192642332044
 21
84.80480961564263
 31
0.0
  0
LINE
  5
38B
330
17
100
AcDbEntity
  8
0
420
1436137
100
AcDbLine
 10
-26.891982061526587
 20
96.3162566797658
 30
0.0
 11
-51.80270093731305
 21
85.53642601605065
 31
0.0
  0
LINE
  5
38C
330
17
100
AcDbEntity
  8
0
420
1436137
100
AcDbLine
 10
-26.218917864086443
 20
96.50164944723116
 30
0.0
 11
-50.60337641211633
 21
86.25136692072579
 31
0.0
  0
LINE
  5
38D
330
17
100
AcDbEntity
  8
0
420
1370858
100
AcDbLine
 10
-25.54457579357906
 20
96.68233886044594
 30
0.0
 11
-49.394186658423116
 21
86.94949295052189
 31
0.0
  0
LINE
  5
38E
330
17
100
AcDbEntity
  8
0
420
1370858
100
AcDbLine
 10
-24.86898871648544
 20
96.85831611286312
 30
0.0
 11
-48.17536741017147
 21
87.63066800438638
 31
0.0
  0
LINE
  5
38F
330
17
100
AcDbEntity
  8
0
420
1305579
100
AcDbLine
 10
-24.192189559966778
 20
97.02957262759965
 30
0.0
 11
-46.9471562785891
 21
88.29475928589268
 31
0.0
  0
LINE
  5
390
330
17
100
AcDbEntity
  8
0
420
1240043
100
AcDbLine
 10
-23.514211310258972
 20
97.19610005785462
 30
0.0
 11
-45.709792705869354
 21
88.94163732912979
 31
0.0
  0
LINE
  5
391
330
17
100
AcDbEntity
  8
0
420
1240300
100
AcDbLine
 10
-22.835087011065575
 20
97.35789028731602
 30
0.0
 11
-44.46351791849276
 21
89.57117602394126
 31
0.0
  0
LINE
  5
392
330
17
100
AcDbEntity
  8
0
420
1175021
100
AcDbLine
 10
-22.154849761946696
 20
97.51493543055633
 30
0.0
 11
-43.20857488019817
 21
90.18325264051141
 31
0.0
  0
LINE
  5
393
330
17
100
AcDbEntity
  8
0
420
1175021
100
AcDbLine
 10
-21.473532716706316
 20
97.66722783341679
 30
0.0
 11
-41.94520824461772
 21
90.77774785329085
 31
0.0
  0
LINE
  5
394
330
17
100
AcDbEntity
  8
0
420
1109742
100
AcDbLine
 10
-20.79116908177589
 20
97.81476007338057
 30
0.0
 11
-40.67366430757995
 21
91.35454576426012
 31
0.0
  0
LINE
  5
395
330
17
100
AcDbEntity
  8
0
420
1109742
100
AcDbLine
 10
-20.10779211459646
 20
97.9575249599344
 30
0.0
 11
-39.39419095909511
 21
91.91353392552344
 31
0.0
  0
LINE
  5
396
330
17
100
AcDbEntity
  8
0
420
1044463
100
AcDbLine
 10
-19.42343512199715
 20
98.09551553491917
 30
0.0
 11
-38.10703763502734
 21
92.45460336123135
 31
0.0
  0
LINE
  5
397
330
17
100
AcDbEntity
  8
0
420
978927
100
AcDbLine
 10
-18.73813145857246
 20
98.22872507286887
 30
0.0
 11
-36.8124552684678
 21
92.97764858882515
 31
0.0
  0
LINE
  5
398
330
17
100
AcDbEntity
  8
0
420
979184
100
AcDbLine
 10
-18.051914525055953
 20
98.35714708133861
 30
0.0
 11
-35.51069624081363
 21
93.48256763960148
 31
0.0
  0
LINE
  5
399
330
17
100
AcDbEntity
  8
0
420
913648
100
AcDbLine
 10
-17.36481776669303
 20
98.48077530122082
 30
0.0
 11
-34.202014332566876
 21
93.96926207859083
 31
0.0
  0
LINE
  5
39A
330
17
100
AcDbEntity
  8
0
420
913905
100
AcDbLine
 10
-16.67687467161018
 20
98.5996037070505
 30
0.0
 11
-32.88666467385825
 21
94.43763702374814
 31
0.0
  0
LINE
  5
39B
330
17
100
AcDbEntity
  8
0
420
848626
100
AcDbLine
 10
-15.988118769183481
 20
98.71362650729878
 30
0.0
 11
-31.564903694710246
 21
94.88760116444965
 31
0.0
  0
LINE
  5
39C
330
17
100
AcDbEntity
  8
0
420
848626
100
AcDbLine
 10
-15.298583628403758
 20
98.8228381446553
 30
0.0
 11
-30.236989075044367
 21
95.31906677929472
 31
0.0
  0
LINE
  5
39D
330
17
100
AcDbEntity
  8
0
420
783347
100
AcDbLine
 10
-14.60830285624116
 20
98.92723329629884
 30
0.0
 11
-28.903179694447147
 21
95.73194975320673
 31
0.0
  0
LINE
  5
39E
330
17
100
AcDbEntity
  8
0
420
783347
100
AcDbLine
 10
-13.917310096006489
 20
99.02680687415703
 30
0.0
 11
-27.563735581699834
 21
96.12616959383192
 31
0.0
  0
LINE
  5
39F
330
17
100
AcDbEntity
  8
0
420
718068
100
AcDbLine
 10
-13.225639025712233
 20
99.12155402515418
 30
0.0
 11
-26.21891786408646
 21
96.50164944723116
 31
0.0
  0
LINE
  5
3A0
330
17
100
AcDbEntity
  8
0
420
718068
100
AcDbLine
 10
-12.53332335643037
 20
99.21147013144778
 30
0.0
 11
-24.868988716485383
 21
96.85831611286314
 31
0.0
  0
LINE
  5
3A1
330
17
100
AcDbEntity
  8
0
420
652789
100
AcDbLine
 10
-11.840396830650091
 20
99.2965508106537
 30
0.0
 11
-23.514211310258986
 21
97.19610005785462
 31
0.0
  0
LINE
  5
3A2
330
17
100
AcDbEntity
  8
0
420
587510
100
AcDbLine
 10
-11.146893220632485
 20
99.37679191605964
 30
0.0
 11
-22.154849761946622
 21
97.51493543055635
 31
0.0
  0
LINE
  5
3A3
330
17
100
AcDbEntity
  8
0
420
587510
100
AcDbLine
 10
-10.452846326765334
 20
99.45218953682733
 30
0.0
 11
-20.79116908177592
 21
97.81476007338057
 31
0.0
  0
LINE
  5
3A4
330
17
100
AcDbEntity
  8
0
420
522231
100
AcDbLine
 10
-9.758289975914984
 20
99.52273999818311
 30
0.0
 11
-19.42343512199727
 21
98.09551553491914
 31
0.0
  0
LINE
  5
3A5
330
17
100
AcDbEntity
  8
0
420
522231
100
AcDbLine
 10
-9.063258019777996
 20
99.58843986159704
 30
0.0
 11
-18.051914525055984
 21
98.3571470813386
 31
0.0
  0
LINE
  5
3A6
330
17
100
AcDbEntity
  8
0
420
456952
100
AcDbLine
 10
-8.36778433323158
 20
99.64928592495042
 30
0.0
 11
-16.676874671610296
 21
98.59960370705049
 31
0.0
  0
LINE
  5
3A7
330
17
100
AcDbEntity
  8
0
420
456952
100
AcDbLine
 10
-7.671902812681852
 20
99.70527522269202
 30
0.0
 11
-15.298583628403788
 21
98.8228381446553
 31
0.0
  0
LINE
  5
3A8
330
17
100
AcDbEntity
  8
0
420
391673
100
AcDbLine
 10
-6.975647374412554
 20
99.75640502598242
 30
0.0
 11
-13.917310096006604
 21
99.02680687415703
 31
0.0
  0
LINE
  5
3A9
330
17
100
AcDbEntity
  8
0
420
326394
100
AcDbLine
 10
-6.279051952931322
 20
99.80267284282715
 30
0.0
 11
-12.533323356430397
 21
99.21147013144778
 31
0.0
  0
LINE
  5
3AA
330
17
100
AcDbEntity
  8
0
420
326394
100
AcDbLine
 10
-5.582150499316403
 20
99.8440764181981
 30
0.0
 11
-11.1468932206326
 21
99.37679191605963
 31
0.0
  0
LINE
  5
3AB
330
17
100
AcDbEntity
  8
0
420
261115
100
AcDbLine
 10
-4.884976979561309
 20
99.88061373414341
 30
0.0
 11
-9.758289975914911
 21
99.52273999818311
 31
0.0
  0
LINE
  5
3AC
330
17
100
AcDbEntity
  8
0
420
261115
100
AcDbLine
 10
-4.187565372919991
 20
99.91228300988583
 30
0.0
 11
-8.36778433323161
 21
99.64928592495042
 31
0.0
  0
LINE
  5
3AD
330
17
100
AcDbEntity
  8
0
420
195836
100
AcDbLine
 10
-3.48994967025007
 20
99.93908270190957
 30
0.0
 11
-6.975647374412497
 21
99.75640502598243
 31
0.0
  0
LINE
  5
3AE
330
17
100
AcDbEntity
  8
0
420
195836
100
AcDbLine
 10
-2.7921638723569084
 20
99.96101150403544
 30
0.0
 11
-5.582150499316431
 21
99.8440764181981
 31
0.0
  0
LINE
  5
3AF
330
17
100
AcDbEntity
  8
0
420
130557
100
AcDbLine
 10
-2.094241988335672
 20
99.97806834748455
 30
0.0
 11
-4.187565372919918
 21
99.91228300988583
 31
0.0
  0
LINE
  5
3B0
330
17
100
AcDbEntity
  8
0
420
130557
100
AcDbLine
 10
-1.396218033914543
 20
99.99025240093043
 30
0.0
 11
-2.7921638723569377
 21
99.96101150403544
 31
0.0
  0
LINE
  5
3B1
330
17
100
AcDbEntity
  8
0
420
65278
100
AcDbLine
 10
-0.6981260297961261
 20
99.99756307053947
 30
0.0
 11
-1.396218033914485
 21
99.99025240093043
 31
0.0
  0
ENDSEC
  0
SECTION
  2
OBJECTS
  0
DICTIONARY
  5
A
330
0
100
AcDbDictionary
281
1
  3
ACAD_COLOR
350
B
  3
ACAD_GROUP
350
C
  3
ACAD_LAYOUT
350
D
  3
ACAD_MATERIAL
350
E
  3
ACAD_MLEADERSTYLE
350
F
  3
ACAD_MLINESTYLE
350
10
  3
ACAD_PLOTSETTINGS
350
11
  3
ACAD_PLOTSTYLENAME
350
12
  3
ACAD_SCALELIST
350
14
  3
ACAD_TABLESTYLE
350
15
  3
ACAD_VISUALSTYLE
350
16
  0
DICTIONARY
  5
B
330
A
100
AcDbDictionary
281
1
  0
DICTIONARY
  5
C
330
A
100
AcDbDictionary
281
1
  0
DICTIONARY
  5
D
330
A
100
AcDbDictionary
281
1
  3
Model
350
1A
  3
Layout1
350
1E
  0
DICTIONARY
  5
E
330
A
100
AcDbDictionary
281
1
  3
ByBlock
350
1F
  3
ByLayer
350
20
  3
Global
350
21
  0
DICTIONARY
  5
F
330
A
100
AcDbDictionary
281
1
  3
Standard
350
2C
  0
DICTIONARY
  5
10
330
A
100
AcDbDictionary
281
1
  3
Standard
350
22
  0
DICTIONARY
  5
11
330
A
100
AcDbDictionary
281
1
  0
ACDBDICTIONARYWDFLT
  5
12
330
A
100
AcDbDictionary
281
1
  3
Normal
350
13
100
AcDbDictionaryWithDefault
340
13
  0
ACDBPLACEHOLDER
  5
13
330
12
  0
DICTIONARY
  5
14
330
A
100
AcDbDictionary
281
1
  0
DICTIONARY
  5
15
330
A
100
AcDbDictionary
281
1
  0
DICTIONARY
  5
16
330
A
100
AcDbDictionary
281
1
  0
LAYOUT
  5
1A
330
D
100
AcDbPlotSettings
  1

  2
Adobe PDF
  4
A4
  6

 40
3.175
 41
3.175
 42
3.175
 43
3.175
 44
209.91
 45
297.03
 46
0.0
 47
0.0
 48
0.0
 49
0.0
140
0.0
141
0.0
142
1.0
143
1.0
 70
688
 72
0
 73
1
 74
5
  7

 75
16
 76
0
 77
2
 78
300
147
1.0
148
0.0
149
0.0
100
AcDbLayout
  1
Model
 70
1
 71
0
 10
-3.175
 20
-3.175
 11
293.857
 21
206.735
 12
0.0
 22
0.0
 32
0.0
 14
29.068
 24
20.356
 34
0.0
 15
261.614
 25
183.204
 35
0.0
146
0.0
 13
0.0
 23
0.0
 33
0.0
 16
1.0
 26
0.0
 36
0.0
 17
0.0
 27
1.0
 37
0.0
 76
1
330
17
  0
LAYOUT
  5
1E
330
D
100
AcDbPlotSettings
  1

  2
Adobe PDF
  4
A4
  6

 40
3.175
 41
3.175
 42
3.175
 43
3.175
 44
209.91
 45
297.03
 46
0.0
 47
0.0
 48
0.0
 49
0.0
140
0.0
141
0.0
142
1.0
143
1.0
 70
688
 72
0
 73
1
 74
5
  7

 75
16
 76
0
 77
2
 78
300
147
1.0
148
0.0
149
0.0
100
AcDbLayout
  1
Layout1
 70
1
 71
1
 10
-3.175
 20
-3.175
 11
293.857
 21
206.735
 12
0.0
 22
0.0
 32
0.0
 14
29.068
 24
20.356
 34
0.0
 15
261.614
 25
183.204
 35
0.0
146
0.0
 13
0.0
 23
0.0
 33
0.0
 16
1.0
 26
0.0
 36
0.0
 17
0.0
 27
1.0
 37
0.0
 76
1
330
1B
  0
MATERIAL
  5
1F
102
{ACAD_REACTORS
330
E
102
}
330
E
100
AcDbMaterial
  1
ByBlock
  2

 70
0
 40
1.0
 71
1
 41
1.0
 91
-1023410177
 42
1.0
 72
1
  3

 73
1
 74
1
 75
1
 44
0.5
 73
0
 45
1.0
 46
1.0
 77
1
  4

 78
1
 79
1
170
1
 48
1.0
171
1
  6

172
1
173
1
174
1
140
1.0
141
1.0
175
1
  7

176
1
177
1
178
1
143
1.0
179
1
  8

270
1
271
1
272
1
145
1.0
146
1.0
273
1
  9

274
1
275
1
276
1
 42
1.0
 72
1
  3

 73
1
 74
1
 75
1
 94
63
  0
MATERIAL
  5
20
102
{ACAD_REACTORS
330
E
102
}
330
E
100
AcDbMaterial
  1
ByLayer
  2

 70
0
 40
1.0
 71
1
 41
1.0
 91
-1023410177
 42
1.0
 72
1
  3

 73
1
 74
1
 75
1
 44
0.5
 73
0
 45
1.0
 46
1.0
 77
1
  4

 78
1
 79
1
170
1
 48
1.0
171
1
  6

172
1
173
1
174
1
140
1.0
141
1.0
175
1
  7

176
1
177
1
178
1
143
1.0
179
1
  8

270
1
271
1
272
1
145
1.0
146
1.0
273
1
  9

274
1
275
1
276
1
 42
1.0
 72
1
  3

 73
1
 74
1
 75
1
 94
63
  0
MATERIAL
  5
21
102
{ACAD_REACTORS
330
E
102
}
330
E
100
AcDbMaterial
  1
Global
  2

 70
0
 40
1.0
 71
1
 41
1.0
 91
-1023410177
 42
1.0
 72
1
  3

 73
1
 74
1
 75
1
 44
0.5
 73
0
 45
1.0
 46
1.0
 77
1
  4

 78
1
 79
1
170
1
 48
1.0
171
1
  6

172
1
173
1
174
1
140
1.0
141
1.0
175
1
  7

176
1
177
1
178
1
143
1.0
179
1
  8

270
1
271
1
272
1
145
1.0
146
1.0
273
1
  9

274
1
275
1
276
1
 42
1.0
 72
1
  3

 73
1
 74
1
 75
1
 94
63
  0
MLINESTYLE
  5
22
102
{ACAD_REACTORS
330
10
102
}
330
10
100
AcDbMlineStyle
  2
Standard
 70
0
  3

 62
256
 51
90.0
 52
90.0
 71
2
 49
0.5
 62
256
  6
BYLAYER
 49
-0.5
 62
256
  6
BYLAYER
  0
MLEADERSTYLE
  5
2C
102
{ACAD_REACTORS
330
F
102
}
330
F
100
AcDbMLeaderStyle
179
2
170
2
171
1
172
0
 90
2
 40
0.0
 41
0.0
173
1
 91
-1056964608
 92
-2
290
1
 42
2.0
291
1
 43
8.0
  3
Standard
 44
4.0
300

342
29
174
1
175
1
176
0
178
1
 93
-1056964608
 45
4.0
292
0
297
0
 46
4.0
 94
-1056964608
 47
1.0
 49
0.0
140
1.0
294
1
141
0.0
177
0
142
1.0
295
0
296
0
143
3.75
271
0
272
9
272
9
  0
ENDSEC
  0
EOF
