  0
SECTION
  2
HEADER
  9
$ACADVER
  1
AC1018
  9
$ACADMAINTVER
 70
0
  9
$DWGCODEPAGE
  3
ANSI_1252
  9
$LASTSAVEDBY
  1
ezdxf
  9
$INSBASE
 10
0.0
 20
0.0
 30
0.0
  9
$EXTMIN
 10
-100
 20
-100
 30
-100
  9
$EXTMAX
 10
100
 20
100
 30
100
  9
$LIMMIN
 10
0.0
 20
0.0
  9
$LIMMAX
 10
420.0
 20
297.0
  9
$ORTHOMODE
 70
0
  9
$REGENMODE
 70
1
  9
$FILLMODE
 70
1
  9
$QTEXTMODE
 70
0
  9
$MIRRTEXT
 70
1
  9
$LTSCALE
 40
1.0
  9
$ATTMODE
 70
1
  9
$TEXTSIZE
 40
2.5
  9
$TRACEWID
 40
1.0
  9
$TEXTSTYLE
  7
Standard
  9
$CLAYER
  8
0
  9
$CELTYPE
  6
ByLayer
  9
$CECOLOR
 62
256
  9
$CELTSCALE
 40
1.0
  9
$DISPSILH
 70
0
  9
$DIMSCALE
 40
1.0
  9
$DIMASZ
 40
2.5
  9
$DIMEXO
 40
0.625
  9
$DIMDLI
 40
3.75
  9
$DIMRND
 40
0.0
  9
$DIMDLE
 40
0.0
  9
$DIMEXE
 40
1.25
  9
$DIMTP
 40
0.0
  9
$DIMTM
 40
0.0
  9
$DIMTXT
 40
2.5
  9
$DIMCEN
 40
2.5
  9
$DIMTSZ
 40
0.0
  9
$DIMTOL
 70
0
  9
$DIMLIM
 70
0
  9
$DIMTIH
 70
0
  9
$DIMTOH
 70
0
  9
$DIMSE1
 70
0
  9
$DIMSE2
 70
0
  9
$DIMTAD
 70
1
  9
$DIMZIN
 70
8
  9
$DIMBLK
  1

  9
$DIMASO
 70
1
  9
$DIMSHO
 70
1
  9
$DIMPOST
  1

  9
$DIMAPOST
  1

  9
$DIMALT
 70
0
  9
$DIMALTD
 70
3
  9
$DIMALTF
 40
0.03937007874
  9
$DIMLFAC
 40
1.0
  9
$DIMTOFL
 70
1
  9
$DIMTVP
 40
0.0
  9
$DIMTIX
 70
0
  9
$DIMSOXD
 70
0
  9
$DIMSAH
 70
0
  9
$DIMBLK1
  1

  9
$DIMBLK2
  1

  9
$DIMSTYLE
  2
ISO-25
  9
$DIMCLRD
 70
0
  9
$DIMCLRE
 70
0
  9
$DIMCLRT
 70
0
  9
$DIMTFAC
 40
1.0
  9
$DIMGAP
 40
0.625
  9
$DIMJUST
 70
0
  9
$DIMSD1
 70
0
  9
$DIMSD2
 70
0
  9
$DIMTOLJ
 70
0
  9
$DIMTZIN
 70
8
  9
$DIMALTZ
 70
0
  9
$DIMALTTZ
 70
0
  9
$DIMUPT
 70
0
  9
$DIMDEC
 70
2
  9
$DIMTDEC
 70
2
  9
$DIMALTU
 70
2
  9
$DIMALTTD
 70
3
  9
$DIMTXSTY
  7
Standard
  9
$DIMAUNIT
 70
0
  9
$DIMADEC
 70
0
  9
$DIMALTRND
 40
0.0
  9
$DIMAZIN
 70
0
  9
$DIMDSEP
 70
44
  9
$DIMATFIT
 70
3
  9
$DIMFRAC
 70
0
  9
$DIMLDRBLK
  1

  9
$DIMLUNIT
 70
2
  9
$DIMLWD
 70
-2
  9
$DIMLWE
 70
-2
  9
$DIMTMOVE
 70
0
  9
$LUNITS
 70
2
  9
$LUPREC
 70
4
  9
$SKETCHINC
 40
1.0
  9
$FILLETRAD
 40
10.0
  9
$AUNITS
 70
0
  9
$AUPREC
 70
2
  9
$MENU
  1
.
  9
$ELEVATION
 40
0.0
  9
$PELEVATION
 40
0.0
  9
$THICKNESS
 40
0.0
  9
$LIMCHECK
 70
0
  9
$CHAMFERA
 40
0.0
  9
$CHAMFERB
 40
0.0
  9
$CHAMFERC
 40
0.0
  9
$CHAMFERD
 40
0.0
  9
$SKPOLY
 70
0
  9
$TDCREATE
 40
2458924.5286574075
  9
$TDUCREATE
 40
2458532.153996898
  9
$TDUPDATE
 40
2458924.5286574075
  9
$TDUUPDATE
 40
2458532.1544311
  9
$TDINDWG
 40
0.0
  9
$TDUSRTIMER
 40
0.0
  9
$USRTIMER
 70
1
  9
$ANGBASE
 50
0.0
  9
$ANGDIR
 70
0
  9
$PDMODE
 70
0
  9
$PDSIZE
 40
0.0
  9
$PLINEWID
 40
0.0
  9
$SPLFRAME
 70
0
  9
$SPLINETYPE
 70
6
  9
$SPLINESEGS
 70
8
  9
$HANDSEED
  5
222
  9
$SURFTAB1
 70
6
  9
$SURFTAB2
 70
6
  9
$SURFTYPE
 70
6
  9
$SURFU
 70
6
  9
$SURFV
 70
6
  9
$UCSBASE
  2

  9
$UCSNAME
  2

  9
$UCSORG
 10
0.0
 20
0.0
 30
0.0
  9
$UCSXDIR
 10
1.0
 20
0.0
 30
0.0
  9
$UCSYDIR
 10
0.0
 20
1.0
 30
0.0
  9
$UCSORTHOREF
  2

  9
$UCSORTHOVIEW
 70
0
  9
$UCSORGTOP
 10
0.0
 20
0.0
 30
0.0
  9
$UCSORGBOTTOM
 10
0.0
 20
0.0
 30
0.0
  9
$UCSORGLEFT
 10
0.0
 20
0.0
 30
0.0
  9
$UCSORGRIGHT
 10
0.0
 20
0.0
 30
0.0
  9
$UCSORGFRONT
 10
0.0
 20
0.0
 30
0.0
  9
$UCSORGBACK
 10
0.0
 20
0.0
 30
0.0
  9
$PUCSBASE
  2

  9
$PUCSNAME
  2

  9
$PUCSORG
 10
0.0
 20
0.0
 30
0.0
  9
$PUCSXDIR
 10
1.0
 20
0.0
 30
0.0
  9
$PUCSYDIR
 10
0.0
 20
1.0
 30
0.0
  9
$PUCSORTHOREF
  2

  9
$PUCSORTHOVIEW
 70
0
  9
$PUCSORGTOP
 10
0.0
 20
0.0
 30
0.0
  9
$PUCSORGBOTTOM
 10
0.0
 20
0.0
 30
0.0
  9
$PUCSORGLEFT
 10
0.0
 20
0.0
 30
0.0
  9
$PUCSORGRIGHT
 10
0.0
 20
0.0
 30
0.0
  9
$PUCSORGFRONT
 10
0.0
 20
0.0
 30
0.0
  9
$PUCSORGBACK
 10
0.0
 20
0.0
 30
0.0
  9
$USERI1
 70
0
  9
$USERI2
 70
0
  9
$USERI3
 70
0
  9
$USERI4
 70
0
  9
$USERI5
 70
0
  9
$USERR1
 40
0.0
  9
$USERR2
 40
0.0
  9
$USERR3
 40
0.0
  9
$USERR4
 40
0.0
  9
$USERR5
 40
0.0
  9
$WORLDVIEW
 70
1
  9
$SHADEDGE
 70
3
  9
$SHADEDIF
 70
70
  9
$TILEMODE
 70
1
  9
$MAXACTVP
 70
64
  9
$PINSBASE
 10
0.0
 20
0.0
 30
0.0
  9
$PLIMCHECK
 70
0
  9
$PEXTMIN
 10
1e+20
 20
1e+20
 30
1e+20
  9
$PEXTMAX
 10
-1e+20
 20
-1e+20
 30
-1e+20
  9
$PLIMMIN
 10
0.0
 20
0.0
  9
$PLIMMAX
 10
420.0
 20
297.0
  9
$UNITMODE
 70
0
  9
$VISRETAIN
 70
1
  9
$PLINEGEN
 70
0
  9
$PSLTSCALE
 70
1
  9
$TREEDEPTH
 70
3020
  9
$CMLSTYLE
  2
Standard
  9
$CMLJUST
 70
0
  9
$CMLSCALE
 40
20.0
  9
$PROXYGRAPHICS
 70
1
  9
$MEASUREMENT
 70
1
  9
$CELWEIGHT
370
-1
  9
$ENDCAPS
280
0
  9
$JOINSTYLE
280
0
  9
$LWDISPLAY
290
0
  9
$INSUNITS
 70
6
  9
$HYPERLINKBASE
  1

  9
$STYLESHEET
  1

  9
$XEDIT
290
1
  9
$CEPSNTYPE
380
0
  9
$PSTYLEMODE
290
1
  9
$FINGERPRINTGUID
  2
E17337D1-66B1-11EA-8A0C-8C89A57128BD
  9
$VERSIONGUID
  2
E19936F0-66B1-11EA-BCDF-8C89A57128BD
  9
$EXTNAMES
290
1
  9
$PSVPSCALE
 40
0.0
  9
$OLESTARTUP
290
0
  9
$SORTENTS
280
127
  9
$INDEXCTL
280
0
  9
$HIDETEXT
280
1
  9
$XCLIPFRAME
280
2
  9
$HALOGAP
280
0
  9
$OBSCOLOR
 70
257
  9
$OBSLTYPE
280
0
  9
$INTERSECTIONDISPLAY
280
0
  9
$INTERSECTIONCOLOR
 70
257
  9
$DIMASSOC
280
2
  9
$PROJECTNAME
  1

  0
ENDSEC
  0
SECTION
  2
CLASSES
  0
CLASS
  1
ACDBDICTIONARYWDFLT
  2
AcDbDictionaryWithDefault
  3
ObjectDBX Classes
 90
0
 91
0
280
0
281
0
  0
CLASS
  1
SUN
  2
AcDbSun
  3
SCENEOE
 90
1153
 91
0
280
0
281
0
  0
CLASS
  1
VISUALSTYLE
  2
AcDbVisualStyle
  3
ObjectDBX Classes
 90
4095
 91
0
280
0
281
0
  0
CLASS
  1
MATERIAL
  2
AcDbMaterial
  3
ObjectDBX Classes
 90
1153
 91
0
280
0
281
0
  0
CLASS
  1
SCALE
  2
AcDbScale
  3
ObjectDBX Classes
 90
1153
 91
0
280
0
281
0
  0
CLASS
  1
TABLESTYLE
  2
AcDbTableStyle
  3
ObjectDBX Classes
 90
4095
 91
0
280
0
281
0
  0
CLASS
  1
MLEADERSTYLE
  2
AcDbMLeaderStyle
  3
ACDB_MLEADERSTYLE_CLASS
 90
4095
 91
0
280
0
281
0
  0
CLASS
  1
DICTIONARYVAR
  2
AcDbDictionaryVar
  3
ObjectDBX Classes
 90
0
 91
0
280
0
281
0
  0
CLASS
  1
CELLSTYLEMAP
  2
AcDbCellStyleMap
  3
ObjectDBX Classes
 90
1152
 91
0
280
0
281
0
  0
CLASS
  1
MENTALRAYRENDERSETTINGS
  2
AcDbMentalRayRenderSettings
  3
SCENEOE
 90
1024
 91
0
280
0
281
0
  0
CLASS
  1
ACDBDETAILVIEWSTYLE
  2
AcDbDetailViewStyle
  3
ObjectDBX Classes
 90
1025
 91
0
280
0
281
0
  0
CLASS
  1
ACDBSECTIONVIEWSTYLE
  2
AcDbSectionViewStyle
  3
ObjectDBX Classes
 90
1025
 91
0
280
0
281
0
  0
CLASS
  1
RASTERVARIABLES
  2
AcDbRasterVariables
  3
ISM
 90
0
 91
0
280
0
281
0
  0
CLASS
  1
ACDBPLACEHOLDER
  2
AcDbPlaceHolder
  3
ObjectDBX Classes
 90
0
 91
0
280
0
281
0
  0
CLASS
  1
LAYOUT
  2
AcDbLayout
  3
ObjectDBX Classes
 90
0
 91
0
280
0
281
0
  0
ENDSEC
  0
SECTION
  2
TABLES
  0
TABLE
  2
VPORT
  5
8
330
0
100
AcDbSymbolTable
 70
1
  0
VPORT
  5
23
330
8
100
AcDbSymbolTableRecord
100
AcDbViewportTableRecord
  2
*Active
 70
0
 10
0.0
 20
0.0
 11
1.0
 21
1.0
 12
70.0
 22
50.0
 13
0.0
 23
0.0
 14
0.5
 24
0.5
 15
0.5
 25
0.5
 16
0.0
 26
0.0
 36
1.0
 17
0.0
 27
0.0
 37
0.0
 40
1.0
 41
1.34
 42
50.0
 43
0.0
 44
0.0
 50
0.0
 51
0.0
 71
0
 72
1000
 73
1
 74
3
 75
0
 76
0
 77
0
 78
0
281
0
 65
0
146
0.0
  0
ENDTAB
  0
TABLE
  2
LTYPE
  5
2
330
0
100
AcDbSymbolTable
 70
3
  0
LTYPE
  5
24
330
2
100
AcDbSymbolTableRecord
100
AcDbLinetypeTableRecord
  2
ByBlock
 70
0
  3

 72
65
 73
0
 40
0.0
  0
LTYPE
  5
25
330
2
100
AcDbSymbolTableRecord
100
AcDbLinetypeTableRecord
  2
ByLayer
 70
0
  3

 72
65
 73
0
 40
0.0
  0
LTYPE
  5
26
330
2
100
AcDbSymbolTableRecord
100
AcDbLinetypeTableRecord
  2
Continuous
 70
0
  3

 72
65
 73
0
 40
0.0
  0
ENDTAB
  0
TABLE
  2
LAYER
  5
1
330
0
100
AcDbSymbolTable
 70
2
  0
LAYER
  5
27
330
1
100
AcDbSymbolTableRecord
100
AcDbLayerTableRecord
  2
0
 70
0
 62
7
  6
Continuous
370
-3
390
13
  0
LAYER
  5
28
330
1
100
AcDbSymbolTableRecord
100
AcDbLayerTableRecord
  2
Defpoints
 70
0
 62
7
  6
Continuous
290
0
370
-3
390
13
  0
ENDTAB
  0
TABLE
  2
STYLE
  5
5
330
0
100
AcDbSymbolTable
 70
1
  0
STYLE
  5
29
330
5
100
AcDbSymbolTableRecord
100
AcDbTextStyleTableRecord
  2
Standard
 70
0
 40
0.0
 41
1.0
 50
0.0
 71
0
 42
2.5
  3
txt
  4

  0
ENDTAB
  0
TABLE
  2
VIEW
  5
7
330
0
100
AcDbSymbolTable
 70
0
  0
ENDTAB
  0
TABLE
  2
UCS
  5
6
330
0
100
AcDbSymbolTable
 70
0
  0
ENDTAB
  0
TABLE
  2
APPID
  5
3
330
0
100
AcDbSymbolTable
 70
1
  0
APPID
  5
2A
330
3
100
AcDbSymbolTableRecord
100
AcDbRegAppTableRecord
  2
ACAD
 70
0
  0
ENDTAB
  0
TABLE
  2
DIMSTYLE
  5
4
330
0
100
AcDbSymbolTable
 70
1
100
AcDbDimStyleTable
  0
DIMSTYLE
105
2B
330
4
100
AcDbSymbolTableRecord
100
AcDbDimStyleTableRecord
  2
Standard
 70
0
  3

  4

 40
1.0
 41
2.5
 42
0.625
 43
3.75
 44
1.25
 45
0.0
 46
0.0
 47
0.0
 48
0.0
140
2.5
141
2.5
142
0.0
143
0.03937007874
144
1.0
145
0.0
146
1.0
147
0.625
148
0.0
 71
0
 72
0
 73
0
 74
0
 75
0
 76
0
 77
1
 78
8
 79
0
170
0
171
3
172
1
173
0
174
0
175
0
176
0
177
0
178
0
179
0
271
0
272
2
273
2
274
3
275
0
276
0
277
2
278
44
279
0
280
0
281
0
282
0
283
0
284
8
285
0
286
0
288
0
289
3
371
-2
372
-2
  0
ENDTAB
  0
TABLE
  2
BLOCK_RECORD
  5
9
330
0
100
AcDbSymbolTable
 70
2
  0
BLOCK_RECORD
  5
17
330
9
100
AcDbSymbolTableRecord
100
AcDbBlockTableRecord
  2
*Model_Space
340
1A
  0
BLOCK_RECORD
  5
1B
330
9
100
AcDbSymbolTableRecord
100
AcDbBlockTableRecord
  2
*Paper_Space
340
1E
  0
ENDTAB
  0
ENDSEC
  0
SECTION
  2
BLOCKS
  0
BLOCK
  5
18
330
17
100
AcDbEntity
  8
0
100
AcDbBlockBegin
  2
*Model_Space
 70
0
 10
0.0
 20
0.0
 30
0.0
  3
*Model_Space
  1

  0
ENDBLK
  5
19
330
17
100
AcDbEntity
  8
0
100
AcDbBlockEnd
  0
BLOCK
  5
1C
330
1B
100
AcDbEntity
  8
0
100
AcDbBlockBegin
  2
*Paper_Space
 70
0
 10
0.0
 20
0.0
 30
0.0
  3
*Paper_Space
  1

  0
ENDBLK
  5
1D
330
1B
100
AcDbEntity
  8
0
100
AcDbBlockEnd
  0
ENDSEC
  0
SECTION
  2
ENTITIES
  0
CIRCLE
  5
2D
330
17
100
AcDbEntity
  8
0
100
AcDbCircle
 10
0.0
 20
0.0
 30
0.0
 40
100.0
  0
LINE
  5
2E
330
17
100
AcDbEntity
  8
0
420
65535
100
AcDbLine
 10
0.0
 20
100.0
 30
0.0
 11
0.0
 21
100.0
 31
0.0
  0
LINE
  5
2F
330
17
100
AcDbEntity
  8
0
420
130557
100
AcDbLine
 10
1.2566039883352833
 20
99.99210442038161
 30
0.0
 11
2.5130095443337703
 21
99.96841892833001
 31
0.0
  0
LINE
  5
30
330
17
100
AcDbEntity
  8
0
420
261115
100
AcDbLine
 10
2.513009544333757
 20
99.96841892833001
 30
0.0
 11
5.0244318179769545
 21
99.87369566060174
 31
0.0
  0
LINE
  5
31
330
17
100
AcDbEntity
  8
0
420
326394
100
AcDbLine
 10
3.7690182669934726
 20
99.92894726405892
 30
0.0
 11
7.53268055279329
 21
99.7158900260614
 31
0.0
  0
LINE
  5
32
330
17
100
AcDbEntity
  8
0
420
456952
100
AcDbLine
 10
5.0244318179769545
 20
99.87369566060174
 30
0.0
 11
10.036171485121487
 21
99.49510169813001
 31
0.0
  0
LINE
  5
33
330
17
100
AcDbEntity
  8
0
420
522231
100
AcDbLine
 10
6.279051952931358
 20
99.80267284282715
 30
0.0
 11
12.533323356430445
 21
99.21147013144778
 31
0.0
  0
LINE
  5
34
330
17
100
AcDbEntity
  8
0
420
652789
100
AcDbLine
 10
7.532680552793278
 20
99.7158900260614
 30
0.0
 11
15.022558912075706
 21
98.86517447379141
 31
0.0
  0
LINE
  5
35
330
17
100
AcDbEntity
  8
0
420
783347
100
AcDbLine
 10
8.785119655074327
 20
99.61336091431725
 30
0.0
 11
17.502305897527616
 21
98.45643345292054
 31
0.0
  0
LINE
  5
36
330
17
100
AcDbEntity
  8
0
420
848626
100
AcDbLine
 10
10.036171485121487
 20
99.49510169813001
 30
0.0
 11
19.9709980514407
 21
97.98550523842468
 31
0.0
  0
LINE
  5
37
330
17
100
AcDbEntity
  8
0
420
979184
100
AcDbLine
 10
11.285638487348187
 20
99.36113105200084
 30
0.0
 11
22.42707609493813
 21
97.4526872786577
 31
0.0
  0
LINE
  5
38
330
17
100
AcDbEntity
  8
0
420
1044463
100
AcDbLine
 10
12.533323356430435
 20
99.21147013144778
 30
0.0
 11
24.86898871648547
 21
96.85831611286311
 31
0.0
  0
LINE
  5
39
330
17
100
AcDbEntity
  8
0
420
1175021
100
AcDbLine
 10
13.779029068463815
 20
99.04614256966512
 30
0.0
 11
27.29519355173255
 21
96.20276715860858
 31
0.0
  0
LINE
  5
3A
330
17
100
AcDbEntity
  8
0
420
1305579
100
AcDbLine
 10
15.022558912075706
 20
98.86517447379141
 30
0.0
 11
29.704158157703485
 21
95.4864544746643
 31
0.0
  0
LINE
  5
3B
330
17
100
AcDbEntity
  8
0
420
1370858
100
AcDbLine
 10
16.26371651948837
 20
98.6685944207868
 30
0.0
 11
32.09436098072097
 21
94.70983049947444
 31
0.0
  0
LINE
  5
3C
330
17
100
AcDbEntity
  8
0
420
1501416
100
AcDbLine
 10
17.502305897527602
 20
98.45643345292054
 30
0.0
 11
34.46429231745171
 21
93.87338576538741
 31
0.0
  0
LINE
  5
3D
330
17
100
AcDbEntity
  8
0
420
1566695
100
AcDbLine
 10
18.73813145857248
 20
98.22872507286885
 30
0.0
 11
36.8124552684678
 21
92.97764858882513
 31
0.0
  0
LINE
  5
3E
330
17
100
AcDbEntity
  8
0
420
1697253
100
AcDbLine
 10
19.9709980514407
 20
97.98550523842468
 30
0.0
 11
39.137366683720245
 21
92.02318473658704
 31
0.0
  0
LINE
  5
3F
330
17
100
AcDbEntity
  8
0
420
1762532
100
AcDbLine
 10
21.20071099220548
 20
97.72681235681935
 30
0.0
 11
41.43755809932844
 21
91.01059706849956
 31
0.0
  0
LINE
  5
40
330
17
100
AcDbEntity
  8
0
420
1893090
100
AcDbLine
 10
22.42707609493813
 20
97.4526872786577
 30
0.0
 11
43.71157666509328
 21
89.94052515663711
 31
0.0
  0
LINE
  5
41
330
17
100
AcDbEntity
  8
0
420
2023648
100
AcDbLine
 10
23.64989970237247
 20
97.16317329146739
 30
0.0
 11
45.9579860621488
 21
88.81364488135445
 31
0.0
  0
LINE
  5
42
330
17
100
AcDbEntity
  8
0
420
2088927
100
AcDbLine
 10
24.86898871648547
 20
96.85831611286311
 30
0.0
 11
48.17536741017153
 21
87.63066800438637
 31
0.0
  0
LINE
  5
43
330
17
100
AcDbEntity
  8
0
420
2219485
100
AcDbLine
 10
26.084150628989704
 20
96.53816388332739
 30
0.0
 11
50.3623201635761
 21
86.39234171928352
 31
0.0
  0
LINE
  5
44
330
17
100
AcDbEntity
  8
0
420
2350043
100
AcDbLine
 10
27.29519355173255
 20
96.20276715860858
 30
0.0
 11
52.51746299612958
 21
85.09944817946918
 31
0.0
  0
LINE
  5
45
330
17
100
AcDbEntity
  8
0
420
2415322
100
AcDbLine
 10
28.501926246997634
 20
95.85217890173759
 30
0.0
 11
54.639434673426926
 21
83.75280400421417
 31
0.0
  0
LINE
  5
46
330
17
100
AcDbEntity
  8
0
420
2545880
100
AcDbLine
 10
29.704158157703485
 20
95.4864544746643
 30
0.0
 11
56.72689491267564
 21
82.35325976284275
 31
0.0
  0
LINE
  5
47
330
17
100
AcDbEntity
  8
0
420
2611159
100
AcDbLine
 10
30.901699437494745
 20
95.10565162951535
 30
0.0
 11
58.77852522924732
 21
80.90169943749474
 31
0.0
  0
LINE
  5
48
330
17
100
AcDbEntity
  8
0
420
2741717
100
AcDbLine
 10
32.09436098072097
 20
94.70983049947444
 30
0.0
 11
60.793029769460546
 21
79.39903986478352
 31
0.0
  0
LINE
  5
49
330
17
100
AcDbEntity
  8
0
420
2806996
100
AcDbLine
 10
33.28195445229866
 20
94.29905358928644
 30
0.0
 11
62.76913612907005
 21
77.84623015670233
 31
0.0
  0
LINE
  5
4A
330
17
100
AcDbEntity
  8
0
420
2937554
100
AcDbLine
 10
34.46429231745171
 20
93.87338576538741
 30
0.0
 11
64.70559615694445
 21
76.24425110114477
 31
0.0
  0
LINE
  5
4B
330
17
100
AcDbEntity
  8
0
420
3002833
100
AcDbLine
 10
35.64118787132507
 20
93.4328942456612
 30
0.0
 11
66.60118674342517
 21
74.59411454241821
 31
0.0
  0
LINE
  5
4C
330
17
100
AcDbEntity
  8
0
420
3133391
100
AcDbLine
 10
36.8124552684678
 20
92.97764858882513
 30
0.0
 11
68.4547105928689
 21
72.89686274214114
 31
0.0
  0
LINE
  5
4D
330
17
100
AcDbEntity
  8
0
420
3263949
100
AcDbLine
 10
37.9779095521801
 20
92.50772068344581
 30
0.0
 11
70.26499697988491
 21
71.15356772092855
 31
0.0
  0
LINE
  5
4E
330
17
100
AcDbEntity
  8
0
420
3329228
100
AcDbLine
 10
39.137366683720266
 20
92.02318473658703
 30
0.0
 11
72.03090248879069
 21
69.36533058128047
 31
0.0
  0
LINE
  5
4F
330
17
100
AcDbEntity
  8
0
420
3459786
100
AcDbLine
 10
40.290643571366275
 20
91.52411726209175
 30
0.0
 11
73.75131173581737
 21
67.53328081210245
 31
0.0
  0
LINE
  5
50
330
17
100
AcDbEntity
  8
0
420
3525065
100
AcDbLine
 10
41.43755809932844
 20
91.01059706849956
 30
0.0
 11
75.42513807361038
 21
65.65857557529563
 31
0.0
  0
LINE
  5
51
330
17
100
AcDbEntity
  8
0
420
3655623
100
AcDbLine
 10
42.57792915650727
 20
90.48270524660195
 30
0.0
 11
77.05132427757891
 21
63.742398974868976
 31
0.0
  0
LINE
  5
52
330
17
100
AcDbEntity
  8
0
420
3786181
100
AcDbLine
 10
43.711576665093304
 20
89.9405251566371
 30
0.0
 11
78.6288432136619
 21
61.785961309033425
 31
0.0
  0
LINE
  5
53
330
17
100
AcDbEntity
  8
0
420
3851460
100
AcDbLine
 10
44.83832160900321
 20
89.38414241512638
 30
0.0
 11
80.15669848708764
 21
59.790498305751896
 31
0.0
  0
LINE
  5
54
330
17
100
AcDbEntity
  8
0
420
3982018
100
AcDbLine
 10
45.9579860621488
 20
88.81364488135445
 30
0.0
 11
81.63392507171842
 21
57.757270342226754
 31
0.0
  0
LINE
  5
55
330
17
100
AcDbEntity
  8
0
420
4047297
100
AcDbLine
 10
47.070393216533276
 20
88.2291226434953
 30
0.0
 11
83.05958991958128
 21
55.68756164881877
 31
0.0
  0
LINE
  5
56
330
17
100
AcDbEntity
  8
0
420
4177855
100
AcDbLine
 10
48.17536741017153
 20
87.63066800438637
 30
0.0
 11
84.43279255020151
 21
53.582679497899655
 31
0.0
  0
LINE
  5
57
330
17
100
AcDbEntity
  8
0
420
4243134
100
AcDbLine
 10
49.27273415482915
 20
87.01837546695256
 30
0.0
 11
85.75266561936522
 21
51.44395337815065
 31
0.0
  0
LINE
  5
58
330
17
100
AcDbEntity
  8
0
420
4373692
100
AcDbLine
 10
50.3623201635761
 20
86.39234171928352
 30
0.0
 11
87.01837546695256
 21
49.27273415482915
 31
0.0
  0
LINE
  5
59
330
17
100
AcDbEntity
  8
0
420
4438971
100
AcDbLine
 10
51.44395337815065
 20
85.75266561936522
 30
0.0
 11
88.22912264349534
 21
47.070393216533226
 31
0.0
  0
LINE
  5
5A
330
17
100
AcDbEntity
  8
0
420
4569529
100
AcDbLine
 10
52.51746299612958
 20
85.09944817946918
 30
0.0
 11
89.38414241512638
 21
44.838321609003216
 31
0.0
  0
LINE
  5
5B
330
17
100
AcDbEntity
  8
0
420
4700087
100
AcDbLine
 10
53.58267949789964
 20
84.43279255020151
 30
0.0
 11
90.48270524660195
 21
42.577929156507274
 31
0.0
  0
LINE
  5
5C
330
17
100
AcDbEntity
  8
0
420
4765366
100
AcDbLine
 10
54.639434673426926
 20
83.75280400421417
 30
0.0
 11
91.52411726209175
 21
40.29064357136626
 31
0.0
  0
LINE
  5
5D
330
17
100
AcDbEntity
  8
0
420
4895924
100
AcDbLine
 10
55.687561648818814
 20
83.05958991958126
 30
0.0
 11
92.5077206834458
 21
37.9779095521801
 31
0.0
  0
LINE
  5
5E
330
17
100
AcDbEntity
  8
0
420
4961203
100
AcDbLine
 10
56.72689491267564
 20
82.35325976284274
 30
0.0
 11
93.4328942456612
 21
35.64118787132507
 31
0.0
  0
LINE
  5
5F
330
17
100
AcDbEntity
  8
0
420
5091761
100
AcDbLine
 10
57.757270342226754
 20
81.6339250717184
 30
0.0
 11
94.29905358928646
 21
33.28195445229866
 31
0.0
  0
LINE
  5
60
330
17
100
AcDbEntity
  8
0
420
5157040
100
AcDbLine
 10
58.77852522924732
 20
80.90169943749474
 30
0.0
 11
95.10565162951538
 21
30.901699437494745
 31
0.0
  0
LINE
  5
61
330
17
100
AcDbEntity
  8
0
420
5287598
100
AcDbLine
 10
59.79049830575188
 20
80.15669848708765
 30
0.0
 11
95.85217890173757
 21
28.501926246997606
 31
0.0
  0
LINE
  5
62
330
17
100
AcDbEntity
  8
0
420
5352877
100
AcDbLine
 10
60.793029769460546
 20
79.39903986478353
 30
0.0
 11
96.53816388332739
 21
26.08415062898969
 31
0.0
  0
LINE
  5
63
330
17
100
AcDbEntity
  8
0
420
5483435
100
AcDbLine
 10
61.78596130903345
 20
78.6288432136619
 30
0.0
 11
97.1631732914674
 21
23.64989970237247
 31
0.0
  0
LINE
  5
64
330
17
100
AcDbEntity
  8
0
420
5548714
100
AcDbLine
 10
62.76913612907008
 20
77.84623015670233
 30
0.0
 11
97.72681235681935
 21
21.20071099220545
 31
0.0
  0
LINE
  5
65
330
17
100
AcDbEntity
  8
0
420
5679272
100
AcDbLine
 10
63.742398974869
 20
77.05132427757891
 30
0.0
 11
98.2287250728689
 21
18.73813145857245
 31
0.0
  0
LINE
  5
66
330
17
100
AcDbEntity
  8
0
420
5744551
100
AcDbLine
 10
64.70559615694445
 20
76.24425110114478
 30
0.0
 11
98.66859442078683
 21
16.263716519488344
 31
0.0
  0
LINE
  5
67
330
17
100
AcDbEntity
  8
0
420
5875109
100
AcDbLine
 10
65.65857557529567
 20
75.42513807361037
 30
0.0
 11
99.04614256966514
 21
13.779029068463789
 31
0.0
  0
LINE
  5
68
330
17
100
AcDbEntity
  8
0
420
5940388
100
AcDbLine
 10
66.60118674342517
 20
74.59411454241821
 30
0.0
 11
99.36113105200086
 21
11.285638487348146
 31
0.0
  0
LINE
  5
69
330
17
100
AcDbEntity
  8
0
420
6070946
100
AcDbLine
 10
67.53328081210243
 20
73.75131173581738
 30
0.0
 11
99.61336091431724
 21
8.785119655074299
 31
0.0
  0
LINE
  5
6A
330
17
100
AcDbEntity
  8
0
420
6136225
100
AcDbLine
 10
68.45471059286888
 20
72.89686274214114
 30
0.0
 11
99.80267284282715
 21
6.279051952931318
 31
0.0
  0
LINE
  5
6B
330
17
100
AcDbEntity
  8
0
420
6266783
100
AcDbLine
 10
69.3653305812805
 20
72.03090248879069
 30
0.0
 11
99.92894726405892
 21
3.769018266993446
 31
0.0
  0
LINE
  5
6C
330
17
100
AcDbEntity
  8
0
420
6332062
100
AcDbLine
 10
70.26499697988494
 20
71.15356772092852
 30
0.0
 11
99.99210442038161
 21
1.2566039883352427
 31
0.0
  0
LINE
  5
6D
330
17
100
AcDbEntity
  8
0
420
6462620
100
AcDbLine
 10
71.15356772092855
 20
70.26499697988491
 30
0.0
 11
99.99210442038161
 21
-1.2566039883352698
 31
0.0
  0
LINE
  5
6E
330
17
100
AcDbEntity
  8
0
420
6527899
100
AcDbLine
 10
72.03090248879069
 20
69.36533058128049
 30
0.0
 11
99.92894726405892
 21
-3.769018266993459
 31
0.0
  0
LINE
  5
6F
330
17
100
AcDbEntity
  8
0
420
6658457
100
AcDbLine
 10
72.89686274214115
 20
68.45471059286886
 30
0.0
 11
99.80267284282715
 21
-6.279051952931344
 31
0.0
  0
LINE
  5
70
330
17
100
AcDbEntity
  8
0
420
6723736
100
AcDbLine
 10
73.7513117358174
 20
67.53328081210243
 30
0.0
 11
99.61336091431724
 21
-8.785119655074327
 31
0.0
  0
LINE
  5
71
330
17
100
AcDbEntity
  8
0
420
6854294
100
AcDbLine
 10
74.59411454241824
 20
66.60118674342516
 30
0.0
 11
99.36113105200086
 21
-11.285638487348175
 31
0.0
  0
LINE
  5
72
330
17
100
AcDbEntity
  8
0
420
6919573
100
AcDbLine
 10
75.42513807361038
 20
65.65857557529564
 30
0.0
 11
99.04614256966514
 21
-13.779029068463815
 31
0.0
  0
LINE
  5
73
330
17
100
AcDbEntity
  8
0
420
7050131
100
AcDbLine
 10
76.2442511011448
 20
64.70559615694442
 30
0.0
 11
98.6685944207868
 21
-16.26371651948837
 31
0.0
  0
LINE
  5
74
330
17
100
AcDbEntity
  8
0
420
7115410
100
AcDbLine
 10
77.05132427757894
 20
63.74239897486896
 30
0.0
 11
98.2287250728689
 21
-18.738131458572465
 31
0.0
  0
LINE
  5
75
330
17
100
AcDbEntity
  8
0
420
7180689
100
AcDbLine
 10
77.84623015670233
 20
62.76913612907005
 30
0.0
 11
97.72681235681935
 21
-21.20071099220545
 31
0.0
  0
LINE
  5
76
330
17
100
AcDbEntity
  8
0
420
7311247
100
AcDbLine
 10
78.6288432136619
 20
61.78596130903343
 30
0.0
 11
97.1631732914674
 21
-23.64989970237247
 31
0.0
  0
LINE
  5
77
330
17
100
AcDbEntity
  8
0
420
7376526
100
AcDbLine
 10
79.39903986478355
 20
60.79302976946054
 30
0.0
 11
96.53816388332739
 21
-26.084150628989704
 31
0.0
  0
LINE
  5
78
330
17
100
AcDbEntity
  8
0
420
7507084
100
AcDbLine
 10
80.15669848708764
 20
59.79049830575188
 30
0.0
 11
95.85217890173757
 21
-28.501926246997606
 31
0.0
  0
LINE
  5
79
330
17
100
AcDbEntity
  8
0
420
7572363
100
AcDbLine
 10
80.90169943749476
 20
58.7785252292473
 30
0.0
 11
95.10565162951538
 21
-30.901699437494766
 31
0.0
  0
LINE
  5
7A
330
17
100
AcDbEntity
  8
0
420
7702921
100
AcDbLine
 10
81.63392507171842
 20
57.757270342226754
 30
0.0
 11
94.29905358928643
 21
-33.28195445229869
 31
0.0
  0
LINE
  5
7B
330
17
100
AcDbEntity
  8
0
420
7768200
100
AcDbLine
 10
82.35325976284273
 20
56.72689491267564
 30
0.0
 11
93.4328942456612
 21
-35.641187871325094
 31
0.0
  0
LINE
  5
7C
330
17
100
AcDbEntity
  8
0
420
7833479
100
AcDbLine
 10
83.05958991958128
 20
55.68756164881879
 30
0.0
 11
92.5077206834458
 21
-37.97790955218013
 31
0.0
  0
LINE
  5
7D
330
17
100
AcDbEntity
  8
0
420
7964037
100
AcDbLine
 10
83.75280400421417
 20
54.6394346734269
 30
0.0
 11
91.52411726209175
 21
-40.290643571366275
 31
0.0
  0
LINE
  5
7E
330
17
100
AcDbEntity
  8
0
420
8029316
100
AcDbLine
 10
84.43279255020151
 20
53.582679497899655
 30
0.0
 11
90.48270524660195
 21
-42.57792915650729
 31
0.0
  0
LINE
  5
7F
330
17
100
AcDbEntity
  8
0
420
8159874
100
AcDbLine
 10
85.09944817946918
 20
52.517462996129574
 30
0.0
 11
89.38414241512638
 21
-44.83832160900321
 31
0.0
  0
LINE
  5
80
330
17
100
AcDbEntity
  8
0
420
8225153
100
AcDbLine
 10
85.75266561936525
 20
51.44395337815064
 30
0.0
 11
88.2291226434953
 21
-47.070393216533276
 31
0.0
  0
LINE
  5
81
330
17
100
AcDbEntity
  8
0
420
8290432
100
AcDbLine
 10
86.39234171928352
 20
50.36232016357608
 30
0.0
 11
87.01837546695256
 21
-49.27273415482915
 31
0.0
  0
LINE
  5
82
330
17
100
AcDbEntity
  8
0
420
8420990
100
AcDbLine
 10
87.01837546695256
 20
49.27273415482915
 30
0.0
 11
85.75266561936522
 21
-51.44395337815065
 31
0.0
  0
LINE
  5
83
330
17
100
AcDbEntity
  8
0
420
8486269
100
AcDbLine
 10
87.63066800438637
 20
48.17536741017153
 30
0.0
 11
84.43279255020151
 21
-53.58267949789964
 31
0.0
  0
LINE
  5
84
330
17
100
AcDbEntity
  8
0
420
8616827
100
AcDbLine
 10
88.2291226434953
 20
47.070393216533255
 30
0.0
 11
83.05958991958126
 21
-55.687561648818814
 31
0.0
  0
LINE
  5
85
330
17
100
AcDbEntity
  8
0
420
8682106
100
AcDbLine
 10
88.81364488135448
 20
45.95798606214877
 30
0.0
 11
81.63392507171837
 21
-57.757270342226775
 31
0.0
  0
LINE
  5
86
330
17
100
AcDbEntity
  8
0
420
8747385
100
AcDbLine
 10
89.38414241512638
 20
44.838321609003216
 30
0.0
 11
80.15669848708764
 21
-59.79049830575188
 31
0.0
  0
LINE
  5
87
330
17
100
AcDbEntity
  8
0
420
8877943
100
AcDbLine
 10
89.94052515663711
 20
43.71157666509328
 30
0.0
 11
78.62884321366185
 21
-61.78596130903345
 31
0.0
  0
LINE
  5
88
330
17
100
AcDbEntity
  8
0
420
8943222
100
AcDbLine
 10
90.48270524660195
 20
42.57792915650727
 30
0.0
 11
77.05132427757891
 21
-63.742398974868976
 31
0.0
  0
LINE
  5
89
330
17
100
AcDbEntity
  8
0
420
9008501
100
AcDbLine
 10
91.01059706849959
 20
41.43755809932839
 30
0.0
 11
75.42513807361037
 21
-65.65857557529567
 31
0.0
  0
LINE
  5
8A
330
17
100
AcDbEntity
  8
0
420
9139059
100
AcDbLine
 10
91.52411726209175
 20
40.29064357136626
 30
0.0
 11
73.75131173581737
 21
-67.53328081210243
 31
0.0
  0
LINE
  5
8B
330
17
100
AcDbEntity
  8
0
420
9204338
100
AcDbLine
 10
92.02318473658704
 20
39.137366683720224
 30
0.0
 11
72.03090248879067
 21
-69.36533058128053
 31
0.0
  0
LINE
  5
8C
330
17
100
AcDbEntity
  8
0
420
9269617
100
AcDbLine
 10
92.5077206834458
 20
37.9779095521801
 30
0.0
 11
70.26499697988491
 21
-71.15356772092855
 31
0.0
  0
LINE
  5
8D
330
17
100
AcDbEntity
  8
0
420
9400175
100
AcDbLine
 10
92.97764858882513
 20
36.81245526846777
 30
0.0
 11
68.45471059286885
 21
-72.8968627421412
 31
0.0
  0
LINE
  5
8E
330
17
100
AcDbEntity
  8
0
420
9465454
100
AcDbLine
 10
93.4328942456612
 20
35.64118787132507
 30
0.0
 11
66.60118674342517
 21
-74.59411454241821
 31
0.0
  0
LINE
  5
8F
330
17
100
AcDbEntity
  8
0
420
9530733
100
AcDbLine
 10
93.87338576538741
 20
34.464292317451694
 30
0.0
 11
64.70559615694441
 21
-76.2442511011448
 31
0.0
  0
LINE
  5
90
330
17
100
AcDbEntity
  8
0
420
9661291
100
AcDbLine
 10
94.29905358928646
 20
33.28195445229866
 30
0.0
 11
62.76913612907005
 21
-77.84623015670233
 31
0.0
  0
LINE
  5
91
330
17
100
AcDbEntity
  8
0
420
9726570
100
AcDbLine
 10
94.7098304994744
 20
32.09436098072094
 30
0.0
 11
60.793029769460524
 21
-79.39903986478355
 31
0.0
  0
LINE
  5
92
330
17
100
AcDbEntity
  8
0
420
9791849
100
AcDbLine
 10
95.10565162951538
 20
30.901699437494745
 30
0.0
 11
58.77852522924732
 21
-80.90169943749476
 31
0.0
  0
LINE
  5
93
330
17
100
AcDbEntity
  8
0
420
9857128
100
AcDbLine
 10
95.48645447466427
 20
29.704158157703485
 30
0.0
 11
56.72689491267564
 21
-82.35325976284275
 31
0.0
  0
LINE
  5
94
330
17
100
AcDbEntity
  8
0
420
9987686
100
AcDbLine
 10
95.85217890173757
 20
28.501926246997606
 30
0.0
 11
54.639434673426926
 21
-83.75280400421417
 31
0.0
  0
LINE
  5
95
330
17
100
AcDbEntity
  8
0
420
10052965
100
AcDbLine
 10
96.20276715860858
 20
27.295193551732506
 30
0.0
 11
52.51746299612956
 21
-85.0994481794692
 31
0.0
  0
LINE
  5
96
330
17
100
AcDbEntity
  8
0
420
10118244
100
AcDbLine
 10
96.53816388332739
 20
26.08415062898969
 30
0.0
 11
50.3623201635761
 21
-86.39234171928352
 31
0.0
  0
LINE
  5
97
330
17
100
AcDbEntity
  8
0
420
10248802
100
AcDbLine
 10
96.85831611286311
 20
24.86898871648547
 30
0.0
 11
48.17536741017153
 21
-87.63066800438637
 31
0.0
  0
LINE
  5
98
330
17
100
AcDbEntity
  8
0
420
10314081
100
AcDbLine
 10
97.1631732914674
 20
23.64989970237247
 30
0.0
 11
45.9579860621488
 21
-88.81364488135445
 31
0.0
  0
LINE
  5
99
330
17
100
AcDbEntity
  8
0
420
10379360
100
AcDbLine
 10
97.4526872786577
 20
22.4270760949381
 30
0.0
 11
43.71157666509328
 21
-89.94052515663711
 31
0.0
  0
LINE
  5
9A
330
17
100
AcDbEntity
  8
0
420
10509918
100
AcDbLine
 10
97.72681235681935
 20
21.20071099220545
 30
0.0
 11
41.437558099328385
 21
-91.01059706849959
 31
0.0
  0
LINE
  5
9B
330
17
100
AcDbEntity
  8
0
420
10575197
100
AcDbLine
 10
97.98550523842468
 20
19.9709980514407
 30
0.0
 11
39.137366683720245
 21
-92.02318473658704
 31
0.0
  0
LINE
  5
9C
330
17
100
AcDbEntity
  8
0
420
10640476
100
AcDbLine
 10
98.2287250728689
 20
18.73813145857245
 30
0.0
 11
36.81245526846777
 21
-92.97764858882516
 31
0.0
  0
LINE
  5
9D
330
17
100
AcDbEntity
  8
0
420
10705755
100
AcDbLine
 10
98.45643345292055
 20
17.502305897527588
 30
0.0
 11
34.46429231745171
 21
-93.87338576538741
 31
0.0
  0
LINE
  5
9E
330
17
100
AcDbEntity
  8
0
420
10771034
100
AcDbLine
 10
98.66859442078683
 20
16.263716519488344
 30
0.0
 11
32.094360980720914
 21
-94.7098304994744
 31
0.0
  0
LINE
  5
9F
330
17
100
AcDbEntity
  8
0
420
10901592
100
AcDbLine
 10
98.86517447379141
 20
15.022558912075695
 30
0.0
 11
29.704158157703485
 21
-95.48645447466427
 31
0.0
  0
LINE
  5
A0
330
17
100
AcDbEntity
  8
0
420
10966871
100
AcDbLine
 10
99.04614256966514
 20
13.779029068463789
 30
0.0
 11
27.295193551732496
 21
-96.20276715860858
 31
0.0
  0
LINE
  5
A1
330
17
100
AcDbEntity
  8
0
420
11032150
100
AcDbLine
 10
99.21147013144778
 20
12.53332335643042
 30
0.0
 11
24.86898871648547
 21
-96.85831611286311
 31
0.0
  0
LINE
  5
A2
330
17
100
AcDbEntity
  8
0
420
11097429
100
AcDbLine
 10
99.36113105200086
 20
11.285638487348146
 30
0.0
 11
22.4270760949381
 21
-97.45268727865772
 31
0.0
  0
LINE
  5
A3
330
17
100
AcDbEntity
  8
0
420
11162708
100
AcDbLine
 10
99.49510169813003
 20
10.036171485121487
 30
0.0
 11
19.9709980514407
 21
-97.98550523842468
 31
0.0
  0
LINE
  5
A4
330
17
100
AcDbEntity
  8
0
420
11293266
100
AcDbLine
 10
99.61336091431724
 20
8.785119655074299
 30
0.0
 11
17.502305897527577
 21
-98.45643345292055
 31
0.0
  0
LINE
  5
A5
330
17
100
AcDbEntity
  8
0
420
11358545
100
AcDbLine
 10
99.71589002606139
 20
7.532680552793264
 30
0.0
 11
15.022558912075706
 21
-98.86517447379141
 31
0.0
  0
LINE
  5
A6
330
17
100
AcDbEntity
  8
0
420
11423824
100
AcDbLine
 10
99.80267284282715
 20
6.279051952931318
 30
0.0
 11
12.533323356430406
 21
-99.21147013144778
 31
0.0
  0
LINE
  5
A7
330
17
100
AcDbEntity
  8
0
420
11489103
100
AcDbLine
 10
99.87369566060174
 20
5.0244318179769545
 30
0.0
 11
10.036171485121487
 21
-99.49510169813003
 31
0.0
  0
LINE
  5
A8
330
17
100
AcDbEntity
  8
0
420
11554382
100
AcDbLine
 10
99.92894726405892
 20
3.769018266993446
 30
0.0
 11
7.53268055279325
 21
-99.71589002606139
 31
0.0
  0
LINE
  5
A9
330
17
100
AcDbEntity
  8
0
420
11619661
100
AcDbLine
 10
99.96841892833001
 20
2.5130095443337432
 30
0.0
 11
5.0244318179769545
 21
-99.87369566060174
 31
0.0
  0
LINE
  5
AA
330
17
100
AcDbEntity
  8
0
420
11750219
100
AcDbLine
 10
99.99210442038161
 20
1.2566039883352427
 30
0.0
 11
2.51300954433373
 21
-99.96841892833001
 31
0.0
  0
LINE
  5
AB
330
17
100
AcDbEntity
  8
0
420
11815498
100
AcDbLine
 10
100.0
 20
-0.0
 30
0.0
 11
0.0
 21
-100.0
 31
0.0
  0
LINE
  5
AC
330
17
100
AcDbEntity
  8
0
420
11880777
100
AcDbLine
 10
99.99210442038161
 20
-1.2566039883352698
 30
0.0
 11
-2.513009544333757
 21
-99.96841892833001
 31
0.0
  0
LINE
  5
AD
330
17
100
AcDbEntity
  8
0
420
11946056
100
AcDbLine
 10
99.96841892833001
 20
-2.5130095443337432
 30
0.0
 11
-5.024431817976941
 21
-99.87369566060174
 31
0.0
  0
LINE
  5
AE
330
17
100
AcDbEntity
  8
0
420
12011335
100
AcDbLine
 10
99.92894726405892
 20
-3.769018266993459
 30
0.0
 11
-7.53268055279329
 21
-99.71589002606139
 31
0.0
  0
LINE
  5
AF
330
17
100
AcDbEntity
  8
0
420
12076614
100
AcDbLine
 10
99.87369566060174
 20
-5.024431817976981
 30
0.0
 11
-10.036171485121528
 21
-99.49510169813003
 31
0.0
  0
LINE
  5
B0
330
17
100
AcDbEntity
  8
0
420
12141893
100
AcDbLine
 10
99.80267284282715
 20
-6.279051952931344
 30
0.0
 11
-12.533323356430435
 21
-99.21147013144778
 31
0.0
  0
LINE
  5
B1
330
17
100
AcDbEntity
  8
0
420
12207172
100
AcDbLine
 10
99.71589002606139
 20
-7.53268055279329
 30
0.0
 11
-15.022558912075734
 21
-98.86517447379138
 31
0.0
  0
LINE
  5
B2
330
17
100
AcDbEntity
  8
0
420
12272451
100
AcDbLine
 10
99.61336091431724
 20
-8.785119655074327
 30
0.0
 11
-17.502305897527616
 21
-98.45643345292052
 31
0.0
  0
LINE
  5
B3
330
17
100
AcDbEntity
  8
0
420
12403009
100
AcDbLine
 10
99.49510169813003
 20
-10.0361714851215
 30
0.0
 11
-19.970998051440723
 21
-97.98550523842466
 31
0.0
  0
LINE
  5
B4
330
17
100
AcDbEntity
  8
0
420
12468288
100
AcDbLine
 10
99.36113105200086
 20
-11.285638487348175
 30
0.0
 11
-22.42707609493813
 21
-97.4526872786577
 31
0.0
  0
LINE
  5
B5
330
17
100
AcDbEntity
  8
0
420
12533567
100
AcDbLine
 10
99.21147013144778
 20
-12.533323356430445
 30
0.0
 11
-24.86898871648551
 21
-96.85831611286311
 31
0.0
  0
LINE
  5
B6
330
17
100
AcDbEntity
  8
0
420
12598846
100
AcDbLine
 10
99.04614256966514
 20
-13.779029068463815
 30
0.0
 11
-27.29519355173252
 21
-96.20276715860858
 31
0.0
  0
LINE
  5
B7
330
17
100
AcDbEntity
  8
0
420
12664125
100
AcDbLine
 10
98.86517447379138
 20
-15.02255891207572
 30
0.0
 11
-29.70415815770351
 21
-95.48645447466427
 31
0.0
  0
LINE
  5
B8
330
17
100
AcDbEntity
  8
0
420
12729404
100
AcDbLine
 10
98.6685944207868
 20
-16.26371651948837
 30
0.0
 11
-32.09436098072094
 21
-94.7098304994744
 31
0.0
  0
LINE
  5
B9
330
17
100
AcDbEntity
  8
0
420
12794683
100
AcDbLine
 10
98.45643345292052
 20
-17.502305897527616
 30
0.0
 11
-34.464292317451736
 21
-93.87338576538741
 31
0.0
  0
LINE
  5
BA
330
17
100
AcDbEntity
  8
0
420
12859962
100
AcDbLine
 10
98.2287250728689
 20
-18.738131458572465
 30
0.0
 11
-36.8124552684678
 21
-92.97764858882513
 31
0.0
  0
LINE
  5
BB
330
17
100
AcDbEntity
  8
0
420
12925241
100
AcDbLine
 10
97.98550523842468
 20
-19.970998051440723
 30
0.0
 11
-39.137366683720266
 21
-92.02318473658704
 31
0.0
  0
LINE
  5
BC
330
17
100
AcDbEntity
  8
0
420
12990520
100
AcDbLine
 10
97.72681235681935
 20
-21.20071099220545
 30
0.0
 11
-41.43755809932841
 21
-91.01059706849956
 31
0.0
  0
LINE
  5
BD
330
17
100
AcDbEntity
  8
0
420
13055799
100
AcDbLine
 10
97.4526872786577
 20
-22.42707609493813
 30
0.0
 11
-43.711576665093304
 21
-89.94052515663708
 31
0.0
  0
LINE
  5
BE
330
17
100
AcDbEntity
  8
0
420
13121078
100
AcDbLine
 10
97.1631732914674
 20
-23.64989970237247
 30
0.0
 11
-45.957986062148784
 21
-88.81364488135448
 31
0.0
  0
LINE
  5
BF
330
17
100
AcDbEntity
  8
0
420
13186357
100
AcDbLine
 10
96.85831611286311
 20
-24.868988716485497
 30
0.0
 11
-48.175367410171546
 21
-87.63066800438634
 31
0.0
  0
LINE
  5
C0
330
17
100
AcDbEntity
  8
0
420
13251636
100
AcDbLine
 10
96.53816388332739
 20
-26.084150628989704
 30
0.0
 11
-50.36232016357608
 21
-86.39234171928352
 31
0.0
  0
LINE
  5
C1
330
17
100
AcDbEntity
  8
0
420
13316915
100
AcDbLine
 10
96.20276715860858
 20
-27.29519355173252
 30
0.0
 11
-52.51746299612958
 21
-85.09944817946915
 31
0.0
  0
LINE
  5
C2
330
17
100
AcDbEntity
  8
0
420
13382194
100
AcDbLine
 10
95.85217890173757
 20
-28.501926246997606
 30
0.0
 11
-54.6394346734269
 21
-83.75280400421417
 31
0.0
  0
LINE
  5
C3
330
17
100
AcDbEntity
  8
0
420
13447473
100
AcDbLine
 10
95.48645447466427
 20
-29.70415815770351
 30
0.0
 11
-56.72689491267566
 21
-82.35325976284273
 31
0.0
  0
LINE
  5
C4
330
17
100
AcDbEntity
  8
0
420
13512752
100
AcDbLine
 10
95.10565162951538
 20
-30.901699437494766
 30
0.0
 11
-58.77852522924735
 21
-80.90169943749473
 31
0.0
  0
LINE
  5
C5
330
17
100
AcDbEntity
  8
0
420
13512752
100
AcDbLine
 10
94.7098304994744
 20
-32.09436098072094
 30
0.0
 11
-60.793029769460546
 21
-79.39903986478353
 31
0.0
  0
LINE
  5
C6
330
17
100
AcDbEntity
  8
0
420
13643310
100
AcDbLine
 10
94.29905358928643
 20
-33.28195445229869
 30
0.0
 11
-62.76913612907007
 21
-77.84623015670232
 31
0.0
  0
LINE
  5
C7
330
17
100
AcDbEntity
  8
0
420
13708589
100
AcDbLine
 10
93.87338576538741
 20
-34.46429231745171
 30
0.0
 11
-64.70559615694444
 21
-76.24425110114478
 31
0.0
  0
LINE
  5
C8
330
17
100
AcDbEntity
  8
0
420
13708589
100
AcDbLine
 10
93.4328942456612
 20
-35.641187871325094
 30
0.0
 11
-66.60118674342519
 21
-74.59411454241818
 31
0.0
  0
LINE
  5
C9
330
17
100
AcDbEntity
  8
0
420
13773868
100
AcDbLine
 10
92.97764858882513
 20
-36.8124552684678
 30
0.0
 11
-68.45471059286888
 21
-72.89686274214114
 31
0.0
  0
LINE
  5
CA
330
17
100
AcDbEntity
  8
0
420
13839147
100
AcDbLine
 10
92.5077206834458
 20
-37.97790955218013
 30
0.0
 11
-70.26499697988494
 21
-71.1535677209285
 31
0.0
  0
LINE
  5
CB
330
17
100
AcDbEntity
  8
0
420
13904426
100
AcDbLine
 10
92.02318473658704
 20
-39.137366683720245
 30
0.0
 11
-72.03090248879069
 21
-69.36533058128047
 31
0.0
  0
LINE
  5
CC
330
17
100
AcDbEntity
  8
0
420
13969705
100
AcDbLine
 10
91.52411726209175
 20
-40.290643571366275
 30
0.0
 11
-73.75131173581741
 21
-67.53328081210243
 31
0.0
  0
LINE
  5
CD
330
17
100
AcDbEntity
  8
0
420
14034984
100
AcDbLine
 10
91.01059706849956
 20
-41.43755809932841
 30
0.0
 11
-75.42513807361038
 21
-65.65857557529564
 31
0.0
  0
LINE
  5
CE
330
17
100
AcDbEntity
  8
0
420
14100263
100
AcDbLine
 10
90.48270524660195
 20
-42.57792915650729
 30
0.0
 11
-77.05132427757894
 21
-63.742398974868955
 31
0.0
  0
LINE
  5
CF
330
17
100
AcDbEntity
  8
0
420
14165542
100
AcDbLine
 10
89.94052515663708
 20
-43.711576665093304
 30
0.0
 11
-78.62884321366191
 21
-61.7859613090334
 31
0.0
  0
LINE
  5
D0
330
17
100
AcDbEntity
  8
0
420
14165542
100
AcDbLine
 10
89.38414241512638
 20
-44.83832160900321
 30
0.0
 11
-80.15669848708764
 21
-59.79049830575192
 31
0.0
  0
LINE
  5
D1
330
17
100
AcDbEntity
  8
0
420
14230821
100
AcDbLine
 10
88.81364488135445
 20
-45.9579860621488
 30
0.0
 11
-81.6339250717184
 21
-57.757270342226754
 31
0.0
  0
LINE
  5
D2
330
17
100
AcDbEntity
  8
0
420
14296100
100
AcDbLine
 10
88.2291226434953
 20
-47.070393216533276
 30
0.0
 11
-83.05958991958128
 21
-55.68756164881879
 31
0.0
  0
LINE
  5
D3
330
17
100
AcDbEntity
  8
0
420
14361379
100
AcDbLine
 10
87.63066800438634
 20
-48.17536741017156
 30
0.0
 11
-84.43279255020153
 21
-53.58267949789962
 31
0.0
  0
LINE
  5
D4
330
17
100
AcDbEntity
  8
0
420
14426658
100
AcDbLine
 10
87.01837546695256
 20
-49.27273415482915
 30
0.0
 11
-85.7526656193652
 21
-51.44395337815065
 31
0.0
  0
LINE
  5
D5
330
17
100
AcDbEntity
  8
0
420
14426658
100
AcDbLine
 10
86.39234171928352
 20
-50.36232016357608
 30
0.0
 11
-87.01837546695256
 21
-49.27273415482915
 31
0.0
  0
LINE
  5
D6
330
17
100
AcDbEntity
  8
0
420
14491937
100
AcDbLine
 10
85.75266561936522
 20
-51.44395337815065
 30
0.0
 11
-88.22912264349534
 21
-47.070393216533255
 31
0.0
  0
LINE
  5
D7
330
17
100
AcDbEntity
  8
0
420
14557216
100
AcDbLine
 10
85.09944817946915
 20
-52.51746299612958
 30
0.0
 11
-89.3841424151264
 21
-44.83832160900319
 31
0.0
  0
LINE
  5
D8
330
17
100
AcDbEntity
  8
0
420
14622495
100
AcDbLine
 10
84.43279255020151
 20
-53.58267949789964
 30
0.0
 11
-90.48270524660194
 21
-42.57792915650729
 31
0.0
  0
LINE
  5
D9
330
17
100
AcDbEntity
  8
0
420
14687774
100
AcDbLine
 10
83.75280400421417
 20
-54.639434673426926
 30
0.0
 11
-91.52411726209175
 21
-40.290643571366275
 31
0.0
  0
LINE
  5
DA
330
17
100
AcDbEntity
  8
0
420
14687774
100
AcDbLine
 10
83.05958991958126
 20
-55.687561648818814
 30
0.0
 11
-92.50772068344581
 21
-37.9779095521801
 31
0.0
  0
LINE
  5
DB
330
17
100
AcDbEntity
  8
0
420
14753053
100
AcDbLine
 10
82.35325976284273
 20
-56.72689491267566
 30
0.0
 11
-93.43289424566122
 21
-35.641187871325045
 31
0.0
  0
LINE
  5
DC
330
17
100
AcDbEntity
  8
0
420
14818332
100
AcDbLine
 10
81.63392507171837
 20
-57.757270342226775
 30
0.0
 11
-94.29905358928646
 21
-33.281954452298606
 31
0.0
  0
LINE
  5
DD
330
17
100
AcDbEntity
  8
0
420
14818332
100
AcDbLine
 10
80.90169943749476
 20
-58.77852522924732
 30
0.0
 11
-95.10565162951535
 21
-30.901699437494745
 31
0.0
  0
LINE
  5
DE
330
17
100
AcDbEntity
  8
0
420
14883611
100
AcDbLine
 10
80.15669848708764
 20
-59.79049830575188
 30
0.0
 11
-95.85217890173759
 21
-28.501926246997606
 31
0.0
  0
LINE
  5
DF
330
17
100
AcDbEntity
  8
0
420
14948890
100
AcDbLine
 10
79.39903986478349
 20
-60.793029769460546
 30
0.0
 11
-96.53816388332739
 21
-26.08415062898965
 31
0.0
  0
LINE
  5
E0
330
17
100
AcDbEntity
  8
0
420
15014169
100
AcDbLine
 10
78.62884321366185
 20
-61.78596130903345
 30
0.0
 11
-97.1631732914674
 21
-23.649899702372416
 31
0.0
  0
LINE
  5
E1
330
17
100
AcDbEntity
  8
0
420
15014169
100
AcDbLine
 10
77.84623015670233
 20
-62.76913612907005
 30
0.0
 11
-97.72681235681935
 21
-21.20071099220548
 31
0.0
  0
LINE
  5
E2
330
17
100
AcDbEntity
  8
0
420
15079448
100
AcDbLine
 10
77.05132427757891
 20
-63.742398974868976
 30
0.0
 11
-98.22872507286888
 21
-18.73813145857245
 31
0.0
  0
LINE
  5
E3
330
17
100
AcDbEntity
  8
0
420
15144727
100
AcDbLine
 10
76.24425110114478
 20
-64.70559615694445
 30
0.0
 11
-98.66859442078682
 21
-16.26371651948833
 31
0.0
  0
LINE
  5
E4
330
17
100
AcDbEntity
  8
0
420
15210006
100
AcDbLine
 10
75.42513807361037
 20
-65.65857557529567
 30
0.0
 11
-99.04614256966512
 21
-13.77902906846376
 31
0.0
  0
LINE
  5
E5
330
17
100
AcDbEntity
  8
0
420
15210006
100
AcDbLine
 10
74.59411454241824
 20
-66.60118674342516
 30
0.0
 11
-99.36113105200084
 21
-11.285638487348187
 31
0.0
  0
LINE
  5
E6
330
17
100
AcDbEntity
  8
0
420
15275285
100
AcDbLine
 10
73.75131173581737
 20
-67.53328081210243
 30
0.0
 11
-99.61336091431725
 21
-8.785119655074313
 31
0.0
  0
LINE
  5
E7
330
17
100
AcDbEntity
  8
0
420
15275285
100
AcDbLine
 10
72.89686274214114
 20
-68.4547105928689
 30
0.0
 11
-99.80267284282715
 21
-6.279051952931318
 31
0.0
  0
LINE
  5
E8
330
17
100
AcDbEntity
  8
0
420
15340564
100
AcDbLine
 10
72.03090248879067
 20
-69.36533058128053
 30
0.0
 11
-99.92894726405893
 21
-3.7690182669934047
 31
0.0
  0
LINE
  5
E9
330
17
100
AcDbEntity
  8
0
420
15405843
100
AcDbLine
 10
71.15356772092855
 20
-70.26499697988491
 30
0.0
 11
-99.99210442038161
 21
-1.2566039883352833
 31
0.0
  0
LINE
  5
EA
330
17
100
AcDbEntity
  8
0
420
15405843
100
AcDbLine
 10
70.26499697988491
 20
-71.15356772092855
 30
0.0
 11
-99.99210442038161
 21
1.2566039883352562
 31
0.0
  0
LINE
  5
EB
330
17
100
AcDbEntity
  8
0
420
15471122
100
AcDbLine
 10
69.36533058128047
 20
-72.03090248879069
 30
0.0
 11
-99.92894726405892
 21
3.7690182669934726
 31
0.0
  0
LINE
  5
EC
330
17
100
AcDbEntity
  8
0
420
15471122
100
AcDbLine
 10
68.45471059286885
 20
-72.8968627421412
 30
0.0
 11
-99.80267284282715
 21
6.279051952931372
 31
0.0
  0
LINE
  5
ED
330
17
100
AcDbEntity
  8
0
420
15536401
100
AcDbLine
 10
67.53328081210243
 20
-73.75131173581737
 30
0.0
 11
-99.61336091431725
 21
8.785119655074286
 31
0.0
  0
LINE
  5
EE
330
17
100
AcDbEntity
  8
0
420
15601680
100
AcDbLine
 10
66.60118674342517
 20
-74.59411454241821
 30
0.0
 11
-99.36113105200084
 21
11.28563848734816
 31
0.0
  0
LINE
  5
EF
330
17
100
AcDbEntity
  8
0
420
15601680
100
AcDbLine
 10
65.65857557529561
 20
-75.42513807361038
 30
0.0
 11
-99.04614256966512
 21
13.779029068463815
 31
0.0
  0
LINE
  5
F0
330
17
100
AcDbEntity
  8
0
420
15666959
100
AcDbLine
 10
64.70559615694441
 20
-76.2442511011448
 30
0.0
 11
-98.6685944207868
 21
16.263716519488398
 31
0.0
  0
LINE
  5
F1
330
17
100
AcDbEntity
  8
0
420
15666959
100
AcDbLine
 10
63.742398974868955
 20
-77.05132427757894
 30
0.0
 11
-98.22872507286885
 21
18.73813145857252
 31
0.0
  0
LINE
  5
F2
330
17
100
AcDbEntity
  8
0
420
15732238
100
AcDbLine
 10
62.76913612907005
 20
-77.84623015670233
 30
0.0
 11
-97.72681235681935
 21
21.20071099220545
 31
0.0
  0
LINE
  5
F3
330
17
100
AcDbEntity
  8
0
420
15732238
100
AcDbLine
 10
61.78596130903345
 20
-78.6288432136619
 30
0.0
 11
-97.16317329146739
 21
23.649899702372483
 31
0.0
  0
LINE
  5
F4
330
17
100
AcDbEntity
  8
0
420
15797517
100
AcDbLine
 10
60.793029769460524
 20
-79.39903986478355
 30
0.0
 11
-96.53816388332737
 21
26.084150628989732
 31
0.0
  0
LINE
  5
F5
330
17
100
AcDbEntity
  8
0
420
15797517
100
AcDbLine
 10
59.79049830575186
 20
-80.15669848708768
 30
0.0
 11
-95.85217890173757
 21
28.501926246997673
 31
0.0
  0
LINE
  5
F6
330
17
100
AcDbEntity
  8
0
420
15862796
100
AcDbLine
 10
58.77852522924732
 20
-80.90169943749476
 30
0.0
 11
-95.10565162951538
 21
30.901699437494727
 31
0.0
  0
LINE
  5
F7
330
17
100
AcDbEntity
  8
0
420
15862796
100
AcDbLine
 10
57.757270342226754
 20
-81.6339250717184
 30
0.0
 11
-94.29905358928644
 21
33.28195445229868
 31
0.0
  0
LINE
  5
F8
330
17
100
AcDbEntity
  8
0
420
15928075
100
AcDbLine
 10
56.72689491267564
 20
-82.35325976284275
 30
0.0
 11
-93.43289424566119
 21
35.641187871325094
 31
0.0
  0
LINE
  5
F9
330
17
100
AcDbEntity
  8
0
420
15928075
100
AcDbLine
 10
55.687561648818765
 20
-83.05958991958128
 30
0.0
 11
-92.50772068344578
 21
37.97790955218016
 31
0.0
  0
LINE
  5
FA
330
17
100
AcDbEntity
  8
0
420
15993354
100
AcDbLine
 10
54.639434673426926
 20
-83.75280400421417
 30
0.0
 11
-91.52411726209176
 21
40.290643571366246
 31
0.0
  0
LINE
  5
FB
330
17
100
AcDbEntity
  8
0
420
15993354
100
AcDbLine
 10
53.58267949789964
 20
-84.43279255020151
 30
0.0
 11
-90.48270524660195
 21
42.57792915650727
 31
0.0
  0
LINE
  5
FC
330
17
100
AcDbEntity
  8
0
420
16058633
100
AcDbLine
 10
52.51746299612956
 20
-85.0994481794692
 30
0.0
 11
-89.38414241512636
 21
44.83832160900324
 31
0.0
  0
LINE
  5
FD
330
17
100
AcDbEntity
  8
0
420
16058633
100
AcDbLine
 10
51.44395337815062
 20
-85.75266561936525
 30
0.0
 11
-88.2291226434953
 21
47.0703932165333
 31
0.0
  0
LINE
  5
FE
330
17
100
AcDbEntity
  8
0
420
16058633
100
AcDbLine
 10
50.3623201635761
 20
-86.39234171928352
 30
0.0
 11
-87.01837546695256
 21
49.27273415482914
 31
0.0
  0
LINE
  5
FF
330
17
100
AcDbEntity
  8
0
420
16123912
100
AcDbLine
 10
49.27273415482915
 20
-87.01837546695256
 30
0.0
 11
-85.75266561936522
 21
51.44395337815064
 31
0.0
  0
LINE
  5
100
330
17
100
AcDbEntity
  8
0
420
16123912
100
AcDbLine
 10
48.17536741017153
 20
-87.63066800438637
 30
0.0
 11
-84.4327925502015
 21
53.582679497899676
 31
0.0
  0
LINE
  5
101
330
17
100
AcDbEntity
  8
0
420
16189191
100
AcDbLine
 10
47.070393216533255
 20
-88.22912264349534
 30
0.0
 11
-83.05958991958124
 21
55.68756164881884
 31
0.0
  0
LINE
  5
102
330
17
100
AcDbEntity
  8
0
420
16189191
100
AcDbLine
 10
45.9579860621488
 20
-88.81364488135445
 30
0.0
 11
-81.63392507171841
 21
57.75727034222674
 31
0.0
  0
LINE
  5
103
330
17
100
AcDbEntity
  8
0
420
16254470
100
AcDbLine
 10
44.83832160900321
 20
-89.38414241512638
 30
0.0
 11
-80.15669848708765
 21
59.79049830575188
 31
0.0
  0
LINE
  5
104
330
17
100
AcDbEntity
  8
0
420
16254470
100
AcDbLine
 10
43.71157666509328
 20
-89.94052515663711
 30
0.0
 11
-78.62884321366188
 21
61.78596130903345
 31
0.0
  0
LINE
  5
105
330
17
100
AcDbEntity
  8
0
420
16254470
100
AcDbLine
 10
42.57792915650724
 20
-90.48270524660195
 30
0.0
 11
-77.0513242775789
 21
63.742398974869
 31
0.0
  0
LINE
  5
106
330
17
100
AcDbEntity
  8
0
420
16319749
100
AcDbLine
 10
41.437558099328385
 20
-91.01059706849959
 30
0.0
 11
-75.42513807361034
 21
65.65857557529569
 31
0.0
  0
LINE
  5
107
330
17
100
AcDbEntity
  8
0
420
16319749
100
AcDbLine
 10
40.290643571366275
 20
-91.52411726209175
 30
0.0
 11
-73.7513117358174
 21
67.53328081210243
 31
0.0
  0
LINE
  5
108
330
17
100
AcDbEntity
  8
0
420
16319749
100
AcDbLine
 10
39.137366683720245
 20
-92.02318473658704
 30
0.0
 11
-72.03090248879069
 21
69.3653305812805
 31
0.0
  0
LINE
  5
109
330
17
100
AcDbEntity
  8
0
420
16319749
100
AcDbLine
 10
37.97790955218008
 20
-92.5077206834458
 30
0.0
 11
-70.2649969798849
 21
71.15356772092855
 31
0.0
  0
LINE
  5
10A
330
17
100
AcDbEntity
  8
0
420
16385028
100
AcDbLine
 10
36.81245526846777
 20
-92.97764858882516
 30
0.0
 11
-68.45471059286882
 21
72.8968627421412
 31
0.0
  0
LINE
  5
10B
330
17
100
AcDbEntity
  8
0
420
16385028
100
AcDbLine
 10
35.64118787132507
 20
-93.4328942456612
 30
0.0
 11
-66.60118674342516
 21
74.59411454241821
 31
0.0
  0
LINE
  5
10C
330
17
100
AcDbEntity
  8
0
420
16385028
100
AcDbLine
 10
34.46429231745171
 20
-93.87338576538741
 30
0.0
 11
-64.70559615694442
 21
76.24425110114478
 31
0.0
  0
LINE
  5
10D
330
17
100
AcDbEntity
  8
0
420
16450307
100
AcDbLine
 10
33.281954452298635
 20
-94.29905358928646
 30
0.0
 11
-62.76913612907003
 21
77.84623015670236
 31
0.0
  0
LINE
  5
10E
330
17
100
AcDbEntity
  8
0
420
16450307
100
AcDbLine
 10
32.094360980720914
 20
-94.7098304994744
 30
0.0
 11
-60.793029769460496
 21
79.39903986478357
 31
0.0
  0
LINE
  5
10F
330
17
100
AcDbEntity
  8
0
420
16450307
100
AcDbLine
 10
30.901699437494745
 20
-95.10565162951538
 30
0.0
 11
-58.77852522924732
 21
80.90169943749473
 31
0.0
  0
LINE
  5
110
330
17
100
AcDbEntity
  8
0
420
16515586
100
AcDbLine
 10
29.704158157703485
 20
-95.48645447466427
 30
0.0
 11
-56.72689491267564
 21
82.35325976284274
 31
0.0
  0
LINE
  5
111
330
17
100
AcDbEntity
  8
0
420
16515586
100
AcDbLine
 10
28.501926246997606
 20
-95.85217890173759
 30
0.0
 11
-54.63943467342689
 21
83.75280400421418
 31
0.0
  0
LINE
  5
112
330
17
100
AcDbEntity
  8
0
420
16515586
100
AcDbLine
 10
27.295193551732496
 20
-96.20276715860858
 30
0.0
 11
-52.517462996129524
 21
85.0994481794692
 31
0.0
  0
LINE
  5
113
330
17
100
AcDbEntity
  8
0
420
16515586
100
AcDbLine
 10
26.084150628989704
 20
-96.53816388332739
 30
0.0
 11
-50.3623201635761
 21
86.39234171928352
 31
0.0
  0
LINE
  5
114
330
17
100
AcDbEntity
  8
0
420
16515586
100
AcDbLine
 10
24.86898871648547
 20
-96.85831611286311
 30
0.0
 11
-48.175367410171525
 21
87.63066800438637
 31
0.0
  0
LINE
  5
115
330
17
100
AcDbEntity
  8
0
420
16515586
100
AcDbLine
 10
23.649899702372444
 20
-97.1631732914674
 30
0.0
 11
-45.95798606214876
 21
88.81364488135446
 31
0.0
  0
LINE
  5
116
330
17
100
AcDbEntity
  8
0
420
16580865
100
AcDbLine
 10
22.4270760949381
 20
-97.45268727865772
 30
0.0
 11
-43.71157666509325
 21
89.94052515663711
 31
0.0
  0
LINE
  5
117
330
17
100
AcDbEntity
  8
0
420
16580865
100
AcDbLine
 10
21.20071099220548
 20
-97.72681235681935
 30
0.0
 11
-41.437558099328434
 21
91.01059706849955
 31
0.0
  0
LINE
  5
118
330
17
100
AcDbEntity
  8
0
420
16580865
100
AcDbLine
 10
19.9709980514407
 20
-97.98550523842468
 30
0.0
 11
-39.137366683720245
 21
92.02318473658704
 31
0.0
  0
LINE
  5
119
330
17
100
AcDbEntity
  8
0
420
16580865
100
AcDbLine
 10
18.73813145857245
 20
-98.2287250728689
 30
0.0
 11
-36.81245526846777
 21
92.97764858882515
 31
0.0
  0
LINE
  5
11A
330
17
100
AcDbEntity
  8
0
420
16580865
100
AcDbLine
 10
17.502305897527577
 20
-98.45643345292055
 30
0.0
 11
-34.46429231745167
 21
93.87338576538741
 31
0.0
  0
LINE
  5
11B
330
17
100
AcDbEntity
  8
0
420
16580865
100
AcDbLine
 10
16.26371651948833
 20
-98.66859442078683
 30
0.0
 11
-32.09436098072089
 21
94.70983049947445
 31
0.0
  0
LINE
  5
11C
330
17
100
AcDbEntity
  8
0
420
16646144
100
AcDbLine
 10
15.022558912075706
 20
-98.86517447379141
 30
0.0
 11
-29.704158157703496
 21
95.4864544746643
 31
0.0
  0
LINE
  5
11D
330
17
100
AcDbEntity
  8
0
420
16646144
100
AcDbLine
 10
13.779029068463803
 20
-99.04614256966514
 30
0.0
 11
-27.295193551732506
 21
96.2027671586086
 31
0.0
  0
LINE
  5
11E
330
17
100
AcDbEntity
  8
0
420
16646144
100
AcDbLine
 10
12.533323356430406
 20
-99.21147013144778
 30
0.0
 11
-24.868988716485443
 21
96.85831611286312
 31
0.0
  0
LINE
  5
11F
330
17
100
AcDbEntity
  8
0
420
16646144
100
AcDbLine
 10
11.285638487348134
 20
-99.36113105200086
 30
0.0
 11
-22.427076094938062
 21
97.45268727865772
 31
0.0
  0
LINE
  5
120
330
17
100
AcDbEntity
  8
0
420
16646144
100
AcDbLine
 10
10.036171485121487
 20
-99.49510169813003
 30
0.0
 11
-19.97099805144071
 21
97.98550523842468
 31
0.0
  0
LINE
  5
121
330
17
100
AcDbEntity
  8
0
420
16646144
100
AcDbLine
 10
8.785119655074313
 20
-99.61336091431724
 30
0.0
 11
-17.502305897527588
 21
98.45643345292055
 31
0.0
  0
LINE
  5
122
330
17
100
AcDbEntity
  8
0
420
16646144
100
AcDbLine
 10
7.53268055279325
 20
-99.71589002606139
 30
0.0
 11
-15.022558912075667
 21
98.86517447379141
 31
0.0
  0
LINE
  5
123
330
17
100
AcDbEntity
  8
0
420
16646144
100
AcDbLine
 10
6.2790519529313045
 20
-99.80267284282715
 30
0.0
 11
-12.533323356430378
 21
99.21147013144778
 31
0.0
  0
LINE
  5
124
330
17
100
AcDbEntity
  8
0
420
16646144
100
AcDbLine
 10
5.0244318179769545
 20
-99.87369566060174
 30
0.0
 11
-10.0361714851215
 21
99.49510169813001
 31
0.0
  0
LINE
  5
125
330
17
100
AcDbEntity
  8
0
420
16646144
100
AcDbLine
 10
3.769018266993446
 20
-99.92894726405892
 30
0.0
 11
-7.532680552793264
 21
99.7158900260614
 31
0.0
  0
LINE
  5
126
330
17
100
AcDbEntity
  8
0
420
16646144
100
AcDbLine
 10
2.51300954433373
 20
-99.96841892833001
 30
0.0
 11
-5.024431817976928
 21
99.87369566060174
 31
0.0
  0
LINE
  5
127
330
17
100
AcDbEntity
  8
0
420
16646144
100
AcDbLine
 10
1.2566039883352293
 20
-99.99210442038161
 30
0.0
 11
-2.5130095443337033
 21
99.96841892833001
 31
0.0
  0
LINE
  5
128
330
17
100
AcDbEntity
  8
0
420
16646144
100
AcDbLine
 10
0.0
 20
-100.0
 30
0.0
 11
-1.3489183403134318e-14
 21
100.0
 31
0.0
  0
LINE
  5
129
330
17
100
AcDbEntity
  8
0
420
16646144
100
AcDbLine
 10
-1.2566039883352698
 20
-99.99210442038161
 30
0.0
 11
2.513009544333757
 21
99.96841892833001
 31
0.0
  0
LINE
  5
12A
330
17
100
AcDbEntity
  8
0
420
16646144
100
AcDbLine
 10
-2.513009544333757
 20
-99.96841892833001
 30
0.0
 11
5.024431817976981
 21
99.87369566060174
 31
0.0
  0
LINE
  5
12B
330
17
100
AcDbEntity
  8
0
420
16646144
100
AcDbLine
 10
-3.769018266993486
 20
-99.92894726405892
 30
0.0
 11
7.532680552793318
 21
99.7158900260614
 31
0.0
  0
LINE
  5
12C
330
17
100
AcDbEntity
  8
0
420
16646144
100
AcDbLine
 10
-5.024431817976941
 20
-99.87369566060174
 30
0.0
 11
10.036171485121475
 21
99.49510169813001
 31
0.0
  0
LINE
  5
12D
330
17
100
AcDbEntity
  8
0
420
16646144
100
AcDbLine
 10
-6.279051952931344
 20
-99.80267284282715
 30
0.0
 11
12.53332335643042
 21
99.21147013144778
 31
0.0
  0
LINE
  5
12E
330
17
100
AcDbEntity
  8
0
420
16646144
100
AcDbLine
 10
-7.53268055279329
 20
-99.71589002606139
 30
0.0
 11
15.02255891207572
 21
98.8651744737914
 31
0.0
  0
LINE
  5
12F
330
17
100
AcDbEntity
  8
0
420
16646144
100
AcDbLine
 10
-8.78511965507434
 20
-99.61336091431724
 30
0.0
 11
17.502305897527645
 21
98.45643345292054
 31
0.0
  0
LINE
  5
130
330
17
100
AcDbEntity
  8
0
420
16646144
100
AcDbLine
 10
-10.036171485121528
 20
-99.49510169813003
 30
0.0
 11
19.970998051440777
 21
97.98550523842468
 31
0.0
  0
LINE
  5
131
330
17
100
AcDbEntity
  8
0
420
16646144
100
AcDbLine
 10
-11.285638487348175
 20
-99.36113105200086
 30
0.0
 11
22.42707609493813
 21
97.4526872786577
 31
0.0
  0
LINE
  5
132
330
17
100
AcDbEntity
  8
0
420
16646144
100
AcDbLine
 10
-12.533323356430435
 20
-99.21147013144778
 30
0.0
 11
24.868988716485497
 21
96.85831611286311
 31
0.0
  0
LINE
  5
133
330
17
100
AcDbEntity
  8
0
420
16646144
100
AcDbLine
 10
-13.77902906846383
 20
-99.04614256966514
 30
0.0
 11
27.29519355173257
 21
96.20276715860858
 31
0.0
  0
LINE
  5
134
330
17
100
AcDbEntity
  8
0
420
16646144
100
AcDbLine
 10
-15.022558912075734
 20
-98.86517447379138
 30
0.0
 11
29.704158157703535
 21
95.48645447466427
 31
0.0
  0
LINE
  5
135
330
17
100
AcDbEntity
  8
0
420
16580865
100
AcDbLine
 10
-16.26371651948836
 20
-98.6685944207868
 30
0.0
 11
32.09436098072094
 21
94.70983049947444
 31
0.0
  0
LINE
  5
136
330
17
100
AcDbEntity
  8
0
420
16580865
100
AcDbLine
 10
-17.502305897527616
 20
-98.45643345292052
 30
0.0
 11
34.46429231745171
 21
93.87338576538741
 31
0.0
  0
LINE
  5
137
330
17
100
AcDbEntity
  8
0
420
16580865
100
AcDbLine
 10
-18.73813145857248
 20
-98.22872507286885
 30
0.0
 11
36.81245526846782
 21
92.97764858882512
 31
0.0
  0
LINE
  5
138
330
17
100
AcDbEntity
  8
0
420
16580865
100
AcDbLine
 10
-19.970998051440723
 20
-97.98550523842466
 30
0.0
 11
39.137366683720295
 21
92.02318473658701
 31
0.0
  0
LINE
  5
139
330
17
100
AcDbEntity
  8
0
420
16580865
100
AcDbLine
 10
-21.20071099220545
 20
-97.72681235681935
 30
0.0
 11
41.437558099328385
 21
91.01059706849958
 31
0.0
  0
LINE
  5
13A
330
17
100
AcDbEntity
  8
0
420
16580865
100
AcDbLine
 10
-22.42707609493813
 20
-97.4526872786577
 30
0.0
 11
43.711576665093304
 21
89.9405251566371
 31
0.0
  0
LINE
  5
13B
330
17
100
AcDbEntity
  8
0
420
16515586
100
AcDbLine
 10
-23.649899702372483
 20
-97.1631732914674
 30
0.0
 11
45.9579860621488
 21
88.81364488135443
 31
0.0
  0
LINE
  5
13C
330
17
100
AcDbEntity
  8
0
420
16515586
100
AcDbLine
 10
-24.86898871648551
 20
-96.85831611286311
 30
0.0
 11
48.17536741017158
 21
87.63066800438634
 31
0.0
  0
LINE
  5
13D
330
17
100
AcDbEntity
  8
0
420
16515586
100
AcDbLine
 10
-26.08415062898969
 20
-96.53816388332739
 30
0.0
 11
50.36232016357608
 21
86.39234171928354
 31
0.0
  0
LINE
  5
13E
330
17
100
AcDbEntity
  8
0
420
16515586
100
AcDbLine
 10
-27.29519355173252
 20
-96.20276715860858
 30
0.0
 11
52.51746299612958
 21
85.09944817946918
 31
0.0
  0
LINE
  5
13F
330
17
100
AcDbEntity
  8
0
420
16515586
100
AcDbLine
 10
-28.501926246997634
 20
-95.85217890173757
 30
0.0
 11
54.639434673426926
 21
83.75280400421417
 31
0.0
  0
LINE
  5
140
330
17
100
AcDbEntity
  8
0
420
16515586
100
AcDbLine
 10
-29.70415815770351
 20
-95.48645447466427
 30
0.0
 11
56.7268949126757
 21
82.35325976284271
 31
0.0
  0
LINE
  5
141
330
17
100
AcDbEntity
  8
0
420
16450307
100
AcDbLine
 10
-30.901699437494745
 20
-95.10565162951538
 30
0.0
 11
58.77852522924729
 21
80.90169943749476
 31
0.0
  0
LINE
  5
142
330
17
100
AcDbEntity
  8
0
420
16450307
100
AcDbLine
 10
-32.09436098072094
 20
-94.7098304994744
 30
0.0
 11
60.793029769460546
 21
79.39903986478353
 31
0.0
  0
LINE
  5
143
330
17
100
AcDbEntity
  8
0
420
16450307
100
AcDbLine
 10
-33.28195445229868
 20
-94.29905358928643
 30
0.0
 11
62.76913612907008
 21
77.84623015670233
 31
0.0
  0
LINE
  5
144
330
17
100
AcDbEntity
  8
0
420
16385028
100
AcDbLine
 10
-34.464292317451736
 20
-93.87338576538741
 30
0.0
 11
64.70559615694445
 21
76.24425110114474
 31
0.0
  0
LINE
  5
145
330
17
100
AcDbEntity
  8
0
420
16385028
100
AcDbLine
 10
-35.641187871325094
 20
-93.43289424566117
 30
0.0
 11
66.60118674342522
 21
74.59411454241817
 31
0.0
  0
LINE
  5
146
330
17
100
AcDbEntity
  8
0
420
16385028
100
AcDbLine
 10
-36.8124552684678
 20
-92.97764858882513
 30
0.0
 11
68.45471059286885
 21
72.89686274214115
 31
0.0
  0
LINE
  5
147
330
17
100
AcDbEntity
  8
0
420
16319749
100
AcDbLine
 10
-37.97790955218013
 20
-92.5077206834458
 30
0.0
 11
70.26499697988494
 21
71.15356772092852
 31
0.0
  0
LINE
  5
148
330
17
100
AcDbEntity
  8
0
420
16319749
100
AcDbLine
 10
-39.137366683720266
 20
-92.02318473658704
 30
0.0
 11
72.03090248879069
 21
69.36533058128047
 31
0.0
  0
LINE
  5
149
330
17
100
AcDbEntity
  8
0
420
16319749
100
AcDbLine
 10
-40.2906435713663
 20
-91.52411726209175
 30
0.0
 11
73.75131173581742
 21
67.5332808121024
 31
0.0
  0
LINE
  5
14A
330
17
100
AcDbEntity
  8
0
420
16319749
100
AcDbLine
 10
-41.43755809932841
 20
-91.01059706849956
 30
0.0
 11
75.42513807361038
 21
65.65857557529566
 31
0.0
  0
LINE
  5
14B
330
17
100
AcDbEntity
  8
0
420
16254470
100
AcDbLine
 10
-42.577929156507274
 20
-90.48270524660195
 30
0.0
 11
77.05132427757894
 21
63.74239897486896
 31
0.0
  0
LINE
  5
14C
330
17
100
AcDbEntity
  8
0
420
16254470
100
AcDbLine
 10
-43.711576665093304
 20
-89.94052515663708
 30
0.0
 11
78.62884321366191
 21
61.78596130903341
 31
0.0
  0
LINE
  5
14D
330
17
100
AcDbEntity
  8
0
420
16254470
100
AcDbLine
 10
-44.83832160900325
 20
-89.38414241512635
 30
0.0
 11
80.1566984870877
 21
59.79049830575184
 31
0.0
  0
LINE
  5
14E
330
17
100
AcDbEntity
  8
0
420
16189191
100
AcDbLine
 10
-45.957986062148784
 20
-88.81364488135448
 30
0.0
 11
81.6339250717184
 21
57.75727034222676
 31
0.0
  0
LINE
  5
14F
330
17
100
AcDbEntity
  8
0
420
16189191
100
AcDbLine
 10
-47.07039321653326
 20
-88.2291226434953
 30
0.0
 11
83.05958991958128
 21
55.68756164881879
 31
0.0
  0
LINE
  5
150
330
17
100
AcDbEntity
  8
0
420
16123912
100
AcDbLine
 10
-48.175367410171546
 20
-87.63066800438634
 30
0.0
 11
84.43279255020151
 21
53.58267949789963
 31
0.0
  0
LINE
  5
151
330
17
100
AcDbEntity
  8
0
420
16123912
100
AcDbLine
 10
-49.27273415482919
 20
-87.01837546695255
 30
0.0
 11
85.75266561936525
 21
51.443953378150596
 31
0.0
  0
LINE
  5
152
330
17
100
AcDbEntity
  8
0
420
16058633
100
AcDbLine
 10
-50.36232016357608
 20
-86.39234171928352
 30
0.0
 11
87.01837546695255
 21
49.27273415482916
 31
0.0
  0
LINE
  5
153
330
17
100
AcDbEntity
  8
0
420
16058633
100
AcDbLine
 10
-51.44395337815065
 20
-85.75266561936522
 30
0.0
 11
88.2291226434953
 21
47.070393216533255
 31
0.0
  0
LINE
  5
154
330
17
100
AcDbEntity
  8
0
420
16058633
100
AcDbLine
 10
-52.51746299612958
 20
-85.09944817946915
 30
0.0
 11
89.3841424151264
 21
44.8383216090032
 31
0.0
  0
LINE
  5
155
330
17
100
AcDbEntity
  8
0
420
15993354
100
AcDbLine
 10
-53.58267949789969
 20
-84.43279255020151
 30
0.0
 11
90.48270524660195
 21
42.577929156507224
 31
0.0
  0
LINE
  5
156
330
17
100
AcDbEntity
  8
0
420
15993354
100
AcDbLine
 10
-54.6394346734269
 20
-83.75280400421417
 30
0.0
 11
91.52411726209175
 21
40.290643571366275
 31
0.0
  0
LINE
  5
157
330
17
100
AcDbEntity
  8
0
420
15928075
100
AcDbLine
 10
-55.68756164881881
 20
-83.05958991958128
 30
0.0
 11
92.5077206834458
 21
37.9779095521801
 31
0.0
  0
LINE
  5
158
330
17
100
AcDbEntity
  8
0
420
15928075
100
AcDbLine
 10
-56.72689491267566
 20
-82.35325976284273
 30
0.0
 11
93.43289424566123
 21
35.641187871325045
 31
0.0
  0
LINE
  5
159
330
17
100
AcDbEntity
  8
0
420
15862796
100
AcDbLine
 10
-57.75727034222678
 20
-81.63392507171837
 30
0.0
 11
94.29905358928646
 21
33.28195445229862
 31
0.0
  0
LINE
  5
15A
330
17
100
AcDbEntity
  8
0
420
15862796
100
AcDbLine
 10
-58.77852522924735
 20
-80.90169943749473
 30
0.0
 11
95.10565162951538
 21
30.901699437494674
 31
0.0
  0
LINE
  5
15B
330
17
100
AcDbEntity
  8
0
420
15797517
100
AcDbLine
 10
-59.790498305751896
 20
-80.15669848708764
 30
0.0
 11
95.85217890173757
 21
28.501926246997616
 31
0.0
  0
LINE
  5
15C
330
17
100
AcDbEntity
  8
0
420
15797517
100
AcDbLine
 10
-60.793029769460546
 20
-79.39903986478353
 30
0.0
 11
96.53816388332739
 21
26.084150628989676
 31
0.0
  0
LINE
  5
15D
330
17
100
AcDbEntity
  8
0
420
15732238
100
AcDbLine
 10
-61.78596130903345
 20
-78.6288432136619
 30
0.0
 11
97.1631732914674
 21
23.64989970237243
 31
0.0
  0
LINE
  5
15E
330
17
100
AcDbEntity
  8
0
420
15732238
100
AcDbLine
 10
-62.76913612907007
 20
-77.84623015670232
 30
0.0
 11
97.72681235681935
 21
21.200710992205398
 31
0.0
  0
LINE
  5
15F
330
17
100
AcDbEntity
  8
0
420
15666959
100
AcDbLine
 10
-63.742398974868976
 20
-77.05132427757894
 30
0.0
 11
98.2287250728689
 21
18.738131458572465
 31
0.0
  0
LINE
  5
160
330
17
100
AcDbEntity
  8
0
420
15666959
100
AcDbLine
 10
-64.70559615694444
 20
-76.24425110114478
 30
0.0
 11
98.66859442078683
 21
16.263716519488344
 31
0.0
  0
LINE
  5
161
330
17
100
AcDbEntity
  8
0
420
15601680
100
AcDbLine
 10
-65.65857557529566
 20
-75.42513807361037
 30
0.0
 11
99.04614256966514
 21
13.779029068463775
 31
0.0
  0
LINE
  5
162
330
17
100
AcDbEntity
  8
0
420
15601680
100
AcDbLine
 10
-66.60118674342519
 20
-74.59411454241818
 30
0.0
 11
99.36113105200086
 21
11.285638487348107
 31
0.0
  0
LINE
  5
163
330
17
100
AcDbEntity
  8
0
420
15536401
100
AcDbLine
 10
-67.53328081210245
 20
-73.7513117358174
 30
0.0
 11
99.61336091431724
 21
8.785119655074327
 31
0.0
  0
LINE
  5
164
330
17
100
AcDbEntity
  8
0
420
15471122
100
AcDbLine
 10
-68.45471059286888
 20
-72.89686274214114
 30
0.0
 11
99.80267284282715
 21
6.279051952931332
 31
0.0
  0
LINE
  5
165
330
17
100
AcDbEntity
  8
0
420
15471122
100
AcDbLine
 10
-69.36533058128052
 20
-72.03090248879067
 30
0.0
 11
99.92894726405892
 21
3.769018266993419
 31
0.0
  0
LINE
  5
166
330
17
100
AcDbEntity
  8
0
420
15405843
100
AcDbLine
 10
-70.26499697988494
 20
-71.1535677209285
 30
0.0
 11
99.99210442038161
 21
1.2566039883352023
 31
0.0
  0
LINE
  5
167
330
17
100
AcDbEntity
  8
0
420
15405843
100
AcDbLine
 10
-71.15356772092855
 20
-70.26499697988491
 30
0.0
 11
99.99210442038161
 21
-1.2566039883352427
 31
0.0
  0
LINE
  5
168
330
17
100
AcDbEntity
  8
0
420
15340564
100
AcDbLine
 10
-72.03090248879069
 20
-69.36533058128047
 30
0.0
 11
99.92894726405892
 21
-3.769018266993459
 31
0.0
  0
LINE
  5
169
330
17
100
AcDbEntity
  8
0
420
15275285
100
AcDbLine
 10
-72.89686274214117
 20
-68.45471059286885
 30
0.0
 11
99.80267284282715
 21
-6.279051952931372
 31
0.0
  0
LINE
  5
16A
330
17
100
AcDbEntity
  8
0
420
15275285
100
AcDbLine
 10
-73.75131173581741
 20
-67.53328081210243
 30
0.0
 11
99.61336091431724
 21
-8.785119655074366
 31
0.0
  0
LINE
  5
16B
330
17
100
AcDbEntity
  8
0
420
15210006
100
AcDbLine
 10
-74.59411454241821
 20
-66.60118674342517
 30
0.0
 11
99.36113105200086
 21
-11.285638487348146
 31
0.0
  0
LINE
  5
16C
330
17
100
AcDbEntity
  8
0
420
15210006
100
AcDbLine
 10
-75.42513807361038
 20
-65.65857557529564
 30
0.0
 11
99.04614256966514
 21
-13.779029068463815
 31
0.0
  0
LINE
  5
16D
330
17
100
AcDbEntity
  8
0
420
15144727
100
AcDbLine
 10
-76.2442511011448
 20
-64.70559615694441
 30
0.0
 11
98.6685944207868
 21
-16.263716519488383
 31
0.0
  0
LINE
  5
16E
330
17
100
AcDbEntity
  8
0
420
15079448
100
AcDbLine
 10
-77.05132427757894
 20
-63.742398974868955
 30
0.0
 11
98.22872507286885
 21
-18.738131458572507
 31
0.0
  0
LINE
  5
16F
330
17
100
AcDbEntity
  8
0
420
15014169
100
AcDbLine
 10
-77.84623015670236
 20
-62.76913612907003
 30
0.0
 11
97.72681235681932
 21
-21.200710992205533
 31
0.0
  0
LINE
  5
170
330
17
100
AcDbEntity
  8
0
420
15014169
100
AcDbLine
 10
-78.62884321366191
 20
-61.7859613090334
 30
0.0
 11
97.16317329146736
 21
-23.64989970237255
 31
0.0
  0
LINE
  5
171
330
17
100
AcDbEntity
  8
0
420
14948890
100
AcDbLine
 10
-79.39903986478357
 20
-60.793029769460496
 30
0.0
 11
96.53816388332734
 21
-26.084150628989782
 31
0.0
  0
LINE
  5
172
330
17
100
AcDbEntity
  8
0
420
14883611
100
AcDbLine
 10
-80.15669848708764
 20
-59.79049830575192
 30
0.0
 11
95.85217890173762
 21
-28.501926246997577
 31
0.0
  0
LINE
  5
173
330
17
100
AcDbEntity
  8
0
420
14818332
100
AcDbLine
 10
-80.90169943749473
 20
-58.77852522924732
 30
0.0
 11
95.10565162951538
 21
-30.901699437494717
 31
0.0
  0
LINE
  5
174
330
17
100
AcDbEntity
  8
0
420
14818332
100
AcDbLine
 10
-81.6339250717184
 20
-57.757270342226754
 30
0.0
 11
94.29905358928646
 21
-33.28195445229866
 31
0.0
  0
LINE
  5
175
330
17
100
AcDbEntity
  8
0
420
14753053
100
AcDbLine
 10
-82.35325976284274
 20
-56.72689491267564
 30
0.0
 11
93.4328942456612
 21
-35.641187871325094
 31
0.0
  0
LINE
  5
176
330
17
100
AcDbEntity
  8
0
420
14687774
100
AcDbLine
 10
-83.05958991958128
 20
-55.68756164881879
 30
0.0
 11
92.5077206834458
 21
-37.97790955218013
 31
0.0
  0
LINE
  5
177
330
17
100
AcDbEntity
  8
0
420
14687774
100
AcDbLine
 10
-83.75280400421418
 20
-54.63943467342687
 30
0.0
 11
91.52411726209174
 21
-40.29064357136633
 31
0.0
  0
LINE
  5
178
330
17
100
AcDbEntity
  8
0
420
14622495
100
AcDbLine
 10
-84.43279255020153
 20
-53.58267949789962
 30
0.0
 11
90.4827052466019
 21
-42.577929156507345
 31
0.0
  0
LINE
  5
179
330
17
100
AcDbEntity
  8
0
420
14557216
100
AcDbLine
 10
-85.09944817946922
 20
-52.517462996129524
 30
0.0
 11
89.38414241512635
 21
-44.838321609003316
 31
0.0
  0
LINE
  5
17A
330
17
100
AcDbEntity
  8
0
420
14491937
100
AcDbLine
 10
-85.7526656193652
 20
-51.44395337815065
 30
0.0
 11
88.22912264349536
 21
-47.0703932165332
 31
0.0
  0
LINE
  5
17B
330
17
100
AcDbEntity
  8
0
420
14426658
100
AcDbLine
 10
-86.39234171928352
 20
-50.3623201635761
 30
0.0
 11
87.01837546695256
 21
-49.272734154829124
 31
0.0
  0
LINE
  5
17C
330
17
100
AcDbEntity
  8
0
420
14426658
100
AcDbLine
 10
-87.01837546695256
 20
-49.27273415482915
 30
0.0
 11
85.75266561936525
 21
-51.44395337815062
 31
0.0
  0
LINE
  5
17D
330
17
100
AcDbEntity
  8
0
420
14361379
100
AcDbLine
 10
-87.63066800438637
 20
-48.17536741017153
 30
0.0
 11
84.43279255020151
 21
-53.582679497899676
 31
0.0
  0
LINE
  5
17E
330
17
100
AcDbEntity
  8
0
420
14296100
100
AcDbLine
 10
-88.22912264349534
 20
-47.070393216533255
 30
0.0
 11
83.05958991958123
 21
-55.687561648818814
 31
0.0
  0
LINE
  5
17F
330
17
100
AcDbEntity
  8
0
420
14230821
100
AcDbLine
 10
-88.81364488135446
 20
-45.95798606214874
 30
0.0
 11
81.63392507171837
 21
-57.75727034222681
 31
0.0
  0
LINE
  5
180
330
17
100
AcDbEntity
  8
0
420
14165542
100
AcDbLine
 10
-89.3841424151264
 20
-44.83832160900319
 30
0.0
 11
80.15669848708762
 21
-59.79049830575194
 31
0.0
  0
LINE
  5
181
330
17
100
AcDbEntity
  8
0
420
14165542
100
AcDbLine
 10
-89.94052515663714
 20
-43.711576665093254
 30
0.0
 11
78.62884321366184
 21
-61.785961309033496
 31
0.0
  0
LINE
  5
182
330
17
100
AcDbEntity
  8
0
420
14100263
100
AcDbLine
 10
-90.48270524660194
 20
-42.57792915650729
 30
0.0
 11
77.05132427757894
 21
-63.74239897486892
 31
0.0
  0
LINE
  5
183
330
17
100
AcDbEntity
  8
0
420
14034984
100
AcDbLine
 10
-91.01059706849956
 20
-41.43755809932844
 30
0.0
 11
75.42513807361038
 21
-65.65857557529561
 31
0.0
  0
LINE
  5
184
330
17
100
AcDbEntity
  8
0
420
13969705
100
AcDbLine
 10
-91.52411726209175
 20
-40.290643571366275
 30
0.0
 11
73.75131173581742
 21
-67.53328081210243
 31
0.0
  0
LINE
  5
185
330
17
100
AcDbEntity
  8
0
420
13904426
100
AcDbLine
 10
-92.02318473658704
 20
-39.137366683720245
 30
0.0
 11
72.03090248879069
 21
-69.36533058128047
 31
0.0
  0
LINE
  5
186
330
17
100
AcDbEntity
  8
0
420
13839147
100
AcDbLine
 10
-92.50772068344581
 20
-37.9779095521801
 30
0.0
 11
70.26499697988491
 21
-71.15356772092855
 31
0.0
  0
LINE
  5
187
330
17
100
AcDbEntity
  8
0
420
13773868
100
AcDbLine
 10
-92.97764858882515
 20
-36.81245526846777
 30
0.0
 11
68.45471059286885
 21
-72.8968627421412
 31
0.0
  0
LINE
  5
188
330
17
100
AcDbEntity
  8
0
420
13708589
100
AcDbLine
 10
-93.43289424566122
 20
-35.641187871325045
 30
0.0
 11
66.60118674342512
 21
-74.59411454241824
 31
0.0
  0
LINE
  5
189
330
17
100
AcDbEntity
  8
0
420
13708589
100
AcDbLine
 10
-93.87338576538744
 20
-34.46429231745166
 30
0.0
 11
64.70559615694435
 21
-76.24425110114485
 31
0.0
  0
LINE
  5
18A
330
17
100
AcDbEntity
  8
0
420
13643310
100
AcDbLine
 10
-94.29905358928646
 20
-33.281954452298606
 30
0.0
 11
62.76913612906997
 21
-77.84623015670242
 31
0.0
  0
LINE
  5
18B
330
17
100
AcDbEntity
  8
0
420
13512752
100
AcDbLine
 10
-94.70983049947444
 20
-32.09436098072097
 30
0.0
 11
60.7930297694606
 21
-79.39903986478349
 31
0.0
  0
LINE
  5
18C
330
17
100
AcDbEntity
  8
0
420
13512752
100
AcDbLine
 10
-95.10565162951535
 20
-30.901699437494745
 30
0.0
 11
58.77852522924732
 21
-80.90169943749473
 31
0.0
  0
LINE
  5
18D
330
17
100
AcDbEntity
  8
0
420
13447473
100
AcDbLine
 10
-95.4864544746643
 20
-29.704158157703485
 30
0.0
 11
56.72689491267564
 21
-82.35325976284273
 31
0.0
  0
LINE
  5
18E
330
17
100
AcDbEntity
  8
0
420
13382194
100
AcDbLine
 10
-95.85217890173759
 20
-28.501926246997606
 30
0.0
 11
54.63943467342689
 21
-83.75280400421417
 31
0.0
  0
LINE
  5
18F
330
17
100
AcDbEntity
  8
0
420
13316915
100
AcDbLine
 10
-96.2027671586086
 20
-27.29519355173252
 30
0.0
 11
52.517462996129524
 21
-85.0994481794692
 31
0.0
  0
LINE
  5
190
330
17
100
AcDbEntity
  8
0
420
13251636
100
AcDbLine
 10
-96.53816388332739
 20
-26.08415062898965
 30
0.0
 11
50.362320163576044
 21
-86.39234171928358
 31
0.0
  0
LINE
  5
191
330
17
100
AcDbEntity
  8
0
420
13186357
100
AcDbLine
 10
-96.85831611286312
 20
-24.868988716485443
 30
0.0
 11
48.175367410171475
 21
-87.6306680043864
 31
0.0
  0
LINE
  5
192
330
17
100
AcDbEntity
  8
0
420
13121078
100
AcDbLine
 10
-97.1631732914674
 20
-23.649899702372416
 30
0.0
 11
45.957986062148684
 21
-88.8136448813545
 31
0.0
  0
LINE
  5
193
330
17
100
AcDbEntity
  8
0
420
13055799
100
AcDbLine
 10
-97.4526872786577
 20
-22.427076094938155
 30
0.0
 11
43.71157666509333
 21
-89.94052515663708
 31
0.0
  0
LINE
  5
194
330
17
100
AcDbEntity
  8
0
420
12990520
100
AcDbLine
 10
-97.72681235681935
 20
-21.20071099220548
 30
0.0
 11
41.43755809932844
 21
-91.01059706849955
 31
0.0
  0
LINE
  5
195
330
17
100
AcDbEntity
  8
0
420
12925241
100
AcDbLine
 10
-97.98550523842468
 20
-19.9709980514407
 30
0.0
 11
39.137366683720266
 21
-92.02318473658704
 31
0.0
  0
LINE
  5
196
330
17
100
AcDbEntity
  8
0
420
12859962
100
AcDbLine
 10
-98.22872507286888
 20
-18.73813145857245
 30
0.0
 11
36.8124552684678
 21
-92.97764858882513
 31
0.0
  0
LINE
  5
197
330
17
100
AcDbEntity
  8
0
420
12794683
100
AcDbLine
 10
-98.45643345292055
 20
-17.502305897527588
 30
0.0
 11
34.46429231745169
 21
-93.87338576538741
 31
0.0
  0
LINE
  5
198
330
17
100
AcDbEntity
  8
0
420
12729404
100
AcDbLine
 10
-98.66859442078682
 20
-16.26371651948833
 30
0.0
 11
32.09436098072089
 21
-94.70983049947445
 31
0.0
  0
LINE
  5
199
330
17
100
AcDbEntity
  8
0
420
12664125
100
AcDbLine
 10
-98.86517447379141
 20
-15.022558912075667
 30
0.0
 11
29.704158157703432
 21
-95.48645447466433
 31
0.0
  0
LINE
  5
19A
330
17
100
AcDbEntity
  8
0
420
12598846
100
AcDbLine
 10
-99.04614256966512
 20
-13.77902906846376
 30
0.0
 11
27.29519355173244
 21
-96.20276715860864
 31
0.0
  0
LINE
  5
19B
330
17
100
AcDbEntity
  8
0
420
12533567
100
AcDbLine
 10
-99.21147013144778
 20
-12.533323356430365
 30
0.0
 11
24.86898871648536
 21
-96.85831611286316
 31
0.0
  0
LINE
  5
19C
330
17
100
AcDbEntity
  8
0
420
12468288
100
AcDbLine
 10
-99.36113105200084
 20
-11.285638487348187
 30
0.0
 11
22.427076094938155
 21
-97.4526872786577
 31
0.0
  0
LINE
  5
19D
330
17
100
AcDbEntity
  8
0
420
12403009
100
AcDbLine
 10
-99.49510169813001
 20
-10.0361714851215
 30
0.0
 11
19.970998051440723
 21
-97.98550523842468
 31
0.0
  0
LINE
  5
19E
330
17
100
AcDbEntity
  8
0
420
12272451
100
AcDbLine
 10
-99.61336091431725
 20
-8.785119655074313
 30
0.0
 11
17.502305897527602
 21
-98.45643345292052
 31
0.0
  0
LINE
  5
19F
330
17
100
AcDbEntity
  8
0
420
12207172
100
AcDbLine
 10
-99.7158900260614
 20
-7.532680552793264
 30
0.0
 11
15.022558912075695
 21
-98.86517447379141
 31
0.0
  0
LINE
  5
1A0
330
17
100
AcDbEntity
  8
0
420
12141893
100
AcDbLine
 10
-99.80267284282715
 20
-6.279051952931318
 30
0.0
 11
12.533323356430378
 21
-99.21147013144778
 31
0.0
  0
LINE
  5
1A1
330
17
100
AcDbEntity
  8
0
420
12076614
100
AcDbLine
 10
-99.87369566060174
 20
-5.024431817976928
 30
0.0
 11
10.03617148512142
 21
-99.49510169813003
 31
0.0
  0
LINE
  5
1A2
330
17
100
AcDbEntity
  8
0
420
12011335
100
AcDbLine
 10
-99.92894726405893
 20
-3.7690182669934047
 30
0.0
 11
7.532680552793184
 21
-99.71589002606139
 31
0.0
  0
LINE
  5
1A3
330
17
100
AcDbEntity
  8
0
420
11946056
100
AcDbLine
 10
-99.96841892833001
 20
-2.5130095443336895
 30
0.0
 11
5.024431817976847
 21
-99.87369566060177
 31
0.0
  0
LINE
  5
1A4
330
17
100
AcDbEntity
  8
0
420
11880777
100
AcDbLine
 10
-99.99210442038161
 20
-1.2566039883352833
 30
0.0
 11
2.5130095443337974
 21
-99.96841892833001
 31
0.0
  0
LINE
  5
1A5
330
17
100
AcDbEntity
  8
0
420
11815498
100
AcDbLine
 10
-100.0
 20
-1.3489183403134318e-14
 30
0.0
 11
2.6978366806268635e-14
 21
-100.0
 31
0.0
  0
LINE
  5
1A6
330
17
100
AcDbEntity
  8
0
420
11750219
100
AcDbLine
 10
-99.99210442038161
 20
1.2566039883352562
 30
0.0
 11
-2.5130095443337432
 21
-99.96841892833001
 31
0.0
  0
LINE
  5
1A7
330
17
100
AcDbEntity
  8
0
420
11619661
100
AcDbLine
 10
-99.96841892833001
 20
2.513009544333757
 30
0.0
 11
-5.024431817976968
 21
-99.87369566060174
 31
0.0
  0
LINE
  5
1A8
330
17
100
AcDbEntity
  8
0
420
11554382
100
AcDbLine
 10
-99.92894726405892
 20
3.7690182669934726
 30
0.0
 11
-7.5326805527933045
 21
-99.71589002606139
 31
0.0
  0
LINE
  5
1A9
330
17
100
AcDbEntity
  8
0
420
11489103
100
AcDbLine
 10
-99.87369566060174
 20
5.024431817976981
 30
0.0
 11
-10.036171485121542
 21
-99.49510169813
 31
0.0
  0
LINE
  5
1AA
330
17
100
AcDbEntity
  8
0
420
11423824
100
AcDbLine
 10
-99.80267284282715
 20
6.279051952931372
 30
0.0
 11
-12.5333233564305
 21
-99.21147013144778
 31
0.0
  0
LINE
  5
1AB
330
17
100
AcDbEntity
  8
0
420
11358545
100
AcDbLine
 10
-99.7158900260614
 20
7.532680552793318
 30
0.0
 11
-15.022558912075802
 21
-98.86517447379138
 31
0.0
  0
LINE
  5
1AC
330
17
100
AcDbEntity
  8
0
420
11293266
100
AcDbLine
 10
-99.61336091431725
 20
8.785119655074286
 30
0.0
 11
-17.502305897527553
 21
-98.45643345292055
 31
0.0
  0
LINE
  5
1AD
330
17
100
AcDbEntity
  8
0
420
11162708
100
AcDbLine
 10
-99.49510169813001
 20
10.036171485121475
 30
0.0
 11
-19.97099805144067
 21
-97.98550523842472
 31
0.0
  0
LINE
  5
1AE
330
17
100
AcDbEntity
  8
0
420
11097429
100
AcDbLine
 10
-99.36113105200084
 20
11.28563848734816
 30
0.0
 11
-22.4270760949381
 21
-97.45268727865772
 31
0.0
  0
LINE
  5
1AF
330
17
100
AcDbEntity
  8
0
420
11032150
100
AcDbLine
 10
-99.21147013144778
 20
12.533323356430435
 30
0.0
 11
-24.868988716485486
 21
-96.85831611286311
 31
0.0
  0
LINE
  5
1B0
330
17
100
AcDbEntity
  8
0
420
10966871
100
AcDbLine
 10
-99.04614256966512
 20
13.779029068463815
 30
0.0
 11
-27.29519355173255
 21
-96.20276715860858
 31
0.0
  0
LINE
  5
1B1
330
17
100
AcDbEntity
  8
0
420
10901592
100
AcDbLine
 10
-98.8651744737914
 20
15.022558912075734
 30
0.0
 11
-29.704158157703535
 21
-95.48645447466427
 31
0.0
  0
LINE
  5
1B2
330
17
100
AcDbEntity
  8
0
420
10771034
100
AcDbLine
 10
-98.6685944207868
 20
16.263716519488398
 30
0.0
 11
-32.09436098072103
 21
-94.7098304994744
 31
0.0
  0
LINE
  5
1B3
330
17
100
AcDbEntity
  8
0
420
10705755
100
AcDbLine
 10
-98.45643345292054
 20
17.502305897527645
 30
0.0
 11
-34.464292317451786
 21
-93.87338576538735
 31
0.0
  0
LINE
  5
1B4
330
17
100
AcDbEntity
  8
0
420
10640476
100
AcDbLine
 10
-98.22872507286885
 20
18.73813145857252
 30
0.0
 11
-36.81245526846791
 21
-92.97764858882508
 31
0.0
  0
LINE
  5
1B5
330
17
100
AcDbEntity
  8
0
420
10575197
100
AcDbLine
 10
-97.98550523842468
 20
19.970998051440684
 30
0.0
 11
-39.137366683720195
 21
-92.02318473658704
 31
0.0
  0
LINE
  5
1B6
330
17
100
AcDbEntity
  8
0
420
10509918
100
AcDbLine
 10
-97.72681235681935
 20
21.20071099220545
 30
0.0
 11
-41.43755809932839
 21
-91.01059706849959
 31
0.0
  0
LINE
  5
1B7
330
17
100
AcDbEntity
  8
0
420
10379360
100
AcDbLine
 10
-97.4526872786577
 20
22.42707609493813
 30
0.0
 11
-43.71157666509329
 21
-89.94052515663711
 31
0.0
  0
LINE
  5
1B8
330
17
100
AcDbEntity
  8
0
420
10314081
100
AcDbLine
 10
-97.16317329146739
 20
23.649899702372483
 30
0.0
 11
-45.957986062148805
 21
-88.81364488135445
 31
0.0
  0
LINE
  5
1B9
330
17
100
AcDbEntity
  8
0
420
10248802
100
AcDbLine
 10
-96.85831611286311
 20
24.868988716485497
 30
0.0
 11
-48.17536741017156
 21
-87.63066800438634
 31
0.0
  0
LINE
  5
1BA
330
17
100
AcDbEntity
  8
0
420
10118244
100
AcDbLine
 10
-96.53816388332737
 20
26.084150628989732
 30
0.0
 11
-50.362320163576136
 21
-86.39234171928352
 31
0.0
  0
LINE
  5
1BB
330
17
100
AcDbEntity
  8
0
420
10052965
100
AcDbLine
 10
-96.20276715860858
 20
27.29519355173257
 30
0.0
 11
-52.51746299612964
 21
-85.09944817946915
 31
0.0
  0
LINE
  5
1BC
330
17
100
AcDbEntity
  8
0
420
9987686
100
AcDbLine
 10
-95.85217890173757
 20
28.501926246997673
 30
0.0
 11
-54.63943467342699
 21
-83.75280400421413
 31
0.0
  0
LINE
  5
1BD
330
17
100
AcDbEntity
  8
0
420
9857128
100
AcDbLine
 10
-95.4864544746643
 20
29.70415815770347
 30
0.0
 11
-56.726894912675604
 21
-82.35325976284278
 31
0.0
  0
LINE
  5
1BE
330
17
100
AcDbEntity
  8
0
420
9791849
100
AcDbLine
 10
-95.10565162951538
 20
30.901699437494727
 30
0.0
 11
-58.77852522924729
 21
-80.90169943749476
 31
0.0
  0
LINE
  5
1BF
330
17
100
AcDbEntity
  8
0
420
9726570
100
AcDbLine
 10
-94.70983049947444
 20
32.09436098072094
 30
0.0
 11
-60.793029769460524
 21
-79.39903986478355
 31
0.0
  0
LINE
  5
1C0
330
17
100
AcDbEntity
  8
0
420
9661291
100
AcDbLine
 10
-94.29905358928644
 20
33.28195445229868
 30
0.0
 11
-62.76913612907007
 21
-77.84623015670233
 31
0.0
  0
LINE
  5
1C1
330
17
100
AcDbEntity
  8
0
420
9530733
100
AcDbLine
 10
-93.87338576538741
 20
34.46429231745172
 30
0.0
 11
-64.70559615694445
 21
-76.24425110114474
 31
0.0
  0
LINE
  5
1C2
330
17
100
AcDbEntity
  8
0
420
9465454
100
AcDbLine
 10
-93.43289424566119
 20
35.641187871325094
 30
0.0
 11
-66.60118674342522
 21
-74.59411454241818
 31
0.0
  0
LINE
  5
1C3
330
17
100
AcDbEntity
  8
0
420
9400175
100
AcDbLine
 10
-92.97764858882512
 20
36.81245526846782
 30
0.0
 11
-68.45471059286892
 21
-72.8968627421411
 31
0.0
  0
LINE
  5
1C4
330
17
100
AcDbEntity
  8
0
420
9269617
100
AcDbLine
 10
-92.50772068344578
 20
37.97790955218016
 30
0.0
 11
-70.26499697988498
 21
-71.15356772092849
 31
0.0
  0
LINE
  5
1C5
330
17
100
AcDbEntity
  8
0
420
9204338
100
AcDbLine
 10
-92.023184736587
 20
39.137366683720295
 30
0.0
 11
-72.03090248879076
 21
-69.36533058128043
 31
0.0
  0
LINE
  5
1C6
330
17
100
AcDbEntity
  8
0
420
9139059
100
AcDbLine
 10
-91.52411726209176
 20
40.290643571366246
 30
0.0
 11
-73.75131173581735
 21
-67.53328081210249
 31
0.0
  0
LINE
  5
1C7
330
17
100
AcDbEntity
  8
0
420
9008501
100
AcDbLine
 10
-91.01059706849956
 20
41.437558099328406
 30
0.0
 11
-75.42513807361037
 21
-65.65857557529567
 31
0.0
  0
LINE
  5
1C8
330
17
100
AcDbEntity
  8
0
420
8943222
100
AcDbLine
 10
-90.48270524660195
 20
42.57792915650727
 30
0.0
 11
-77.05132427757893
 21
-63.742398974868976
 31
0.0
  0
LINE
  5
1C9
330
17
100
AcDbEntity
  8
0
420
8877943
100
AcDbLine
 10
-89.9405251566371
 20
43.711576665093304
 30
0.0
 11
-78.62884321366191
 21
-61.785961309033425
 31
0.0
  0
LINE
  5
1CA
330
17
100
AcDbEntity
  8
0
420
8747385
100
AcDbLine
 10
-89.38414241512636
 20
44.83832160900324
 30
0.0
 11
-80.15669848708768
 21
-59.79049830575186
 31
0.0
  0
LINE
  5
1CB
330
17
100
AcDbEntity
  8
0
420
8682106
100
AcDbLine
 10
-88.81364488135443
 20
45.95798606214881
 30
0.0
 11
-81.63392507171844
 21
-57.7572703422267
 31
0.0
  0
LINE
  5
1CC
330
17
100
AcDbEntity
  8
0
420
8616827
100
AcDbLine
 10
-88.2291226434953
 20
47.0703932165333
 30
0.0
 11
-83.05958991958131
 21
-55.68756164881874
 31
0.0
  0
LINE
  5
1CD
330
17
100
AcDbEntity
  8
0
420
8486269
100
AcDbLine
 10
-87.63066800438634
 20
48.175367410171575
 30
0.0
 11
-84.43279255020157
 21
-53.58267949789956
 31
0.0
  0
LINE
  5
1CE
330
17
100
AcDbEntity
  8
0
420
8420990
100
AcDbLine
 10
-87.01837546695256
 20
49.27273415482914
 30
0.0
 11
-85.7526656193652
 21
-51.443953378150695
 31
0.0
  0
LINE
  5
1CF
330
17
100
AcDbEntity
  8
0
420
8290432
100
AcDbLine
 10
-86.39234171928354
 20
50.36232016357608
 30
0.0
 11
-87.01837546695256
 21
-49.27273415482918
 31
0.0
  0
LINE
  5
1D0
330
17
100
AcDbEntity
  8
0
420
8225153
100
AcDbLine
 10
-85.75266561936522
 20
51.44395337815064
 30
0.0
 11
-88.22912264349533
 21
-47.070393216533255
 31
0.0
  0
LINE
  5
1D1
330
17
100
AcDbEntity
  8
0
420
8159874
100
AcDbLine
 10
-85.09944817946918
 20
52.51746299612958
 30
0.0
 11
-89.38414241512639
 21
-44.83832160900321
 31
0.0
  0
LINE
  5
1D2
330
17
100
AcDbEntity
  8
0
420
8029316
100
AcDbLine
 10
-84.4327925502015
 20
53.582679497899676
 30
0.0
 11
-90.48270524660197
 21
-42.57792915650724
 31
0.0
  0
LINE
  5
1D3
330
17
100
AcDbEntity
  8
0
420
7964037
100
AcDbLine
 10
-83.75280400421417
 20
54.63943467342693
 30
0.0
 11
-91.52411726209178
 21
-40.290643571366225
 31
0.0
  0
LINE
  5
1D4
330
17
100
AcDbEntity
  8
0
420
7833479
100
AcDbLine
 10
-83.05958991958124
 20
55.68756164881884
 30
0.0
 11
-92.50772068344584
 21
-37.97790955218005
 31
0.0
  0
LINE
  5
1D5
330
17
100
AcDbEntity
  8
0
420
7768200
100
AcDbLine
 10
-82.35325976284271
 20
56.7268949126757
 30
0.0
 11
-93.43289424566123
 21
-35.64118787132499
 31
0.0
  0
LINE
  5
1D6
330
17
100
AcDbEntity
  8
0
420
7702921
100
AcDbLine
 10
-81.63392507171841
 20
57.75727034222674
 30
0.0
 11
-94.29905358928643
 21
-33.28195445229872
 31
0.0
  0
LINE
  5
1D7
330
17
100
AcDbEntity
  8
0
420
7572363
100
AcDbLine
 10
-80.90169943749476
 20
58.7785252292473
 30
0.0
 11
-95.10565162951534
 21
-30.901699437494766
 31
0.0
  0
LINE
  5
1D8
330
17
100
AcDbEntity
  8
0
420
7507084
100
AcDbLine
 10
-80.15669848708765
 20
59.79049830575188
 30
0.0
 11
-95.85217890173759
 21
-28.501926246997634
 31
0.0
  0
LINE
  5
1D9
330
17
100
AcDbEntity
  8
0
420
7376526
100
AcDbLine
 10
-79.39903986478353
 20
60.793029769460546
 30
0.0
 11
-96.53816388332739
 21
-26.084150628989676
 31
0.0
  0
LINE
  5
1DA
330
17
100
AcDbEntity
  8
0
420
7311247
100
AcDbLine
 10
-78.62884321366188
 20
61.78596130903345
 30
0.0
 11
-97.1631732914674
 21
-23.649899702372444
 31
0.0
  0
LINE
  5
1DB
330
17
100
AcDbEntity
  8
0
420
7180689
100
AcDbLine
 10
-77.84623015670232
 20
62.76913612907007
 30
0.0
 11
-97.72681235681935
 21
-21.200710992205423
 31
0.0
  0
LINE
  5
1DC
330
17
100
AcDbEntity
  8
0
420
7115410
100
AcDbLine
 10
-77.0513242775789
 20
63.742398974869
 30
0.0
 11
-98.22872507286888
 21
-18.7381314585724
 31
0.0
  0
LINE
  5
1DD
330
17
100
AcDbEntity
  8
0
420
7050131
100
AcDbLine
 10
-76.24425110114474
 20
64.70559615694445
 30
0.0
 11
-98.66859442078683
 21
-16.263716519488263
 31
0.0
  0
LINE
  5
1DE
330
17
100
AcDbEntity
  8
0
420
6919573
100
AcDbLine
 10
-75.42513807361034
 20
65.65857557529569
 30
0.0
 11
-99.04614256966514
 21
-13.779029068463695
 31
0.0
  0
LINE
  5
1DF
330
17
100
AcDbEntity
  8
0
420
6854294
100
AcDbLine
 10
-74.59411454241823
 20
66.60118674342515
 30
0.0
 11
-99.36113105200084
 21
-11.285638487348216
 31
0.0
  0
LINE
  5
1E0
330
17
100
AcDbEntity
  8
0
420
6723736
100
AcDbLine
 10
-73.7513117358174
 20
67.53328081210243
 30
0.0
 11
-99.61336091431724
 21
-8.78511965507434
 31
0.0
  0
LINE
  5
1E1
330
17
100
AcDbEntity
  8
0
420
6658457
100
AcDbLine
 10
-72.89686274214115
 20
68.45471059286888
 30
0.0
 11
-99.80267284282715
 21
-6.279051952931344
 31
0.0
  0
LINE
  5
1E2
330
17
100
AcDbEntity
  8
0
420
6527899
100
AcDbLine
 10
-72.03090248879069
 20
69.3653305812805
 30
0.0
 11
-99.92894726405892
 21
-3.769018266993432
 31
0.0
  0
LINE
  5
1E3
330
17
100
AcDbEntity
  8
0
420
6462620
100
AcDbLine
 10
-71.1535677209285
 20
70.26499697988494
 30
0.0
 11
-99.99210442038161
 21
-1.2566039883352158
 31
0.0
  0
LINE
  5
1E4
330
17
100
AcDbEntity
  8
0
420
6332062
100
AcDbLine
 10
-70.2649969798849
 20
71.15356772092855
 30
0.0
 11
-99.99210442038161
 21
1.2566039883353237
 31
0.0
  0
LINE
  5
1E5
330
17
100
AcDbEntity
  8
0
420
6266783
100
AcDbLine
 10
-69.36533058128046
 20
72.03090248879072
 30
0.0
 11
-99.92894726405892
 21
3.76901826699354
 31
0.0
  0
LINE
  5
1E6
330
17
100
AcDbEntity
  8
0
420
6136225
100
AcDbLine
 10
-68.45471059286882
 20
72.8968627421412
 30
0.0
 11
-99.80267284282715
 21
6.27905195293144
 31
0.0
  0
LINE
  5
1E7
330
17
100
AcDbEntity
  8
0
420
6070946
100
AcDbLine
 10
-67.53328081210246
 20
73.75131173581737
 30
0.0
 11
-99.61336091431725
 21
8.785119655074272
 31
0.0
  0
LINE
  5
1E8
330
17
100
AcDbEntity
  8
0
420
5940388
100
AcDbLine
 10
-66.60118674342516
 20
74.59411454241821
 30
0.0
 11
-99.36113105200084
 21
11.285638487348134
 31
0.0
  0
LINE
  5
1E9
330
17
100
AcDbEntity
  8
0
420
5875109
100
AcDbLine
 10
-65.65857557529564
 20
75.42513807361037
 30
0.0
 11
-99.04614256966512
 21
13.779029068463803
 31
0.0
  0
LINE
  5
1EA
330
17
100
AcDbEntity
  8
0
420
5744551
100
AcDbLine
 10
-64.70559615694442
 20
76.24425110114478
 30
0.0
 11
-98.6685944207868
 21
16.26371651948837
 31
0.0
  0
LINE
  5
1EB
330
17
100
AcDbEntity
  8
0
420
5679272
100
AcDbLine
 10
-63.742398974868955
 20
77.05132427757894
 30
0.0
 11
-98.22872507286885
 21
18.738131458572493
 31
0.0
  0
LINE
  5
1EC
330
17
100
AcDbEntity
  8
0
420
5548714
100
AcDbLine
 10
-62.76913612907003
 20
77.84623015670236
 30
0.0
 11
-97.72681235681934
 21
21.20071099220552
 31
0.0
  0
LINE
  5
1ED
330
17
100
AcDbEntity
  8
0
420
5483435
100
AcDbLine
 10
-61.7859613090334
 20
78.62884321366191
 30
0.0
 11
-97.16317329146736
 21
23.64989970237255
 31
0.0
  0
LINE
  5
1EE
330
17
100
AcDbEntity
  8
0
420
5352877
100
AcDbLine
 10
-60.793029769460496
 20
79.39903986478357
 30
0.0
 11
-96.53816388332737
 21
26.084150628989782
 31
0.0
  0
LINE
  5
1EF
330
17
100
AcDbEntity
  8
0
420
5287598
100
AcDbLine
 10
-59.79049830575184
 20
80.1566984870877
 30
0.0
 11
-95.85217890173755
 21
28.501926246997726
 31
0.0
  0
LINE
  5
1F0
330
17
100
AcDbEntity
  8
0
420
5157040
100
AcDbLine
 10
-58.77852522924732
 20
80.90169943749473
 30
0.0
 11
-95.10565162951538
 21
30.901699437494717
 31
0.0
  0
LINE
  5
1F1
330
17
100
AcDbEntity
  8
0
420
5091761
100
AcDbLine
 10
-57.75727034222676
 20
81.6339250717184
 30
0.0
 11
-94.29905358928646
 21
33.28195445229865
 31
0.0
  0
LINE
  5
1F2
330
17
100
AcDbEntity
  8
0
420
4961203
100
AcDbLine
 10
-56.72689491267564
 20
82.35325976284274
 30
0.0
 11
-93.4328942456612
 21
35.64118787132507
 31
0.0
  0
LINE
  5
1F3
330
17
100
AcDbEntity
  8
0
420
4895924
100
AcDbLine
 10
-55.687561648818786
 20
83.05958991958128
 30
0.0
 11
-92.5077206834458
 21
37.97790955218013
 31
0.0
  0
LINE
  5
1F4
330
17
100
AcDbEntity
  8
0
420
4765366
100
AcDbLine
 10
-54.63943467342689
 20
83.75280400421418
 30
0.0
 11
-91.52411726209174
 21
40.2906435713663
 31
0.0
  0
LINE
  5
1F5
330
17
100
AcDbEntity
  8
0
420
4700087
100
AcDbLine
 10
-53.58267949789963
 20
84.43279255020153
 30
0.0
 11
-90.48270524660192
 21
42.577929156507324
 31
0.0
  0
LINE
  5
1F6
330
17
100
AcDbEntity
  8
0
420
4569529
100
AcDbLine
 10
-52.517462996129524
 20
85.0994481794692
 30
0.0
 11
-89.38414241512633
 21
44.83832160900331
 31
0.0
  0
LINE
  5
1F7
330
17
100
AcDbEntity
  8
0
420
4438971
100
AcDbLine
 10
-51.443953378150596
 20
85.75266561936526
 30
0.0
 11
-88.22912264349527
 21
47.070393216533354
 31
0.0
  0
LINE
  5
1F8
330
17
100
AcDbEntity
  8
0
420
4373692
100
AcDbLine
 10
-50.3623201635761
 20
86.39234171928352
 30
0.0
 11
-87.01837546695259
 21
49.27273415482912
 31
0.0
  0
LINE
  5
1F9
330
17
100
AcDbEntity
  8
0
420
4243134
100
AcDbLine
 10
-49.27273415482916
 20
87.01837546695256
 30
0.0
 11
-85.75266561936525
 21
51.44395337815062
 31
0.0
  0
LINE
  5
1FA
330
17
100
AcDbEntity
  8
0
420
4177855
100
AcDbLine
 10
-48.175367410171525
 20
87.63066800438637
 30
0.0
 11
-84.43279255020151
 21
53.582679497899655
 31
0.0
  0
LINE
  5
1FB
330
17
100
AcDbEntity
  8
0
420
4047297
100
AcDbLine
 10
-47.07039321653325
 20
88.22912264349534
 30
0.0
 11
-83.05958991958126
 21
55.687561648818814
 31
0.0
  0
LINE
  5
1FC
330
17
100
AcDbEntity
  8
0
420
3982018
100
AcDbLine
 10
-45.95798606214876
 20
88.81364488135446
 30
0.0
 11
-81.63392507171837
 21
57.757270342226796
 31
0.0
  0
LINE
  5
1FD
330
17
100
AcDbEntity
  8
0
420
3851460
100
AcDbLine
 10
-44.838321609003195
 20
89.38414241512639
 30
0.0
 11
-80.15669848708762
 21
59.79049830575194
 31
0.0
  0
LINE
  5
1FE
330
17
100
AcDbEntity
  8
0
420
3786181
100
AcDbLine
 10
-43.71157666509325
 20
89.94052515663711
 30
0.0
 11
-78.62884321366184
 21
61.785961309033496
 31
0.0
  0
LINE
  5
1FF
330
17
100
AcDbEntity
  8
0
420
3655623
100
AcDbLine
 10
-42.57792915650722
 20
90.48270524660198
 30
0.0
 11
-77.05132427757886
 21
63.742398974869054
 31
0.0
  0
LINE
  5
200
330
17
100
AcDbEntity
  8
0
420
3525065
100
AcDbLine
 10
-41.437558099328434
 20
91.01059706849955
 30
0.0
 11
-75.42513807361043
 21
65.65857557529561
 31
0.0
  0
LINE
  5
201
330
17
100
AcDbEntity
  8
0
420
3459786
100
AcDbLine
 10
-40.290643571366275
 20
91.52411726209175
 30
0.0
 11
-73.75131173581741
 21
67.53328081210242
 31
0.0
  0
LINE
  5
202
330
17
100
AcDbEntity
  8
0
420
3329228
100
AcDbLine
 10
-39.137366683720245
 20
92.02318473658704
 30
0.0
 11
-72.03090248879069
 21
69.36533058128049
 31
0.0
  0
LINE
  5
203
330
17
100
AcDbEntity
  8
0
420
3263949
100
AcDbLine
 10
-37.9779095521801
 20
92.50772068344581
 30
0.0
 11
-70.26499697988491
 21
71.15356772092855
 31
0.0
  0
LINE
  5
204
330
17
100
AcDbEntity
  8
0
420
3133391
100
AcDbLine
 10
-36.81245526846777
 20
92.97764858882515
 30
0.0
 11
-68.45471059286884
 21
72.89686274214117
 31
0.0
  0
LINE
  5
205
330
17
100
AcDbEntity
  8
0
420
3002833
100
AcDbLine
 10
-35.641187871325045
 20
93.43289424566122
 30
0.0
 11
-66.60118674342512
 21
74.59411454241825
 31
0.0
  0
LINE
  5
206
330
17
100
AcDbEntity
  8
0
420
2937554
100
AcDbLine
 10
-34.46429231745167
 20
93.87338576538741
 30
0.0
 11
-64.70559615694438
 21
76.24425110114484
 31
0.0
  0
LINE
  5
207
330
17
100
AcDbEntity
  8
0
420
2806996
100
AcDbLine
 10
-33.281954452298606
 20
94.29905358928646
 30
0.0
 11
-62.76913612906997
 21
77.84623015670242
 31
0.0
  0
LINE
  5
208
330
17
100
AcDbEntity
  8
0
420
2741717
100
AcDbLine
 10
-32.09436098072089
 20
94.70983049947445
 30
0.0
 11
-60.793029769460446
 21
79.3990398647836
 31
0.0
  0
LINE
  5
209
330
17
100
AcDbEntity
  8
0
420
2611159
100
AcDbLine
 10
-30.901699437494756
 20
95.10565162951535
 30
0.0
 11
-58.77852522924735
 21
80.90169943749473
 31
0.0
  0
LINE
  5
20A
330
17
100
AcDbEntity
  8
0
420
2545880
100
AcDbLine
 10
-29.704158157703496
 20
95.4864544746643
 30
0.0
 11
-56.72689491267566
 21
82.35325976284273
 31
0.0
  0
LINE
  5
20B
330
17
100
AcDbEntity
  8
0
420
2415322
100
AcDbLine
 10
-28.501926246997606
 20
95.85217890173759
 30
0.0
 11
-54.63943467342691
 21
83.75280400421417
 31
0.0
  0
LINE
  5
20C
330
17
100
AcDbEntity
  8
0
420
2350043
100
AcDbLine
 10
-27.295193551732506
 20
96.2027671586086
 30
0.0
 11
-52.51746299612955
 21
85.09944817946919
 31
0.0
  0
LINE
  5
20D
330
17
100
AcDbEntity
  8
0
420
2219485
100
AcDbLine
 10
-26.084150628989665
 20
96.53816388332739
 30
0.0
 11
-50.362320163576044
 21
86.39234171928355
 31
0.0
  0
LINE
  5
20E
330
17
100
AcDbEntity
  8
0
420
2088927
100
AcDbLine
 10
-24.868988716485443
 20
96.85831611286312
 30
0.0
 11
-48.17536741017147
 21
87.6306680043864
 31
0.0
  0
LINE
  5
20F
330
17
100
AcDbEntity
  8
0
420
2023648
100
AcDbLine
 10
-23.649899702372416
 20
97.1631732914674
 30
0.0
 11
-45.957986062148706
 21
88.81364488135449
 31
0.0
  0
LINE
  5
210
330
17
100
AcDbEntity
  8
0
420
1893090
100
AcDbLine
 10
-22.427076094938062
 20
97.45268727865772
 30
0.0
 11
-43.71157666509319
 21
89.94052515663715
 31
0.0
  0
LINE
  5
211
330
17
100
AcDbEntity
  8
0
420
1762532
100
AcDbLine
 10
-21.20071099220548
 20
97.72681235681934
 30
0.0
 11
-41.43755809932846
 21
91.01059706849955
 31
0.0
  0
LINE
  5
212
330
17
100
AcDbEntity
  8
0
420
1697253
100
AcDbLine
 10
-19.97099805144071
 20
97.98550523842468
 30
0.0
 11
-39.137366683720266
 21
92.02318473658703
 31
0.0
  0
LINE
  5
213
330
17
100
AcDbEntity
  8
0
420
1566695
100
AcDbLine
 10
-18.738131458572465
 20
98.22872507286888
 30
0.0
 11
-36.8124552684678
 21
92.97764858882513
 31
0.0
  0
LINE
  5
214
330
17
100
AcDbEntity
  8
0
420
1501416
100
AcDbLine
 10
-17.502305897527588
 20
98.45643345292055
 30
0.0
 11
-34.46429231745169
 21
93.87338576538741
 31
0.0
  0
LINE
  5
215
330
17
100
AcDbEntity
  8
0
420
1370858
100
AcDbLine
 10
-16.263716519488344
 20
98.66859442078682
 30
0.0
 11
-32.094360980720914
 21
94.70983049947445
 31
0.0
  0
LINE
  5
216
330
17
100
AcDbEntity
  8
0
420
1305579
100
AcDbLine
 10
-15.022558912075667
 20
98.86517447379141
 30
0.0
 11
-29.704158157703432
 21
95.48645447466431
 31
0.0
  0
LINE
  5
217
330
17
100
AcDbEntity
  8
0
420
1175021
100
AcDbLine
 10
-13.77902906846376
 20
99.04614256966512
 30
0.0
 11
-27.295193551732456
 21
96.20276715860861
 31
0.0
  0
LINE
  5
218
330
17
100
AcDbEntity
  8
0
420
1044463
100
AcDbLine
 10
-12.533323356430378
 20
99.21147013144778
 30
0.0
 11
-24.868988716485386
 21
96.85831611286314
 31
0.0
  0
LINE
  5
219
330
17
100
AcDbEntity
  8
0
420
979184
100
AcDbLine
 10
-11.285638487348107
 20
99.36113105200084
 30
0.0
 11
-22.42707609493799
 21
97.45268727865773
 31
0.0
  0
LINE
  5
21A
330
17
100
AcDbEntity
  8
0
420
848626
100
AcDbLine
 10
-10.0361714851215
 20
99.49510169813001
 30
0.0
 11
-19.970998051440738
 21
97.98550523842468
 31
0.0
  0
LINE
  5
21B
330
17
100
AcDbEntity
  8
0
420
783347
100
AcDbLine
 10
-8.785119655074327
 20
99.61336091431725
 30
0.0
 11
-17.502305897527616
 21
98.45643345292054
 31
0.0
  0
LINE
  5
21C
330
17
100
AcDbEntity
  8
0
420
652789
100
AcDbLine
 10
-7.532680552793264
 20
99.7158900260614
 30
0.0
 11
-15.022558912075695
 21
98.86517447379141
 31
0.0
  0
LINE
  5
21D
330
17
100
AcDbEntity
  8
0
420
522231
100
AcDbLine
 10
-6.279051952931318
 20
99.80267284282715
 30
0.0
 11
-12.533323356430392
 21
99.21147013144778
 31
0.0
  0
LINE
  5
21E
330
17
100
AcDbEntity
  8
0
420
456952
100
AcDbLine
 10
-5.024431817976928
 20
99.87369566060174
 30
0.0
 11
-10.036171485121434
 21
99.49510169813001
 31
0.0
  0
LINE
  5
21F
330
17
100
AcDbEntity
  8
0
420
326394
100
AcDbLine
 10
-3.769018266993419
 20
99.92894726405893
 30
0.0
 11
-7.532680552793196
 21
99.7158900260614
 31
0.0
  0
LINE
  5
220
330
17
100
AcDbEntity
  8
0
420
261115
100
AcDbLine
 10
-2.5130095443337033
 20
99.96841892833001
 30
0.0
 11
-5.0244318179768594
 21
99.87369566060175
 31
0.0
  0
LINE
  5
221
330
17
100
AcDbEntity
  8
0
420
130557
100
AcDbLine
 10
-1.2566039883352023
 20
99.99210442038161
 30
0.0
 11
-2.5130095443336353
 21
99.96841892833001
 31
0.0
  0
ENDSEC
  0
SECTION
  2
OBJECTS
  0
DICTIONARY
  5
A
330
0
100
AcDbDictionary
281
1
  3
ACAD_COLOR
350
B
  3
ACAD_GROUP
350
C
  3
ACAD_LAYOUT
350
D
  3
ACAD_MATERIAL
350
E
  3
ACAD_MLEADERSTYLE
350
F
  3
ACAD_MLINESTYLE
350
10
  3
ACAD_PLOTSETTINGS
350
11
  3
ACAD_PLOTSTYLENAME
350
12
  3
ACAD_SCALELIST
350
14
  3
ACAD_TABLESTYLE
350
15
  3
ACAD_VISUALSTYLE
350
16
  0
DICTIONARY
  5
B
330
A
100
AcDbDictionary
281
1
  0
DICTIONARY
  5
C
330
A
100
AcDbDictionary
281
1
  0
DICTIONARY
  5
D
330
A
100
AcDbDictionary
281
1
  3
Model
350
1A
  3
Layout1
350
1E
  0
DICTIONARY
  5
E
330
A
100
AcDbDictionary
281
1
  3
ByBlock
350
1F
  3
ByLayer
350
20
  3
Global
350
21
  0
DICTIONARY
  5
F
330
A
100
AcDbDictionary
281
1
  3
Standard
350
2C
  0
DICTIONARY
  5
10
330
A
100
AcDbDictionary
281
1
  3
Standard
350
22
  0
DICTIONARY
  5
11
330
A
100
AcDbDictionary
281
1
  0
ACDBDICTIONARYWDFLT
  5
12
330
A
100
AcDbDictionary
281
1
  3
Normal
350
13
100
AcDbDictionaryWithDefault
340
13
  0
ACDBPLACEHOLDER
  5
13
330
12
  0
DICTIONARY
  5
14
330
A
100
AcDbDictionary
281
1
  0
DICTIONARY
  5
15
330
A
100
AcDbDictionary
281
1
  0
DICTIONARY
  5
16
330
A
100
AcDbDictionary
281
1
  0
LAYOUT
  5
1A
330
D
100
AcDbPlotSettings
  1

  2
Adobe PDF
  4
A4
  6

 40
3.175
 41
3.175
 42
3.175
 43
3.175
 44
209.91
 45
297.03
 46
0.0
 47
0.0
 48
0.0
 49
0.0
140
0.0
141
0.0
142
1.0
143
1.0
 70
688
 72
0
 73
1
 74
5
  7

 75
16
 76
0
 77
2
 78
300
147
1.0
148
0.0
149
0.0
100
AcDbLayout
  1
Model
 70
1
 71
0
 10
-3.175
 20
-3.175
 11
293.857
 21
206.735
 12
0.0
 22
0.0
 32
0.0
 14
29.068
 24
20.356
 34
0.0
 15
261.614
 25
183.204
 35
0.0
146
0.0
 13
0.0
 23
0.0
 33
0.0
 16
1.0
 26
0.0
 36
0.0
 17
0.0
 27
1.0
 37
0.0
 76
1
330
17
  0
LAYOUT
  5
1E
330
D
100
AcDbPlotSettings
  1

  2
Adobe PDF
  4
A4
  6

 40
3.175
 41
3.175
 42
3.175
 43
3.175
 44
209.91
 45
297.03
 46
0.0
 47
0.0
 48
0.0
 49
0.0
140
0.0
141
0.0
142
1.0
143
1.0
 70
688
 72
0
 73
1
 74
5
  7

 75
16
 76
0
 77
2
 78
300
147
1.0
148
0.0
149
0.0
100
AcDbLayout
  1
Layout1
 70
1
 71
1
 10
-3.175
 20
-3.175
 11
293.857
 21
206.735
 12
0.0
 22
0.0
 32
0.0
 14
29.068
 24
20.356
 34
0.0
 15
261.614
 25
183.204
 35
0.0
146
0.0
 13
0.0
 23
0.0
 33
0.0
 16
1.0
 26
0.0
 36
0.0
 17
0.0
 27
1.0
 37
0.0
 76
1
330
1B
  0
MATERIAL
  5
1F
102
{ACAD_REACTORS
330
E
102
}
330
E
100
AcDbMaterial
  1
ByBlock
  2

 70
0
 40
1.0
 71
1
 41
1.0
 91
-1023410177
 42
1.0
 72
1
  3

 73
1
 74
1
 75
1
 44
0.5
 73
0
 45
1.0
 46
1.0
 77
1
  4

 78
1
 79
1
170
1
 48
1.0
171
1
  6

172
1
173
1
174
1
140
1.0
141
1.0
175
1
  7

176
1
177
1
178
1
143
1.0
179
1
  8

270
1
271
1
272
1
145
1.0
146
1.0
273
1
  9

274
1
275
1
276
1
 42
1.0
 72
1
  3

 73
1
 74
1
 75
1
 94
63
  0
MATERIAL
  5
20
102
{ACAD_REACTORS
330
E
102
}
330
E
100
AcDbMaterial
  1
ByLayer
  2

 70
0
 40
1.0
 71
1
 41
1.0
 91
-1023410177
 42
1.0
 72
1
  3

 73
1
 74
1
 75
1
 44
0.5
 73
0
 45
1.0
 46
1.0
 77
1
  4

 78
1
 79
1
170
1
 48
1.0
171
1
  6

172
1
173
1
174
1
140
1.0
141
1.0
175
1
  7

176
1
177
1
178
1
143
1.0
179
1
  8

270
1
271
1
272
1
145
1.0
146
1.0
273
1
  9

274
1
275
1
276
1
 42
1.0
 72
1
  3

 73
1
 74
1
 75
1
 94
63
  0
MATERIAL
  5
21
102
{ACAD_REACTORS
330
E
102
}
330
E
100
AcDbMaterial
  1
Global
  2

 70
0
 40
1.0
 71
1
 41
1.0
 91
-1023410177
 42
1.0
 72
1
  3

 73
1
 74
1
 75
1
 44
0.5
 73
0
 45
1.0
 46
1.0
 77
1
  4

 78
1
 79
1
170
1
 48
1.0
171
1
  6

172
1
173
1
174
1
140
1.0
141
1.0
175
1
  7

176
1
177
1
178
1
143
1.0
179
1
  8

270
1
271
1
272
1
145
1.0
146
1.0
273
1
  9

274
1
275
1
276
1
 42
1.0
 72
1
  3

 73
1
 74
1
 75
1
 94
63
  0
MLINESTYLE
  5
22
102
{ACAD_REACTORS
330
10
102
}
330
10
100
AcDbMlineStyle
  2
Standard
 70
0
  3

 62
256
 51
90.0
 52
90.0
 71
2
 49
0.5
 62
256
  6
BYLAYER
 49
-0.5
 62
256
  6
BYLAYER
  0
MLEADERSTYLE
  5
2C
102
{ACAD_REACTORS
330
F
102
}
330
F
100
AcDbMLeaderStyle
179
2
170
2
171
1
172
0
 90
2
 40
0.0
 41
0.0
173
1
 91
-1056964608
 92
-2
290
1
 42
2.0
291
1
 43
8.0
  3
Standard
 44
4.0
300

342
29
174
1
175
1
176
0
178
1
 93
-1056964608
 45
4.0
292
0
297
0
 46
4.0
 94
-1056964608
 47
1.0
 49
0.0
140
1.0
294
1
141
0.0
177
0
142
1.0
295
0
296
0
143
3.75
271
0
272
9
272
9
  0
ENDSEC
  0
EOF
